M48
;DRILL file {KiCad (5.0.2)-1} date 2019-06-23 01:10:20
;FORMAT={-:-/ absolute / inch / decimal}
FMAT,2
INCH,TZ
T1C0.0157
T2C0.0197
T3C0.0276
T4C0.0299
T5C0.0394
T6C0.1063
%
G90
G05
T1
X2.8771Y-1.5431
X3.0611Y-1.6613
X3.1547Y-1.8774
X3.2029Y-2.3748
X3.2185Y-1.6037
X3.2487Y-1.745
X3.2865Y-1.8756
X3.2865Y-2.0444
X3.3042Y-1.5399
X3.3132Y-1.7455
X3.3901Y-1.7661
X3.4175Y-1.8776
X3.4517Y-1.8263
X3.4941Y-2.2536
X3.4962Y-1.6693
X3.5448Y-1.6356
X3.6979Y-2.6411
X3.8037Y-2.5976
X3.8341Y-2.4854
X3.8354Y-2.3819
X3.8489Y-2.1181
X3.9433Y-2.5426
X3.9436Y-2.5841
X3.9497Y-2.4844
X4.104Y-1.1513
X4.1557Y-2.5163
X4.1844Y-2.5464
T2
X1.9281Y-3.2087
X1.9515Y-3.1523
X1.9515Y-3.265
X2.0079Y-3.1289
X2.0079Y-3.2884
X2.0642Y-3.1523
X2.0642Y-3.265
X2.0876Y-3.2087
X4.2116Y-3.2087
X4.235Y-3.1523
X4.235Y-3.265
X4.2913Y-3.1289
X4.2913Y-3.2884
X4.3477Y-3.1523
X4.3477Y-3.265
X4.3711Y-3.2087
X1.9281Y-1.2795
X1.9515Y-1.2232
X1.9515Y-1.3359
X2.0079Y-1.1998
X2.0079Y-1.3593
X2.0642Y-1.2232
X2.0642Y-1.3359
X2.0876Y-1.2795
X4.2116Y-1.2795
X4.235Y-1.2232
X4.235Y-1.3359
X4.2913Y-1.1998
X4.2913Y-1.3593
X4.3477Y-1.2232
X4.3477Y-1.3359
X4.3711Y-1.2795
X1.9281Y-2.185
X1.9515Y-2.1287
X1.9515Y-2.2414
X2.0079Y-2.1053
X2.0079Y-2.2648
X2.0642Y-2.1287
X2.0642Y-2.2414
X2.0876Y-2.185
T3
X4.3209Y-1.4965
X4.3209Y-1.6965
X4.3209Y-1.8965
X4.3209Y-2.0965
X4.3209Y-2.3134
X4.3209Y-2.5134
X4.3209Y-2.7134
X4.3209Y-2.9134
T4
X3.5728Y-2.9921
X3.6228Y-2.8921
X3.6728Y-2.9921
X3.7228Y-2.8921
X3.7728Y-2.9921
X3.8228Y-2.8921
X3.8728Y-2.9921
X3.9228Y-2.8921
X2.9331Y-2.9921
X2.9831Y-2.8921
X3.0331Y-2.9921
X3.0831Y-2.8921
X3.1331Y-2.9921
X3.1831Y-2.8921
X3.2331Y-2.9921
X3.2831Y-2.8921
X2.2244Y-2.5591
X2.2244Y-2.6591
X2.2244Y-2.7591
X2.2244Y-2.8591
X2.3244Y-2.6091
X2.3244Y-2.7091
X2.3244Y-2.8091
X2.3244Y-2.9091
X2.2244Y-1.5748
X2.2244Y-1.6748
X2.2244Y-1.7748
X2.2244Y-1.8748
X2.3244Y-1.6248
X2.3244Y-1.7248
X2.3244Y-1.8248
X2.3244Y-1.9248
T5
X2.4606Y-1.4862
X2.4606Y-1.5862
X2.4606Y-1.6862
X2.4606Y-1.7862
X2.4606Y-1.8862
X2.4606Y-1.9862
X2.4606Y-2.0862
X2.4606Y-2.1862
X2.5606Y-1.4862
X2.5606Y-1.5862
X2.5606Y-1.6862
X2.5606Y-1.7862
X2.5606Y-1.8862
X2.5606Y-1.9862
X2.5606Y-2.0862
X2.5606Y-2.1862
X2.4606Y-2.3622
X2.4606Y-2.4622
X2.4606Y-2.5622
X2.4606Y-2.6622
X2.4606Y-2.7622
X2.4606Y-2.8622
X2.4606Y-2.9622
X2.4606Y-3.0622
X2.5606Y-2.3622
X2.5606Y-2.4622
X2.5606Y-2.5622
X2.5606Y-2.6622
X2.5606Y-2.7622
X2.5606Y-2.8622
X2.5606Y-2.9622
X2.5606Y-3.0622
X3.0315Y-2.6362
X3.0315Y-2.7362
X3.1315Y-2.6362
X3.1315Y-2.7362
X3.2315Y-2.6362
X3.2315Y-2.7362
X2.2047Y-1.2386
X2.2047Y-1.3386
X2.3047Y-1.2386
X2.3047Y-1.3386
X2.4047Y-1.2386
X2.4047Y-1.3386
X2.5047Y-1.2386
X2.5047Y-1.3386
X2.6047Y-1.2386
X2.6047Y-1.3386
X2.7047Y-1.2386
X2.7047Y-1.3386
X2.8047Y-1.2386
X2.8047Y-1.3386
X2.9047Y-1.2386
X2.9047Y-1.3386
X3.0047Y-1.2386
X3.0047Y-1.3386
X3.1047Y-1.2386
X3.1047Y-1.3386
X3.2047Y-1.2386
X3.2047Y-1.3386
X3.3047Y-1.2386
X3.3047Y-1.3386
X3.4047Y-1.2386
X3.4047Y-1.3386
X3.5047Y-1.2386
X3.5047Y-1.3386
X3.6047Y-1.2386
X3.6047Y-1.3386
X3.7047Y-1.2386
X3.7047Y-1.3386
X3.8047Y-1.2386
X3.8047Y-1.3386
X3.9047Y-1.2386
X3.9047Y-1.3386
X4.0047Y-1.2386
X4.0047Y-1.3386
X4.1047Y-1.2386
X4.1047Y-1.3386
X3.376Y-2.6362
X3.376Y-2.7362
X3.476Y-2.6362
X3.476Y-2.7362
X3.576Y-2.6362
X3.576Y-2.7362
T6
X4.2913Y-3.2087
X2.0079Y-1.2795
X4.2913Y-1.2795
X2.0079Y-2.185
X2.0079Y-3.2087
T0
M30
