G04 #@! TF.GenerationSoftware,KiCad,Pcbnew,(5.0.2)-1*
G04 #@! TF.CreationDate,2019-06-23T01:10:28-04:00*
G04 #@! TF.ProjectId,RPi-Ham,5250692d-4861-46d2-9e6b-696361645f70,rev?*
G04 #@! TF.SameCoordinates,Original*
G04 #@! TF.FileFunction,Legend,Bot*
G04 #@! TF.FilePolarity,Positive*
%FSLAX46Y46*%
G04 Gerber Fmt 4.6, Leading zero omitted, Abs format (unit mm)*
G04 Created by KiCad (PCBNEW (5.0.2)-1) date 2019-06-23 01:10:28*
%MOMM*%
%LPD*%
G01*
G04 APERTURE LIST*
%ADD10C,0.300000*%
%ADD11C,0.010000*%
%ADD12C,0.120000*%
%ADD13C,0.150000*%
G04 APERTURE END LIST*
D10*
X55428571Y-42642857D02*
X53928571Y-42642857D01*
X54642857Y-42642857D02*
X54642857Y-43500000D01*
X55428571Y-43500000D02*
X53928571Y-43500000D01*
X55000000Y-44142857D02*
X55000000Y-44857142D01*
X55428571Y-44000000D02*
X53928571Y-44500000D01*
X55428571Y-45000000D01*
X55428571Y-45500000D02*
X53928571Y-45500000D01*
X55000000Y-46000000D01*
X53928571Y-46500000D01*
X55428571Y-46500000D01*
X55428571Y-49214285D02*
X54714285Y-48714285D01*
X55428571Y-48357142D02*
X53928571Y-48357142D01*
X53928571Y-48928571D01*
X54000000Y-49071428D01*
X54071428Y-49142857D01*
X54214285Y-49214285D01*
X54428571Y-49214285D01*
X54571428Y-49142857D01*
X54642857Y-49071428D01*
X54714285Y-48928571D01*
X54714285Y-48357142D01*
X55428571Y-50500000D02*
X54642857Y-50500000D01*
X54500000Y-50428571D01*
X54428571Y-50285714D01*
X54428571Y-50000000D01*
X54500000Y-49857142D01*
X55357142Y-50500000D02*
X55428571Y-50357142D01*
X55428571Y-50000000D01*
X55357142Y-49857142D01*
X55214285Y-49785714D01*
X55071428Y-49785714D01*
X54928571Y-49857142D01*
X54857142Y-50000000D01*
X54857142Y-50357142D01*
X54785714Y-50500000D01*
X55428571Y-51857142D02*
X53928571Y-51857142D01*
X55357142Y-51857142D02*
X55428571Y-51714285D01*
X55428571Y-51428571D01*
X55357142Y-51285714D01*
X55285714Y-51214285D01*
X55142857Y-51142857D01*
X54714285Y-51142857D01*
X54571428Y-51214285D01*
X54500000Y-51285714D01*
X54428571Y-51428571D01*
X54428571Y-51714285D01*
X54500000Y-51857142D01*
X55428571Y-52571428D02*
X54428571Y-52571428D01*
X53928571Y-52571428D02*
X54000000Y-52500000D01*
X54071428Y-52571428D01*
X54000000Y-52642857D01*
X53928571Y-52571428D01*
X54071428Y-52571428D01*
X55428571Y-53500000D02*
X55357142Y-53357142D01*
X55285714Y-53285714D01*
X55142857Y-53214285D01*
X54714285Y-53214285D01*
X54571428Y-53285714D01*
X54500000Y-53357142D01*
X54428571Y-53500000D01*
X54428571Y-53714285D01*
X54500000Y-53857142D01*
X54571428Y-53928571D01*
X54714285Y-54000000D01*
X55142857Y-54000000D01*
X55285714Y-53928571D01*
X55357142Y-53857142D01*
X55428571Y-53714285D01*
X55428571Y-53500000D01*
X55428571Y-55785714D02*
X53928571Y-55785714D01*
X54428571Y-56500000D02*
X55428571Y-56500000D01*
X54571428Y-56500000D02*
X54500000Y-56571428D01*
X54428571Y-56714285D01*
X54428571Y-56928571D01*
X54500000Y-57071428D01*
X54642857Y-57142857D01*
X55428571Y-57142857D01*
X54428571Y-57642857D02*
X54428571Y-58214285D01*
X53928571Y-57857142D02*
X55214285Y-57857142D01*
X55357142Y-57928571D01*
X55428571Y-58071428D01*
X55428571Y-58214285D01*
X55357142Y-59285714D02*
X55428571Y-59142857D01*
X55428571Y-58857142D01*
X55357142Y-58714285D01*
X55214285Y-58642857D01*
X54642857Y-58642857D01*
X54500000Y-58714285D01*
X54428571Y-58857142D01*
X54428571Y-59142857D01*
X54500000Y-59285714D01*
X54642857Y-59357142D01*
X54785714Y-59357142D01*
X54928571Y-58642857D01*
X55428571Y-59999999D02*
X54428571Y-59999999D01*
X54714285Y-59999999D02*
X54571428Y-60071428D01*
X54500000Y-60142857D01*
X54428571Y-60285714D01*
X54428571Y-60428571D01*
X54428571Y-60714285D02*
X54428571Y-61285714D01*
X55428571Y-60928571D02*
X54142857Y-60928571D01*
X54000000Y-61000000D01*
X53928571Y-61142857D01*
X53928571Y-61285714D01*
X55428571Y-62428571D02*
X54642857Y-62428571D01*
X54500000Y-62357142D01*
X54428571Y-62214285D01*
X54428571Y-61928571D01*
X54500000Y-61785714D01*
X55357142Y-62428571D02*
X55428571Y-62285714D01*
X55428571Y-61928571D01*
X55357142Y-61785714D01*
X55214285Y-61714285D01*
X55071428Y-61714285D01*
X54928571Y-61785714D01*
X54857142Y-61928571D01*
X54857142Y-62285714D01*
X54785714Y-62428571D01*
X55357142Y-63785714D02*
X55428571Y-63642857D01*
X55428571Y-63357142D01*
X55357142Y-63214285D01*
X55285714Y-63142857D01*
X55142857Y-63071428D01*
X54714285Y-63071428D01*
X54571428Y-63142857D01*
X54500000Y-63214285D01*
X54428571Y-63357142D01*
X54428571Y-63642857D01*
X54500000Y-63785714D01*
X55357142Y-64999999D02*
X55428571Y-64857142D01*
X55428571Y-64571428D01*
X55357142Y-64428571D01*
X55214285Y-64357142D01*
X54642857Y-64357142D01*
X54500000Y-64428571D01*
X54428571Y-64571428D01*
X54428571Y-64857142D01*
X54500000Y-64999999D01*
X54642857Y-65071428D01*
X54785714Y-65071428D01*
X54928571Y-64357142D01*
X54428571Y-66714285D02*
X55428571Y-67071428D01*
X54428571Y-67428571D01*
X55428571Y-68785714D02*
X55428571Y-67928571D01*
X55428571Y-68357142D02*
X53928571Y-68357142D01*
X54142857Y-68214285D01*
X54285714Y-68071428D01*
X54357142Y-67928571D01*
X55285714Y-69428571D02*
X55357142Y-69500000D01*
X55428571Y-69428571D01*
X55357142Y-69357142D01*
X55285714Y-69428571D01*
X55428571Y-69428571D01*
X53928571Y-70428571D02*
X53928571Y-70571428D01*
X54000000Y-70714285D01*
X54071428Y-70785714D01*
X54214285Y-70857142D01*
X54500000Y-70928571D01*
X54857142Y-70928571D01*
X55142857Y-70857142D01*
X55285714Y-70785714D01*
X55357142Y-70714285D01*
X55428571Y-70571428D01*
X55428571Y-70428571D01*
X55357142Y-70285714D01*
X55285714Y-70214285D01*
X55142857Y-70142857D01*
X54857142Y-70071428D01*
X54500000Y-70071428D01*
X54214285Y-70142857D01*
X54071428Y-70214285D01*
X54000000Y-70285714D01*
X53928571Y-70428571D01*
D11*
G04 #@! TO.C,G\002A\002A\002A*
G36*
X72696202Y-50909572D02*
X72698089Y-51212905D01*
X72701823Y-51506316D01*
X72707406Y-51783276D01*
X72714838Y-52037260D01*
X72724118Y-52261741D01*
X72734760Y-52443333D01*
X72805783Y-53314615D01*
X72893782Y-54150110D01*
X72999366Y-54953069D01*
X73123139Y-55726745D01*
X73265709Y-56474391D01*
X73427681Y-57199257D01*
X73609663Y-57904597D01*
X73812261Y-58593662D01*
X73973997Y-59089666D01*
X74114194Y-59487590D01*
X74257401Y-59862996D01*
X74409641Y-60230532D01*
X74576937Y-60604847D01*
X74729102Y-60926134D01*
X74926494Y-61333852D01*
X80785789Y-61328301D01*
X86645083Y-61322750D01*
X86941416Y-61264313D01*
X87642553Y-61104573D01*
X88331524Y-60904469D01*
X89007187Y-60664511D01*
X89668401Y-60385208D01*
X90314024Y-60067068D01*
X90942915Y-59710600D01*
X91553932Y-59316315D01*
X91957916Y-59027390D01*
X92526525Y-58577659D01*
X93068784Y-58095102D01*
X93584276Y-57580353D01*
X94072581Y-57034050D01*
X94533283Y-56456827D01*
X94965961Y-55849320D01*
X95370199Y-55212165D01*
X95745578Y-54545997D01*
X96091678Y-53851452D01*
X96408083Y-53129165D01*
X96694374Y-52379772D01*
X96950132Y-51603909D01*
X97036752Y-51310916D01*
X97083896Y-51146116D01*
X97120442Y-51016947D01*
X97147572Y-50918379D01*
X97166469Y-50845382D01*
X97178315Y-50792924D01*
X97184291Y-50755976D01*
X97185580Y-50729508D01*
X97183363Y-50708489D01*
X97180999Y-50697083D01*
X97172518Y-50665124D01*
X97154093Y-50598895D01*
X97127533Y-50504795D01*
X97094649Y-50389224D01*
X97057252Y-50258580D01*
X97037276Y-50189083D01*
X96791130Y-49400366D01*
X96514621Y-48638625D01*
X96208111Y-47904408D01*
X95871960Y-47198265D01*
X95506531Y-46520742D01*
X95506393Y-46520516D01*
X95506393Y-47194000D01*
X95676586Y-47548541D01*
X96003801Y-48271793D01*
X96298719Y-49009658D01*
X96516660Y-49628166D01*
X96569108Y-49788704D01*
X96619844Y-49947537D01*
X96667156Y-50098987D01*
X96709333Y-50237376D01*
X96744663Y-50357026D01*
X96771436Y-50452261D01*
X96787941Y-50517402D01*
X96792582Y-50543625D01*
X96791251Y-50549157D01*
X96785182Y-50554110D01*
X96772170Y-50558517D01*
X96750011Y-50562410D01*
X96716499Y-50565819D01*
X96669428Y-50568777D01*
X96606593Y-50571316D01*
X96525790Y-50573467D01*
X96424812Y-50575263D01*
X96301455Y-50576735D01*
X96153513Y-50577914D01*
X95978781Y-50578834D01*
X95891214Y-50579131D01*
X95891214Y-50919333D01*
X96342857Y-50919333D01*
X96505796Y-50920077D01*
X96629359Y-50922415D01*
X96716478Y-50926504D01*
X96770084Y-50932502D01*
X96793111Y-50940567D01*
X96794500Y-50943617D01*
X96788762Y-50971392D01*
X96772928Y-51032170D01*
X96749066Y-51118406D01*
X96719244Y-51222555D01*
X96700215Y-51287575D01*
X96444910Y-52086185D01*
X96158355Y-52856808D01*
X95840654Y-53599215D01*
X95491910Y-54313180D01*
X95112227Y-54998473D01*
X94746735Y-55586583D01*
X94347585Y-56160361D01*
X93916524Y-56713170D01*
X93456898Y-57241416D01*
X92972053Y-57741504D01*
X92465334Y-58209840D01*
X91940086Y-58642830D01*
X91808939Y-58743124D01*
X91261135Y-59132104D01*
X90691830Y-59490793D01*
X90104722Y-59817517D01*
X89503512Y-60110600D01*
X88891898Y-60368368D01*
X88273581Y-60589146D01*
X87652259Y-60771258D01*
X87031632Y-60913030D01*
X87004916Y-60918216D01*
X86815590Y-60952681D01*
X86645693Y-60978521D01*
X86484669Y-60996478D01*
X86321963Y-61007292D01*
X86147017Y-61011707D01*
X85949277Y-61010462D01*
X85760250Y-61005662D01*
X85256417Y-60989859D01*
X85391410Y-60942689D01*
X85534412Y-60886173D01*
X85658192Y-60820834D01*
X85775074Y-60738698D01*
X85897379Y-60631791D01*
X85948952Y-60581916D01*
X86039993Y-60489090D01*
X86107291Y-60411974D01*
X86159539Y-60339077D01*
X86205432Y-60258907D01*
X86229200Y-60211500D01*
X86270183Y-60125609D01*
X86303423Y-60049981D01*
X86329801Y-59978799D01*
X86350198Y-59906247D01*
X86365494Y-59826506D01*
X86376569Y-59733760D01*
X86384306Y-59622191D01*
X86389584Y-59485983D01*
X86393284Y-59319319D01*
X86396287Y-59116381D01*
X86396409Y-59107062D01*
X86405228Y-58436541D01*
X86969655Y-58429629D01*
X87534083Y-58422718D01*
X87719529Y-58356465D01*
X87883302Y-58291139D01*
X88021781Y-58218635D01*
X88148733Y-58130164D01*
X88277925Y-58016937D01*
X88328224Y-57967833D01*
X88487291Y-57786823D01*
X88606822Y-57598500D01*
X88689113Y-57397292D01*
X88736458Y-57177629D01*
X88751166Y-56941250D01*
X88731379Y-56686496D01*
X88673186Y-56446955D01*
X88578339Y-56225440D01*
X88448588Y-56024767D01*
X88285686Y-55847748D01*
X88091383Y-55697198D01*
X87915083Y-55597982D01*
X87821379Y-55555068D01*
X87733729Y-55521119D01*
X87645384Y-55495122D01*
X87549596Y-55476067D01*
X87439617Y-55462941D01*
X87308699Y-55454733D01*
X87150095Y-55450431D01*
X86957055Y-55449024D01*
X86921363Y-55449000D01*
X86401666Y-55449000D01*
X86401666Y-52252833D01*
X90317500Y-52252833D01*
X90317648Y-52755541D01*
X90319159Y-52958421D01*
X90324187Y-53125999D01*
X90333673Y-53265228D01*
X90348558Y-53383059D01*
X90369782Y-53486446D01*
X90398287Y-53582342D01*
X90435011Y-53677699D01*
X90445798Y-53702750D01*
X90542950Y-53884072D01*
X90669717Y-54059050D01*
X90817595Y-54218348D01*
X90978079Y-54352630D01*
X91116905Y-54439526D01*
X91273476Y-54512661D01*
X91424441Y-54561874D01*
X91582592Y-54589841D01*
X91760720Y-54599237D01*
X91871805Y-54597460D01*
X91993531Y-54592201D01*
X92085391Y-54584768D01*
X92159849Y-54573088D01*
X92229373Y-54555086D01*
X92306427Y-54528691D01*
X92323531Y-54522337D01*
X92550222Y-54415804D01*
X92753531Y-54276334D01*
X92930152Y-54107577D01*
X93076780Y-53913182D01*
X93190107Y-53696798D01*
X93260333Y-53488474D01*
X93273616Y-53431551D01*
X93283797Y-53373405D01*
X93291271Y-53307433D01*
X93296432Y-53227033D01*
X93299674Y-53125601D01*
X93301393Y-52996536D01*
X93301982Y-52833236D01*
X93302000Y-52790970D01*
X93302000Y-52256379D01*
X93984625Y-52247982D01*
X94174561Y-52245495D01*
X94327486Y-52242962D01*
X94448722Y-52240020D01*
X94543589Y-52236305D01*
X94617409Y-52231453D01*
X94675502Y-52225101D01*
X94723190Y-52216885D01*
X94765795Y-52206442D01*
X94808636Y-52193407D01*
X94815416Y-52191204D01*
X94994805Y-52124167D01*
X95146954Y-52046355D01*
X95286037Y-51949020D01*
X95426227Y-51823417D01*
X95450761Y-51799053D01*
X95587830Y-51647944D01*
X95692283Y-51499392D01*
X95771135Y-51341068D01*
X95831399Y-51160642D01*
X95845884Y-51104541D01*
X95891214Y-50919333D01*
X95891214Y-50579131D01*
X95775054Y-50579525D01*
X95540126Y-50580019D01*
X95271792Y-50580349D01*
X94967847Y-50580545D01*
X94626085Y-50580640D01*
X94244302Y-50580666D01*
X91655213Y-50580666D01*
X90441727Y-49305375D01*
X90244312Y-49097928D01*
X90046717Y-48890338D01*
X89852133Y-48685953D01*
X89663749Y-48488122D01*
X89484756Y-48300195D01*
X89318344Y-48125519D01*
X89167703Y-47967444D01*
X89036024Y-47829319D01*
X88926497Y-47714493D01*
X88842311Y-47626316D01*
X88828670Y-47612041D01*
X88429099Y-47194000D01*
X95506393Y-47194000D01*
X95506393Y-46520516D01*
X95112183Y-45872390D01*
X94689279Y-45253756D01*
X94238178Y-44665389D01*
X93759243Y-44107837D01*
X93252833Y-43581649D01*
X92719311Y-43087373D01*
X92159037Y-42625559D01*
X91957916Y-42472609D01*
X91359682Y-42052942D01*
X90742800Y-41670749D01*
X90108410Y-41326537D01*
X89457654Y-41020817D01*
X88791675Y-40754096D01*
X88111612Y-40526884D01*
X87418609Y-40339691D01*
X86941416Y-40235686D01*
X86645083Y-40177250D01*
X84198817Y-40174948D01*
X84198817Y-40484166D01*
X84562713Y-40484185D01*
X84887178Y-40484321D01*
X85175117Y-40484688D01*
X85429431Y-40485406D01*
X85653025Y-40486589D01*
X85848801Y-40488355D01*
X86019661Y-40490819D01*
X86168511Y-40494100D01*
X86298251Y-40498313D01*
X86411786Y-40503575D01*
X86512019Y-40510003D01*
X86601852Y-40517713D01*
X86684190Y-40526822D01*
X86761934Y-40537446D01*
X86837988Y-40549702D01*
X86915255Y-40563707D01*
X86996638Y-40579578D01*
X87085041Y-40597430D01*
X87101440Y-40600765D01*
X87716628Y-40746090D01*
X88333144Y-40931308D01*
X88946733Y-41154349D01*
X89553142Y-41413142D01*
X90148118Y-41705617D01*
X90727407Y-42029702D01*
X91286756Y-42383327D01*
X91821910Y-42764422D01*
X92257117Y-43110518D01*
X92348447Y-43187835D01*
X92444339Y-43270465D01*
X92539422Y-43353613D01*
X92628327Y-43432482D01*
X92705684Y-43502278D01*
X92766123Y-43558205D01*
X92804273Y-43595468D01*
X92815166Y-43608851D01*
X92794348Y-43609676D01*
X92733285Y-43610478D01*
X92634069Y-43611252D01*
X92498787Y-43611994D01*
X92329530Y-43612699D01*
X92128387Y-43613364D01*
X91897447Y-43613984D01*
X91638800Y-43614554D01*
X91354536Y-43615071D01*
X91046743Y-43615530D01*
X90717512Y-43615927D01*
X90368931Y-43616258D01*
X90003090Y-43616518D01*
X89622079Y-43616703D01*
X89227988Y-43616808D01*
X88921787Y-43616833D01*
X85028408Y-43616833D01*
X83534438Y-42050500D01*
X82040469Y-40484166D01*
X84198817Y-40484166D01*
X84198817Y-40174948D01*
X80429063Y-40171400D01*
X80429063Y-43639347D01*
X80802668Y-43639419D01*
X81215139Y-43639576D01*
X81588949Y-43639756D01*
X85015250Y-43641512D01*
X86691180Y-45401881D01*
X86909792Y-45631539D01*
X87120115Y-45852551D01*
X87320323Y-46062993D01*
X87508589Y-46260944D01*
X87683086Y-46444482D01*
X87841989Y-46611683D01*
X87983471Y-46760626D01*
X88105706Y-46889388D01*
X88206867Y-46996047D01*
X88285128Y-47078680D01*
X88338663Y-47135365D01*
X88365646Y-47164181D01*
X88368638Y-47167541D01*
X88348013Y-47168124D01*
X88287280Y-47168689D01*
X88188665Y-47169232D01*
X88054392Y-47169750D01*
X87886689Y-47170240D01*
X87687780Y-47170699D01*
X87459891Y-47171122D01*
X87205247Y-47171507D01*
X86926074Y-47171850D01*
X86624597Y-47172147D01*
X86303042Y-47172395D01*
X85963635Y-47172592D01*
X85608600Y-47172732D01*
X85240164Y-47172813D01*
X84942372Y-47172833D01*
X81514577Y-47172833D01*
X79867663Y-45441977D01*
X79650362Y-45213548D01*
X79440940Y-44993299D01*
X79241281Y-44783216D01*
X79053267Y-44585286D01*
X78878782Y-44401494D01*
X78719710Y-44233826D01*
X78577933Y-44084269D01*
X78455335Y-43954808D01*
X78353799Y-43847430D01*
X78275209Y-43764120D01*
X78221447Y-43706865D01*
X78194397Y-43677651D01*
X78191699Y-43674560D01*
X78189500Y-43669800D01*
X78192084Y-43665472D01*
X78201345Y-43661559D01*
X78219177Y-43658040D01*
X78247473Y-43654896D01*
X78288126Y-43652109D01*
X78343030Y-43649657D01*
X78414078Y-43647523D01*
X78503165Y-43645686D01*
X78612182Y-43644128D01*
X78743024Y-43642828D01*
X78897585Y-43641767D01*
X79077757Y-43640927D01*
X79285434Y-43640287D01*
X79522510Y-43639829D01*
X79790878Y-43639532D01*
X80092431Y-43639378D01*
X80429063Y-43639347D01*
X80429063Y-40171400D01*
X75130416Y-40166412D01*
X75130416Y-40505862D01*
X78077566Y-43606250D01*
X76857728Y-43609454D01*
X76857728Y-47195510D01*
X77270192Y-47195595D01*
X77368791Y-47195630D01*
X81501583Y-47197261D01*
X83104479Y-48883672D01*
X83318086Y-49108451D01*
X83523354Y-49324539D01*
X83718420Y-49529969D01*
X83901420Y-49722774D01*
X84070490Y-49900988D01*
X84223765Y-50062644D01*
X84359383Y-50205777D01*
X84475480Y-50328419D01*
X84570191Y-50428605D01*
X84641653Y-50504367D01*
X84688003Y-50553739D01*
X84707375Y-50574755D01*
X84707854Y-50575375D01*
X84687012Y-50575822D01*
X84625541Y-50576259D01*
X84525144Y-50576685D01*
X84387525Y-50577097D01*
X84214388Y-50577495D01*
X84007436Y-50577877D01*
X83768374Y-50578241D01*
X83498906Y-50578586D01*
X83200734Y-50578910D01*
X82875563Y-50579211D01*
X82525097Y-50579489D01*
X82151040Y-50579741D01*
X81755095Y-50579966D01*
X81338966Y-50580163D01*
X80904356Y-50580329D01*
X80452971Y-50580464D01*
X79986513Y-50580566D01*
X79506686Y-50580633D01*
X79406083Y-50580639D01*
X79406083Y-50919333D01*
X84877666Y-50919333D01*
X84877666Y-60994666D01*
X84785802Y-60994666D01*
X84719332Y-60989227D01*
X84630556Y-60974909D01*
X84537803Y-60954712D01*
X84530734Y-60952926D01*
X84302758Y-60873209D01*
X84091385Y-60756600D01*
X83901138Y-60606780D01*
X83736540Y-60427431D01*
X83602114Y-60222234D01*
X83579334Y-60178590D01*
X83541251Y-60100868D01*
X83510312Y-60031345D01*
X83485709Y-59964413D01*
X83466630Y-59894465D01*
X83452265Y-59815892D01*
X83441804Y-59723086D01*
X83434436Y-59610439D01*
X83429352Y-59472343D01*
X83425741Y-59303190D01*
X83422792Y-59097371D01*
X83422761Y-59094958D01*
X83414053Y-58412333D01*
X82900412Y-58412333D01*
X82700862Y-58411139D01*
X82536432Y-58406750D01*
X82399956Y-58397953D01*
X82284267Y-58383539D01*
X82182199Y-58362295D01*
X82086585Y-58333009D01*
X81990259Y-58294471D01*
X81886054Y-58245469D01*
X81872000Y-58238489D01*
X81778434Y-58187935D01*
X81696238Y-58133249D01*
X81613382Y-58065344D01*
X81517833Y-57975134D01*
X81500279Y-57957739D01*
X81342477Y-57781602D01*
X81223206Y-57603504D01*
X81138962Y-57416479D01*
X81086239Y-57213562D01*
X81070570Y-57103668D01*
X81064457Y-56859032D01*
X81098222Y-56621382D01*
X81169508Y-56394801D01*
X81275959Y-56183371D01*
X81415219Y-55991177D01*
X81584932Y-55822299D01*
X81782741Y-55680821D01*
X81938752Y-55599332D01*
X82028491Y-55561431D01*
X82114809Y-55531551D01*
X82204403Y-55508789D01*
X82303965Y-55492245D01*
X82420190Y-55481014D01*
X82559773Y-55474197D01*
X82729409Y-55470890D01*
X82897470Y-55470166D01*
X83417166Y-55470166D01*
X83417166Y-52231666D01*
X79459000Y-52231666D01*
X79458632Y-52723791D01*
X79456435Y-52942155D01*
X79449239Y-53125386D01*
X79435604Y-53280537D01*
X79414092Y-53414659D01*
X79383262Y-53534803D01*
X79341674Y-53648022D01*
X79287889Y-53761365D01*
X79223089Y-53877441D01*
X79151584Y-53979614D01*
X79054401Y-54092131D01*
X78942514Y-54204162D01*
X78826904Y-54304876D01*
X78718545Y-54383444D01*
X78696845Y-54396637D01*
X78564376Y-54466803D01*
X78438542Y-54516394D01*
X78307403Y-54548296D01*
X78159020Y-54565396D01*
X77981454Y-54570581D01*
X77977333Y-54570583D01*
X77855940Y-54569764D01*
X77765118Y-54566289D01*
X77693120Y-54558627D01*
X77628199Y-54545251D01*
X77558607Y-54524631D01*
X77517066Y-54510672D01*
X77293276Y-54411929D01*
X77089076Y-54277826D01*
X76908497Y-54112377D01*
X76755566Y-53919590D01*
X76634315Y-53703478D01*
X76584986Y-53582839D01*
X76568596Y-53536003D01*
X76555690Y-53493303D01*
X76545774Y-53448881D01*
X76538353Y-53396878D01*
X76532931Y-53331439D01*
X76529015Y-53246704D01*
X76526110Y-53136818D01*
X76523720Y-52995921D01*
X76521521Y-52831385D01*
X76513914Y-52235188D01*
X75832748Y-52226061D01*
X75629308Y-52223097D01*
X75462513Y-52219630D01*
X75326675Y-52214809D01*
X75216109Y-52207784D01*
X75125126Y-52197703D01*
X75048041Y-52183716D01*
X74979166Y-52164972D01*
X74912814Y-52140620D01*
X74843298Y-52109808D01*
X74764932Y-52071687D01*
X74749416Y-52063968D01*
X74534053Y-51935228D01*
X74350691Y-51779080D01*
X74197927Y-51594115D01*
X74082366Y-51395583D01*
X74042497Y-51304975D01*
X74003898Y-51202009D01*
X73970508Y-51098972D01*
X73946265Y-51008153D01*
X73935106Y-50941839D01*
X73934812Y-50935208D01*
X73955658Y-50933820D01*
X74017074Y-50932465D01*
X74117299Y-50931147D01*
X74254569Y-50929872D01*
X74427124Y-50928645D01*
X74633200Y-50927470D01*
X74871034Y-50926354D01*
X75138865Y-50925300D01*
X75434930Y-50924315D01*
X75757467Y-50923403D01*
X76104713Y-50922570D01*
X76474905Y-50921820D01*
X76866282Y-50921159D01*
X77277081Y-50920591D01*
X77705540Y-50920122D01*
X78149895Y-50919758D01*
X78608386Y-50919502D01*
X79079248Y-50919361D01*
X79406083Y-50919333D01*
X79406083Y-50580639D01*
X79015195Y-50580664D01*
X78854216Y-50580666D01*
X73000100Y-50580666D01*
X73012926Y-50204958D01*
X73038774Y-49572560D01*
X73071953Y-48977771D01*
X73112748Y-48416456D01*
X73161446Y-47884481D01*
X73194268Y-47580355D01*
X73207870Y-47460784D01*
X73219616Y-47356407D01*
X73228728Y-47274246D01*
X73234424Y-47221322D01*
X73236000Y-47204647D01*
X73256828Y-47203586D01*
X73317962Y-47202570D01*
X73417373Y-47201605D01*
X73553034Y-47200693D01*
X73722915Y-47199840D01*
X73924990Y-47199051D01*
X74157230Y-47198328D01*
X74417607Y-47197678D01*
X74704093Y-47197104D01*
X75014659Y-47196610D01*
X75347279Y-47196202D01*
X75699924Y-47195884D01*
X76070566Y-47195659D01*
X76457177Y-47195533D01*
X76857728Y-47195510D01*
X76857728Y-43609454D01*
X76023777Y-43611646D01*
X75732615Y-43612309D01*
X75453557Y-43612745D01*
X75189500Y-43612961D01*
X74943340Y-43612964D01*
X74717971Y-43612759D01*
X74516290Y-43612354D01*
X74341192Y-43611756D01*
X74195574Y-43610970D01*
X74082330Y-43610004D01*
X74004358Y-43608864D01*
X73964552Y-43607556D01*
X73959876Y-43606931D01*
X73958264Y-43589972D01*
X73965613Y-43548861D01*
X73982714Y-43480759D01*
X74010356Y-43382828D01*
X74049328Y-43252227D01*
X74100420Y-43086120D01*
X74139592Y-42960666D01*
X74282138Y-42529017D01*
X74440950Y-42089242D01*
X74611290Y-41653380D01*
X74788420Y-41233474D01*
X74967602Y-40841563D01*
X74999440Y-40775472D01*
X75130416Y-40505862D01*
X75130416Y-40166412D01*
X74926459Y-40166220D01*
X74729084Y-40573901D01*
X74433858Y-41219908D01*
X74162106Y-41890289D01*
X73913527Y-42586334D01*
X73687817Y-43309333D01*
X73484673Y-44060578D01*
X73303790Y-44841357D01*
X73144866Y-45652962D01*
X73007598Y-46496683D01*
X72891682Y-47373810D01*
X72796814Y-48285632D01*
X72734760Y-49056666D01*
X72723706Y-49246704D01*
X72714501Y-49472507D01*
X72707144Y-49727550D01*
X72701636Y-50005305D01*
X72697976Y-50299245D01*
X72696165Y-50602843D01*
X72696202Y-50909572D01*
X72696202Y-50909572D01*
G37*
X72696202Y-50909572D02*
X72698089Y-51212905D01*
X72701823Y-51506316D01*
X72707406Y-51783276D01*
X72714838Y-52037260D01*
X72724118Y-52261741D01*
X72734760Y-52443333D01*
X72805783Y-53314615D01*
X72893782Y-54150110D01*
X72999366Y-54953069D01*
X73123139Y-55726745D01*
X73265709Y-56474391D01*
X73427681Y-57199257D01*
X73609663Y-57904597D01*
X73812261Y-58593662D01*
X73973997Y-59089666D01*
X74114194Y-59487590D01*
X74257401Y-59862996D01*
X74409641Y-60230532D01*
X74576937Y-60604847D01*
X74729102Y-60926134D01*
X74926494Y-61333852D01*
X80785789Y-61328301D01*
X86645083Y-61322750D01*
X86941416Y-61264313D01*
X87642553Y-61104573D01*
X88331524Y-60904469D01*
X89007187Y-60664511D01*
X89668401Y-60385208D01*
X90314024Y-60067068D01*
X90942915Y-59710600D01*
X91553932Y-59316315D01*
X91957916Y-59027390D01*
X92526525Y-58577659D01*
X93068784Y-58095102D01*
X93584276Y-57580353D01*
X94072581Y-57034050D01*
X94533283Y-56456827D01*
X94965961Y-55849320D01*
X95370199Y-55212165D01*
X95745578Y-54545997D01*
X96091678Y-53851452D01*
X96408083Y-53129165D01*
X96694374Y-52379772D01*
X96950132Y-51603909D01*
X97036752Y-51310916D01*
X97083896Y-51146116D01*
X97120442Y-51016947D01*
X97147572Y-50918379D01*
X97166469Y-50845382D01*
X97178315Y-50792924D01*
X97184291Y-50755976D01*
X97185580Y-50729508D01*
X97183363Y-50708489D01*
X97180999Y-50697083D01*
X97172518Y-50665124D01*
X97154093Y-50598895D01*
X97127533Y-50504795D01*
X97094649Y-50389224D01*
X97057252Y-50258580D01*
X97037276Y-50189083D01*
X96791130Y-49400366D01*
X96514621Y-48638625D01*
X96208111Y-47904408D01*
X95871960Y-47198265D01*
X95506531Y-46520742D01*
X95506393Y-46520516D01*
X95506393Y-47194000D01*
X95676586Y-47548541D01*
X96003801Y-48271793D01*
X96298719Y-49009658D01*
X96516660Y-49628166D01*
X96569108Y-49788704D01*
X96619844Y-49947537D01*
X96667156Y-50098987D01*
X96709333Y-50237376D01*
X96744663Y-50357026D01*
X96771436Y-50452261D01*
X96787941Y-50517402D01*
X96792582Y-50543625D01*
X96791251Y-50549157D01*
X96785182Y-50554110D01*
X96772170Y-50558517D01*
X96750011Y-50562410D01*
X96716499Y-50565819D01*
X96669428Y-50568777D01*
X96606593Y-50571316D01*
X96525790Y-50573467D01*
X96424812Y-50575263D01*
X96301455Y-50576735D01*
X96153513Y-50577914D01*
X95978781Y-50578834D01*
X95891214Y-50579131D01*
X95891214Y-50919333D01*
X96342857Y-50919333D01*
X96505796Y-50920077D01*
X96629359Y-50922415D01*
X96716478Y-50926504D01*
X96770084Y-50932502D01*
X96793111Y-50940567D01*
X96794500Y-50943617D01*
X96788762Y-50971392D01*
X96772928Y-51032170D01*
X96749066Y-51118406D01*
X96719244Y-51222555D01*
X96700215Y-51287575D01*
X96444910Y-52086185D01*
X96158355Y-52856808D01*
X95840654Y-53599215D01*
X95491910Y-54313180D01*
X95112227Y-54998473D01*
X94746735Y-55586583D01*
X94347585Y-56160361D01*
X93916524Y-56713170D01*
X93456898Y-57241416D01*
X92972053Y-57741504D01*
X92465334Y-58209840D01*
X91940086Y-58642830D01*
X91808939Y-58743124D01*
X91261135Y-59132104D01*
X90691830Y-59490793D01*
X90104722Y-59817517D01*
X89503512Y-60110600D01*
X88891898Y-60368368D01*
X88273581Y-60589146D01*
X87652259Y-60771258D01*
X87031632Y-60913030D01*
X87004916Y-60918216D01*
X86815590Y-60952681D01*
X86645693Y-60978521D01*
X86484669Y-60996478D01*
X86321963Y-61007292D01*
X86147017Y-61011707D01*
X85949277Y-61010462D01*
X85760250Y-61005662D01*
X85256417Y-60989859D01*
X85391410Y-60942689D01*
X85534412Y-60886173D01*
X85658192Y-60820834D01*
X85775074Y-60738698D01*
X85897379Y-60631791D01*
X85948952Y-60581916D01*
X86039993Y-60489090D01*
X86107291Y-60411974D01*
X86159539Y-60339077D01*
X86205432Y-60258907D01*
X86229200Y-60211500D01*
X86270183Y-60125609D01*
X86303423Y-60049981D01*
X86329801Y-59978799D01*
X86350198Y-59906247D01*
X86365494Y-59826506D01*
X86376569Y-59733760D01*
X86384306Y-59622191D01*
X86389584Y-59485983D01*
X86393284Y-59319319D01*
X86396287Y-59116381D01*
X86396409Y-59107062D01*
X86405228Y-58436541D01*
X86969655Y-58429629D01*
X87534083Y-58422718D01*
X87719529Y-58356465D01*
X87883302Y-58291139D01*
X88021781Y-58218635D01*
X88148733Y-58130164D01*
X88277925Y-58016937D01*
X88328224Y-57967833D01*
X88487291Y-57786823D01*
X88606822Y-57598500D01*
X88689113Y-57397292D01*
X88736458Y-57177629D01*
X88751166Y-56941250D01*
X88731379Y-56686496D01*
X88673186Y-56446955D01*
X88578339Y-56225440D01*
X88448588Y-56024767D01*
X88285686Y-55847748D01*
X88091383Y-55697198D01*
X87915083Y-55597982D01*
X87821379Y-55555068D01*
X87733729Y-55521119D01*
X87645384Y-55495122D01*
X87549596Y-55476067D01*
X87439617Y-55462941D01*
X87308699Y-55454733D01*
X87150095Y-55450431D01*
X86957055Y-55449024D01*
X86921363Y-55449000D01*
X86401666Y-55449000D01*
X86401666Y-52252833D01*
X90317500Y-52252833D01*
X90317648Y-52755541D01*
X90319159Y-52958421D01*
X90324187Y-53125999D01*
X90333673Y-53265228D01*
X90348558Y-53383059D01*
X90369782Y-53486446D01*
X90398287Y-53582342D01*
X90435011Y-53677699D01*
X90445798Y-53702750D01*
X90542950Y-53884072D01*
X90669717Y-54059050D01*
X90817595Y-54218348D01*
X90978079Y-54352630D01*
X91116905Y-54439526D01*
X91273476Y-54512661D01*
X91424441Y-54561874D01*
X91582592Y-54589841D01*
X91760720Y-54599237D01*
X91871805Y-54597460D01*
X91993531Y-54592201D01*
X92085391Y-54584768D01*
X92159849Y-54573088D01*
X92229373Y-54555086D01*
X92306427Y-54528691D01*
X92323531Y-54522337D01*
X92550222Y-54415804D01*
X92753531Y-54276334D01*
X92930152Y-54107577D01*
X93076780Y-53913182D01*
X93190107Y-53696798D01*
X93260333Y-53488474D01*
X93273616Y-53431551D01*
X93283797Y-53373405D01*
X93291271Y-53307433D01*
X93296432Y-53227033D01*
X93299674Y-53125601D01*
X93301393Y-52996536D01*
X93301982Y-52833236D01*
X93302000Y-52790970D01*
X93302000Y-52256379D01*
X93984625Y-52247982D01*
X94174561Y-52245495D01*
X94327486Y-52242962D01*
X94448722Y-52240020D01*
X94543589Y-52236305D01*
X94617409Y-52231453D01*
X94675502Y-52225101D01*
X94723190Y-52216885D01*
X94765795Y-52206442D01*
X94808636Y-52193407D01*
X94815416Y-52191204D01*
X94994805Y-52124167D01*
X95146954Y-52046355D01*
X95286037Y-51949020D01*
X95426227Y-51823417D01*
X95450761Y-51799053D01*
X95587830Y-51647944D01*
X95692283Y-51499392D01*
X95771135Y-51341068D01*
X95831399Y-51160642D01*
X95845884Y-51104541D01*
X95891214Y-50919333D01*
X95891214Y-50579131D01*
X95775054Y-50579525D01*
X95540126Y-50580019D01*
X95271792Y-50580349D01*
X94967847Y-50580545D01*
X94626085Y-50580640D01*
X94244302Y-50580666D01*
X91655213Y-50580666D01*
X90441727Y-49305375D01*
X90244312Y-49097928D01*
X90046717Y-48890338D01*
X89852133Y-48685953D01*
X89663749Y-48488122D01*
X89484756Y-48300195D01*
X89318344Y-48125519D01*
X89167703Y-47967444D01*
X89036024Y-47829319D01*
X88926497Y-47714493D01*
X88842311Y-47626316D01*
X88828670Y-47612041D01*
X88429099Y-47194000D01*
X95506393Y-47194000D01*
X95506393Y-46520516D01*
X95112183Y-45872390D01*
X94689279Y-45253756D01*
X94238178Y-44665389D01*
X93759243Y-44107837D01*
X93252833Y-43581649D01*
X92719311Y-43087373D01*
X92159037Y-42625559D01*
X91957916Y-42472609D01*
X91359682Y-42052942D01*
X90742800Y-41670749D01*
X90108410Y-41326537D01*
X89457654Y-41020817D01*
X88791675Y-40754096D01*
X88111612Y-40526884D01*
X87418609Y-40339691D01*
X86941416Y-40235686D01*
X86645083Y-40177250D01*
X84198817Y-40174948D01*
X84198817Y-40484166D01*
X84562713Y-40484185D01*
X84887178Y-40484321D01*
X85175117Y-40484688D01*
X85429431Y-40485406D01*
X85653025Y-40486589D01*
X85848801Y-40488355D01*
X86019661Y-40490819D01*
X86168511Y-40494100D01*
X86298251Y-40498313D01*
X86411786Y-40503575D01*
X86512019Y-40510003D01*
X86601852Y-40517713D01*
X86684190Y-40526822D01*
X86761934Y-40537446D01*
X86837988Y-40549702D01*
X86915255Y-40563707D01*
X86996638Y-40579578D01*
X87085041Y-40597430D01*
X87101440Y-40600765D01*
X87716628Y-40746090D01*
X88333144Y-40931308D01*
X88946733Y-41154349D01*
X89553142Y-41413142D01*
X90148118Y-41705617D01*
X90727407Y-42029702D01*
X91286756Y-42383327D01*
X91821910Y-42764422D01*
X92257117Y-43110518D01*
X92348447Y-43187835D01*
X92444339Y-43270465D01*
X92539422Y-43353613D01*
X92628327Y-43432482D01*
X92705684Y-43502278D01*
X92766123Y-43558205D01*
X92804273Y-43595468D01*
X92815166Y-43608851D01*
X92794348Y-43609676D01*
X92733285Y-43610478D01*
X92634069Y-43611252D01*
X92498787Y-43611994D01*
X92329530Y-43612699D01*
X92128387Y-43613364D01*
X91897447Y-43613984D01*
X91638800Y-43614554D01*
X91354536Y-43615071D01*
X91046743Y-43615530D01*
X90717512Y-43615927D01*
X90368931Y-43616258D01*
X90003090Y-43616518D01*
X89622079Y-43616703D01*
X89227988Y-43616808D01*
X88921787Y-43616833D01*
X85028408Y-43616833D01*
X83534438Y-42050500D01*
X82040469Y-40484166D01*
X84198817Y-40484166D01*
X84198817Y-40174948D01*
X80429063Y-40171400D01*
X80429063Y-43639347D01*
X80802668Y-43639419D01*
X81215139Y-43639576D01*
X81588949Y-43639756D01*
X85015250Y-43641512D01*
X86691180Y-45401881D01*
X86909792Y-45631539D01*
X87120115Y-45852551D01*
X87320323Y-46062993D01*
X87508589Y-46260944D01*
X87683086Y-46444482D01*
X87841989Y-46611683D01*
X87983471Y-46760626D01*
X88105706Y-46889388D01*
X88206867Y-46996047D01*
X88285128Y-47078680D01*
X88338663Y-47135365D01*
X88365646Y-47164181D01*
X88368638Y-47167541D01*
X88348013Y-47168124D01*
X88287280Y-47168689D01*
X88188665Y-47169232D01*
X88054392Y-47169750D01*
X87886689Y-47170240D01*
X87687780Y-47170699D01*
X87459891Y-47171122D01*
X87205247Y-47171507D01*
X86926074Y-47171850D01*
X86624597Y-47172147D01*
X86303042Y-47172395D01*
X85963635Y-47172592D01*
X85608600Y-47172732D01*
X85240164Y-47172813D01*
X84942372Y-47172833D01*
X81514577Y-47172833D01*
X79867663Y-45441977D01*
X79650362Y-45213548D01*
X79440940Y-44993299D01*
X79241281Y-44783216D01*
X79053267Y-44585286D01*
X78878782Y-44401494D01*
X78719710Y-44233826D01*
X78577933Y-44084269D01*
X78455335Y-43954808D01*
X78353799Y-43847430D01*
X78275209Y-43764120D01*
X78221447Y-43706865D01*
X78194397Y-43677651D01*
X78191699Y-43674560D01*
X78189500Y-43669800D01*
X78192084Y-43665472D01*
X78201345Y-43661559D01*
X78219177Y-43658040D01*
X78247473Y-43654896D01*
X78288126Y-43652109D01*
X78343030Y-43649657D01*
X78414078Y-43647523D01*
X78503165Y-43645686D01*
X78612182Y-43644128D01*
X78743024Y-43642828D01*
X78897585Y-43641767D01*
X79077757Y-43640927D01*
X79285434Y-43640287D01*
X79522510Y-43639829D01*
X79790878Y-43639532D01*
X80092431Y-43639378D01*
X80429063Y-43639347D01*
X80429063Y-40171400D01*
X75130416Y-40166412D01*
X75130416Y-40505862D01*
X78077566Y-43606250D01*
X76857728Y-43609454D01*
X76857728Y-47195510D01*
X77270192Y-47195595D01*
X77368791Y-47195630D01*
X81501583Y-47197261D01*
X83104479Y-48883672D01*
X83318086Y-49108451D01*
X83523354Y-49324539D01*
X83718420Y-49529969D01*
X83901420Y-49722774D01*
X84070490Y-49900988D01*
X84223765Y-50062644D01*
X84359383Y-50205777D01*
X84475480Y-50328419D01*
X84570191Y-50428605D01*
X84641653Y-50504367D01*
X84688003Y-50553739D01*
X84707375Y-50574755D01*
X84707854Y-50575375D01*
X84687012Y-50575822D01*
X84625541Y-50576259D01*
X84525144Y-50576685D01*
X84387525Y-50577097D01*
X84214388Y-50577495D01*
X84007436Y-50577877D01*
X83768374Y-50578241D01*
X83498906Y-50578586D01*
X83200734Y-50578910D01*
X82875563Y-50579211D01*
X82525097Y-50579489D01*
X82151040Y-50579741D01*
X81755095Y-50579966D01*
X81338966Y-50580163D01*
X80904356Y-50580329D01*
X80452971Y-50580464D01*
X79986513Y-50580566D01*
X79506686Y-50580633D01*
X79406083Y-50580639D01*
X79406083Y-50919333D01*
X84877666Y-50919333D01*
X84877666Y-60994666D01*
X84785802Y-60994666D01*
X84719332Y-60989227D01*
X84630556Y-60974909D01*
X84537803Y-60954712D01*
X84530734Y-60952926D01*
X84302758Y-60873209D01*
X84091385Y-60756600D01*
X83901138Y-60606780D01*
X83736540Y-60427431D01*
X83602114Y-60222234D01*
X83579334Y-60178590D01*
X83541251Y-60100868D01*
X83510312Y-60031345D01*
X83485709Y-59964413D01*
X83466630Y-59894465D01*
X83452265Y-59815892D01*
X83441804Y-59723086D01*
X83434436Y-59610439D01*
X83429352Y-59472343D01*
X83425741Y-59303190D01*
X83422792Y-59097371D01*
X83422761Y-59094958D01*
X83414053Y-58412333D01*
X82900412Y-58412333D01*
X82700862Y-58411139D01*
X82536432Y-58406750D01*
X82399956Y-58397953D01*
X82284267Y-58383539D01*
X82182199Y-58362295D01*
X82086585Y-58333009D01*
X81990259Y-58294471D01*
X81886054Y-58245469D01*
X81872000Y-58238489D01*
X81778434Y-58187935D01*
X81696238Y-58133249D01*
X81613382Y-58065344D01*
X81517833Y-57975134D01*
X81500279Y-57957739D01*
X81342477Y-57781602D01*
X81223206Y-57603504D01*
X81138962Y-57416479D01*
X81086239Y-57213562D01*
X81070570Y-57103668D01*
X81064457Y-56859032D01*
X81098222Y-56621382D01*
X81169508Y-56394801D01*
X81275959Y-56183371D01*
X81415219Y-55991177D01*
X81584932Y-55822299D01*
X81782741Y-55680821D01*
X81938752Y-55599332D01*
X82028491Y-55561431D01*
X82114809Y-55531551D01*
X82204403Y-55508789D01*
X82303965Y-55492245D01*
X82420190Y-55481014D01*
X82559773Y-55474197D01*
X82729409Y-55470890D01*
X82897470Y-55470166D01*
X83417166Y-55470166D01*
X83417166Y-52231666D01*
X79459000Y-52231666D01*
X79458632Y-52723791D01*
X79456435Y-52942155D01*
X79449239Y-53125386D01*
X79435604Y-53280537D01*
X79414092Y-53414659D01*
X79383262Y-53534803D01*
X79341674Y-53648022D01*
X79287889Y-53761365D01*
X79223089Y-53877441D01*
X79151584Y-53979614D01*
X79054401Y-54092131D01*
X78942514Y-54204162D01*
X78826904Y-54304876D01*
X78718545Y-54383444D01*
X78696845Y-54396637D01*
X78564376Y-54466803D01*
X78438542Y-54516394D01*
X78307403Y-54548296D01*
X78159020Y-54565396D01*
X77981454Y-54570581D01*
X77977333Y-54570583D01*
X77855940Y-54569764D01*
X77765118Y-54566289D01*
X77693120Y-54558627D01*
X77628199Y-54545251D01*
X77558607Y-54524631D01*
X77517066Y-54510672D01*
X77293276Y-54411929D01*
X77089076Y-54277826D01*
X76908497Y-54112377D01*
X76755566Y-53919590D01*
X76634315Y-53703478D01*
X76584986Y-53582839D01*
X76568596Y-53536003D01*
X76555690Y-53493303D01*
X76545774Y-53448881D01*
X76538353Y-53396878D01*
X76532931Y-53331439D01*
X76529015Y-53246704D01*
X76526110Y-53136818D01*
X76523720Y-52995921D01*
X76521521Y-52831385D01*
X76513914Y-52235188D01*
X75832748Y-52226061D01*
X75629308Y-52223097D01*
X75462513Y-52219630D01*
X75326675Y-52214809D01*
X75216109Y-52207784D01*
X75125126Y-52197703D01*
X75048041Y-52183716D01*
X74979166Y-52164972D01*
X74912814Y-52140620D01*
X74843298Y-52109808D01*
X74764932Y-52071687D01*
X74749416Y-52063968D01*
X74534053Y-51935228D01*
X74350691Y-51779080D01*
X74197927Y-51594115D01*
X74082366Y-51395583D01*
X74042497Y-51304975D01*
X74003898Y-51202009D01*
X73970508Y-51098972D01*
X73946265Y-51008153D01*
X73935106Y-50941839D01*
X73934812Y-50935208D01*
X73955658Y-50933820D01*
X74017074Y-50932465D01*
X74117299Y-50931147D01*
X74254569Y-50929872D01*
X74427124Y-50928645D01*
X74633200Y-50927470D01*
X74871034Y-50926354D01*
X75138865Y-50925300D01*
X75434930Y-50924315D01*
X75757467Y-50923403D01*
X76104713Y-50922570D01*
X76474905Y-50921820D01*
X76866282Y-50921159D01*
X77277081Y-50920591D01*
X77705540Y-50920122D01*
X78149895Y-50919758D01*
X78608386Y-50919502D01*
X79079248Y-50919361D01*
X79406083Y-50919333D01*
X79406083Y-50580639D01*
X79015195Y-50580664D01*
X78854216Y-50580666D01*
X73000100Y-50580666D01*
X73012926Y-50204958D01*
X73038774Y-49572560D01*
X73071953Y-48977771D01*
X73112748Y-48416456D01*
X73161446Y-47884481D01*
X73194268Y-47580355D01*
X73207870Y-47460784D01*
X73219616Y-47356407D01*
X73228728Y-47274246D01*
X73234424Y-47221322D01*
X73236000Y-47204647D01*
X73256828Y-47203586D01*
X73317962Y-47202570D01*
X73417373Y-47201605D01*
X73553034Y-47200693D01*
X73722915Y-47199840D01*
X73924990Y-47199051D01*
X74157230Y-47198328D01*
X74417607Y-47197678D01*
X74704093Y-47197104D01*
X75014659Y-47196610D01*
X75347279Y-47196202D01*
X75699924Y-47195884D01*
X76070566Y-47195659D01*
X76457177Y-47195533D01*
X76857728Y-47195510D01*
X76857728Y-43609454D01*
X76023777Y-43611646D01*
X75732615Y-43612309D01*
X75453557Y-43612745D01*
X75189500Y-43612961D01*
X74943340Y-43612964D01*
X74717971Y-43612759D01*
X74516290Y-43612354D01*
X74341192Y-43611756D01*
X74195574Y-43610970D01*
X74082330Y-43610004D01*
X74004358Y-43608864D01*
X73964552Y-43607556D01*
X73959876Y-43606931D01*
X73958264Y-43589972D01*
X73965613Y-43548861D01*
X73982714Y-43480759D01*
X74010356Y-43382828D01*
X74049328Y-43252227D01*
X74100420Y-43086120D01*
X74139592Y-42960666D01*
X74282138Y-42529017D01*
X74440950Y-42089242D01*
X74611290Y-41653380D01*
X74788420Y-41233474D01*
X74967602Y-40841563D01*
X74999440Y-40775472D01*
X75130416Y-40505862D01*
X75130416Y-40166412D01*
X74926459Y-40166220D01*
X74729084Y-40573901D01*
X74433858Y-41219908D01*
X74162106Y-41890289D01*
X73913527Y-42586334D01*
X73687817Y-43309333D01*
X73484673Y-44060578D01*
X73303790Y-44841357D01*
X73144866Y-45652962D01*
X73007598Y-46496683D01*
X72891682Y-47373810D01*
X72796814Y-48285632D01*
X72734760Y-49056666D01*
X72723706Y-49246704D01*
X72714501Y-49472507D01*
X72707144Y-49727550D01*
X72701636Y-50005305D01*
X72697976Y-50299245D01*
X72696165Y-50602843D01*
X72696202Y-50909572D01*
G36*
X70452780Y-51070865D02*
X70454309Y-51338649D01*
X70456753Y-51594705D01*
X70460113Y-51833628D01*
X70464389Y-52050014D01*
X70469579Y-52238456D01*
X70475686Y-52393551D01*
X70480222Y-52475083D01*
X70541743Y-53308383D01*
X70615498Y-54106108D01*
X70702256Y-54873435D01*
X70802784Y-55615540D01*
X70917851Y-56337600D01*
X71048226Y-57044791D01*
X71194676Y-57742289D01*
X71357970Y-58435272D01*
X71375013Y-58503556D01*
X71575267Y-59254285D01*
X71791526Y-59971460D01*
X72026229Y-60661628D01*
X72281812Y-61331334D01*
X72560713Y-61987124D01*
X72865369Y-62635546D01*
X73049337Y-63000208D01*
X73281788Y-63449999D01*
X80101019Y-63449945D01*
X86920250Y-63449890D01*
X87256119Y-63397246D01*
X87827871Y-63291420D01*
X88414922Y-63151563D01*
X89010698Y-62979889D01*
X89608624Y-62778611D01*
X90202125Y-62549943D01*
X90784626Y-62296098D01*
X91349553Y-62019290D01*
X91349935Y-62019092D01*
X92040427Y-61636977D01*
X92707071Y-61220182D01*
X93349375Y-60769337D01*
X93966844Y-60285069D01*
X94558983Y-59768010D01*
X95125298Y-59218788D01*
X95665296Y-58638032D01*
X96178481Y-58026372D01*
X96664360Y-57384437D01*
X97122438Y-56712857D01*
X97552222Y-56012260D01*
X97953217Y-55283277D01*
X98324928Y-54526536D01*
X98666863Y-53742667D01*
X98978525Y-52932299D01*
X99259422Y-52096062D01*
X99334198Y-51851673D01*
X99383179Y-51685643D01*
X99431479Y-51517402D01*
X99477646Y-51352423D01*
X99520228Y-51196183D01*
X99557774Y-51054156D01*
X99588832Y-50931816D01*
X99611949Y-50834639D01*
X99625676Y-50768098D01*
X99628907Y-50740279D01*
X99622768Y-50699461D01*
X99608336Y-50631512D01*
X99588552Y-50550115D01*
X99585499Y-50538333D01*
X99332394Y-49641626D01*
X99049511Y-48774780D01*
X98736880Y-47937842D01*
X98394527Y-47130858D01*
X98022480Y-46353874D01*
X97620768Y-45606938D01*
X97189419Y-44890094D01*
X96728460Y-44203391D01*
X96237920Y-43546874D01*
X95717826Y-42920590D01*
X95168206Y-42324585D01*
X94589088Y-41758906D01*
X93986681Y-41228759D01*
X93435938Y-40792527D01*
X92859106Y-40381211D01*
X92259808Y-39996493D01*
X91641669Y-39640056D01*
X91008312Y-39313584D01*
X90363361Y-39018760D01*
X89710439Y-38757265D01*
X89053170Y-38530785D01*
X88395178Y-38341000D01*
X87740086Y-38189596D01*
X87256119Y-38102753D01*
X86920250Y-38050109D01*
X80101019Y-38050054D01*
X74025601Y-38050006D01*
X74025601Y-39235333D01*
X80345925Y-39235448D01*
X80958688Y-39235462D01*
X81530598Y-39235487D01*
X82063138Y-39235535D01*
X82557790Y-39235613D01*
X83016034Y-39235733D01*
X83439352Y-39235903D01*
X83829227Y-39236133D01*
X84187138Y-39236434D01*
X84514569Y-39236815D01*
X84812999Y-39237285D01*
X85083912Y-39237855D01*
X85328788Y-39238534D01*
X85549109Y-39239332D01*
X85746357Y-39240259D01*
X85922012Y-39241324D01*
X86077557Y-39242537D01*
X86214473Y-39243908D01*
X86334241Y-39245447D01*
X86438344Y-39247163D01*
X86528262Y-39249066D01*
X86605477Y-39251166D01*
X86671471Y-39253473D01*
X86727725Y-39255996D01*
X86775721Y-39258746D01*
X86816939Y-39261731D01*
X86852863Y-39264962D01*
X86884973Y-39268448D01*
X86914750Y-39272199D01*
X86943677Y-39276225D01*
X86962583Y-39278973D01*
X87418198Y-39356865D01*
X87879321Y-39458395D01*
X88354137Y-39585565D01*
X88850827Y-39740378D01*
X88858977Y-39743084D01*
X89568638Y-40001042D01*
X90259555Y-40296769D01*
X90930879Y-40629671D01*
X91581762Y-40999150D01*
X92211353Y-41404610D01*
X92818804Y-41845457D01*
X93403266Y-42321095D01*
X93963890Y-42830926D01*
X94499826Y-43374357D01*
X95010226Y-43950790D01*
X95220290Y-44206976D01*
X95690676Y-44827352D01*
X96132926Y-45479220D01*
X96546915Y-46162328D01*
X96932518Y-46876428D01*
X97289610Y-47621268D01*
X97618065Y-48396599D01*
X97917760Y-49202170D01*
X98188568Y-50037732D01*
X98264362Y-50294916D01*
X98300206Y-50421405D01*
X98331635Y-50536264D01*
X98356806Y-50632437D01*
X98373880Y-50702869D01*
X98381014Y-50740504D01*
X98381111Y-50742285D01*
X98375794Y-50776464D01*
X98360479Y-50843935D01*
X98337009Y-50937344D01*
X98307228Y-51049340D01*
X98274951Y-51165619D01*
X98018066Y-52005645D01*
X97731132Y-52817324D01*
X97414350Y-53600340D01*
X97067918Y-54354378D01*
X96692037Y-55079123D01*
X96286906Y-55774260D01*
X95852726Y-56439474D01*
X95389695Y-57074450D01*
X94898013Y-57678874D01*
X94377880Y-58252430D01*
X93829497Y-58794804D01*
X93253061Y-59305680D01*
X92963333Y-59542110D01*
X92440375Y-59935363D01*
X91892744Y-60305085D01*
X91324505Y-60649462D01*
X90739721Y-60966681D01*
X90142455Y-61254926D01*
X89536772Y-61512383D01*
X88926734Y-61737240D01*
X88316407Y-61927680D01*
X87709852Y-62081891D01*
X87111134Y-62198057D01*
X86962583Y-62221026D01*
X86933419Y-62225234D01*
X86904360Y-62229162D01*
X86873924Y-62232818D01*
X86840631Y-62236212D01*
X86802998Y-62239355D01*
X86759545Y-62242255D01*
X86708788Y-62244923D01*
X86649249Y-62247369D01*
X86579443Y-62249601D01*
X86497891Y-62251630D01*
X86403110Y-62253466D01*
X86293619Y-62255118D01*
X86167936Y-62256596D01*
X86024580Y-62257910D01*
X85862070Y-62259069D01*
X85678924Y-62260084D01*
X85473660Y-62260964D01*
X85244796Y-62261719D01*
X84990852Y-62262358D01*
X84710346Y-62262891D01*
X84401796Y-62263329D01*
X84063721Y-62263680D01*
X83694639Y-62263955D01*
X83293069Y-62264163D01*
X82857529Y-62264314D01*
X82386537Y-62264418D01*
X81878613Y-62264484D01*
X81332274Y-62264523D01*
X80746040Y-62264543D01*
X80345925Y-62264551D01*
X74025601Y-62264666D01*
X73871452Y-61941875D01*
X73552548Y-61234822D01*
X73258401Y-60500793D01*
X72988804Y-59738901D01*
X72743549Y-58948259D01*
X72522429Y-58127982D01*
X72325237Y-57277184D01*
X72151764Y-56394977D01*
X72001803Y-55480475D01*
X71875148Y-54532793D01*
X71771590Y-53551043D01*
X71699915Y-52665583D01*
X71689957Y-52496551D01*
X71680997Y-52291581D01*
X71673102Y-52057056D01*
X71666334Y-51799360D01*
X71660759Y-51524878D01*
X71656441Y-51239994D01*
X71653443Y-50951091D01*
X71651829Y-50664554D01*
X71651665Y-50386767D01*
X71653015Y-50124114D01*
X71655941Y-49882980D01*
X71660510Y-49669748D01*
X71666784Y-49490802D01*
X71667775Y-49469416D01*
X71733650Y-48405711D01*
X71827924Y-47371721D01*
X71950869Y-46365523D01*
X72102756Y-45385194D01*
X72283858Y-44428810D01*
X72494446Y-43494448D01*
X72536584Y-43324148D01*
X72738191Y-42571662D01*
X72957484Y-41852379D01*
X73196659Y-41160106D01*
X73457911Y-40488650D01*
X73743435Y-39831817D01*
X73871452Y-39558124D01*
X74025601Y-39235333D01*
X74025601Y-38050006D01*
X73281788Y-38050000D01*
X73049337Y-38499791D01*
X72729091Y-39146944D01*
X72435974Y-39797776D01*
X72167549Y-40458835D01*
X71921378Y-41136665D01*
X71695024Y-41837814D01*
X71486049Y-42568828D01*
X71375013Y-42996443D01*
X71210016Y-43689261D01*
X71061940Y-44386084D01*
X70930014Y-45092089D01*
X70813472Y-45812453D01*
X70711544Y-46552352D01*
X70623463Y-47316961D01*
X70548460Y-48111459D01*
X70485766Y-48941021D01*
X70480222Y-49024916D01*
X70473511Y-49155018D01*
X70467715Y-49322038D01*
X70462835Y-49520572D01*
X70458870Y-49745213D01*
X70455821Y-49990558D01*
X70453688Y-50251201D01*
X70452470Y-50521736D01*
X70452167Y-50796759D01*
X70452780Y-51070865D01*
X70452780Y-51070865D01*
G37*
X70452780Y-51070865D02*
X70454309Y-51338649D01*
X70456753Y-51594705D01*
X70460113Y-51833628D01*
X70464389Y-52050014D01*
X70469579Y-52238456D01*
X70475686Y-52393551D01*
X70480222Y-52475083D01*
X70541743Y-53308383D01*
X70615498Y-54106108D01*
X70702256Y-54873435D01*
X70802784Y-55615540D01*
X70917851Y-56337600D01*
X71048226Y-57044791D01*
X71194676Y-57742289D01*
X71357970Y-58435272D01*
X71375013Y-58503556D01*
X71575267Y-59254285D01*
X71791526Y-59971460D01*
X72026229Y-60661628D01*
X72281812Y-61331334D01*
X72560713Y-61987124D01*
X72865369Y-62635546D01*
X73049337Y-63000208D01*
X73281788Y-63449999D01*
X80101019Y-63449945D01*
X86920250Y-63449890D01*
X87256119Y-63397246D01*
X87827871Y-63291420D01*
X88414922Y-63151563D01*
X89010698Y-62979889D01*
X89608624Y-62778611D01*
X90202125Y-62549943D01*
X90784626Y-62296098D01*
X91349553Y-62019290D01*
X91349935Y-62019092D01*
X92040427Y-61636977D01*
X92707071Y-61220182D01*
X93349375Y-60769337D01*
X93966844Y-60285069D01*
X94558983Y-59768010D01*
X95125298Y-59218788D01*
X95665296Y-58638032D01*
X96178481Y-58026372D01*
X96664360Y-57384437D01*
X97122438Y-56712857D01*
X97552222Y-56012260D01*
X97953217Y-55283277D01*
X98324928Y-54526536D01*
X98666863Y-53742667D01*
X98978525Y-52932299D01*
X99259422Y-52096062D01*
X99334198Y-51851673D01*
X99383179Y-51685643D01*
X99431479Y-51517402D01*
X99477646Y-51352423D01*
X99520228Y-51196183D01*
X99557774Y-51054156D01*
X99588832Y-50931816D01*
X99611949Y-50834639D01*
X99625676Y-50768098D01*
X99628907Y-50740279D01*
X99622768Y-50699461D01*
X99608336Y-50631512D01*
X99588552Y-50550115D01*
X99585499Y-50538333D01*
X99332394Y-49641626D01*
X99049511Y-48774780D01*
X98736880Y-47937842D01*
X98394527Y-47130858D01*
X98022480Y-46353874D01*
X97620768Y-45606938D01*
X97189419Y-44890094D01*
X96728460Y-44203391D01*
X96237920Y-43546874D01*
X95717826Y-42920590D01*
X95168206Y-42324585D01*
X94589088Y-41758906D01*
X93986681Y-41228759D01*
X93435938Y-40792527D01*
X92859106Y-40381211D01*
X92259808Y-39996493D01*
X91641669Y-39640056D01*
X91008312Y-39313584D01*
X90363361Y-39018760D01*
X89710439Y-38757265D01*
X89053170Y-38530785D01*
X88395178Y-38341000D01*
X87740086Y-38189596D01*
X87256119Y-38102753D01*
X86920250Y-38050109D01*
X80101019Y-38050054D01*
X74025601Y-38050006D01*
X74025601Y-39235333D01*
X80345925Y-39235448D01*
X80958688Y-39235462D01*
X81530598Y-39235487D01*
X82063138Y-39235535D01*
X82557790Y-39235613D01*
X83016034Y-39235733D01*
X83439352Y-39235903D01*
X83829227Y-39236133D01*
X84187138Y-39236434D01*
X84514569Y-39236815D01*
X84812999Y-39237285D01*
X85083912Y-39237855D01*
X85328788Y-39238534D01*
X85549109Y-39239332D01*
X85746357Y-39240259D01*
X85922012Y-39241324D01*
X86077557Y-39242537D01*
X86214473Y-39243908D01*
X86334241Y-39245447D01*
X86438344Y-39247163D01*
X86528262Y-39249066D01*
X86605477Y-39251166D01*
X86671471Y-39253473D01*
X86727725Y-39255996D01*
X86775721Y-39258746D01*
X86816939Y-39261731D01*
X86852863Y-39264962D01*
X86884973Y-39268448D01*
X86914750Y-39272199D01*
X86943677Y-39276225D01*
X86962583Y-39278973D01*
X87418198Y-39356865D01*
X87879321Y-39458395D01*
X88354137Y-39585565D01*
X88850827Y-39740378D01*
X88858977Y-39743084D01*
X89568638Y-40001042D01*
X90259555Y-40296769D01*
X90930879Y-40629671D01*
X91581762Y-40999150D01*
X92211353Y-41404610D01*
X92818804Y-41845457D01*
X93403266Y-42321095D01*
X93963890Y-42830926D01*
X94499826Y-43374357D01*
X95010226Y-43950790D01*
X95220290Y-44206976D01*
X95690676Y-44827352D01*
X96132926Y-45479220D01*
X96546915Y-46162328D01*
X96932518Y-46876428D01*
X97289610Y-47621268D01*
X97618065Y-48396599D01*
X97917760Y-49202170D01*
X98188568Y-50037732D01*
X98264362Y-50294916D01*
X98300206Y-50421405D01*
X98331635Y-50536264D01*
X98356806Y-50632437D01*
X98373880Y-50702869D01*
X98381014Y-50740504D01*
X98381111Y-50742285D01*
X98375794Y-50776464D01*
X98360479Y-50843935D01*
X98337009Y-50937344D01*
X98307228Y-51049340D01*
X98274951Y-51165619D01*
X98018066Y-52005645D01*
X97731132Y-52817324D01*
X97414350Y-53600340D01*
X97067918Y-54354378D01*
X96692037Y-55079123D01*
X96286906Y-55774260D01*
X95852726Y-56439474D01*
X95389695Y-57074450D01*
X94898013Y-57678874D01*
X94377880Y-58252430D01*
X93829497Y-58794804D01*
X93253061Y-59305680D01*
X92963333Y-59542110D01*
X92440375Y-59935363D01*
X91892744Y-60305085D01*
X91324505Y-60649462D01*
X90739721Y-60966681D01*
X90142455Y-61254926D01*
X89536772Y-61512383D01*
X88926734Y-61737240D01*
X88316407Y-61927680D01*
X87709852Y-62081891D01*
X87111134Y-62198057D01*
X86962583Y-62221026D01*
X86933419Y-62225234D01*
X86904360Y-62229162D01*
X86873924Y-62232818D01*
X86840631Y-62236212D01*
X86802998Y-62239355D01*
X86759545Y-62242255D01*
X86708788Y-62244923D01*
X86649249Y-62247369D01*
X86579443Y-62249601D01*
X86497891Y-62251630D01*
X86403110Y-62253466D01*
X86293619Y-62255118D01*
X86167936Y-62256596D01*
X86024580Y-62257910D01*
X85862070Y-62259069D01*
X85678924Y-62260084D01*
X85473660Y-62260964D01*
X85244796Y-62261719D01*
X84990852Y-62262358D01*
X84710346Y-62262891D01*
X84401796Y-62263329D01*
X84063721Y-62263680D01*
X83694639Y-62263955D01*
X83293069Y-62264163D01*
X82857529Y-62264314D01*
X82386537Y-62264418D01*
X81878613Y-62264484D01*
X81332274Y-62264523D01*
X80746040Y-62264543D01*
X80345925Y-62264551D01*
X74025601Y-62264666D01*
X73871452Y-61941875D01*
X73552548Y-61234822D01*
X73258401Y-60500793D01*
X72988804Y-59738901D01*
X72743549Y-58948259D01*
X72522429Y-58127982D01*
X72325237Y-57277184D01*
X72151764Y-56394977D01*
X72001803Y-55480475D01*
X71875148Y-54532793D01*
X71771590Y-53551043D01*
X71699915Y-52665583D01*
X71689957Y-52496551D01*
X71680997Y-52291581D01*
X71673102Y-52057056D01*
X71666334Y-51799360D01*
X71660759Y-51524878D01*
X71656441Y-51239994D01*
X71653443Y-50951091D01*
X71651829Y-50664554D01*
X71651665Y-50386767D01*
X71653015Y-50124114D01*
X71655941Y-49882980D01*
X71660510Y-49669748D01*
X71666784Y-49490802D01*
X71667775Y-49469416D01*
X71733650Y-48405711D01*
X71827924Y-47371721D01*
X71950869Y-46365523D01*
X72102756Y-45385194D01*
X72283858Y-44428810D01*
X72494446Y-43494448D01*
X72536584Y-43324148D01*
X72738191Y-42571662D01*
X72957484Y-41852379D01*
X73196659Y-41160106D01*
X73457911Y-40488650D01*
X73743435Y-39831817D01*
X73871452Y-39558124D01*
X74025601Y-39235333D01*
X74025601Y-38050006D01*
X73281788Y-38050000D01*
X73049337Y-38499791D01*
X72729091Y-39146944D01*
X72435974Y-39797776D01*
X72167549Y-40458835D01*
X71921378Y-41136665D01*
X71695024Y-41837814D01*
X71486049Y-42568828D01*
X71375013Y-42996443D01*
X71210016Y-43689261D01*
X71061940Y-44386084D01*
X70930014Y-45092089D01*
X70813472Y-45812453D01*
X70711544Y-46552352D01*
X70623463Y-47316961D01*
X70548460Y-48111459D01*
X70485766Y-48941021D01*
X70480222Y-49024916D01*
X70473511Y-49155018D01*
X70467715Y-49322038D01*
X70462835Y-49520572D01*
X70458870Y-49745213D01*
X70455821Y-49990558D01*
X70453688Y-50251201D01*
X70452470Y-50521736D01*
X70452167Y-50796759D01*
X70452780Y-51070865D01*
G36*
X103127958Y-51319424D02*
X103149090Y-51350926D01*
X103192125Y-51372949D01*
X103221619Y-51378773D01*
X103290578Y-51388777D01*
X103396372Y-51402654D01*
X103536370Y-51420101D01*
X103707942Y-51440810D01*
X103908458Y-51464476D01*
X104135287Y-51490794D01*
X104385799Y-51519457D01*
X104657365Y-51550160D01*
X104947353Y-51582598D01*
X105253134Y-51616465D01*
X105572077Y-51651455D01*
X105832666Y-51679804D01*
X106161843Y-51715583D01*
X106481664Y-51750546D01*
X106789342Y-51784377D01*
X107082090Y-51816760D01*
X107357121Y-51847382D01*
X107611648Y-51875928D01*
X107842883Y-51902082D01*
X108048040Y-51925530D01*
X108224332Y-51945956D01*
X108368971Y-51963047D01*
X108479171Y-51976486D01*
X108552145Y-51985960D01*
X108580672Y-51990256D01*
X108774846Y-52038332D01*
X108931676Y-52105924D01*
X109051064Y-52192971D01*
X109132912Y-52299415D01*
X109150864Y-52336860D01*
X109167242Y-52394195D01*
X109181900Y-52477433D01*
X109192048Y-52570156D01*
X109193116Y-52585550D01*
X109197906Y-52671432D01*
X109197274Y-52726599D01*
X109188532Y-52762582D01*
X109168991Y-52790913D01*
X109138227Y-52821007D01*
X109090287Y-52858054D01*
X109031047Y-52887059D01*
X108953508Y-52909864D01*
X108850672Y-52928310D01*
X108715543Y-52944240D01*
X108644967Y-52950846D01*
X108585891Y-52954178D01*
X108489379Y-52957230D01*
X108358841Y-52960002D01*
X108197690Y-52962494D01*
X108009339Y-52964705D01*
X107797200Y-52966634D01*
X107564686Y-52968282D01*
X107315209Y-52969648D01*
X107052181Y-52970731D01*
X106779014Y-52971531D01*
X106499122Y-52972048D01*
X106215917Y-52972280D01*
X106192500Y-52972276D01*
X106192500Y-53734500D01*
X107277291Y-53735046D01*
X107574905Y-53735643D01*
X107833053Y-53737206D01*
X108054597Y-53739868D01*
X108242395Y-53743763D01*
X108399310Y-53749028D01*
X108528200Y-53755795D01*
X108631925Y-53764200D01*
X108713347Y-53774377D01*
X108775325Y-53786462D01*
X108820719Y-53800587D01*
X108838163Y-53808495D01*
X108907708Y-53866068D01*
X108969268Y-53958791D01*
X109021359Y-54079982D01*
X109062497Y-54222959D01*
X109091197Y-54381041D01*
X109105974Y-54547545D01*
X109105343Y-54715790D01*
X109087820Y-54879095D01*
X109082575Y-54908406D01*
X109023307Y-55117280D01*
X108931302Y-55300025D01*
X108808184Y-55454975D01*
X108655578Y-55580463D01*
X108475107Y-55674822D01*
X108277416Y-55734518D01*
X108065929Y-55760548D01*
X107834903Y-55755319D01*
X107592247Y-55719803D01*
X107345866Y-55654973D01*
X107197697Y-55601677D01*
X106996056Y-55502605D01*
X106805481Y-55372922D01*
X106632325Y-55218979D01*
X106482940Y-55047129D01*
X106363679Y-54863724D01*
X106285948Y-54690022D01*
X106256631Y-54581627D01*
X106231403Y-54441314D01*
X106211499Y-54279405D01*
X106198154Y-54106218D01*
X106192602Y-53932074D01*
X106192517Y-53909125D01*
X106192500Y-53734500D01*
X106192500Y-52972276D01*
X105932810Y-52972228D01*
X105653215Y-52971892D01*
X105380544Y-52971270D01*
X105118209Y-52970362D01*
X104869623Y-52969168D01*
X104638198Y-52967688D01*
X104427346Y-52965920D01*
X104240481Y-52963865D01*
X104081013Y-52961522D01*
X103952357Y-52958890D01*
X103857923Y-52955970D01*
X103801125Y-52952760D01*
X103790197Y-52951477D01*
X103681315Y-52924757D01*
X103613168Y-52888860D01*
X103613168Y-53734500D01*
X105831860Y-53734500D01*
X105842424Y-53782125D01*
X105854642Y-53862565D01*
X105863027Y-53970137D01*
X105867711Y-54095950D01*
X105868824Y-54231113D01*
X105866495Y-54366734D01*
X105860857Y-54493923D01*
X105852038Y-54603787D01*
X105840169Y-54687437D01*
X105828530Y-54729592D01*
X105786066Y-54796939D01*
X105716181Y-54874463D01*
X105629096Y-54952972D01*
X105535033Y-55023274D01*
X105444213Y-55076177D01*
X105441873Y-55077292D01*
X105313841Y-55131254D01*
X105191268Y-55166879D01*
X105061446Y-55186360D01*
X104911670Y-55191894D01*
X104795500Y-55188963D01*
X104531883Y-55162662D01*
X104297808Y-55107583D01*
X104093828Y-55024022D01*
X103920499Y-54912273D01*
X103778378Y-54772631D01*
X103668019Y-54605389D01*
X103658192Y-54586028D01*
X103622057Y-54510034D01*
X103598450Y-54448609D01*
X103584248Y-54387915D01*
X103576331Y-54314110D01*
X103571578Y-54213354D01*
X103571109Y-54199868D01*
X103570225Y-54090416D01*
X103574219Y-53982315D01*
X103582296Y-53891553D01*
X103588278Y-53854393D01*
X103613168Y-53734500D01*
X103613168Y-52888860D01*
X103598827Y-52881305D01*
X103538329Y-52815497D01*
X103495414Y-52721707D01*
X103465679Y-52594310D01*
X103455336Y-52523827D01*
X103440458Y-52417162D01*
X103426297Y-52345771D01*
X103409879Y-52302758D01*
X103388230Y-52281224D01*
X103358376Y-52274273D01*
X103347614Y-52274000D01*
X103323604Y-52274102D01*
X103303222Y-52276537D01*
X103286184Y-52284498D01*
X103272211Y-52301180D01*
X103261021Y-52329775D01*
X103252333Y-52373478D01*
X103245865Y-52435481D01*
X103241337Y-52518978D01*
X103238467Y-52627163D01*
X103236973Y-52763229D01*
X103236575Y-52930370D01*
X103236991Y-53131779D01*
X103237940Y-53370650D01*
X103238558Y-53512250D01*
X103243602Y-54676416D01*
X103298524Y-54882237D01*
X103382044Y-55127940D01*
X103492968Y-55343874D01*
X103630093Y-55528692D01*
X103792216Y-55681041D01*
X103978131Y-55799573D01*
X104186637Y-55882938D01*
X104192250Y-55884595D01*
X104310933Y-55907945D01*
X104455340Y-55918909D01*
X104610712Y-55917488D01*
X104762293Y-55903682D01*
X104867306Y-55884573D01*
X105077736Y-55816157D01*
X105297098Y-55707906D01*
X105523533Y-55560918D01*
X105755180Y-55376293D01*
X105810546Y-55327226D01*
X105926009Y-55222938D01*
X105993069Y-55377200D01*
X106096382Y-55579194D01*
X106227152Y-55778597D01*
X106377537Y-55965724D01*
X106539693Y-56130891D01*
X106705776Y-56264414D01*
X106718762Y-56273280D01*
X106951789Y-56405724D01*
X107196444Y-56498526D01*
X107449107Y-56551538D01*
X107706161Y-56564609D01*
X107963985Y-56537593D01*
X108218962Y-56470339D01*
X108467472Y-56362698D01*
X108497627Y-56346546D01*
X108721428Y-56200366D01*
X108918440Y-56022261D01*
X109087547Y-55813964D01*
X109227634Y-55577210D01*
X109337584Y-55313734D01*
X109416282Y-55025269D01*
X109442757Y-54877587D01*
X109458825Y-54725790D01*
X109467254Y-54537455D01*
X109468002Y-54317690D01*
X109461023Y-54071604D01*
X109451291Y-53882666D01*
X109448675Y-53818718D01*
X109446121Y-53716797D01*
X109443677Y-53581265D01*
X109441387Y-53416483D01*
X109439300Y-53226812D01*
X109437463Y-53016612D01*
X109435921Y-52790244D01*
X109434721Y-52552071D01*
X109433911Y-52306452D01*
X109433784Y-52249053D01*
X109433234Y-51965404D01*
X109432644Y-51721147D01*
X109431781Y-51513340D01*
X109430408Y-51339044D01*
X109428291Y-51195316D01*
X109425194Y-51079217D01*
X109420883Y-50987805D01*
X109415122Y-50918138D01*
X109407676Y-50867277D01*
X109398310Y-50832280D01*
X109386788Y-50810206D01*
X109372876Y-50798114D01*
X109356338Y-50793063D01*
X109336940Y-50792113D01*
X109317304Y-50792333D01*
X109259313Y-50807552D01*
X109227123Y-50854610D01*
X109218828Y-50918275D01*
X109211081Y-51013677D01*
X109191471Y-51099789D01*
X109163509Y-51164191D01*
X109142367Y-51188641D01*
X109094396Y-51208810D01*
X109040662Y-51216734D01*
X109007445Y-51215033D01*
X108936674Y-51209706D01*
X108831841Y-51201081D01*
X108696437Y-51189482D01*
X108533952Y-51175235D01*
X108347878Y-51158666D01*
X108141706Y-51140101D01*
X107918927Y-51119864D01*
X107683031Y-51098281D01*
X107437510Y-51075679D01*
X107185855Y-51052382D01*
X106931557Y-51028717D01*
X106678107Y-51005008D01*
X106428995Y-50981582D01*
X106187714Y-50958764D01*
X105957754Y-50936879D01*
X105742605Y-50916253D01*
X105545760Y-50897212D01*
X105370708Y-50880082D01*
X105220942Y-50865187D01*
X105099952Y-50852853D01*
X105011228Y-50843407D01*
X104958264Y-50837173D01*
X104943960Y-50834666D01*
X104962754Y-50824454D01*
X105017471Y-50797381D01*
X105105719Y-50754584D01*
X105225105Y-50697202D01*
X105373235Y-50626372D01*
X105547717Y-50543232D01*
X105746158Y-50448921D01*
X105966165Y-50344576D01*
X106205346Y-50231336D01*
X106461306Y-50110338D01*
X106731654Y-49982720D01*
X107013997Y-49849621D01*
X107146099Y-49787406D01*
X107434138Y-49651582D01*
X107711892Y-49520197D01*
X107976907Y-49394432D01*
X108226727Y-49275471D01*
X108458897Y-49164497D01*
X108670963Y-49062692D01*
X108860469Y-48971240D01*
X109024960Y-48891323D01*
X109161982Y-48824124D01*
X109269079Y-48770826D01*
X109343796Y-48732612D01*
X109383678Y-48710664D01*
X109389487Y-48706542D01*
X109425616Y-48641341D01*
X109422804Y-48571937D01*
X109383375Y-48511508D01*
X109340561Y-48480330D01*
X109262035Y-48432680D01*
X109150490Y-48369888D01*
X109008620Y-48293284D01*
X108839122Y-48204200D01*
X108644689Y-48103964D01*
X108428015Y-47993908D01*
X108191797Y-47875361D01*
X107938728Y-47749655D01*
X107671503Y-47618119D01*
X107392817Y-47482084D01*
X107105365Y-47342880D01*
X106811840Y-47201837D01*
X106514939Y-47060286D01*
X106217355Y-46919557D01*
X105921784Y-46780980D01*
X105630919Y-46645886D01*
X105347456Y-46515605D01*
X105256148Y-46473964D01*
X105163946Y-46431339D01*
X105088230Y-46395067D01*
X105035974Y-46368585D01*
X105014153Y-46355331D01*
X105013990Y-46354620D01*
X105036989Y-46350526D01*
X105098575Y-46343441D01*
X105195128Y-46333666D01*
X105323028Y-46321499D01*
X105478657Y-46307241D01*
X105658395Y-46291189D01*
X105858623Y-46273644D01*
X106075722Y-46254903D01*
X106306073Y-46235268D01*
X106546056Y-46215036D01*
X106792052Y-46194507D01*
X107040442Y-46173981D01*
X107287607Y-46153756D01*
X107529927Y-46134131D01*
X107763783Y-46115406D01*
X107985557Y-46097880D01*
X108191628Y-46081852D01*
X108378378Y-46067622D01*
X108542187Y-46055488D01*
X108679437Y-46045750D01*
X108786507Y-46038707D01*
X108859779Y-46034658D01*
X108894334Y-46033838D01*
X109000735Y-46042041D01*
X109078681Y-46061347D01*
X109133610Y-46097812D01*
X109170960Y-46157494D01*
X109196168Y-46246452D01*
X109214673Y-46370742D01*
X109217296Y-46393604D01*
X109231429Y-46487314D01*
X109249379Y-46558121D01*
X109268384Y-46595955D01*
X109315428Y-46617082D01*
X109370254Y-46608985D01*
X109415317Y-46576360D01*
X109428418Y-46553117D01*
X109432168Y-46521954D01*
X109435502Y-46453375D01*
X109438340Y-46352295D01*
X109440597Y-46223629D01*
X109442191Y-46072293D01*
X109443039Y-45903203D01*
X109443059Y-45721273D01*
X109442971Y-45688437D01*
X109442023Y-45471580D01*
X109440563Y-45293486D01*
X109438462Y-45150586D01*
X109435590Y-45039309D01*
X109431816Y-44956089D01*
X109427012Y-44897354D01*
X109421047Y-44859536D01*
X109413791Y-44839067D01*
X109411960Y-44836479D01*
X109372997Y-44812472D01*
X109319788Y-44802724D01*
X109271599Y-44808764D01*
X109250861Y-44823692D01*
X109242632Y-44853721D01*
X109232623Y-44914291D01*
X109222679Y-44993764D01*
X109220293Y-45016471D01*
X109203551Y-45131504D01*
X109176366Y-45214591D01*
X109132654Y-45275895D01*
X109066332Y-45325576D01*
X109020351Y-45350461D01*
X109003470Y-45357987D01*
X108981864Y-45365474D01*
X108953382Y-45373190D01*
X108915874Y-45381400D01*
X108867190Y-45390372D01*
X108805179Y-45400373D01*
X108727690Y-45411670D01*
X108632573Y-45424529D01*
X108517677Y-45439218D01*
X108380853Y-45456004D01*
X108219949Y-45475152D01*
X108032815Y-45496931D01*
X107817300Y-45521607D01*
X107571255Y-45549447D01*
X107292529Y-45580718D01*
X106978970Y-45615687D01*
X106628429Y-45654620D01*
X106238755Y-45697786D01*
X106083455Y-45714968D01*
X105727338Y-45754513D01*
X105385068Y-45792821D01*
X105058953Y-45829622D01*
X104751300Y-45864642D01*
X104464417Y-45897611D01*
X104200611Y-45928256D01*
X103962189Y-45956305D01*
X103751459Y-45981486D01*
X103570728Y-46003528D01*
X103422304Y-46022159D01*
X103308493Y-46037106D01*
X103231602Y-46048098D01*
X103193940Y-46054863D01*
X103191004Y-46055824D01*
X103143150Y-46099031D01*
X103123656Y-46160205D01*
X103133679Y-46224874D01*
X103173263Y-46277702D01*
X103198413Y-46291852D01*
X103259366Y-46323345D01*
X103353834Y-46371055D01*
X103479528Y-46433855D01*
X103634160Y-46510619D01*
X103815443Y-46600220D01*
X104021087Y-46701530D01*
X104248806Y-46813423D01*
X104496309Y-46934773D01*
X104761310Y-47064451D01*
X105041520Y-47201332D01*
X105334651Y-47344289D01*
X105638414Y-47492194D01*
X105724885Y-47534255D01*
X106030093Y-47682760D01*
X106324613Y-47826218D01*
X106606220Y-47963539D01*
X106872689Y-48093631D01*
X107121795Y-48215402D01*
X107351311Y-48327761D01*
X107559013Y-48429615D01*
X107742676Y-48519874D01*
X107900074Y-48597447D01*
X108028982Y-48661240D01*
X108127175Y-48710163D01*
X108192427Y-48743125D01*
X108222513Y-48759033D01*
X108224352Y-48760333D01*
X108205551Y-48770422D01*
X108150630Y-48797367D01*
X108061824Y-48840112D01*
X107941370Y-48897602D01*
X107791505Y-48968780D01*
X107614464Y-49052590D01*
X107412485Y-49147978D01*
X107187804Y-49253887D01*
X106942656Y-49369261D01*
X106679280Y-49493045D01*
X106399910Y-49624182D01*
X106106783Y-49761617D01*
X105802137Y-49904294D01*
X105696482Y-49953739D01*
X105387954Y-50098191D01*
X105089887Y-50237920D01*
X104804544Y-50371857D01*
X104534188Y-50498933D01*
X104281084Y-50618076D01*
X104047493Y-50728219D01*
X103835681Y-50828291D01*
X103647909Y-50917221D01*
X103486443Y-50993942D01*
X103353543Y-51057382D01*
X103251476Y-51106472D01*
X103182503Y-51140143D01*
X103148888Y-51157324D01*
X103145951Y-51159181D01*
X103131193Y-51193809D01*
X103123604Y-51250450D01*
X103123333Y-51263313D01*
X103127958Y-51319424D01*
X103127958Y-51319424D01*
G37*
X103127958Y-51319424D02*
X103149090Y-51350926D01*
X103192125Y-51372949D01*
X103221619Y-51378773D01*
X103290578Y-51388777D01*
X103396372Y-51402654D01*
X103536370Y-51420101D01*
X103707942Y-51440810D01*
X103908458Y-51464476D01*
X104135287Y-51490794D01*
X104385799Y-51519457D01*
X104657365Y-51550160D01*
X104947353Y-51582598D01*
X105253134Y-51616465D01*
X105572077Y-51651455D01*
X105832666Y-51679804D01*
X106161843Y-51715583D01*
X106481664Y-51750546D01*
X106789342Y-51784377D01*
X107082090Y-51816760D01*
X107357121Y-51847382D01*
X107611648Y-51875928D01*
X107842883Y-51902082D01*
X108048040Y-51925530D01*
X108224332Y-51945956D01*
X108368971Y-51963047D01*
X108479171Y-51976486D01*
X108552145Y-51985960D01*
X108580672Y-51990256D01*
X108774846Y-52038332D01*
X108931676Y-52105924D01*
X109051064Y-52192971D01*
X109132912Y-52299415D01*
X109150864Y-52336860D01*
X109167242Y-52394195D01*
X109181900Y-52477433D01*
X109192048Y-52570156D01*
X109193116Y-52585550D01*
X109197906Y-52671432D01*
X109197274Y-52726599D01*
X109188532Y-52762582D01*
X109168991Y-52790913D01*
X109138227Y-52821007D01*
X109090287Y-52858054D01*
X109031047Y-52887059D01*
X108953508Y-52909864D01*
X108850672Y-52928310D01*
X108715543Y-52944240D01*
X108644967Y-52950846D01*
X108585891Y-52954178D01*
X108489379Y-52957230D01*
X108358841Y-52960002D01*
X108197690Y-52962494D01*
X108009339Y-52964705D01*
X107797200Y-52966634D01*
X107564686Y-52968282D01*
X107315209Y-52969648D01*
X107052181Y-52970731D01*
X106779014Y-52971531D01*
X106499122Y-52972048D01*
X106215917Y-52972280D01*
X106192500Y-52972276D01*
X106192500Y-53734500D01*
X107277291Y-53735046D01*
X107574905Y-53735643D01*
X107833053Y-53737206D01*
X108054597Y-53739868D01*
X108242395Y-53743763D01*
X108399310Y-53749028D01*
X108528200Y-53755795D01*
X108631925Y-53764200D01*
X108713347Y-53774377D01*
X108775325Y-53786462D01*
X108820719Y-53800587D01*
X108838163Y-53808495D01*
X108907708Y-53866068D01*
X108969268Y-53958791D01*
X109021359Y-54079982D01*
X109062497Y-54222959D01*
X109091197Y-54381041D01*
X109105974Y-54547545D01*
X109105343Y-54715790D01*
X109087820Y-54879095D01*
X109082575Y-54908406D01*
X109023307Y-55117280D01*
X108931302Y-55300025D01*
X108808184Y-55454975D01*
X108655578Y-55580463D01*
X108475107Y-55674822D01*
X108277416Y-55734518D01*
X108065929Y-55760548D01*
X107834903Y-55755319D01*
X107592247Y-55719803D01*
X107345866Y-55654973D01*
X107197697Y-55601677D01*
X106996056Y-55502605D01*
X106805481Y-55372922D01*
X106632325Y-55218979D01*
X106482940Y-55047129D01*
X106363679Y-54863724D01*
X106285948Y-54690022D01*
X106256631Y-54581627D01*
X106231403Y-54441314D01*
X106211499Y-54279405D01*
X106198154Y-54106218D01*
X106192602Y-53932074D01*
X106192517Y-53909125D01*
X106192500Y-53734500D01*
X106192500Y-52972276D01*
X105932810Y-52972228D01*
X105653215Y-52971892D01*
X105380544Y-52971270D01*
X105118209Y-52970362D01*
X104869623Y-52969168D01*
X104638198Y-52967688D01*
X104427346Y-52965920D01*
X104240481Y-52963865D01*
X104081013Y-52961522D01*
X103952357Y-52958890D01*
X103857923Y-52955970D01*
X103801125Y-52952760D01*
X103790197Y-52951477D01*
X103681315Y-52924757D01*
X103613168Y-52888860D01*
X103613168Y-53734500D01*
X105831860Y-53734500D01*
X105842424Y-53782125D01*
X105854642Y-53862565D01*
X105863027Y-53970137D01*
X105867711Y-54095950D01*
X105868824Y-54231113D01*
X105866495Y-54366734D01*
X105860857Y-54493923D01*
X105852038Y-54603787D01*
X105840169Y-54687437D01*
X105828530Y-54729592D01*
X105786066Y-54796939D01*
X105716181Y-54874463D01*
X105629096Y-54952972D01*
X105535033Y-55023274D01*
X105444213Y-55076177D01*
X105441873Y-55077292D01*
X105313841Y-55131254D01*
X105191268Y-55166879D01*
X105061446Y-55186360D01*
X104911670Y-55191894D01*
X104795500Y-55188963D01*
X104531883Y-55162662D01*
X104297808Y-55107583D01*
X104093828Y-55024022D01*
X103920499Y-54912273D01*
X103778378Y-54772631D01*
X103668019Y-54605389D01*
X103658192Y-54586028D01*
X103622057Y-54510034D01*
X103598450Y-54448609D01*
X103584248Y-54387915D01*
X103576331Y-54314110D01*
X103571578Y-54213354D01*
X103571109Y-54199868D01*
X103570225Y-54090416D01*
X103574219Y-53982315D01*
X103582296Y-53891553D01*
X103588278Y-53854393D01*
X103613168Y-53734500D01*
X103613168Y-52888860D01*
X103598827Y-52881305D01*
X103538329Y-52815497D01*
X103495414Y-52721707D01*
X103465679Y-52594310D01*
X103455336Y-52523827D01*
X103440458Y-52417162D01*
X103426297Y-52345771D01*
X103409879Y-52302758D01*
X103388230Y-52281224D01*
X103358376Y-52274273D01*
X103347614Y-52274000D01*
X103323604Y-52274102D01*
X103303222Y-52276537D01*
X103286184Y-52284498D01*
X103272211Y-52301180D01*
X103261021Y-52329775D01*
X103252333Y-52373478D01*
X103245865Y-52435481D01*
X103241337Y-52518978D01*
X103238467Y-52627163D01*
X103236973Y-52763229D01*
X103236575Y-52930370D01*
X103236991Y-53131779D01*
X103237940Y-53370650D01*
X103238558Y-53512250D01*
X103243602Y-54676416D01*
X103298524Y-54882237D01*
X103382044Y-55127940D01*
X103492968Y-55343874D01*
X103630093Y-55528692D01*
X103792216Y-55681041D01*
X103978131Y-55799573D01*
X104186637Y-55882938D01*
X104192250Y-55884595D01*
X104310933Y-55907945D01*
X104455340Y-55918909D01*
X104610712Y-55917488D01*
X104762293Y-55903682D01*
X104867306Y-55884573D01*
X105077736Y-55816157D01*
X105297098Y-55707906D01*
X105523533Y-55560918D01*
X105755180Y-55376293D01*
X105810546Y-55327226D01*
X105926009Y-55222938D01*
X105993069Y-55377200D01*
X106096382Y-55579194D01*
X106227152Y-55778597D01*
X106377537Y-55965724D01*
X106539693Y-56130891D01*
X106705776Y-56264414D01*
X106718762Y-56273280D01*
X106951789Y-56405724D01*
X107196444Y-56498526D01*
X107449107Y-56551538D01*
X107706161Y-56564609D01*
X107963985Y-56537593D01*
X108218962Y-56470339D01*
X108467472Y-56362698D01*
X108497627Y-56346546D01*
X108721428Y-56200366D01*
X108918440Y-56022261D01*
X109087547Y-55813964D01*
X109227634Y-55577210D01*
X109337584Y-55313734D01*
X109416282Y-55025269D01*
X109442757Y-54877587D01*
X109458825Y-54725790D01*
X109467254Y-54537455D01*
X109468002Y-54317690D01*
X109461023Y-54071604D01*
X109451291Y-53882666D01*
X109448675Y-53818718D01*
X109446121Y-53716797D01*
X109443677Y-53581265D01*
X109441387Y-53416483D01*
X109439300Y-53226812D01*
X109437463Y-53016612D01*
X109435921Y-52790244D01*
X109434721Y-52552071D01*
X109433911Y-52306452D01*
X109433784Y-52249053D01*
X109433234Y-51965404D01*
X109432644Y-51721147D01*
X109431781Y-51513340D01*
X109430408Y-51339044D01*
X109428291Y-51195316D01*
X109425194Y-51079217D01*
X109420883Y-50987805D01*
X109415122Y-50918138D01*
X109407676Y-50867277D01*
X109398310Y-50832280D01*
X109386788Y-50810206D01*
X109372876Y-50798114D01*
X109356338Y-50793063D01*
X109336940Y-50792113D01*
X109317304Y-50792333D01*
X109259313Y-50807552D01*
X109227123Y-50854610D01*
X109218828Y-50918275D01*
X109211081Y-51013677D01*
X109191471Y-51099789D01*
X109163509Y-51164191D01*
X109142367Y-51188641D01*
X109094396Y-51208810D01*
X109040662Y-51216734D01*
X109007445Y-51215033D01*
X108936674Y-51209706D01*
X108831841Y-51201081D01*
X108696437Y-51189482D01*
X108533952Y-51175235D01*
X108347878Y-51158666D01*
X108141706Y-51140101D01*
X107918927Y-51119864D01*
X107683031Y-51098281D01*
X107437510Y-51075679D01*
X107185855Y-51052382D01*
X106931557Y-51028717D01*
X106678107Y-51005008D01*
X106428995Y-50981582D01*
X106187714Y-50958764D01*
X105957754Y-50936879D01*
X105742605Y-50916253D01*
X105545760Y-50897212D01*
X105370708Y-50880082D01*
X105220942Y-50865187D01*
X105099952Y-50852853D01*
X105011228Y-50843407D01*
X104958264Y-50837173D01*
X104943960Y-50834666D01*
X104962754Y-50824454D01*
X105017471Y-50797381D01*
X105105719Y-50754584D01*
X105225105Y-50697202D01*
X105373235Y-50626372D01*
X105547717Y-50543232D01*
X105746158Y-50448921D01*
X105966165Y-50344576D01*
X106205346Y-50231336D01*
X106461306Y-50110338D01*
X106731654Y-49982720D01*
X107013997Y-49849621D01*
X107146099Y-49787406D01*
X107434138Y-49651582D01*
X107711892Y-49520197D01*
X107976907Y-49394432D01*
X108226727Y-49275471D01*
X108458897Y-49164497D01*
X108670963Y-49062692D01*
X108860469Y-48971240D01*
X109024960Y-48891323D01*
X109161982Y-48824124D01*
X109269079Y-48770826D01*
X109343796Y-48732612D01*
X109383678Y-48710664D01*
X109389487Y-48706542D01*
X109425616Y-48641341D01*
X109422804Y-48571937D01*
X109383375Y-48511508D01*
X109340561Y-48480330D01*
X109262035Y-48432680D01*
X109150490Y-48369888D01*
X109008620Y-48293284D01*
X108839122Y-48204200D01*
X108644689Y-48103964D01*
X108428015Y-47993908D01*
X108191797Y-47875361D01*
X107938728Y-47749655D01*
X107671503Y-47618119D01*
X107392817Y-47482084D01*
X107105365Y-47342880D01*
X106811840Y-47201837D01*
X106514939Y-47060286D01*
X106217355Y-46919557D01*
X105921784Y-46780980D01*
X105630919Y-46645886D01*
X105347456Y-46515605D01*
X105256148Y-46473964D01*
X105163946Y-46431339D01*
X105088230Y-46395067D01*
X105035974Y-46368585D01*
X105014153Y-46355331D01*
X105013990Y-46354620D01*
X105036989Y-46350526D01*
X105098575Y-46343441D01*
X105195128Y-46333666D01*
X105323028Y-46321499D01*
X105478657Y-46307241D01*
X105658395Y-46291189D01*
X105858623Y-46273644D01*
X106075722Y-46254903D01*
X106306073Y-46235268D01*
X106546056Y-46215036D01*
X106792052Y-46194507D01*
X107040442Y-46173981D01*
X107287607Y-46153756D01*
X107529927Y-46134131D01*
X107763783Y-46115406D01*
X107985557Y-46097880D01*
X108191628Y-46081852D01*
X108378378Y-46067622D01*
X108542187Y-46055488D01*
X108679437Y-46045750D01*
X108786507Y-46038707D01*
X108859779Y-46034658D01*
X108894334Y-46033838D01*
X109000735Y-46042041D01*
X109078681Y-46061347D01*
X109133610Y-46097812D01*
X109170960Y-46157494D01*
X109196168Y-46246452D01*
X109214673Y-46370742D01*
X109217296Y-46393604D01*
X109231429Y-46487314D01*
X109249379Y-46558121D01*
X109268384Y-46595955D01*
X109315428Y-46617082D01*
X109370254Y-46608985D01*
X109415317Y-46576360D01*
X109428418Y-46553117D01*
X109432168Y-46521954D01*
X109435502Y-46453375D01*
X109438340Y-46352295D01*
X109440597Y-46223629D01*
X109442191Y-46072293D01*
X109443039Y-45903203D01*
X109443059Y-45721273D01*
X109442971Y-45688437D01*
X109442023Y-45471580D01*
X109440563Y-45293486D01*
X109438462Y-45150586D01*
X109435590Y-45039309D01*
X109431816Y-44956089D01*
X109427012Y-44897354D01*
X109421047Y-44859536D01*
X109413791Y-44839067D01*
X109411960Y-44836479D01*
X109372997Y-44812472D01*
X109319788Y-44802724D01*
X109271599Y-44808764D01*
X109250861Y-44823692D01*
X109242632Y-44853721D01*
X109232623Y-44914291D01*
X109222679Y-44993764D01*
X109220293Y-45016471D01*
X109203551Y-45131504D01*
X109176366Y-45214591D01*
X109132654Y-45275895D01*
X109066332Y-45325576D01*
X109020351Y-45350461D01*
X109003470Y-45357987D01*
X108981864Y-45365474D01*
X108953382Y-45373190D01*
X108915874Y-45381400D01*
X108867190Y-45390372D01*
X108805179Y-45400373D01*
X108727690Y-45411670D01*
X108632573Y-45424529D01*
X108517677Y-45439218D01*
X108380853Y-45456004D01*
X108219949Y-45475152D01*
X108032815Y-45496931D01*
X107817300Y-45521607D01*
X107571255Y-45549447D01*
X107292529Y-45580718D01*
X106978970Y-45615687D01*
X106628429Y-45654620D01*
X106238755Y-45697786D01*
X106083455Y-45714968D01*
X105727338Y-45754513D01*
X105385068Y-45792821D01*
X105058953Y-45829622D01*
X104751300Y-45864642D01*
X104464417Y-45897611D01*
X104200611Y-45928256D01*
X103962189Y-45956305D01*
X103751459Y-45981486D01*
X103570728Y-46003528D01*
X103422304Y-46022159D01*
X103308493Y-46037106D01*
X103231602Y-46048098D01*
X103193940Y-46054863D01*
X103191004Y-46055824D01*
X103143150Y-46099031D01*
X103123656Y-46160205D01*
X103133679Y-46224874D01*
X103173263Y-46277702D01*
X103198413Y-46291852D01*
X103259366Y-46323345D01*
X103353834Y-46371055D01*
X103479528Y-46433855D01*
X103634160Y-46510619D01*
X103815443Y-46600220D01*
X104021087Y-46701530D01*
X104248806Y-46813423D01*
X104496309Y-46934773D01*
X104761310Y-47064451D01*
X105041520Y-47201332D01*
X105334651Y-47344289D01*
X105638414Y-47492194D01*
X105724885Y-47534255D01*
X106030093Y-47682760D01*
X106324613Y-47826218D01*
X106606220Y-47963539D01*
X106872689Y-48093631D01*
X107121795Y-48215402D01*
X107351311Y-48327761D01*
X107559013Y-48429615D01*
X107742676Y-48519874D01*
X107900074Y-48597447D01*
X108028982Y-48661240D01*
X108127175Y-48710163D01*
X108192427Y-48743125D01*
X108222513Y-48759033D01*
X108224352Y-48760333D01*
X108205551Y-48770422D01*
X108150630Y-48797367D01*
X108061824Y-48840112D01*
X107941370Y-48897602D01*
X107791505Y-48968780D01*
X107614464Y-49052590D01*
X107412485Y-49147978D01*
X107187804Y-49253887D01*
X106942656Y-49369261D01*
X106679280Y-49493045D01*
X106399910Y-49624182D01*
X106106783Y-49761617D01*
X105802137Y-49904294D01*
X105696482Y-49953739D01*
X105387954Y-50098191D01*
X105089887Y-50237920D01*
X104804544Y-50371857D01*
X104534188Y-50498933D01*
X104281084Y-50618076D01*
X104047493Y-50728219D01*
X103835681Y-50828291D01*
X103647909Y-50917221D01*
X103486443Y-50993942D01*
X103353543Y-51057382D01*
X103251476Y-51106472D01*
X103182503Y-51140143D01*
X103148888Y-51157324D01*
X103145951Y-51159181D01*
X103131193Y-51193809D01*
X103123604Y-51250450D01*
X103123333Y-51263313D01*
X103127958Y-51319424D01*
G36*
X103125034Y-60343558D02*
X103130407Y-60534947D01*
X103140656Y-60712615D01*
X103156795Y-60888179D01*
X103179837Y-61073256D01*
X103210796Y-61279463D01*
X103238933Y-61449750D01*
X103262286Y-61590734D01*
X103284101Y-61728770D01*
X103302932Y-61854211D01*
X103317331Y-61957411D01*
X103325851Y-62028726D01*
X103325934Y-62029575D01*
X103340724Y-62135932D01*
X103364366Y-62205889D01*
X103402467Y-62245254D01*
X103460631Y-62259834D01*
X103543982Y-62255498D01*
X103670503Y-62242631D01*
X103827068Y-62230422D01*
X104001387Y-62219542D01*
X104181173Y-62210665D01*
X104354135Y-62204461D01*
X104507984Y-62201605D01*
X104530916Y-62201501D01*
X104683600Y-62199000D01*
X104798855Y-62191534D01*
X104881398Y-62178083D01*
X104935950Y-62157630D01*
X104967230Y-62129152D01*
X104977534Y-62105014D01*
X104981348Y-62038958D01*
X104953083Y-61991861D01*
X104890429Y-61962218D01*
X104791077Y-61948525D01*
X104735069Y-61947166D01*
X104528295Y-61927109D01*
X104336023Y-61868311D01*
X104161471Y-61772830D01*
X104007852Y-61642728D01*
X103878383Y-61480063D01*
X103805822Y-61351989D01*
X103706705Y-61121431D01*
X103631864Y-60882352D01*
X103579860Y-60627522D01*
X103549252Y-60349710D01*
X103538599Y-60041684D01*
X103538573Y-60010416D01*
X103551215Y-59659735D01*
X103588404Y-59341832D01*
X103651067Y-59054352D01*
X103740131Y-58794941D01*
X103856526Y-58561245D01*
X104001179Y-58350908D01*
X104175018Y-58161576D01*
X104315172Y-58039800D01*
X104541355Y-57882329D01*
X104787907Y-57754283D01*
X105057442Y-57654897D01*
X105352570Y-57583402D01*
X105675904Y-57539033D01*
X106030057Y-57521022D01*
X106083684Y-57520554D01*
X106319424Y-57524491D01*
X106526365Y-57539447D01*
X106717032Y-57567263D01*
X106903953Y-57609780D01*
X107099653Y-57668840D01*
X107105233Y-57670700D01*
X107427274Y-57797194D01*
X107720803Y-57952813D01*
X107990522Y-58140430D01*
X108241128Y-58362920D01*
X108247135Y-58368900D01*
X108479002Y-58627570D01*
X108672478Y-58902877D01*
X108828217Y-59196234D01*
X108946873Y-59509050D01*
X109029100Y-59842738D01*
X109071225Y-60148000D01*
X109080102Y-60314072D01*
X109079717Y-60503666D01*
X109070817Y-60700610D01*
X109054145Y-60888733D01*
X109030449Y-61051864D01*
X109029265Y-61058166D01*
X108976089Y-61264742D01*
X108900087Y-61452059D01*
X108804697Y-61613288D01*
X108693351Y-61741598D01*
X108679138Y-61754409D01*
X108579601Y-61825569D01*
X108449199Y-61894882D01*
X108299266Y-61957124D01*
X108141136Y-62007067D01*
X108118666Y-62012861D01*
X108017076Y-62039725D01*
X107949994Y-62062596D01*
X107910433Y-62085854D01*
X107891405Y-62113881D01*
X107885921Y-62151057D01*
X107885833Y-62158833D01*
X107892583Y-62204984D01*
X107915458Y-62238601D01*
X107958393Y-62260107D01*
X108025323Y-62269925D01*
X108120185Y-62268481D01*
X108246913Y-62256199D01*
X108409443Y-62233502D01*
X108478500Y-62222700D01*
X108687919Y-62186985D01*
X108870664Y-62151171D01*
X109022896Y-62116144D01*
X109140773Y-62082790D01*
X109220459Y-62051997D01*
X109222867Y-62050796D01*
X109284667Y-62003377D01*
X109339721Y-61925624D01*
X109388941Y-61815094D01*
X109433237Y-61669343D01*
X109473521Y-61485928D01*
X109506600Y-61289944D01*
X109517781Y-61191722D01*
X109527532Y-61059375D01*
X109535704Y-60901092D01*
X109542151Y-60725062D01*
X109546726Y-60539475D01*
X109549283Y-60352519D01*
X109549675Y-60172382D01*
X109547754Y-60007255D01*
X109543375Y-59865327D01*
X109536391Y-59754785D01*
X109534464Y-59735250D01*
X109472239Y-59324658D01*
X109376880Y-58939961D01*
X109248466Y-58581346D01*
X109087080Y-58249001D01*
X108892801Y-57943112D01*
X108665710Y-57663867D01*
X108620569Y-57615624D01*
X108360894Y-57372728D01*
X108081838Y-57167335D01*
X107782437Y-56998912D01*
X107461723Y-56866925D01*
X107118732Y-56770841D01*
X107074785Y-56761440D01*
X106683584Y-56700385D01*
X106298656Y-56679983D01*
X105921733Y-56699923D01*
X105554550Y-56759891D01*
X105198842Y-56859574D01*
X104856342Y-56998659D01*
X104528785Y-57176833D01*
X104433131Y-57238234D01*
X104157647Y-57445904D01*
X103914919Y-57680372D01*
X103704756Y-57941858D01*
X103526965Y-58230576D01*
X103482587Y-58317083D01*
X103380328Y-58541705D01*
X103297428Y-58763326D01*
X103232469Y-58989097D01*
X103184031Y-59226170D01*
X103150697Y-59481696D01*
X103131047Y-59762828D01*
X103123662Y-60076715D01*
X103123524Y-60126833D01*
X103125034Y-60343558D01*
X103125034Y-60343558D01*
G37*
X103125034Y-60343558D02*
X103130407Y-60534947D01*
X103140656Y-60712615D01*
X103156795Y-60888179D01*
X103179837Y-61073256D01*
X103210796Y-61279463D01*
X103238933Y-61449750D01*
X103262286Y-61590734D01*
X103284101Y-61728770D01*
X103302932Y-61854211D01*
X103317331Y-61957411D01*
X103325851Y-62028726D01*
X103325934Y-62029575D01*
X103340724Y-62135932D01*
X103364366Y-62205889D01*
X103402467Y-62245254D01*
X103460631Y-62259834D01*
X103543982Y-62255498D01*
X103670503Y-62242631D01*
X103827068Y-62230422D01*
X104001387Y-62219542D01*
X104181173Y-62210665D01*
X104354135Y-62204461D01*
X104507984Y-62201605D01*
X104530916Y-62201501D01*
X104683600Y-62199000D01*
X104798855Y-62191534D01*
X104881398Y-62178083D01*
X104935950Y-62157630D01*
X104967230Y-62129152D01*
X104977534Y-62105014D01*
X104981348Y-62038958D01*
X104953083Y-61991861D01*
X104890429Y-61962218D01*
X104791077Y-61948525D01*
X104735069Y-61947166D01*
X104528295Y-61927109D01*
X104336023Y-61868311D01*
X104161471Y-61772830D01*
X104007852Y-61642728D01*
X103878383Y-61480063D01*
X103805822Y-61351989D01*
X103706705Y-61121431D01*
X103631864Y-60882352D01*
X103579860Y-60627522D01*
X103549252Y-60349710D01*
X103538599Y-60041684D01*
X103538573Y-60010416D01*
X103551215Y-59659735D01*
X103588404Y-59341832D01*
X103651067Y-59054352D01*
X103740131Y-58794941D01*
X103856526Y-58561245D01*
X104001179Y-58350908D01*
X104175018Y-58161576D01*
X104315172Y-58039800D01*
X104541355Y-57882329D01*
X104787907Y-57754283D01*
X105057442Y-57654897D01*
X105352570Y-57583402D01*
X105675904Y-57539033D01*
X106030057Y-57521022D01*
X106083684Y-57520554D01*
X106319424Y-57524491D01*
X106526365Y-57539447D01*
X106717032Y-57567263D01*
X106903953Y-57609780D01*
X107099653Y-57668840D01*
X107105233Y-57670700D01*
X107427274Y-57797194D01*
X107720803Y-57952813D01*
X107990522Y-58140430D01*
X108241128Y-58362920D01*
X108247135Y-58368900D01*
X108479002Y-58627570D01*
X108672478Y-58902877D01*
X108828217Y-59196234D01*
X108946873Y-59509050D01*
X109029100Y-59842738D01*
X109071225Y-60148000D01*
X109080102Y-60314072D01*
X109079717Y-60503666D01*
X109070817Y-60700610D01*
X109054145Y-60888733D01*
X109030449Y-61051864D01*
X109029265Y-61058166D01*
X108976089Y-61264742D01*
X108900087Y-61452059D01*
X108804697Y-61613288D01*
X108693351Y-61741598D01*
X108679138Y-61754409D01*
X108579601Y-61825569D01*
X108449199Y-61894882D01*
X108299266Y-61957124D01*
X108141136Y-62007067D01*
X108118666Y-62012861D01*
X108017076Y-62039725D01*
X107949994Y-62062596D01*
X107910433Y-62085854D01*
X107891405Y-62113881D01*
X107885921Y-62151057D01*
X107885833Y-62158833D01*
X107892583Y-62204984D01*
X107915458Y-62238601D01*
X107958393Y-62260107D01*
X108025323Y-62269925D01*
X108120185Y-62268481D01*
X108246913Y-62256199D01*
X108409443Y-62233502D01*
X108478500Y-62222700D01*
X108687919Y-62186985D01*
X108870664Y-62151171D01*
X109022896Y-62116144D01*
X109140773Y-62082790D01*
X109220459Y-62051997D01*
X109222867Y-62050796D01*
X109284667Y-62003377D01*
X109339721Y-61925624D01*
X109388941Y-61815094D01*
X109433237Y-61669343D01*
X109473521Y-61485928D01*
X109506600Y-61289944D01*
X109517781Y-61191722D01*
X109527532Y-61059375D01*
X109535704Y-60901092D01*
X109542151Y-60725062D01*
X109546726Y-60539475D01*
X109549283Y-60352519D01*
X109549675Y-60172382D01*
X109547754Y-60007255D01*
X109543375Y-59865327D01*
X109536391Y-59754785D01*
X109534464Y-59735250D01*
X109472239Y-59324658D01*
X109376880Y-58939961D01*
X109248466Y-58581346D01*
X109087080Y-58249001D01*
X108892801Y-57943112D01*
X108665710Y-57663867D01*
X108620569Y-57615624D01*
X108360894Y-57372728D01*
X108081838Y-57167335D01*
X107782437Y-56998912D01*
X107461723Y-56866925D01*
X107118732Y-56770841D01*
X107074785Y-56761440D01*
X106683584Y-56700385D01*
X106298656Y-56679983D01*
X105921733Y-56699923D01*
X105554550Y-56759891D01*
X105198842Y-56859574D01*
X104856342Y-56998659D01*
X104528785Y-57176833D01*
X104433131Y-57238234D01*
X104157647Y-57445904D01*
X103914919Y-57680372D01*
X103704756Y-57941858D01*
X103526965Y-58230576D01*
X103482587Y-58317083D01*
X103380328Y-58541705D01*
X103297428Y-58763326D01*
X103232469Y-58989097D01*
X103184031Y-59226170D01*
X103150697Y-59481696D01*
X103131047Y-59762828D01*
X103123662Y-60076715D01*
X103123524Y-60126833D01*
X103125034Y-60343558D01*
G36*
X103235371Y-44442553D02*
X103236526Y-44605139D01*
X103238308Y-44755006D01*
X103240718Y-44886650D01*
X103243755Y-44994565D01*
X103247419Y-45073247D01*
X103251709Y-45117191D01*
X103253446Y-45123524D01*
X103294731Y-45163753D01*
X103352990Y-45175742D01*
X103394588Y-45164093D01*
X103420025Y-45138249D01*
X103437186Y-45087503D01*
X103448512Y-45009663D01*
X103464363Y-44919221D01*
X103490233Y-44829018D01*
X103509832Y-44781201D01*
X103543395Y-44722973D01*
X103581643Y-44685900D01*
X103639703Y-44657401D01*
X103673666Y-44644951D01*
X103696627Y-44637526D01*
X103722321Y-44631007D01*
X103753662Y-44625307D01*
X103793560Y-44620336D01*
X103844929Y-44616007D01*
X103910679Y-44612230D01*
X103993724Y-44608918D01*
X104096975Y-44605981D01*
X104223344Y-44603332D01*
X104375742Y-44600883D01*
X104557083Y-44598544D01*
X104770278Y-44596227D01*
X105018239Y-44593844D01*
X105303878Y-44591307D01*
X105494000Y-44589678D01*
X105813024Y-44586863D01*
X106092720Y-44584136D01*
X106336091Y-44581420D01*
X106546142Y-44578637D01*
X106725878Y-44575709D01*
X106878302Y-44572559D01*
X107006419Y-44569108D01*
X107113233Y-44565280D01*
X107201749Y-44560996D01*
X107274970Y-44556179D01*
X107335901Y-44550750D01*
X107387547Y-44544633D01*
X107420166Y-44539838D01*
X107749737Y-44476551D01*
X108044268Y-44397318D01*
X108302170Y-44302637D01*
X108520113Y-44194027D01*
X108626762Y-44121780D01*
X108746924Y-44023831D01*
X108870466Y-43909596D01*
X108987256Y-43788489D01*
X109087165Y-43669923D01*
X109094566Y-43660247D01*
X109225015Y-43461660D01*
X109340038Y-43234099D01*
X109434773Y-42989584D01*
X109504358Y-42740134D01*
X109535300Y-42570473D01*
X109545198Y-42467833D01*
X109551605Y-42335643D01*
X109554538Y-42186227D01*
X109554015Y-42031909D01*
X109550052Y-41885012D01*
X109542667Y-41757862D01*
X109534049Y-41676828D01*
X109486879Y-41435909D01*
X109416427Y-41195797D01*
X109326552Y-40965945D01*
X109221114Y-40755799D01*
X109103973Y-40574810D01*
X109062056Y-40521463D01*
X108878443Y-40327442D01*
X108672190Y-40161738D01*
X108440528Y-40022946D01*
X108180689Y-39909656D01*
X107889903Y-39820463D01*
X107565402Y-39753959D01*
X107545881Y-39750830D01*
X107499990Y-39744391D01*
X107446618Y-39738656D01*
X107382850Y-39733553D01*
X107305771Y-39729010D01*
X107212466Y-39724956D01*
X107100022Y-39721319D01*
X106965523Y-39718026D01*
X106806055Y-39715008D01*
X106618704Y-39712190D01*
X106400554Y-39709502D01*
X106148691Y-39706873D01*
X105860201Y-39704230D01*
X105546916Y-39701619D01*
X105201128Y-39698656D01*
X104895922Y-39695637D01*
X104629548Y-39692522D01*
X104400255Y-39689276D01*
X104206292Y-39685860D01*
X104045909Y-39682237D01*
X103917354Y-39678370D01*
X103818877Y-39674220D01*
X103748727Y-39669750D01*
X103705154Y-39664923D01*
X103690902Y-39661795D01*
X103609575Y-39621856D01*
X103547061Y-39558847D01*
X103500888Y-39468078D01*
X103468587Y-39344862D01*
X103449453Y-39203583D01*
X103437310Y-39107963D01*
X103420692Y-39047472D01*
X103395842Y-39014911D01*
X103359003Y-39003082D01*
X103344503Y-39002500D01*
X103319634Y-39002731D01*
X103298825Y-39005729D01*
X103281723Y-39014949D01*
X103267978Y-39033848D01*
X103257240Y-39065880D01*
X103249158Y-39114501D01*
X103243380Y-39183167D01*
X103239555Y-39275334D01*
X103237334Y-39394457D01*
X103236364Y-39543992D01*
X103236296Y-39727395D01*
X103236778Y-39948121D01*
X103237080Y-40060496D01*
X103237698Y-40296603D01*
X103238425Y-40493866D01*
X103239637Y-40655774D01*
X103241706Y-40785817D01*
X103245008Y-40887484D01*
X103249915Y-40964264D01*
X103256803Y-41019645D01*
X103266045Y-41057117D01*
X103278016Y-41080169D01*
X103293089Y-41092290D01*
X103311639Y-41096970D01*
X103334039Y-41097696D01*
X103348283Y-41097675D01*
X103390629Y-41089376D01*
X103419603Y-41059055D01*
X103439278Y-40999662D01*
X103452098Y-40918083D01*
X103471931Y-40796700D01*
X103500362Y-40708925D01*
X103541901Y-40646227D01*
X103601061Y-40600079D01*
X103627955Y-40585670D01*
X103726583Y-40537083D01*
X105546916Y-40537083D01*
X105869452Y-40537135D01*
X106152627Y-40537331D01*
X106399411Y-40537727D01*
X106612776Y-40538380D01*
X106795694Y-40539347D01*
X106951136Y-40540686D01*
X107082073Y-40542452D01*
X107191477Y-40544703D01*
X107282319Y-40547495D01*
X107357572Y-40550887D01*
X107420205Y-40554934D01*
X107473191Y-40559695D01*
X107519501Y-40565224D01*
X107562107Y-40571581D01*
X107589500Y-40576232D01*
X107883850Y-40641953D01*
X108144027Y-40730126D01*
X108372670Y-40842304D01*
X108572422Y-40980042D01*
X108745925Y-41144895D01*
X108895822Y-41338418D01*
X108902944Y-41349179D01*
X109011975Y-41552208D01*
X109089209Y-41776605D01*
X109134365Y-42015470D01*
X109147158Y-42261904D01*
X109127305Y-42509007D01*
X109074523Y-42749879D01*
X108988528Y-42977621D01*
X108971294Y-43013126D01*
X108851697Y-43215765D01*
X108708684Y-43391611D01*
X108539875Y-43542108D01*
X108342892Y-43668703D01*
X108115356Y-43772843D01*
X107854887Y-43855972D01*
X107559107Y-43919538D01*
X107451916Y-43936679D01*
X107397710Y-43941548D01*
X107305363Y-43946169D01*
X107179070Y-43950519D01*
X107023024Y-43954570D01*
X106841417Y-43958298D01*
X106638442Y-43961678D01*
X106418292Y-43964682D01*
X106185161Y-43967287D01*
X105943242Y-43969466D01*
X105696727Y-43971193D01*
X105449810Y-43972443D01*
X105206683Y-43973190D01*
X104971540Y-43973410D01*
X104748574Y-43973075D01*
X104541978Y-43972161D01*
X104355944Y-43970642D01*
X104194666Y-43968492D01*
X104062336Y-43965686D01*
X103963149Y-43962197D01*
X103904600Y-43958347D01*
X103771125Y-43940621D01*
X103672441Y-43915870D01*
X103601157Y-43880648D01*
X103549881Y-43831510D01*
X103517261Y-43777765D01*
X103495957Y-43718020D01*
X103475227Y-43632288D01*
X103458841Y-43536795D01*
X103455920Y-43513771D01*
X103443944Y-43427813D01*
X103430496Y-43356746D01*
X103417887Y-43312090D01*
X103413942Y-43304625D01*
X103374003Y-43282152D01*
X103319472Y-43279974D01*
X103270935Y-43296734D01*
X103253311Y-43315208D01*
X103248794Y-43344551D01*
X103244910Y-43410717D01*
X103241657Y-43508203D01*
X103239034Y-43631503D01*
X103237042Y-43775113D01*
X103235681Y-43933528D01*
X103234948Y-44101242D01*
X103234845Y-44272752D01*
X103235371Y-44442553D01*
X103235371Y-44442553D01*
G37*
X103235371Y-44442553D02*
X103236526Y-44605139D01*
X103238308Y-44755006D01*
X103240718Y-44886650D01*
X103243755Y-44994565D01*
X103247419Y-45073247D01*
X103251709Y-45117191D01*
X103253446Y-45123524D01*
X103294731Y-45163753D01*
X103352990Y-45175742D01*
X103394588Y-45164093D01*
X103420025Y-45138249D01*
X103437186Y-45087503D01*
X103448512Y-45009663D01*
X103464363Y-44919221D01*
X103490233Y-44829018D01*
X103509832Y-44781201D01*
X103543395Y-44722973D01*
X103581643Y-44685900D01*
X103639703Y-44657401D01*
X103673666Y-44644951D01*
X103696627Y-44637526D01*
X103722321Y-44631007D01*
X103753662Y-44625307D01*
X103793560Y-44620336D01*
X103844929Y-44616007D01*
X103910679Y-44612230D01*
X103993724Y-44608918D01*
X104096975Y-44605981D01*
X104223344Y-44603332D01*
X104375742Y-44600883D01*
X104557083Y-44598544D01*
X104770278Y-44596227D01*
X105018239Y-44593844D01*
X105303878Y-44591307D01*
X105494000Y-44589678D01*
X105813024Y-44586863D01*
X106092720Y-44584136D01*
X106336091Y-44581420D01*
X106546142Y-44578637D01*
X106725878Y-44575709D01*
X106878302Y-44572559D01*
X107006419Y-44569108D01*
X107113233Y-44565280D01*
X107201749Y-44560996D01*
X107274970Y-44556179D01*
X107335901Y-44550750D01*
X107387547Y-44544633D01*
X107420166Y-44539838D01*
X107749737Y-44476551D01*
X108044268Y-44397318D01*
X108302170Y-44302637D01*
X108520113Y-44194027D01*
X108626762Y-44121780D01*
X108746924Y-44023831D01*
X108870466Y-43909596D01*
X108987256Y-43788489D01*
X109087165Y-43669923D01*
X109094566Y-43660247D01*
X109225015Y-43461660D01*
X109340038Y-43234099D01*
X109434773Y-42989584D01*
X109504358Y-42740134D01*
X109535300Y-42570473D01*
X109545198Y-42467833D01*
X109551605Y-42335643D01*
X109554538Y-42186227D01*
X109554015Y-42031909D01*
X109550052Y-41885012D01*
X109542667Y-41757862D01*
X109534049Y-41676828D01*
X109486879Y-41435909D01*
X109416427Y-41195797D01*
X109326552Y-40965945D01*
X109221114Y-40755799D01*
X109103973Y-40574810D01*
X109062056Y-40521463D01*
X108878443Y-40327442D01*
X108672190Y-40161738D01*
X108440528Y-40022946D01*
X108180689Y-39909656D01*
X107889903Y-39820463D01*
X107565402Y-39753959D01*
X107545881Y-39750830D01*
X107499990Y-39744391D01*
X107446618Y-39738656D01*
X107382850Y-39733553D01*
X107305771Y-39729010D01*
X107212466Y-39724956D01*
X107100022Y-39721319D01*
X106965523Y-39718026D01*
X106806055Y-39715008D01*
X106618704Y-39712190D01*
X106400554Y-39709502D01*
X106148691Y-39706873D01*
X105860201Y-39704230D01*
X105546916Y-39701619D01*
X105201128Y-39698656D01*
X104895922Y-39695637D01*
X104629548Y-39692522D01*
X104400255Y-39689276D01*
X104206292Y-39685860D01*
X104045909Y-39682237D01*
X103917354Y-39678370D01*
X103818877Y-39674220D01*
X103748727Y-39669750D01*
X103705154Y-39664923D01*
X103690902Y-39661795D01*
X103609575Y-39621856D01*
X103547061Y-39558847D01*
X103500888Y-39468078D01*
X103468587Y-39344862D01*
X103449453Y-39203583D01*
X103437310Y-39107963D01*
X103420692Y-39047472D01*
X103395842Y-39014911D01*
X103359003Y-39003082D01*
X103344503Y-39002500D01*
X103319634Y-39002731D01*
X103298825Y-39005729D01*
X103281723Y-39014949D01*
X103267978Y-39033848D01*
X103257240Y-39065880D01*
X103249158Y-39114501D01*
X103243380Y-39183167D01*
X103239555Y-39275334D01*
X103237334Y-39394457D01*
X103236364Y-39543992D01*
X103236296Y-39727395D01*
X103236778Y-39948121D01*
X103237080Y-40060496D01*
X103237698Y-40296603D01*
X103238425Y-40493866D01*
X103239637Y-40655774D01*
X103241706Y-40785817D01*
X103245008Y-40887484D01*
X103249915Y-40964264D01*
X103256803Y-41019645D01*
X103266045Y-41057117D01*
X103278016Y-41080169D01*
X103293089Y-41092290D01*
X103311639Y-41096970D01*
X103334039Y-41097696D01*
X103348283Y-41097675D01*
X103390629Y-41089376D01*
X103419603Y-41059055D01*
X103439278Y-40999662D01*
X103452098Y-40918083D01*
X103471931Y-40796700D01*
X103500362Y-40708925D01*
X103541901Y-40646227D01*
X103601061Y-40600079D01*
X103627955Y-40585670D01*
X103726583Y-40537083D01*
X105546916Y-40537083D01*
X105869452Y-40537135D01*
X106152627Y-40537331D01*
X106399411Y-40537727D01*
X106612776Y-40538380D01*
X106795694Y-40539347D01*
X106951136Y-40540686D01*
X107082073Y-40542452D01*
X107191477Y-40544703D01*
X107282319Y-40547495D01*
X107357572Y-40550887D01*
X107420205Y-40554934D01*
X107473191Y-40559695D01*
X107519501Y-40565224D01*
X107562107Y-40571581D01*
X107589500Y-40576232D01*
X107883850Y-40641953D01*
X108144027Y-40730126D01*
X108372670Y-40842304D01*
X108572422Y-40980042D01*
X108745925Y-41144895D01*
X108895822Y-41338418D01*
X108902944Y-41349179D01*
X109011975Y-41552208D01*
X109089209Y-41776605D01*
X109134365Y-42015470D01*
X109147158Y-42261904D01*
X109127305Y-42509007D01*
X109074523Y-42749879D01*
X108988528Y-42977621D01*
X108971294Y-43013126D01*
X108851697Y-43215765D01*
X108708684Y-43391611D01*
X108539875Y-43542108D01*
X108342892Y-43668703D01*
X108115356Y-43772843D01*
X107854887Y-43855972D01*
X107559107Y-43919538D01*
X107451916Y-43936679D01*
X107397710Y-43941548D01*
X107305363Y-43946169D01*
X107179070Y-43950519D01*
X107023024Y-43954570D01*
X106841417Y-43958298D01*
X106638442Y-43961678D01*
X106418292Y-43964682D01*
X106185161Y-43967287D01*
X105943242Y-43969466D01*
X105696727Y-43971193D01*
X105449810Y-43972443D01*
X105206683Y-43973190D01*
X104971540Y-43973410D01*
X104748574Y-43973075D01*
X104541978Y-43972161D01*
X104355944Y-43970642D01*
X104194666Y-43968492D01*
X104062336Y-43965686D01*
X103963149Y-43962197D01*
X103904600Y-43958347D01*
X103771125Y-43940621D01*
X103672441Y-43915870D01*
X103601157Y-43880648D01*
X103549881Y-43831510D01*
X103517261Y-43777765D01*
X103495957Y-43718020D01*
X103475227Y-43632288D01*
X103458841Y-43536795D01*
X103455920Y-43513771D01*
X103443944Y-43427813D01*
X103430496Y-43356746D01*
X103417887Y-43312090D01*
X103413942Y-43304625D01*
X103374003Y-43282152D01*
X103319472Y-43279974D01*
X103270935Y-43296734D01*
X103253311Y-43315208D01*
X103248794Y-43344551D01*
X103244910Y-43410717D01*
X103241657Y-43508203D01*
X103239034Y-43631503D01*
X103237042Y-43775113D01*
X103235681Y-43933528D01*
X103234948Y-44101242D01*
X103234845Y-44272752D01*
X103235371Y-44442553D01*
D12*
G04 #@! TO.C,J6*
X62500000Y-36420000D02*
X61170000Y-36420000D01*
X61170000Y-36420000D02*
X61170000Y-37750000D01*
X63770000Y-36420000D02*
X63770000Y-39020000D01*
X63770000Y-39020000D02*
X61170000Y-39020000D01*
X61170000Y-39020000D02*
X61170000Y-56860000D01*
X66370000Y-56860000D02*
X61170000Y-56860000D01*
X66370000Y-36420000D02*
X66370000Y-56860000D01*
X66370000Y-36420000D02*
X63770000Y-36420000D01*
G04 #@! TO.C,J9*
X66370000Y-58670000D02*
X63770000Y-58670000D01*
X66370000Y-58670000D02*
X66370000Y-79110000D01*
X66370000Y-79110000D02*
X61170000Y-79110000D01*
X61170000Y-61270000D02*
X61170000Y-79110000D01*
X63770000Y-61270000D02*
X61170000Y-61270000D01*
X63770000Y-58670000D02*
X63770000Y-61270000D01*
X61170000Y-58670000D02*
X61170000Y-60000000D01*
X62500000Y-58670000D02*
X61170000Y-58670000D01*
G04 #@! TO.C,J6*
D13*
X64103333Y-34432380D02*
X64103333Y-35146666D01*
X64150952Y-35289523D01*
X64246190Y-35384761D01*
X64389047Y-35432380D01*
X64484285Y-35432380D01*
X63198571Y-34432380D02*
X63389047Y-34432380D01*
X63484285Y-34480000D01*
X63531904Y-34527619D01*
X63627142Y-34670476D01*
X63674761Y-34860952D01*
X63674761Y-35241904D01*
X63627142Y-35337142D01*
X63579523Y-35384761D01*
X63484285Y-35432380D01*
X63293809Y-35432380D01*
X63198571Y-35384761D01*
X63150952Y-35337142D01*
X63103333Y-35241904D01*
X63103333Y-35003809D01*
X63150952Y-34908571D01*
X63198571Y-34860952D01*
X63293809Y-34813333D01*
X63484285Y-34813333D01*
X63579523Y-34860952D01*
X63627142Y-34908571D01*
X63674761Y-35003809D01*
G04 #@! TO.C,J9*
X64103333Y-56682380D02*
X64103333Y-57396666D01*
X64150952Y-57539523D01*
X64246190Y-57634761D01*
X64389047Y-57682380D01*
X64484285Y-57682380D01*
X63579523Y-57682380D02*
X63389047Y-57682380D01*
X63293809Y-57634761D01*
X63246190Y-57587142D01*
X63150952Y-57444285D01*
X63103333Y-57253809D01*
X63103333Y-56872857D01*
X63150952Y-56777619D01*
X63198571Y-56730000D01*
X63293809Y-56682380D01*
X63484285Y-56682380D01*
X63579523Y-56730000D01*
X63627142Y-56777619D01*
X63674761Y-56872857D01*
X63674761Y-57110952D01*
X63627142Y-57206190D01*
X63579523Y-57253809D01*
X63484285Y-57301428D01*
X63293809Y-57301428D01*
X63198571Y-57253809D01*
X63150952Y-57206190D01*
X63103333Y-57110952D01*
G04 #@! TD*
M02*
