G04 #@! TF.GenerationSoftware,KiCad,Pcbnew,(5.0.2)-1*
G04 #@! TF.CreationDate,2019-06-23T01:10:28-04:00*
G04 #@! TF.ProjectId,RPi-Ham,5250692d-4861-46d2-9e6b-696361645f70,rev?*
G04 #@! TF.SameCoordinates,Original*
G04 #@! TF.FileFunction,Legend,Top*
G04 #@! TF.FilePolarity,Positive*
%FSLAX46Y46*%
G04 Gerber Fmt 4.6, Leading zero omitted, Abs format (unit mm)*
G04 Created by KiCad (PCBNEW (5.0.2)-1) date 2019-06-23 01:10:28*
%MOMM*%
%LPD*%
G01*
G04 APERTURE LIST*
%ADD10C,0.300000*%
%ADD11C,0.120000*%
%ADD12C,0.150000*%
G04 APERTURE END LIST*
D10*
X105428571Y-83964285D02*
X103928571Y-83964285D01*
X103928571Y-83607142D01*
X104000000Y-83392857D01*
X104142857Y-83250000D01*
X104285714Y-83178571D01*
X104571428Y-83107142D01*
X104785714Y-83107142D01*
X105071428Y-83178571D01*
X105214285Y-83250000D01*
X105357142Y-83392857D01*
X105428571Y-83607142D01*
X105428571Y-83964285D01*
X105428571Y-81821428D02*
X104642857Y-81821428D01*
X104500000Y-81892857D01*
X104428571Y-82035714D01*
X104428571Y-82321428D01*
X104500000Y-82464285D01*
X105357142Y-81821428D02*
X105428571Y-81964285D01*
X105428571Y-82321428D01*
X105357142Y-82464285D01*
X105214285Y-82535714D01*
X105071428Y-82535714D01*
X104928571Y-82464285D01*
X104857142Y-82321428D01*
X104857142Y-81964285D01*
X104785714Y-81821428D01*
X104428571Y-81321428D02*
X104428571Y-80750000D01*
X103928571Y-81107142D02*
X105214285Y-81107142D01*
X105357142Y-81035714D01*
X105428571Y-80892857D01*
X105428571Y-80750000D01*
X105428571Y-79607142D02*
X104642857Y-79607142D01*
X104500000Y-79678571D01*
X104428571Y-79821428D01*
X104428571Y-80107142D01*
X104500000Y-80250000D01*
X105357142Y-79607142D02*
X105428571Y-79750000D01*
X105428571Y-80107142D01*
X105357142Y-80250000D01*
X105214285Y-80321428D01*
X105071428Y-80321428D01*
X104928571Y-80250000D01*
X104857142Y-80107142D01*
X104857142Y-79750000D01*
X104785714Y-79607142D01*
X105428571Y-76964285D02*
X105428571Y-77821428D01*
X105428571Y-77392857D02*
X103928571Y-77392857D01*
X104142857Y-77535714D01*
X104285714Y-77678571D01*
X104357142Y-77821428D01*
X63285714Y-84178571D02*
X63285714Y-82678571D01*
X63642857Y-82678571D01*
X63857142Y-82750000D01*
X64000000Y-82892857D01*
X64071428Y-83035714D01*
X64142857Y-83321428D01*
X64142857Y-83535714D01*
X64071428Y-83821428D01*
X64000000Y-83964285D01*
X63857142Y-84107142D01*
X63642857Y-84178571D01*
X63285714Y-84178571D01*
X65428571Y-84178571D02*
X65428571Y-83392857D01*
X65357142Y-83250000D01*
X65214285Y-83178571D01*
X64928571Y-83178571D01*
X64785714Y-83250000D01*
X65428571Y-84107142D02*
X65285714Y-84178571D01*
X64928571Y-84178571D01*
X64785714Y-84107142D01*
X64714285Y-83964285D01*
X64714285Y-83821428D01*
X64785714Y-83678571D01*
X64928571Y-83607142D01*
X65285714Y-83607142D01*
X65428571Y-83535714D01*
X65928571Y-83178571D02*
X66500000Y-83178571D01*
X66142857Y-82678571D02*
X66142857Y-83964285D01*
X66214285Y-84107142D01*
X66357142Y-84178571D01*
X66500000Y-84178571D01*
X67642857Y-84178571D02*
X67642857Y-83392857D01*
X67571428Y-83250000D01*
X67428571Y-83178571D01*
X67142857Y-83178571D01*
X67000000Y-83250000D01*
X67642857Y-84107142D02*
X67500000Y-84178571D01*
X67142857Y-84178571D01*
X67000000Y-84107142D01*
X66928571Y-83964285D01*
X66928571Y-83821428D01*
X67000000Y-83678571D01*
X67142857Y-83607142D01*
X67500000Y-83607142D01*
X67642857Y-83535714D01*
X69785714Y-82678571D02*
X69928571Y-82678571D01*
X70071428Y-82750000D01*
X70142857Y-82821428D01*
X70214285Y-82964285D01*
X70285714Y-83250000D01*
X70285714Y-83607142D01*
X70214285Y-83892857D01*
X70142857Y-84035714D01*
X70071428Y-84107142D01*
X69928571Y-84178571D01*
X69785714Y-84178571D01*
X69642857Y-84107142D01*
X69571428Y-84035714D01*
X69500000Y-83892857D01*
X69428571Y-83607142D01*
X69428571Y-83250000D01*
X69500000Y-82964285D01*
X69571428Y-82821428D01*
X69642857Y-82750000D01*
X69785714Y-82678571D01*
X48214285Y-60500000D02*
X48928571Y-60500000D01*
X48071428Y-60928571D02*
X48571428Y-59428571D01*
X49071428Y-60928571D01*
X50214285Y-59928571D02*
X50214285Y-60928571D01*
X49571428Y-59928571D02*
X49571428Y-60714285D01*
X49642857Y-60857142D01*
X49785714Y-60928571D01*
X50000000Y-60928571D01*
X50142857Y-60857142D01*
X50214285Y-60785714D01*
X51571428Y-60928571D02*
X51571428Y-59428571D01*
X51571428Y-60857142D02*
X51428571Y-60928571D01*
X51142857Y-60928571D01*
X51000000Y-60857142D01*
X50928571Y-60785714D01*
X50857142Y-60642857D01*
X50857142Y-60214285D01*
X50928571Y-60071428D01*
X51000000Y-60000000D01*
X51142857Y-59928571D01*
X51428571Y-59928571D01*
X51571428Y-60000000D01*
X52285714Y-60928571D02*
X52285714Y-59928571D01*
X52285714Y-59428571D02*
X52214285Y-59500000D01*
X52285714Y-59571428D01*
X52357142Y-59500000D01*
X52285714Y-59428571D01*
X52285714Y-59571428D01*
X53214285Y-60928571D02*
X53071428Y-60857142D01*
X53000000Y-60785714D01*
X52928571Y-60642857D01*
X52928571Y-60214285D01*
X53000000Y-60071428D01*
X53071428Y-60000000D01*
X53214285Y-59928571D01*
X53428571Y-59928571D01*
X53571428Y-60000000D01*
X53642857Y-60071428D01*
X53714285Y-60214285D01*
X53714285Y-60642857D01*
X53642857Y-60785714D01*
X53571428Y-60857142D01*
X53428571Y-60928571D01*
X53214285Y-60928571D01*
X56285714Y-60928571D02*
X55428571Y-60928571D01*
X55857142Y-60928571D02*
X55857142Y-59428571D01*
X55714285Y-59642857D01*
X55571428Y-59785714D01*
X55428571Y-59857142D01*
X54035714Y-53750000D02*
X54750000Y-53750000D01*
X53892857Y-54178571D02*
X54392857Y-52678571D01*
X54892857Y-54178571D01*
X56035714Y-53178571D02*
X56035714Y-54178571D01*
X55392857Y-53178571D02*
X55392857Y-53964285D01*
X55464285Y-54107142D01*
X55607142Y-54178571D01*
X55821428Y-54178571D01*
X55964285Y-54107142D01*
X56035714Y-54035714D01*
X57392857Y-54178571D02*
X57392857Y-52678571D01*
X57392857Y-54107142D02*
X57250000Y-54178571D01*
X56964285Y-54178571D01*
X56821428Y-54107142D01*
X56750000Y-54035714D01*
X56678571Y-53892857D01*
X56678571Y-53464285D01*
X56750000Y-53321428D01*
X56821428Y-53250000D01*
X56964285Y-53178571D01*
X57250000Y-53178571D01*
X57392857Y-53250000D01*
X58107142Y-54178571D02*
X58107142Y-53178571D01*
X58107142Y-52678571D02*
X58035714Y-52750000D01*
X58107142Y-52821428D01*
X58178571Y-52750000D01*
X58107142Y-52678571D01*
X58107142Y-52821428D01*
X59035714Y-54178571D02*
X58892857Y-54107142D01*
X58821428Y-54035714D01*
X58750000Y-53892857D01*
X58750000Y-53464285D01*
X58821428Y-53321428D01*
X58892857Y-53250000D01*
X59035714Y-53178571D01*
X59250000Y-53178571D01*
X59392857Y-53250000D01*
X59464285Y-53321428D01*
X59535714Y-53464285D01*
X59535714Y-53892857D01*
X59464285Y-54035714D01*
X59392857Y-54107142D01*
X59250000Y-54178571D01*
X59035714Y-54178571D01*
X60464285Y-52678571D02*
X60607142Y-52678571D01*
X60750000Y-52750000D01*
X60821428Y-52821428D01*
X60892857Y-52964285D01*
X60964285Y-53250000D01*
X60964285Y-53607142D01*
X60892857Y-53892857D01*
X60821428Y-54035714D01*
X60750000Y-54107142D01*
X60607142Y-54178571D01*
X60464285Y-54178571D01*
X60321428Y-54107142D01*
X60250000Y-54035714D01*
X60178571Y-53892857D01*
X60107142Y-53607142D01*
X60107142Y-53250000D01*
X60178571Y-52964285D01*
X60250000Y-52821428D01*
X60321428Y-52750000D01*
X60464285Y-52678571D01*
X74678571Y-70071428D02*
X73178571Y-70071428D01*
X73178571Y-69714285D01*
X73250000Y-69500000D01*
X73392857Y-69357142D01*
X73535714Y-69285714D01*
X73821428Y-69214285D01*
X74035714Y-69214285D01*
X74321428Y-69285714D01*
X74464285Y-69357142D01*
X74607142Y-69500000D01*
X74678571Y-69714285D01*
X74678571Y-70071428D01*
X74535714Y-67714285D02*
X74607142Y-67785714D01*
X74678571Y-68000000D01*
X74678571Y-68142857D01*
X74607142Y-68357142D01*
X74464285Y-68500000D01*
X74321428Y-68571428D01*
X74035714Y-68642857D01*
X73821428Y-68642857D01*
X73535714Y-68571428D01*
X73392857Y-68500000D01*
X73250000Y-68357142D01*
X73178571Y-68142857D01*
X73178571Y-68000000D01*
X73250000Y-67785714D01*
X73321428Y-67714285D01*
X73892857Y-67071428D02*
X73892857Y-66571428D01*
X74678571Y-66357142D02*
X74678571Y-67071428D01*
X73178571Y-67071428D01*
X73178571Y-66357142D01*
X86178571Y-64178571D02*
X85035714Y-64607142D01*
X86178571Y-65035714D01*
X90321428Y-64178571D02*
X91464285Y-64607142D01*
X90321428Y-65035714D01*
X67107142Y-77000000D02*
X66964285Y-76928571D01*
X66750000Y-76928571D01*
X66535714Y-77000000D01*
X66392857Y-77142857D01*
X66321428Y-77285714D01*
X66250000Y-77571428D01*
X66250000Y-77785714D01*
X66321428Y-78071428D01*
X66392857Y-78214285D01*
X66535714Y-78357142D01*
X66750000Y-78428571D01*
X66892857Y-78428571D01*
X67107142Y-78357142D01*
X67178571Y-78285714D01*
X67178571Y-77785714D01*
X66892857Y-77785714D01*
X67821428Y-78428571D02*
X67821428Y-76928571D01*
X68678571Y-78428571D01*
X68678571Y-76928571D01*
X69392857Y-78428571D02*
X69392857Y-76928571D01*
X69750000Y-76928571D01*
X69964285Y-77000000D01*
X70107142Y-77142857D01*
X70178571Y-77285714D01*
X70250000Y-77571428D01*
X70250000Y-77785714D01*
X70178571Y-78071428D01*
X70107142Y-78214285D01*
X69964285Y-78357142D01*
X69750000Y-78428571D01*
X69392857Y-78428571D01*
X67107142Y-74500000D02*
X66964285Y-74428571D01*
X66750000Y-74428571D01*
X66535714Y-74500000D01*
X66392857Y-74642857D01*
X66321428Y-74785714D01*
X66250000Y-75071428D01*
X66250000Y-75285714D01*
X66321428Y-75571428D01*
X66392857Y-75714285D01*
X66535714Y-75857142D01*
X66750000Y-75928571D01*
X66892857Y-75928571D01*
X67107142Y-75857142D01*
X67178571Y-75785714D01*
X67178571Y-75285714D01*
X66892857Y-75285714D01*
X67821428Y-75928571D02*
X67821428Y-74428571D01*
X68678571Y-75928571D01*
X68678571Y-74428571D01*
X69392857Y-75928571D02*
X69392857Y-74428571D01*
X69750000Y-74428571D01*
X69964285Y-74500000D01*
X70107142Y-74642857D01*
X70178571Y-74785714D01*
X70250000Y-75071428D01*
X70250000Y-75285714D01*
X70178571Y-75571428D01*
X70107142Y-75714285D01*
X69964285Y-75857142D01*
X69750000Y-75928571D01*
X69392857Y-75928571D01*
X67107142Y-72000000D02*
X66964285Y-71928571D01*
X66750000Y-71928571D01*
X66535714Y-72000000D01*
X66392857Y-72142857D01*
X66321428Y-72285714D01*
X66250000Y-72571428D01*
X66250000Y-72785714D01*
X66321428Y-73071428D01*
X66392857Y-73214285D01*
X66535714Y-73357142D01*
X66750000Y-73428571D01*
X66892857Y-73428571D01*
X67107142Y-73357142D01*
X67178571Y-73285714D01*
X67178571Y-72785714D01*
X66892857Y-72785714D01*
X67821428Y-73428571D02*
X67821428Y-71928571D01*
X68678571Y-73428571D01*
X68678571Y-71928571D01*
X69392857Y-73428571D02*
X69392857Y-71928571D01*
X69750000Y-71928571D01*
X69964285Y-72000000D01*
X70107142Y-72142857D01*
X70178571Y-72285714D01*
X70250000Y-72571428D01*
X70250000Y-72785714D01*
X70178571Y-73071428D01*
X70107142Y-73214285D01*
X69964285Y-73357142D01*
X69750000Y-73428571D01*
X69392857Y-73428571D01*
X91678571Y-63892857D02*
X90178571Y-63892857D01*
X90178571Y-63535714D01*
X90250000Y-63321428D01*
X90392857Y-63178571D01*
X90535714Y-63107142D01*
X90821428Y-63035714D01*
X91035714Y-63035714D01*
X91321428Y-63107142D01*
X91464285Y-63178571D01*
X91607142Y-63321428D01*
X91678571Y-63535714D01*
X91678571Y-63892857D01*
X90178571Y-62607142D02*
X90178571Y-61750000D01*
X91678571Y-62178571D02*
X90178571Y-62178571D01*
X90892857Y-61250000D02*
X90892857Y-60750000D01*
X91678571Y-60535714D02*
X91678571Y-61250000D01*
X90178571Y-61250000D01*
X90178571Y-60535714D01*
X86428571Y-63821428D02*
X84928571Y-63821428D01*
X84928571Y-63464285D01*
X85000000Y-63250000D01*
X85142857Y-63107142D01*
X85285714Y-63035714D01*
X85571428Y-62964285D01*
X85785714Y-62964285D01*
X86071428Y-63035714D01*
X86214285Y-63107142D01*
X86357142Y-63250000D01*
X86428571Y-63464285D01*
X86428571Y-63821428D01*
X86285714Y-61464285D02*
X86357142Y-61535714D01*
X86428571Y-61750000D01*
X86428571Y-61892857D01*
X86357142Y-62107142D01*
X86214285Y-62250000D01*
X86071428Y-62321428D01*
X85785714Y-62392857D01*
X85571428Y-62392857D01*
X85285714Y-62321428D01*
X85142857Y-62250000D01*
X85000000Y-62107142D01*
X84928571Y-61892857D01*
X84928571Y-61750000D01*
X85000000Y-61535714D01*
X85071428Y-61464285D01*
X85642857Y-60821428D02*
X85642857Y-60321428D01*
X86428571Y-60107142D02*
X86428571Y-60821428D01*
X84928571Y-60821428D01*
X84928571Y-60107142D01*
X66571428Y-60607142D02*
X66785714Y-60678571D01*
X67142857Y-60678571D01*
X67285714Y-60607142D01*
X67357142Y-60535714D01*
X67428571Y-60392857D01*
X67428571Y-60250000D01*
X67357142Y-60107142D01*
X67285714Y-60035714D01*
X67142857Y-59964285D01*
X66857142Y-59892857D01*
X66714285Y-59821428D01*
X66642857Y-59750000D01*
X66571428Y-59607142D01*
X66571428Y-59464285D01*
X66642857Y-59321428D01*
X66714285Y-59250000D01*
X66857142Y-59178571D01*
X67214285Y-59178571D01*
X67428571Y-59250000D01*
X68071428Y-60678571D02*
X68071428Y-59178571D01*
X68642857Y-59178571D01*
X68785714Y-59250000D01*
X68857142Y-59321428D01*
X68928571Y-59464285D01*
X68928571Y-59678571D01*
X68857142Y-59821428D01*
X68785714Y-59892857D01*
X68642857Y-59964285D01*
X68071428Y-59964285D01*
X69571428Y-60678571D02*
X69571428Y-59178571D01*
X70428571Y-60678571D02*
X69785714Y-59821428D01*
X70428571Y-59178571D02*
X69571428Y-60035714D01*
X66557142Y-69428571D02*
X67414285Y-69428571D01*
X66985714Y-70928571D02*
X66985714Y-69428571D01*
X67771428Y-69428571D02*
X68771428Y-70928571D01*
X68771428Y-69428571D02*
X67771428Y-70928571D01*
X69342857Y-70928571D02*
X69342857Y-69428571D01*
X69700000Y-69428571D01*
X69914285Y-69500000D01*
X70057142Y-69642857D01*
X70128571Y-69785714D01*
X70200000Y-70071428D01*
X70200000Y-70285714D01*
X70128571Y-70571428D01*
X70057142Y-70714285D01*
X69914285Y-70857142D01*
X69700000Y-70928571D01*
X69342857Y-70928571D01*
X66614285Y-65928571D02*
X66614285Y-64428571D01*
X67185714Y-64428571D01*
X67328571Y-64500000D01*
X67400000Y-64571428D01*
X67471428Y-64714285D01*
X67471428Y-64928571D01*
X67400000Y-65071428D01*
X67328571Y-65142857D01*
X67185714Y-65214285D01*
X66614285Y-65214285D01*
X67900000Y-64428571D02*
X68757142Y-64428571D01*
X68328571Y-65928571D02*
X68328571Y-64428571D01*
X69042857Y-64428571D02*
X69900000Y-64428571D01*
X69471428Y-65928571D02*
X69471428Y-64428571D01*
X67500000Y-68428571D02*
X67000000Y-67714285D01*
X66642857Y-68428571D02*
X66642857Y-66928571D01*
X67214285Y-66928571D01*
X67357142Y-67000000D01*
X67428571Y-67071428D01*
X67500000Y-67214285D01*
X67500000Y-67428571D01*
X67428571Y-67571428D01*
X67357142Y-67642857D01*
X67214285Y-67714285D01*
X66642857Y-67714285D01*
X68000000Y-66928571D02*
X69000000Y-68428571D01*
X69000000Y-66928571D02*
X68000000Y-68428571D01*
X69571428Y-68428571D02*
X69571428Y-66928571D01*
X69928571Y-66928571D01*
X70142857Y-67000000D01*
X70285714Y-67142857D01*
X70357142Y-67285714D01*
X70428571Y-67571428D01*
X70428571Y-67785714D01*
X70357142Y-68071428D01*
X70285714Y-68214285D01*
X70142857Y-68357142D01*
X69928571Y-68428571D01*
X69571428Y-68428571D01*
X66642857Y-63178571D02*
X66642857Y-61678571D01*
X67142857Y-62750000D01*
X67642857Y-61678571D01*
X67642857Y-63178571D01*
X68357142Y-63178571D02*
X68357142Y-61678571D01*
X69928571Y-63035714D02*
X69857142Y-63107142D01*
X69642857Y-63178571D01*
X69500000Y-63178571D01*
X69285714Y-63107142D01*
X69142857Y-62964285D01*
X69071428Y-62821428D01*
X69000000Y-62535714D01*
X69000000Y-62321428D01*
X69071428Y-62035714D01*
X69142857Y-61892857D01*
X69285714Y-61750000D01*
X69500000Y-61678571D01*
X69642857Y-61678571D01*
X69857142Y-61750000D01*
X69928571Y-61821428D01*
X67107142Y-54750000D02*
X66964285Y-54678571D01*
X66750000Y-54678571D01*
X66535714Y-54750000D01*
X66392857Y-54892857D01*
X66321428Y-55035714D01*
X66250000Y-55321428D01*
X66250000Y-55535714D01*
X66321428Y-55821428D01*
X66392857Y-55964285D01*
X66535714Y-56107142D01*
X66750000Y-56178571D01*
X66892857Y-56178571D01*
X67107142Y-56107142D01*
X67178571Y-56035714D01*
X67178571Y-55535714D01*
X66892857Y-55535714D01*
X67821428Y-56178571D02*
X67821428Y-54678571D01*
X68678571Y-56178571D01*
X68678571Y-54678571D01*
X69392857Y-56178571D02*
X69392857Y-54678571D01*
X69750000Y-54678571D01*
X69964285Y-54750000D01*
X70107142Y-54892857D01*
X70178571Y-55035714D01*
X70250000Y-55321428D01*
X70250000Y-55535714D01*
X70178571Y-55821428D01*
X70107142Y-55964285D01*
X69964285Y-56107142D01*
X69750000Y-56178571D01*
X69392857Y-56178571D01*
X67107142Y-52250000D02*
X66964285Y-52178571D01*
X66750000Y-52178571D01*
X66535714Y-52250000D01*
X66392857Y-52392857D01*
X66321428Y-52535714D01*
X66250000Y-52821428D01*
X66250000Y-53035714D01*
X66321428Y-53321428D01*
X66392857Y-53464285D01*
X66535714Y-53607142D01*
X66750000Y-53678571D01*
X66892857Y-53678571D01*
X67107142Y-53607142D01*
X67178571Y-53535714D01*
X67178571Y-53035714D01*
X66892857Y-53035714D01*
X67821428Y-53678571D02*
X67821428Y-52178571D01*
X68678571Y-53678571D01*
X68678571Y-52178571D01*
X69392857Y-53678571D02*
X69392857Y-52178571D01*
X69750000Y-52178571D01*
X69964285Y-52250000D01*
X70107142Y-52392857D01*
X70178571Y-52535714D01*
X70250000Y-52821428D01*
X70250000Y-53035714D01*
X70178571Y-53321428D01*
X70107142Y-53464285D01*
X69964285Y-53607142D01*
X69750000Y-53678571D01*
X69392857Y-53678571D01*
X67107142Y-49750000D02*
X66964285Y-49678571D01*
X66750000Y-49678571D01*
X66535714Y-49750000D01*
X66392857Y-49892857D01*
X66321428Y-50035714D01*
X66250000Y-50321428D01*
X66250000Y-50535714D01*
X66321428Y-50821428D01*
X66392857Y-50964285D01*
X66535714Y-51107142D01*
X66750000Y-51178571D01*
X66892857Y-51178571D01*
X67107142Y-51107142D01*
X67178571Y-51035714D01*
X67178571Y-50535714D01*
X66892857Y-50535714D01*
X67821428Y-51178571D02*
X67821428Y-49678571D01*
X68678571Y-51178571D01*
X68678571Y-49678571D01*
X69392857Y-51178571D02*
X69392857Y-49678571D01*
X69750000Y-49678571D01*
X69964285Y-49750000D01*
X70107142Y-49892857D01*
X70178571Y-50035714D01*
X70250000Y-50321428D01*
X70250000Y-50535714D01*
X70178571Y-50821428D01*
X70107142Y-50964285D01*
X69964285Y-51107142D01*
X69750000Y-51178571D01*
X69392857Y-51178571D01*
X66357142Y-47178571D02*
X67214285Y-47178571D01*
X66785714Y-48678571D02*
X66785714Y-47178571D01*
X67571428Y-47178571D02*
X68571428Y-48678571D01*
X68571428Y-47178571D02*
X67571428Y-48678571D01*
X69142857Y-48678571D02*
X69142857Y-47178571D01*
X69500000Y-47178571D01*
X69714285Y-47250000D01*
X69857142Y-47392857D01*
X69928571Y-47535714D01*
X70000000Y-47821428D01*
X70000000Y-48035714D01*
X69928571Y-48321428D01*
X69857142Y-48464285D01*
X69714285Y-48607142D01*
X69500000Y-48678571D01*
X69142857Y-48678571D01*
X67250000Y-46178571D02*
X66750000Y-45464285D01*
X66392857Y-46178571D02*
X66392857Y-44678571D01*
X66964285Y-44678571D01*
X67107142Y-44750000D01*
X67178571Y-44821428D01*
X67250000Y-44964285D01*
X67250000Y-45178571D01*
X67178571Y-45321428D01*
X67107142Y-45392857D01*
X66964285Y-45464285D01*
X66392857Y-45464285D01*
X67750000Y-44678571D02*
X68750000Y-46178571D01*
X68750000Y-44678571D02*
X67750000Y-46178571D01*
X69321428Y-46178571D02*
X69321428Y-44678571D01*
X69678571Y-44678571D01*
X69892857Y-44750000D01*
X70035714Y-44892857D01*
X70107142Y-45035714D01*
X70178571Y-45321428D01*
X70178571Y-45535714D01*
X70107142Y-45821428D01*
X70035714Y-45964285D01*
X69892857Y-46107142D01*
X69678571Y-46178571D01*
X69321428Y-46178571D01*
X66414285Y-43478571D02*
X66414285Y-41978571D01*
X66985714Y-41978571D01*
X67128571Y-42050000D01*
X67200000Y-42121428D01*
X67271428Y-42264285D01*
X67271428Y-42478571D01*
X67200000Y-42621428D01*
X67128571Y-42692857D01*
X66985714Y-42764285D01*
X66414285Y-42764285D01*
X67700000Y-41978571D02*
X68557142Y-41978571D01*
X68128571Y-43478571D02*
X68128571Y-41978571D01*
X68842857Y-41978571D02*
X69700000Y-41978571D01*
X69271428Y-43478571D02*
X69271428Y-41978571D01*
X66392857Y-40928571D02*
X66392857Y-39428571D01*
X66892857Y-40500000D01*
X67392857Y-39428571D01*
X67392857Y-40928571D01*
X68107142Y-40928571D02*
X68107142Y-39428571D01*
X69678571Y-40785714D02*
X69607142Y-40857142D01*
X69392857Y-40928571D01*
X69250000Y-40928571D01*
X69035714Y-40857142D01*
X68892857Y-40714285D01*
X68821428Y-40571428D01*
X68750000Y-40285714D01*
X68750000Y-40071428D01*
X68821428Y-39785714D01*
X68892857Y-39642857D01*
X69035714Y-39500000D01*
X69250000Y-39428571D01*
X69392857Y-39428571D01*
X69607142Y-39500000D01*
X69678571Y-39571428D01*
X66321428Y-38357142D02*
X66535714Y-38428571D01*
X66892857Y-38428571D01*
X67035714Y-38357142D01*
X67107142Y-38285714D01*
X67178571Y-38142857D01*
X67178571Y-38000000D01*
X67107142Y-37857142D01*
X67035714Y-37785714D01*
X66892857Y-37714285D01*
X66607142Y-37642857D01*
X66464285Y-37571428D01*
X66392857Y-37500000D01*
X66321428Y-37357142D01*
X66321428Y-37214285D01*
X66392857Y-37071428D01*
X66464285Y-37000000D01*
X66607142Y-36928571D01*
X66964285Y-36928571D01*
X67178571Y-37000000D01*
X67821428Y-38428571D02*
X67821428Y-36928571D01*
X68392857Y-36928571D01*
X68535714Y-37000000D01*
X68607142Y-37071428D01*
X68678571Y-37214285D01*
X68678571Y-37428571D01*
X68607142Y-37571428D01*
X68535714Y-37642857D01*
X68392857Y-37714285D01*
X67821428Y-37714285D01*
X69321428Y-38428571D02*
X69321428Y-36928571D01*
X70178571Y-38428571D02*
X69535714Y-37571428D01*
X70178571Y-36928571D02*
X69321428Y-37785714D01*
D11*
G04 #@! TO.C,J2*
X71185000Y-72120000D02*
X71185000Y-90080000D01*
X86705000Y-72120000D02*
X71185000Y-72120000D01*
X86705000Y-72120000D02*
X86705000Y-90080000D01*
X71185000Y-90080000D02*
X86705000Y-90080000D01*
X71000000Y-76000000D02*
X70500000Y-75500000D01*
X70500000Y-75500000D02*
X70500000Y-76500000D01*
X70500000Y-76500000D02*
X71000000Y-76000000D01*
G04 #@! TO.C,J4*
X86750000Y-76500000D02*
X87250000Y-76000000D01*
X86750000Y-75500000D02*
X86750000Y-76500000D01*
X87250000Y-76000000D02*
X86750000Y-75500000D01*
X87435000Y-90080000D02*
X102955000Y-90080000D01*
X102955000Y-72120000D02*
X102955000Y-90080000D01*
X102955000Y-72120000D02*
X87435000Y-72120000D01*
X87435000Y-72120000D02*
X87435000Y-90080000D01*
G04 #@! TO.C,C1*
X84290000Y-53763748D02*
X84290000Y-54286252D01*
X85710000Y-53763748D02*
X85710000Y-54286252D01*
G04 #@! TO.C,C2*
X86790000Y-53763748D02*
X86790000Y-54286252D01*
X88210000Y-53763748D02*
X88210000Y-54286252D01*
G04 #@! TO.C,C3*
X92210000Y-38238748D02*
X92210000Y-38761252D01*
X90790000Y-38238748D02*
X90790000Y-38761252D01*
G04 #@! TO.C,C4*
X90210000Y-38263748D02*
X90210000Y-38786252D01*
X88790000Y-38263748D02*
X88790000Y-38786252D01*
G04 #@! TO.C,C5*
X74960000Y-38988748D02*
X74960000Y-39511252D01*
X73540000Y-38988748D02*
X73540000Y-39511252D01*
G04 #@! TO.C,C6*
X83210000Y-53763748D02*
X83210000Y-54286252D01*
X81790000Y-53763748D02*
X81790000Y-54286252D01*
G04 #@! TO.C,C7*
X79290000Y-53763748D02*
X79290000Y-54286252D01*
X80710000Y-53763748D02*
X80710000Y-54286252D01*
G04 #@! TO.C,C8*
X75790000Y-38963748D02*
X75790000Y-39486252D01*
X77210000Y-38963748D02*
X77210000Y-39486252D01*
G04 #@! TO.C,C9*
X80210000Y-38736252D02*
X80210000Y-38213748D01*
X78790000Y-38736252D02*
X78790000Y-38213748D01*
G04 #@! TO.C,C10*
X81040000Y-38761252D02*
X81040000Y-38238748D01*
X82460000Y-38761252D02*
X82460000Y-38238748D01*
G04 #@! TO.C,C11*
X74290000Y-53763748D02*
X74290000Y-54286252D01*
X75710000Y-53763748D02*
X75710000Y-54286252D01*
G04 #@! TO.C,C12*
X78210000Y-53763748D02*
X78210000Y-54286252D01*
X76790000Y-53763748D02*
X76790000Y-54286252D01*
G04 #@! TO.C,C13*
X95960000Y-59213748D02*
X95960000Y-59736252D01*
X94540000Y-59213748D02*
X94540000Y-59736252D01*
G04 #@! TO.C,C14*
X91790000Y-54261252D02*
X91790000Y-53738748D01*
X93210000Y-54261252D02*
X93210000Y-53738748D01*
G04 #@! TO.C,C15*
X95960000Y-63813748D02*
X95960000Y-64336252D01*
X94540000Y-63813748D02*
X94540000Y-64336252D01*
G04 #@! TO.C,C16*
X103486252Y-56340000D02*
X102963748Y-56340000D01*
X103486252Y-57760000D02*
X102963748Y-57760000D01*
G04 #@! TO.C,C17*
X95960000Y-68786252D02*
X95960000Y-68263748D01*
X94540000Y-68786252D02*
X94540000Y-68263748D01*
G04 #@! TO.C,C18*
X102660000Y-37590000D02*
X100310000Y-37590000D01*
X95840000Y-37590000D02*
X98190000Y-37590000D01*
X95840000Y-43345563D02*
X95840000Y-37590000D01*
X102660000Y-43345563D02*
X102660000Y-37590000D01*
X101595563Y-44410000D02*
X100310000Y-44410000D01*
X96904437Y-44410000D02*
X98190000Y-44410000D01*
X96904437Y-44410000D02*
X95840000Y-43345563D01*
X101595563Y-44410000D02*
X102660000Y-43345563D01*
X97402500Y-45437500D02*
X97402500Y-44650000D01*
X97008750Y-45043750D02*
X97796250Y-45043750D01*
G04 #@! TO.C,C19*
X102660000Y-47590000D02*
X100310000Y-47590000D01*
X95840000Y-47590000D02*
X98190000Y-47590000D01*
X95840000Y-53345563D02*
X95840000Y-47590000D01*
X102660000Y-53345563D02*
X102660000Y-47590000D01*
X101595563Y-54410000D02*
X100310000Y-54410000D01*
X96904437Y-54410000D02*
X98190000Y-54410000D01*
X96904437Y-54410000D02*
X95840000Y-53345563D01*
X101595563Y-54410000D02*
X102660000Y-53345563D01*
X97402500Y-55437500D02*
X97402500Y-54650000D01*
X97008750Y-55043750D02*
X97796250Y-55043750D01*
G04 #@! TO.C,J5*
X56000000Y-36000000D02*
X56500000Y-36500000D01*
X57000000Y-36000000D02*
X56000000Y-36000000D01*
X56500000Y-36500000D02*
X57000000Y-36000000D01*
X42420000Y-36685000D02*
X42420000Y-52205000D01*
X60380000Y-52205000D02*
X42420000Y-52205000D01*
X60380000Y-52205000D02*
X60380000Y-36685000D01*
X60380000Y-36685000D02*
X42420000Y-36685000D01*
G04 #@! TO.C,J7*
X56000000Y-61000000D02*
X56500000Y-61500000D01*
X57000000Y-61000000D02*
X56000000Y-61000000D01*
X56500000Y-61500000D02*
X57000000Y-61000000D01*
X42420000Y-61685000D02*
X42420000Y-77205000D01*
X60380000Y-77205000D02*
X42420000Y-77205000D01*
X60380000Y-77205000D02*
X60380000Y-61685000D01*
X60380000Y-61685000D02*
X42420000Y-61685000D01*
G04 #@! TO.C,J8*
X54670000Y-35330000D02*
X54670000Y-34000000D01*
X56000000Y-35330000D02*
X54670000Y-35330000D01*
X54670000Y-32730000D02*
X54670000Y-30130000D01*
X57270000Y-32730000D02*
X54670000Y-32730000D01*
X57270000Y-35330000D02*
X57270000Y-32730000D01*
X54670000Y-30130000D02*
X105590000Y-30130000D01*
X57270000Y-35330000D02*
X105590000Y-35330000D01*
X105590000Y-35330000D02*
X105590000Y-30130000D01*
G04 #@! TO.C,L1*
X88210000Y-38736252D02*
X88210000Y-38213748D01*
X86790000Y-38736252D02*
X86790000Y-38213748D01*
G04 #@! TO.C,L2*
X84540000Y-38736252D02*
X84540000Y-38213748D01*
X85960000Y-38736252D02*
X85960000Y-38213748D01*
G04 #@! TO.C,R1*
X71290000Y-38963748D02*
X71290000Y-39486252D01*
X72710000Y-38963748D02*
X72710000Y-39486252D01*
G04 #@! TO.C,R2*
X90710000Y-53763748D02*
X90710000Y-54286252D01*
X89290000Y-53763748D02*
X89290000Y-54286252D01*
G04 #@! TO.C,R3*
X76790000Y-60536252D02*
X76790000Y-60013748D01*
X78210000Y-60536252D02*
X78210000Y-60013748D01*
G04 #@! TO.C,R4*
X79290000Y-60063748D02*
X79290000Y-60586252D01*
X80710000Y-60063748D02*
X80710000Y-60586252D01*
G04 #@! TO.C,R5*
X74290000Y-60013748D02*
X74290000Y-60536252D01*
X75710000Y-60013748D02*
X75710000Y-60536252D01*
G04 #@! TO.C,R6*
X81790000Y-60536252D02*
X81790000Y-60013748D01*
X83210000Y-60536252D02*
X83210000Y-60013748D01*
D12*
G04 #@! TO.C,U1*
X88725000Y-43675000D02*
X88500000Y-43675000D01*
X88725000Y-48325000D02*
X88400000Y-48325000D01*
X78775000Y-48325000D02*
X79100000Y-48325000D01*
X78775000Y-43675000D02*
X79100000Y-43675000D01*
X88725000Y-43675000D02*
X88725000Y-48325000D01*
X78775000Y-43675000D02*
X78775000Y-48325000D01*
X88500000Y-43675000D02*
X88500000Y-42600000D01*
G04 #@! TO.C,U2*
X99425000Y-59925000D02*
X99425000Y-59950000D01*
X103575000Y-59925000D02*
X103575000Y-60030000D01*
X103575000Y-70075000D02*
X103575000Y-69970000D01*
X99425000Y-70075000D02*
X99425000Y-69970000D01*
X99425000Y-59925000D02*
X103575000Y-59925000D01*
X99425000Y-70075000D02*
X103575000Y-70075000D01*
X99425000Y-59950000D02*
X98050000Y-59950000D01*
D11*
G04 #@! TO.C,X1*
X74600000Y-49850000D02*
X74600000Y-48850000D01*
X74600000Y-48850000D02*
X74000000Y-48850000D01*
X74000000Y-42450000D02*
X74600000Y-42450000D01*
X72350000Y-46750000D02*
X72350000Y-44550000D01*
X76250000Y-44550000D02*
X76250000Y-46750000D01*
X76250000Y-46750000D02*
X77100000Y-46750000D01*
G04 #@! TO.C,J1*
X75670000Y-70830000D02*
X75670000Y-69500000D01*
X77000000Y-70830000D02*
X75670000Y-70830000D01*
X75670000Y-68230000D02*
X75670000Y-65630000D01*
X78270000Y-68230000D02*
X75670000Y-68230000D01*
X78270000Y-70830000D02*
X78270000Y-68230000D01*
X75670000Y-65630000D02*
X83410000Y-65630000D01*
X78270000Y-70830000D02*
X83410000Y-70830000D01*
X83410000Y-70830000D02*
X83410000Y-65630000D01*
G04 #@! TO.C,J3*
X92160000Y-70830000D02*
X92160000Y-65630000D01*
X87020000Y-70830000D02*
X92160000Y-70830000D01*
X84420000Y-65630000D02*
X92160000Y-65630000D01*
X87020000Y-70830000D02*
X87020000Y-68230000D01*
X87020000Y-68230000D02*
X84420000Y-68230000D01*
X84420000Y-68230000D02*
X84420000Y-65630000D01*
X85750000Y-70830000D02*
X84420000Y-70830000D01*
X84420000Y-70830000D02*
X84420000Y-69500000D01*
G04 #@! TO.C,K1*
X107150000Y-55600000D02*
X107150000Y-35700000D01*
X107150000Y-35700000D02*
X112350000Y-35700000D01*
X112350000Y-35700000D02*
X112350000Y-55600000D01*
X112350000Y-55600000D02*
X107150000Y-55600000D01*
X112550000Y-54700000D02*
X112550000Y-55800000D01*
X112550000Y-55800000D02*
X111550000Y-55800000D01*
G04 #@! TO.C,K2*
X112550000Y-76550000D02*
X111550000Y-76550000D01*
X112550000Y-75450000D02*
X112550000Y-76550000D01*
X112350000Y-76350000D02*
X107150000Y-76350000D01*
X112350000Y-56450000D02*
X112350000Y-76350000D01*
X107150000Y-56450000D02*
X112350000Y-56450000D01*
X107150000Y-76350000D02*
X107150000Y-56450000D01*
G04 #@! TO.C,J13*
D12*
X50190476Y-54952380D02*
X50190476Y-55666666D01*
X50142857Y-55809523D01*
X50047619Y-55904761D01*
X49904761Y-55952380D01*
X49809523Y-55952380D01*
X51190476Y-55952380D02*
X50619047Y-55952380D01*
X50904761Y-55952380D02*
X50904761Y-54952380D01*
X50809523Y-55095238D01*
X50714285Y-55190476D01*
X50619047Y-55238095D01*
X51523809Y-54952380D02*
X52142857Y-54952380D01*
X51809523Y-55333333D01*
X51952380Y-55333333D01*
X52047619Y-55380952D01*
X52095238Y-55428571D01*
X52142857Y-55523809D01*
X52142857Y-55761904D01*
X52095238Y-55857142D01*
X52047619Y-55904761D01*
X51952380Y-55952380D01*
X51666666Y-55952380D01*
X51571428Y-55904761D01*
X51523809Y-55857142D01*
G04 #@! TO.C,J2*
X71666666Y-70702380D02*
X71666666Y-71416666D01*
X71619047Y-71559523D01*
X71523809Y-71654761D01*
X71380952Y-71702380D01*
X71285714Y-71702380D01*
X72095238Y-70797619D02*
X72142857Y-70750000D01*
X72238095Y-70702380D01*
X72476190Y-70702380D01*
X72571428Y-70750000D01*
X72619047Y-70797619D01*
X72666666Y-70892857D01*
X72666666Y-70988095D01*
X72619047Y-71130952D01*
X72047619Y-71702380D01*
X72666666Y-71702380D01*
G04 #@! TO.C,J4*
X101916666Y-70702380D02*
X101916666Y-71416666D01*
X101869047Y-71559523D01*
X101773809Y-71654761D01*
X101630952Y-71702380D01*
X101535714Y-71702380D01*
X102821428Y-71035714D02*
X102821428Y-71702380D01*
X102583333Y-70654761D02*
X102345238Y-71369047D01*
X102964285Y-71369047D01*
G04 #@! TO.C,J12*
X108190476Y-31852380D02*
X108190476Y-32566666D01*
X108142857Y-32709523D01*
X108047619Y-32804761D01*
X107904761Y-32852380D01*
X107809523Y-32852380D01*
X109190476Y-32852380D02*
X108619047Y-32852380D01*
X108904761Y-32852380D02*
X108904761Y-31852380D01*
X108809523Y-31995238D01*
X108714285Y-32090476D01*
X108619047Y-32138095D01*
X109571428Y-31947619D02*
X109619047Y-31900000D01*
X109714285Y-31852380D01*
X109952380Y-31852380D01*
X110047619Y-31900000D01*
X110095238Y-31947619D01*
X110142857Y-32042857D01*
X110142857Y-32138095D01*
X110095238Y-32280952D01*
X109523809Y-32852380D01*
X110142857Y-32852380D01*
G04 #@! TO.C,J15*
X50190476Y-80952380D02*
X50190476Y-81666666D01*
X50142857Y-81809523D01*
X50047619Y-81904761D01*
X49904761Y-81952380D01*
X49809523Y-81952380D01*
X51190476Y-81952380D02*
X50619047Y-81952380D01*
X50904761Y-81952380D02*
X50904761Y-80952380D01*
X50809523Y-81095238D01*
X50714285Y-81190476D01*
X50619047Y-81238095D01*
X52095238Y-80952380D02*
X51619047Y-80952380D01*
X51571428Y-81428571D01*
X51619047Y-81380952D01*
X51714285Y-81333333D01*
X51952380Y-81333333D01*
X52047619Y-81380952D01*
X52095238Y-81428571D01*
X52142857Y-81523809D01*
X52142857Y-81761904D01*
X52095238Y-81857142D01*
X52047619Y-81904761D01*
X51952380Y-81952380D01*
X51714285Y-81952380D01*
X51619047Y-81904761D01*
X51571428Y-81857142D01*
G04 #@! TO.C,J10*
X108190476Y-80952380D02*
X108190476Y-81666666D01*
X108142857Y-81809523D01*
X108047619Y-81904761D01*
X107904761Y-81952380D01*
X107809523Y-81952380D01*
X109190476Y-81952380D02*
X108619047Y-81952380D01*
X108904761Y-81952380D02*
X108904761Y-80952380D01*
X108809523Y-81095238D01*
X108714285Y-81190476D01*
X108619047Y-81238095D01*
X109809523Y-80952380D02*
X109904761Y-80952380D01*
X110000000Y-81000000D01*
X110047619Y-81047619D01*
X110095238Y-81142857D01*
X110142857Y-81333333D01*
X110142857Y-81571428D01*
X110095238Y-81761904D01*
X110047619Y-81857142D01*
X110000000Y-81904761D01*
X109904761Y-81952380D01*
X109809523Y-81952380D01*
X109714285Y-81904761D01*
X109666666Y-81857142D01*
X109619047Y-81761904D01*
X109571428Y-81571428D01*
X109571428Y-81333333D01*
X109619047Y-81142857D01*
X109666666Y-81047619D01*
X109714285Y-81000000D01*
X109809523Y-80952380D01*
G04 #@! TO.C,J11*
X53940476Y-77702380D02*
X53940476Y-78416666D01*
X53892857Y-78559523D01*
X53797619Y-78654761D01*
X53654761Y-78702380D01*
X53559523Y-78702380D01*
X54940476Y-78702380D02*
X54369047Y-78702380D01*
X54654761Y-78702380D02*
X54654761Y-77702380D01*
X54559523Y-77845238D01*
X54464285Y-77940476D01*
X54369047Y-77988095D01*
X55892857Y-78702380D02*
X55321428Y-78702380D01*
X55607142Y-78702380D02*
X55607142Y-77702380D01*
X55511904Y-77845238D01*
X55416666Y-77940476D01*
X55321428Y-77988095D01*
G04 #@! TO.C,C1*
X85357142Y-57216666D02*
X85404761Y-57264285D01*
X85452380Y-57407142D01*
X85452380Y-57502380D01*
X85404761Y-57645238D01*
X85309523Y-57740476D01*
X85214285Y-57788095D01*
X85023809Y-57835714D01*
X84880952Y-57835714D01*
X84690476Y-57788095D01*
X84595238Y-57740476D01*
X84500000Y-57645238D01*
X84452380Y-57502380D01*
X84452380Y-57407142D01*
X84500000Y-57264285D01*
X84547619Y-57216666D01*
X85452380Y-56264285D02*
X85452380Y-56835714D01*
X85452380Y-56550000D02*
X84452380Y-56550000D01*
X84595238Y-56645238D01*
X84690476Y-56740476D01*
X84738095Y-56835714D01*
G04 #@! TO.C,C2*
X87857142Y-57191666D02*
X87904761Y-57239285D01*
X87952380Y-57382142D01*
X87952380Y-57477380D01*
X87904761Y-57620238D01*
X87809523Y-57715476D01*
X87714285Y-57763095D01*
X87523809Y-57810714D01*
X87380952Y-57810714D01*
X87190476Y-57763095D01*
X87095238Y-57715476D01*
X87000000Y-57620238D01*
X86952380Y-57477380D01*
X86952380Y-57382142D01*
X87000000Y-57239285D01*
X87047619Y-57191666D01*
X87047619Y-56810714D02*
X87000000Y-56763095D01*
X86952380Y-56667857D01*
X86952380Y-56429761D01*
X87000000Y-56334523D01*
X87047619Y-56286904D01*
X87142857Y-56239285D01*
X87238095Y-56239285D01*
X87380952Y-56286904D01*
X87952380Y-56858333D01*
X87952380Y-56239285D01*
G04 #@! TO.C,C3*
X91857142Y-41416666D02*
X91904761Y-41464285D01*
X91952380Y-41607142D01*
X91952380Y-41702380D01*
X91904761Y-41845238D01*
X91809523Y-41940476D01*
X91714285Y-41988095D01*
X91523809Y-42035714D01*
X91380952Y-42035714D01*
X91190476Y-41988095D01*
X91095238Y-41940476D01*
X91000000Y-41845238D01*
X90952380Y-41702380D01*
X90952380Y-41607142D01*
X91000000Y-41464285D01*
X91047619Y-41416666D01*
X90952380Y-41083333D02*
X90952380Y-40464285D01*
X91333333Y-40797619D01*
X91333333Y-40654761D01*
X91380952Y-40559523D01*
X91428571Y-40511904D01*
X91523809Y-40464285D01*
X91761904Y-40464285D01*
X91857142Y-40511904D01*
X91904761Y-40559523D01*
X91952380Y-40654761D01*
X91952380Y-40940476D01*
X91904761Y-41035714D01*
X91857142Y-41083333D01*
G04 #@! TO.C,C4*
X89857142Y-41416666D02*
X89904761Y-41464285D01*
X89952380Y-41607142D01*
X89952380Y-41702380D01*
X89904761Y-41845238D01*
X89809523Y-41940476D01*
X89714285Y-41988095D01*
X89523809Y-42035714D01*
X89380952Y-42035714D01*
X89190476Y-41988095D01*
X89095238Y-41940476D01*
X89000000Y-41845238D01*
X88952380Y-41702380D01*
X88952380Y-41607142D01*
X89000000Y-41464285D01*
X89047619Y-41416666D01*
X89285714Y-40559523D02*
X89952380Y-40559523D01*
X88904761Y-40797619D02*
X89619047Y-41035714D01*
X89619047Y-40416666D01*
G04 #@! TO.C,C5*
X74607142Y-36666666D02*
X74654761Y-36714285D01*
X74702380Y-36857142D01*
X74702380Y-36952380D01*
X74654761Y-37095238D01*
X74559523Y-37190476D01*
X74464285Y-37238095D01*
X74273809Y-37285714D01*
X74130952Y-37285714D01*
X73940476Y-37238095D01*
X73845238Y-37190476D01*
X73750000Y-37095238D01*
X73702380Y-36952380D01*
X73702380Y-36857142D01*
X73750000Y-36714285D01*
X73797619Y-36666666D01*
X73702380Y-35761904D02*
X73702380Y-36238095D01*
X74178571Y-36285714D01*
X74130952Y-36238095D01*
X74083333Y-36142857D01*
X74083333Y-35904761D01*
X74130952Y-35809523D01*
X74178571Y-35761904D01*
X74273809Y-35714285D01*
X74511904Y-35714285D01*
X74607142Y-35761904D01*
X74654761Y-35809523D01*
X74702380Y-35904761D01*
X74702380Y-36142857D01*
X74654761Y-36238095D01*
X74607142Y-36285714D01*
G04 #@! TO.C,C6*
X82857142Y-57216666D02*
X82904761Y-57264285D01*
X82952380Y-57407142D01*
X82952380Y-57502380D01*
X82904761Y-57645238D01*
X82809523Y-57740476D01*
X82714285Y-57788095D01*
X82523809Y-57835714D01*
X82380952Y-57835714D01*
X82190476Y-57788095D01*
X82095238Y-57740476D01*
X82000000Y-57645238D01*
X81952380Y-57502380D01*
X81952380Y-57407142D01*
X82000000Y-57264285D01*
X82047619Y-57216666D01*
X81952380Y-56359523D02*
X81952380Y-56550000D01*
X82000000Y-56645238D01*
X82047619Y-56692857D01*
X82190476Y-56788095D01*
X82380952Y-56835714D01*
X82761904Y-56835714D01*
X82857142Y-56788095D01*
X82904761Y-56740476D01*
X82952380Y-56645238D01*
X82952380Y-56454761D01*
X82904761Y-56359523D01*
X82857142Y-56311904D01*
X82761904Y-56264285D01*
X82523809Y-56264285D01*
X82428571Y-56311904D01*
X82380952Y-56359523D01*
X82333333Y-56454761D01*
X82333333Y-56645238D01*
X82380952Y-56740476D01*
X82428571Y-56788095D01*
X82523809Y-56835714D01*
G04 #@! TO.C,C7*
X80357142Y-57216666D02*
X80404761Y-57264285D01*
X80452380Y-57407142D01*
X80452380Y-57502380D01*
X80404761Y-57645238D01*
X80309523Y-57740476D01*
X80214285Y-57788095D01*
X80023809Y-57835714D01*
X79880952Y-57835714D01*
X79690476Y-57788095D01*
X79595238Y-57740476D01*
X79500000Y-57645238D01*
X79452380Y-57502380D01*
X79452380Y-57407142D01*
X79500000Y-57264285D01*
X79547619Y-57216666D01*
X79452380Y-56883333D02*
X79452380Y-56216666D01*
X80452380Y-56645238D01*
G04 #@! TO.C,C8*
X76857142Y-36666666D02*
X76904761Y-36714285D01*
X76952380Y-36857142D01*
X76952380Y-36952380D01*
X76904761Y-37095238D01*
X76809523Y-37190476D01*
X76714285Y-37238095D01*
X76523809Y-37285714D01*
X76380952Y-37285714D01*
X76190476Y-37238095D01*
X76095238Y-37190476D01*
X76000000Y-37095238D01*
X75952380Y-36952380D01*
X75952380Y-36857142D01*
X76000000Y-36714285D01*
X76047619Y-36666666D01*
X76380952Y-36095238D02*
X76333333Y-36190476D01*
X76285714Y-36238095D01*
X76190476Y-36285714D01*
X76142857Y-36285714D01*
X76047619Y-36238095D01*
X76000000Y-36190476D01*
X75952380Y-36095238D01*
X75952380Y-35904761D01*
X76000000Y-35809523D01*
X76047619Y-35761904D01*
X76142857Y-35714285D01*
X76190476Y-35714285D01*
X76285714Y-35761904D01*
X76333333Y-35809523D01*
X76380952Y-35904761D01*
X76380952Y-36095238D01*
X76428571Y-36190476D01*
X76476190Y-36238095D01*
X76571428Y-36285714D01*
X76761904Y-36285714D01*
X76857142Y-36238095D01*
X76904761Y-36190476D01*
X76952380Y-36095238D01*
X76952380Y-35904761D01*
X76904761Y-35809523D01*
X76857142Y-35761904D01*
X76761904Y-35714285D01*
X76571428Y-35714285D01*
X76476190Y-35761904D01*
X76428571Y-35809523D01*
X76380952Y-35904761D01*
G04 #@! TO.C,C9*
X79083333Y-41357142D02*
X79035714Y-41404761D01*
X78892857Y-41452380D01*
X78797619Y-41452380D01*
X78654761Y-41404761D01*
X78559523Y-41309523D01*
X78511904Y-41214285D01*
X78464285Y-41023809D01*
X78464285Y-40880952D01*
X78511904Y-40690476D01*
X78559523Y-40595238D01*
X78654761Y-40500000D01*
X78797619Y-40452380D01*
X78892857Y-40452380D01*
X79035714Y-40500000D01*
X79083333Y-40547619D01*
X79559523Y-41452380D02*
X79750000Y-41452380D01*
X79845238Y-41404761D01*
X79892857Y-41357142D01*
X79988095Y-41214285D01*
X80035714Y-41023809D01*
X80035714Y-40642857D01*
X79988095Y-40547619D01*
X79940476Y-40500000D01*
X79845238Y-40452380D01*
X79654761Y-40452380D01*
X79559523Y-40500000D01*
X79511904Y-40547619D01*
X79464285Y-40642857D01*
X79464285Y-40880952D01*
X79511904Y-40976190D01*
X79559523Y-41023809D01*
X79654761Y-41071428D01*
X79845238Y-41071428D01*
X79940476Y-41023809D01*
X79988095Y-40976190D01*
X80035714Y-40880952D01*
G04 #@! TO.C,C10*
X81357142Y-41357142D02*
X81309523Y-41404761D01*
X81166666Y-41452380D01*
X81071428Y-41452380D01*
X80928571Y-41404761D01*
X80833333Y-41309523D01*
X80785714Y-41214285D01*
X80738095Y-41023809D01*
X80738095Y-40880952D01*
X80785714Y-40690476D01*
X80833333Y-40595238D01*
X80928571Y-40500000D01*
X81071428Y-40452380D01*
X81166666Y-40452380D01*
X81309523Y-40500000D01*
X81357142Y-40547619D01*
X82309523Y-41452380D02*
X81738095Y-41452380D01*
X82023809Y-41452380D02*
X82023809Y-40452380D01*
X81928571Y-40595238D01*
X81833333Y-40690476D01*
X81738095Y-40738095D01*
X82928571Y-40452380D02*
X83023809Y-40452380D01*
X83119047Y-40500000D01*
X83166666Y-40547619D01*
X83214285Y-40642857D01*
X83261904Y-40833333D01*
X83261904Y-41071428D01*
X83214285Y-41261904D01*
X83166666Y-41357142D01*
X83119047Y-41404761D01*
X83023809Y-41452380D01*
X82928571Y-41452380D01*
X82833333Y-41404761D01*
X82785714Y-41357142D01*
X82738095Y-41261904D01*
X82690476Y-41071428D01*
X82690476Y-40833333D01*
X82738095Y-40642857D01*
X82785714Y-40547619D01*
X82833333Y-40500000D01*
X82928571Y-40452380D01*
G04 #@! TO.C,C11*
X75357142Y-57892857D02*
X75404761Y-57940476D01*
X75452380Y-58083333D01*
X75452380Y-58178571D01*
X75404761Y-58321428D01*
X75309523Y-58416666D01*
X75214285Y-58464285D01*
X75023809Y-58511904D01*
X74880952Y-58511904D01*
X74690476Y-58464285D01*
X74595238Y-58416666D01*
X74500000Y-58321428D01*
X74452380Y-58178571D01*
X74452380Y-58083333D01*
X74500000Y-57940476D01*
X74547619Y-57892857D01*
X75452380Y-56940476D02*
X75452380Y-57511904D01*
X75452380Y-57226190D02*
X74452380Y-57226190D01*
X74595238Y-57321428D01*
X74690476Y-57416666D01*
X74738095Y-57511904D01*
X75452380Y-55988095D02*
X75452380Y-56559523D01*
X75452380Y-56273809D02*
X74452380Y-56273809D01*
X74595238Y-56369047D01*
X74690476Y-56464285D01*
X74738095Y-56559523D01*
G04 #@! TO.C,C12*
X77857142Y-57892857D02*
X77904761Y-57940476D01*
X77952380Y-58083333D01*
X77952380Y-58178571D01*
X77904761Y-58321428D01*
X77809523Y-58416666D01*
X77714285Y-58464285D01*
X77523809Y-58511904D01*
X77380952Y-58511904D01*
X77190476Y-58464285D01*
X77095238Y-58416666D01*
X77000000Y-58321428D01*
X76952380Y-58178571D01*
X76952380Y-58083333D01*
X77000000Y-57940476D01*
X77047619Y-57892857D01*
X77952380Y-56940476D02*
X77952380Y-57511904D01*
X77952380Y-57226190D02*
X76952380Y-57226190D01*
X77095238Y-57321428D01*
X77190476Y-57416666D01*
X77238095Y-57511904D01*
X77047619Y-56559523D02*
X77000000Y-56511904D01*
X76952380Y-56416666D01*
X76952380Y-56178571D01*
X77000000Y-56083333D01*
X77047619Y-56035714D01*
X77142857Y-55988095D01*
X77238095Y-55988095D01*
X77380952Y-56035714D01*
X77952380Y-56607142D01*
X77952380Y-55988095D01*
G04 #@! TO.C,C13*
X93857142Y-60642857D02*
X93904761Y-60690476D01*
X93952380Y-60833333D01*
X93952380Y-60928571D01*
X93904761Y-61071428D01*
X93809523Y-61166666D01*
X93714285Y-61214285D01*
X93523809Y-61261904D01*
X93380952Y-61261904D01*
X93190476Y-61214285D01*
X93095238Y-61166666D01*
X93000000Y-61071428D01*
X92952380Y-60928571D01*
X92952380Y-60833333D01*
X93000000Y-60690476D01*
X93047619Y-60642857D01*
X93952380Y-59690476D02*
X93952380Y-60261904D01*
X93952380Y-59976190D02*
X92952380Y-59976190D01*
X93095238Y-60071428D01*
X93190476Y-60166666D01*
X93238095Y-60261904D01*
X92952380Y-59357142D02*
X92952380Y-58738095D01*
X93333333Y-59071428D01*
X93333333Y-58928571D01*
X93380952Y-58833333D01*
X93428571Y-58785714D01*
X93523809Y-58738095D01*
X93761904Y-58738095D01*
X93857142Y-58785714D01*
X93904761Y-58833333D01*
X93952380Y-58928571D01*
X93952380Y-59214285D01*
X93904761Y-59309523D01*
X93857142Y-59357142D01*
G04 #@! TO.C,C14*
X92857142Y-57892857D02*
X92904761Y-57940476D01*
X92952380Y-58083333D01*
X92952380Y-58178571D01*
X92904761Y-58321428D01*
X92809523Y-58416666D01*
X92714285Y-58464285D01*
X92523809Y-58511904D01*
X92380952Y-58511904D01*
X92190476Y-58464285D01*
X92095238Y-58416666D01*
X92000000Y-58321428D01*
X91952380Y-58178571D01*
X91952380Y-58083333D01*
X92000000Y-57940476D01*
X92047619Y-57892857D01*
X92952380Y-56940476D02*
X92952380Y-57511904D01*
X92952380Y-57226190D02*
X91952380Y-57226190D01*
X92095238Y-57321428D01*
X92190476Y-57416666D01*
X92238095Y-57511904D01*
X92285714Y-56083333D02*
X92952380Y-56083333D01*
X91904761Y-56321428D02*
X92619047Y-56559523D01*
X92619047Y-55940476D01*
G04 #@! TO.C,C15*
X93857142Y-64717857D02*
X93904761Y-64765476D01*
X93952380Y-64908333D01*
X93952380Y-65003571D01*
X93904761Y-65146428D01*
X93809523Y-65241666D01*
X93714285Y-65289285D01*
X93523809Y-65336904D01*
X93380952Y-65336904D01*
X93190476Y-65289285D01*
X93095238Y-65241666D01*
X93000000Y-65146428D01*
X92952380Y-65003571D01*
X92952380Y-64908333D01*
X93000000Y-64765476D01*
X93047619Y-64717857D01*
X93952380Y-63765476D02*
X93952380Y-64336904D01*
X93952380Y-64051190D02*
X92952380Y-64051190D01*
X93095238Y-64146428D01*
X93190476Y-64241666D01*
X93238095Y-64336904D01*
X92952380Y-62860714D02*
X92952380Y-63336904D01*
X93428571Y-63384523D01*
X93380952Y-63336904D01*
X93333333Y-63241666D01*
X93333333Y-63003571D01*
X93380952Y-62908333D01*
X93428571Y-62860714D01*
X93523809Y-62813095D01*
X93761904Y-62813095D01*
X93857142Y-62860714D01*
X93904761Y-62908333D01*
X93952380Y-63003571D01*
X93952380Y-63241666D01*
X93904761Y-63336904D01*
X93857142Y-63384523D01*
G04 #@! TO.C,C16*
X102607142Y-55857142D02*
X102559523Y-55904761D01*
X102416666Y-55952380D01*
X102321428Y-55952380D01*
X102178571Y-55904761D01*
X102083333Y-55809523D01*
X102035714Y-55714285D01*
X101988095Y-55523809D01*
X101988095Y-55380952D01*
X102035714Y-55190476D01*
X102083333Y-55095238D01*
X102178571Y-55000000D01*
X102321428Y-54952380D01*
X102416666Y-54952380D01*
X102559523Y-55000000D01*
X102607142Y-55047619D01*
X103559523Y-55952380D02*
X102988095Y-55952380D01*
X103273809Y-55952380D02*
X103273809Y-54952380D01*
X103178571Y-55095238D01*
X103083333Y-55190476D01*
X102988095Y-55238095D01*
X104416666Y-54952380D02*
X104226190Y-54952380D01*
X104130952Y-55000000D01*
X104083333Y-55047619D01*
X103988095Y-55190476D01*
X103940476Y-55380952D01*
X103940476Y-55761904D01*
X103988095Y-55857142D01*
X104035714Y-55904761D01*
X104130952Y-55952380D01*
X104321428Y-55952380D01*
X104416666Y-55904761D01*
X104464285Y-55857142D01*
X104511904Y-55761904D01*
X104511904Y-55523809D01*
X104464285Y-55428571D01*
X104416666Y-55380952D01*
X104321428Y-55333333D01*
X104130952Y-55333333D01*
X104035714Y-55380952D01*
X103988095Y-55428571D01*
X103940476Y-55523809D01*
G04 #@! TO.C,C17*
X93957142Y-69167857D02*
X94004761Y-69215476D01*
X94052380Y-69358333D01*
X94052380Y-69453571D01*
X94004761Y-69596428D01*
X93909523Y-69691666D01*
X93814285Y-69739285D01*
X93623809Y-69786904D01*
X93480952Y-69786904D01*
X93290476Y-69739285D01*
X93195238Y-69691666D01*
X93100000Y-69596428D01*
X93052380Y-69453571D01*
X93052380Y-69358333D01*
X93100000Y-69215476D01*
X93147619Y-69167857D01*
X94052380Y-68215476D02*
X94052380Y-68786904D01*
X94052380Y-68501190D02*
X93052380Y-68501190D01*
X93195238Y-68596428D01*
X93290476Y-68691666D01*
X93338095Y-68786904D01*
X93052380Y-67882142D02*
X93052380Y-67215476D01*
X94052380Y-67644047D01*
G04 #@! TO.C,C18*
X95857142Y-37107142D02*
X95809523Y-37154761D01*
X95666666Y-37202380D01*
X95571428Y-37202380D01*
X95428571Y-37154761D01*
X95333333Y-37059523D01*
X95285714Y-36964285D01*
X95238095Y-36773809D01*
X95238095Y-36630952D01*
X95285714Y-36440476D01*
X95333333Y-36345238D01*
X95428571Y-36250000D01*
X95571428Y-36202380D01*
X95666666Y-36202380D01*
X95809523Y-36250000D01*
X95857142Y-36297619D01*
X96809523Y-37202380D02*
X96238095Y-37202380D01*
X96523809Y-37202380D02*
X96523809Y-36202380D01*
X96428571Y-36345238D01*
X96333333Y-36440476D01*
X96238095Y-36488095D01*
X97380952Y-36630952D02*
X97285714Y-36583333D01*
X97238095Y-36535714D01*
X97190476Y-36440476D01*
X97190476Y-36392857D01*
X97238095Y-36297619D01*
X97285714Y-36250000D01*
X97380952Y-36202380D01*
X97571428Y-36202380D01*
X97666666Y-36250000D01*
X97714285Y-36297619D01*
X97761904Y-36392857D01*
X97761904Y-36440476D01*
X97714285Y-36535714D01*
X97666666Y-36583333D01*
X97571428Y-36630952D01*
X97380952Y-36630952D01*
X97285714Y-36678571D01*
X97238095Y-36726190D01*
X97190476Y-36821428D01*
X97190476Y-37011904D01*
X97238095Y-37107142D01*
X97285714Y-37154761D01*
X97380952Y-37202380D01*
X97571428Y-37202380D01*
X97666666Y-37154761D01*
X97714285Y-37107142D01*
X97761904Y-37011904D01*
X97761904Y-36821428D01*
X97714285Y-36726190D01*
X97666666Y-36678571D01*
X97571428Y-36630952D01*
G04 #@! TO.C,C19*
X96107142Y-47107142D02*
X96059523Y-47154761D01*
X95916666Y-47202380D01*
X95821428Y-47202380D01*
X95678571Y-47154761D01*
X95583333Y-47059523D01*
X95535714Y-46964285D01*
X95488095Y-46773809D01*
X95488095Y-46630952D01*
X95535714Y-46440476D01*
X95583333Y-46345238D01*
X95678571Y-46250000D01*
X95821428Y-46202380D01*
X95916666Y-46202380D01*
X96059523Y-46250000D01*
X96107142Y-46297619D01*
X97059523Y-47202380D02*
X96488095Y-47202380D01*
X96773809Y-47202380D02*
X96773809Y-46202380D01*
X96678571Y-46345238D01*
X96583333Y-46440476D01*
X96488095Y-46488095D01*
X97535714Y-47202380D02*
X97726190Y-47202380D01*
X97821428Y-47154761D01*
X97869047Y-47107142D01*
X97964285Y-46964285D01*
X98011904Y-46773809D01*
X98011904Y-46392857D01*
X97964285Y-46297619D01*
X97916666Y-46250000D01*
X97821428Y-46202380D01*
X97630952Y-46202380D01*
X97535714Y-46250000D01*
X97488095Y-46297619D01*
X97440476Y-46392857D01*
X97440476Y-46630952D01*
X97488095Y-46726190D01*
X97535714Y-46773809D01*
X97630952Y-46821428D01*
X97821428Y-46821428D01*
X97916666Y-46773809D01*
X97964285Y-46726190D01*
X98011904Y-46630952D01*
G04 #@! TO.C,J5*
X52666666Y-35452380D02*
X52666666Y-36166666D01*
X52619047Y-36309523D01*
X52523809Y-36404761D01*
X52380952Y-36452380D01*
X52285714Y-36452380D01*
X53619047Y-35452380D02*
X53142857Y-35452380D01*
X53095238Y-35928571D01*
X53142857Y-35880952D01*
X53238095Y-35833333D01*
X53476190Y-35833333D01*
X53571428Y-35880952D01*
X53619047Y-35928571D01*
X53666666Y-36023809D01*
X53666666Y-36261904D01*
X53619047Y-36357142D01*
X53571428Y-36404761D01*
X53476190Y-36452380D01*
X53238095Y-36452380D01*
X53142857Y-36404761D01*
X53095238Y-36357142D01*
G04 #@! TO.C,J7*
X60952380Y-69778333D02*
X61666666Y-69778333D01*
X61809523Y-69825952D01*
X61904761Y-69921190D01*
X61952380Y-70064047D01*
X61952380Y-70159285D01*
X60952380Y-69397380D02*
X60952380Y-68730714D01*
X61952380Y-69159285D01*
G04 #@! TO.C,J8*
X55166666Y-28852380D02*
X55166666Y-29566666D01*
X55119047Y-29709523D01*
X55023809Y-29804761D01*
X54880952Y-29852380D01*
X54785714Y-29852380D01*
X55785714Y-29280952D02*
X55690476Y-29233333D01*
X55642857Y-29185714D01*
X55595238Y-29090476D01*
X55595238Y-29042857D01*
X55642857Y-28947619D01*
X55690476Y-28900000D01*
X55785714Y-28852380D01*
X55976190Y-28852380D01*
X56071428Y-28900000D01*
X56119047Y-28947619D01*
X56166666Y-29042857D01*
X56166666Y-29090476D01*
X56119047Y-29185714D01*
X56071428Y-29233333D01*
X55976190Y-29280952D01*
X55785714Y-29280952D01*
X55690476Y-29328571D01*
X55642857Y-29376190D01*
X55595238Y-29471428D01*
X55595238Y-29661904D01*
X55642857Y-29757142D01*
X55690476Y-29804761D01*
X55785714Y-29852380D01*
X55976190Y-29852380D01*
X56071428Y-29804761D01*
X56119047Y-29757142D01*
X56166666Y-29661904D01*
X56166666Y-29471428D01*
X56119047Y-29376190D01*
X56071428Y-29328571D01*
X55976190Y-29280952D01*
G04 #@! TO.C,L1*
X87952380Y-41166666D02*
X87952380Y-41642857D01*
X86952380Y-41642857D01*
X87952380Y-40309523D02*
X87952380Y-40880952D01*
X87952380Y-40595238D02*
X86952380Y-40595238D01*
X87095238Y-40690476D01*
X87190476Y-40785714D01*
X87238095Y-40880952D01*
G04 #@! TO.C,L2*
X85702380Y-41166666D02*
X85702380Y-41642857D01*
X84702380Y-41642857D01*
X84797619Y-40880952D02*
X84750000Y-40833333D01*
X84702380Y-40738095D01*
X84702380Y-40500000D01*
X84750000Y-40404761D01*
X84797619Y-40357142D01*
X84892857Y-40309523D01*
X84988095Y-40309523D01*
X85130952Y-40357142D01*
X85702380Y-40928571D01*
X85702380Y-40309523D01*
G04 #@! TO.C,R1*
X72452380Y-36666666D02*
X71976190Y-37000000D01*
X72452380Y-37238095D02*
X71452380Y-37238095D01*
X71452380Y-36857142D01*
X71500000Y-36761904D01*
X71547619Y-36714285D01*
X71642857Y-36666666D01*
X71785714Y-36666666D01*
X71880952Y-36714285D01*
X71928571Y-36761904D01*
X71976190Y-36857142D01*
X71976190Y-37238095D01*
X72452380Y-35714285D02*
X72452380Y-36285714D01*
X72452380Y-36000000D02*
X71452380Y-36000000D01*
X71595238Y-36095238D01*
X71690476Y-36190476D01*
X71738095Y-36285714D01*
G04 #@! TO.C,R2*
X90452380Y-57166666D02*
X89976190Y-57500000D01*
X90452380Y-57738095D02*
X89452380Y-57738095D01*
X89452380Y-57357142D01*
X89500000Y-57261904D01*
X89547619Y-57214285D01*
X89642857Y-57166666D01*
X89785714Y-57166666D01*
X89880952Y-57214285D01*
X89928571Y-57261904D01*
X89976190Y-57357142D01*
X89976190Y-57738095D01*
X89547619Y-56785714D02*
X89500000Y-56738095D01*
X89452380Y-56642857D01*
X89452380Y-56404761D01*
X89500000Y-56309523D01*
X89547619Y-56261904D01*
X89642857Y-56214285D01*
X89738095Y-56214285D01*
X89880952Y-56261904D01*
X90452380Y-56833333D01*
X90452380Y-56214285D01*
G04 #@! TO.C,R3*
X77952380Y-63366666D02*
X77476190Y-63700000D01*
X77952380Y-63938095D02*
X76952380Y-63938095D01*
X76952380Y-63557142D01*
X77000000Y-63461904D01*
X77047619Y-63414285D01*
X77142857Y-63366666D01*
X77285714Y-63366666D01*
X77380952Y-63414285D01*
X77428571Y-63461904D01*
X77476190Y-63557142D01*
X77476190Y-63938095D01*
X76952380Y-63033333D02*
X76952380Y-62414285D01*
X77333333Y-62747619D01*
X77333333Y-62604761D01*
X77380952Y-62509523D01*
X77428571Y-62461904D01*
X77523809Y-62414285D01*
X77761904Y-62414285D01*
X77857142Y-62461904D01*
X77904761Y-62509523D01*
X77952380Y-62604761D01*
X77952380Y-62890476D01*
X77904761Y-62985714D01*
X77857142Y-63033333D01*
G04 #@! TO.C,R4*
X80452380Y-63416666D02*
X79976190Y-63750000D01*
X80452380Y-63988095D02*
X79452380Y-63988095D01*
X79452380Y-63607142D01*
X79500000Y-63511904D01*
X79547619Y-63464285D01*
X79642857Y-63416666D01*
X79785714Y-63416666D01*
X79880952Y-63464285D01*
X79928571Y-63511904D01*
X79976190Y-63607142D01*
X79976190Y-63988095D01*
X79785714Y-62559523D02*
X80452380Y-62559523D01*
X79404761Y-62797619D02*
X80119047Y-63035714D01*
X80119047Y-62416666D01*
G04 #@! TO.C,R5*
X75452380Y-63366666D02*
X74976190Y-63700000D01*
X75452380Y-63938095D02*
X74452380Y-63938095D01*
X74452380Y-63557142D01*
X74500000Y-63461904D01*
X74547619Y-63414285D01*
X74642857Y-63366666D01*
X74785714Y-63366666D01*
X74880952Y-63414285D01*
X74928571Y-63461904D01*
X74976190Y-63557142D01*
X74976190Y-63938095D01*
X74452380Y-62461904D02*
X74452380Y-62938095D01*
X74928571Y-62985714D01*
X74880952Y-62938095D01*
X74833333Y-62842857D01*
X74833333Y-62604761D01*
X74880952Y-62509523D01*
X74928571Y-62461904D01*
X75023809Y-62414285D01*
X75261904Y-62414285D01*
X75357142Y-62461904D01*
X75404761Y-62509523D01*
X75452380Y-62604761D01*
X75452380Y-62842857D01*
X75404761Y-62938095D01*
X75357142Y-62985714D01*
G04 #@! TO.C,R6*
X82952380Y-63416666D02*
X82476190Y-63750000D01*
X82952380Y-63988095D02*
X81952380Y-63988095D01*
X81952380Y-63607142D01*
X82000000Y-63511904D01*
X82047619Y-63464285D01*
X82142857Y-63416666D01*
X82285714Y-63416666D01*
X82380952Y-63464285D01*
X82428571Y-63511904D01*
X82476190Y-63607142D01*
X82476190Y-63988095D01*
X81952380Y-62559523D02*
X81952380Y-62750000D01*
X82000000Y-62845238D01*
X82047619Y-62892857D01*
X82190476Y-62988095D01*
X82380952Y-63035714D01*
X82761904Y-63035714D01*
X82857142Y-62988095D01*
X82904761Y-62940476D01*
X82952380Y-62845238D01*
X82952380Y-62654761D01*
X82904761Y-62559523D01*
X82857142Y-62511904D01*
X82761904Y-62464285D01*
X82523809Y-62464285D01*
X82428571Y-62511904D01*
X82380952Y-62559523D01*
X82333333Y-62654761D01*
X82333333Y-62845238D01*
X82380952Y-62940476D01*
X82428571Y-62988095D01*
X82523809Y-63035714D01*
G04 #@! TO.C,U1*
X89102380Y-46761904D02*
X89911904Y-46761904D01*
X90007142Y-46714285D01*
X90054761Y-46666666D01*
X90102380Y-46571428D01*
X90102380Y-46380952D01*
X90054761Y-46285714D01*
X90007142Y-46238095D01*
X89911904Y-46190476D01*
X89102380Y-46190476D01*
X90102380Y-45190476D02*
X90102380Y-45761904D01*
X90102380Y-45476190D02*
X89102380Y-45476190D01*
X89245238Y-45571428D01*
X89340476Y-45666666D01*
X89388095Y-45761904D01*
G04 #@! TO.C,U2*
X97988095Y-58652380D02*
X97988095Y-59461904D01*
X98035714Y-59557142D01*
X98083333Y-59604761D01*
X98178571Y-59652380D01*
X98369047Y-59652380D01*
X98464285Y-59604761D01*
X98511904Y-59557142D01*
X98559523Y-59461904D01*
X98559523Y-58652380D01*
X98988095Y-58747619D02*
X99035714Y-58700000D01*
X99130952Y-58652380D01*
X99369047Y-58652380D01*
X99464285Y-58700000D01*
X99511904Y-58747619D01*
X99559523Y-58842857D01*
X99559523Y-58938095D01*
X99511904Y-59080952D01*
X98940476Y-59652380D01*
X99559523Y-59652380D01*
G04 #@! TO.C,X1*
X70002380Y-43709523D02*
X71002380Y-43042857D01*
X70002380Y-43042857D02*
X71002380Y-43709523D01*
X71002380Y-42138095D02*
X71002380Y-42709523D01*
X71002380Y-42423809D02*
X70002380Y-42423809D01*
X70145238Y-42519047D01*
X70240476Y-42614285D01*
X70288095Y-42709523D01*
G04 #@! TO.C,J1*
X79166666Y-64452380D02*
X79166666Y-65166666D01*
X79119047Y-65309523D01*
X79023809Y-65404761D01*
X78880952Y-65452380D01*
X78785714Y-65452380D01*
X80166666Y-65452380D02*
X79595238Y-65452380D01*
X79880952Y-65452380D02*
X79880952Y-64452380D01*
X79785714Y-64595238D01*
X79690476Y-64690476D01*
X79595238Y-64738095D01*
G04 #@! TO.C,J3*
X88166666Y-64202380D02*
X88166666Y-64916666D01*
X88119047Y-65059523D01*
X88023809Y-65154761D01*
X87880952Y-65202380D01*
X87785714Y-65202380D01*
X88547619Y-64202380D02*
X89166666Y-64202380D01*
X88833333Y-64583333D01*
X88976190Y-64583333D01*
X89071428Y-64630952D01*
X89119047Y-64678571D01*
X89166666Y-64773809D01*
X89166666Y-65011904D01*
X89119047Y-65107142D01*
X89071428Y-65154761D01*
X88976190Y-65202380D01*
X88690476Y-65202380D01*
X88595238Y-65154761D01*
X88547619Y-65107142D01*
G04 #@! TO.C,K1*
X106552380Y-46238095D02*
X105552380Y-46238095D01*
X106552380Y-45666666D02*
X105980952Y-46095238D01*
X105552380Y-45666666D02*
X106123809Y-46238095D01*
X106552380Y-44714285D02*
X106552380Y-45285714D01*
X106552380Y-45000000D02*
X105552380Y-45000000D01*
X105695238Y-45095238D01*
X105790476Y-45190476D01*
X105838095Y-45285714D01*
G04 #@! TO.C,K2*
X106552380Y-66988095D02*
X105552380Y-66988095D01*
X106552380Y-66416666D02*
X105980952Y-66845238D01*
X105552380Y-66416666D02*
X106123809Y-66988095D01*
X105647619Y-66035714D02*
X105600000Y-65988095D01*
X105552380Y-65892857D01*
X105552380Y-65654761D01*
X105600000Y-65559523D01*
X105647619Y-65511904D01*
X105742857Y-65464285D01*
X105838095Y-65464285D01*
X105980952Y-65511904D01*
X106552380Y-66083333D01*
X106552380Y-65464285D01*
G04 #@! TD*
M02*
