G04 #@! TF.GenerationSoftware,KiCad,Pcbnew,(5.0.2)-1*
G04 #@! TF.CreationDate,2019-06-23T01:10:28-04:00*
G04 #@! TF.ProjectId,RPi-Ham,5250692d-4861-46d2-9e6b-696361645f70,rev?*
G04 #@! TF.SameCoordinates,Original*
G04 #@! TF.FileFunction,Copper,L2,Bot*
G04 #@! TF.FilePolarity,Positive*
%FSLAX46Y46*%
G04 Gerber Fmt 4.6, Leading zero omitted, Abs format (unit mm)*
G04 Created by KiCad (PCBNEW (5.0.2)-1) date 2019-06-23 01:10:28*
%MOMM*%
%LPD*%
G01*
G04 APERTURE LIST*
G04 #@! TA.AperFunction,ComponentPad*
%ADD10C,5.400000*%
G04 #@! TD*
G04 #@! TA.AperFunction,ComponentPad*
%ADD11C,0.800000*%
G04 #@! TD*
G04 #@! TA.AperFunction,ComponentPad*
%ADD12C,1.500000*%
G04 #@! TD*
G04 #@! TA.AperFunction,ComponentPad*
%ADD13R,1.500000X1.500000*%
G04 #@! TD*
G04 #@! TA.AperFunction,ComponentPad*
%ADD14O,1.700000X1.700000*%
G04 #@! TD*
G04 #@! TA.AperFunction,ComponentPad*
%ADD15R,1.700000X1.700000*%
G04 #@! TD*
G04 #@! TA.AperFunction,ComponentPad*
%ADD16R,1.400000X1.400000*%
G04 #@! TD*
G04 #@! TA.AperFunction,ComponentPad*
%ADD17C,1.400000*%
G04 #@! TD*
G04 #@! TA.AperFunction,ViaPad*
%ADD18C,0.800000*%
G04 #@! TD*
G04 #@! TA.AperFunction,Conductor*
%ADD19C,0.250000*%
G04 #@! TD*
G04 APERTURE END LIST*
D10*
G04 #@! TO.P,J13,1*
G04 #@! TO.N,N/C*
X51000000Y-55500000D03*
D11*
X53025000Y-55500000D03*
X52431891Y-56931891D03*
X51000000Y-57525000D03*
X49568109Y-56931891D03*
X48975000Y-55500000D03*
X49568109Y-54068109D03*
X51000000Y-53475000D03*
X52431891Y-54068109D03*
G04 #@! TD*
D12*
G04 #@! TO.P,J2,8*
G04 #@! TO.N,Net-(J2-Pad8)*
X83390000Y-73460000D03*
G04 #@! TO.P,J2,7*
G04 #@! TO.N,Net-(J2-Pad7)*
X82120000Y-76000000D03*
G04 #@! TO.P,J2,6*
G04 #@! TO.N,Net-(J1-Pad3)*
X80850000Y-73460000D03*
G04 #@! TO.P,J2,5*
G04 #@! TO.N,GND*
X79580000Y-76000000D03*
G04 #@! TO.P,J2,4*
X78310000Y-73460000D03*
G04 #@! TO.P,J2,3*
G04 #@! TO.N,Net-(J1-Pad4)*
X77040000Y-76000000D03*
G04 #@! TO.P,J2,2*
G04 #@! TO.N,Net-(J2-Pad2)*
X75770000Y-73460000D03*
D13*
G04 #@! TO.P,J2,1*
G04 #@! TO.N,Net-(J2-Pad1)*
X74500000Y-76000000D03*
G04 #@! TD*
G04 #@! TO.P,J4,1*
G04 #@! TO.N,Net-(J4-Pad1)*
X90750000Y-76000000D03*
D12*
G04 #@! TO.P,J4,2*
G04 #@! TO.N,Net-(J4-Pad2)*
X92020000Y-73460000D03*
G04 #@! TO.P,J4,3*
G04 #@! TO.N,Net-(J3-Pad4)*
X93290000Y-76000000D03*
G04 #@! TO.P,J4,4*
G04 #@! TO.N,GND*
X94560000Y-73460000D03*
G04 #@! TO.P,J4,5*
X95830000Y-76000000D03*
G04 #@! TO.P,J4,6*
G04 #@! TO.N,Net-(J3-Pad3)*
X97100000Y-73460000D03*
G04 #@! TO.P,J4,7*
G04 #@! TO.N,Net-(J4-Pad7)*
X98370000Y-76000000D03*
G04 #@! TO.P,J4,8*
G04 #@! TO.N,Net-(J4-Pad8)*
X99640000Y-73460000D03*
G04 #@! TD*
D10*
G04 #@! TO.P,J12,1*
G04 #@! TO.N,N/C*
X109000000Y-32500000D03*
D11*
X111025000Y-32500000D03*
X110431891Y-33931891D03*
X109000000Y-34525000D03*
X107568109Y-33931891D03*
X106975000Y-32500000D03*
X107568109Y-31068109D03*
X109000000Y-30475000D03*
X110431891Y-31068109D03*
G04 #@! TD*
G04 #@! TO.P,J15,1*
G04 #@! TO.N,N/C*
X52431891Y-31068109D03*
X51000000Y-30475000D03*
X49568109Y-31068109D03*
X48975000Y-32500000D03*
X49568109Y-33931891D03*
X51000000Y-34525000D03*
X52431891Y-33931891D03*
X53025000Y-32500000D03*
D10*
X51000000Y-32500000D03*
G04 #@! TD*
D11*
G04 #@! TO.P,J10,1*
G04 #@! TO.N,N/C*
X110431891Y-80068109D03*
X109000000Y-79475000D03*
X107568109Y-80068109D03*
X106975000Y-81500000D03*
X107568109Y-82931891D03*
X109000000Y-83525000D03*
X110431891Y-82931891D03*
X111025000Y-81500000D03*
D10*
X109000000Y-81500000D03*
G04 #@! TD*
D11*
G04 #@! TO.P,J11,1*
G04 #@! TO.N,N/C*
X52431891Y-80068109D03*
X51000000Y-79475000D03*
X49568109Y-80068109D03*
X48975000Y-81500000D03*
X49568109Y-82931891D03*
X51000000Y-83525000D03*
X52431891Y-82931891D03*
X53025000Y-81500000D03*
D10*
X51000000Y-81500000D03*
G04 #@! TD*
D13*
G04 #@! TO.P,J5,1*
G04 #@! TO.N,Net-(J5-Pad1)*
X56500000Y-40000000D03*
D12*
G04 #@! TO.P,J5,2*
G04 #@! TO.N,Net-(J5-Pad2)*
X59040000Y-41270000D03*
G04 #@! TO.P,J5,3*
G04 #@! TO.N,Net-(J5-Pad3)*
X56500000Y-42540000D03*
G04 #@! TO.P,J5,4*
G04 #@! TO.N,Net-(J5-Pad4)*
X59040000Y-43810000D03*
G04 #@! TO.P,J5,5*
G04 #@! TO.N,Net-(J5-Pad5)*
X56500000Y-45080000D03*
G04 #@! TO.P,J5,6*
G04 #@! TO.N,Net-(J5-Pad6)*
X59040000Y-46350000D03*
G04 #@! TO.P,J5,7*
G04 #@! TO.N,Net-(J5-Pad7)*
X56500000Y-47620000D03*
G04 #@! TO.P,J5,8*
G04 #@! TO.N,Net-(J5-Pad8)*
X59040000Y-48890000D03*
G04 #@! TD*
D14*
G04 #@! TO.P,J6,16*
G04 #@! TO.N,GND*
X65040000Y-55530000D03*
G04 #@! TO.P,J6,15*
G04 #@! TO.N,Net-(J5-Pad8)*
X62500000Y-55530000D03*
G04 #@! TO.P,J6,14*
G04 #@! TO.N,GND*
X65040000Y-52990000D03*
G04 #@! TO.P,J6,13*
G04 #@! TO.N,Net-(J5-Pad7)*
X62500000Y-52990000D03*
G04 #@! TO.P,J6,12*
G04 #@! TO.N,GND*
X65040000Y-50450000D03*
G04 #@! TO.P,J6,11*
G04 #@! TO.N,Net-(J5-Pad6)*
X62500000Y-50450000D03*
G04 #@! TO.P,J6,10*
G04 #@! TO.N,TXR0*
X65040000Y-47910000D03*
G04 #@! TO.P,J6,9*
G04 #@! TO.N,Net-(J5-Pad5)*
X62500000Y-47910000D03*
G04 #@! TO.P,J6,8*
G04 #@! TO.N,RXR0*
X65040000Y-45370000D03*
G04 #@! TO.P,J6,7*
G04 #@! TO.N,Net-(J5-Pad4)*
X62500000Y-45370000D03*
G04 #@! TO.P,J6,6*
G04 #@! TO.N,PTT0*
X65040000Y-42830000D03*
G04 #@! TO.P,J6,5*
G04 #@! TO.N,Net-(J5-Pad3)*
X62500000Y-42830000D03*
G04 #@! TO.P,J6,4*
G04 #@! TO.N,OUTL*
X65040000Y-40290000D03*
G04 #@! TO.P,J6,3*
G04 #@! TO.N,Net-(J5-Pad2)*
X62500000Y-40290000D03*
G04 #@! TO.P,J6,2*
G04 #@! TO.N,INL*
X65040000Y-37750000D03*
D15*
G04 #@! TO.P,J6,1*
G04 #@! TO.N,Net-(J5-Pad1)*
X62500000Y-37750000D03*
G04 #@! TD*
D13*
G04 #@! TO.P,J7,1*
G04 #@! TO.N,Net-(J7-Pad1)*
X56500000Y-65000000D03*
D12*
G04 #@! TO.P,J7,2*
G04 #@! TO.N,Net-(J7-Pad2)*
X59040000Y-66270000D03*
G04 #@! TO.P,J7,3*
G04 #@! TO.N,Net-(J7-Pad3)*
X56500000Y-67540000D03*
G04 #@! TO.P,J7,4*
G04 #@! TO.N,Net-(J7-Pad4)*
X59040000Y-68810000D03*
G04 #@! TO.P,J7,5*
G04 #@! TO.N,Net-(J7-Pad5)*
X56500000Y-70080000D03*
G04 #@! TO.P,J7,6*
G04 #@! TO.N,Net-(J7-Pad6)*
X59040000Y-71350000D03*
G04 #@! TO.P,J7,7*
G04 #@! TO.N,Net-(J7-Pad7)*
X56500000Y-72620000D03*
G04 #@! TO.P,J7,8*
G04 #@! TO.N,Net-(J7-Pad8)*
X59040000Y-73890000D03*
G04 #@! TD*
D14*
G04 #@! TO.P,J8,40*
G04 #@! TO.N,DIN*
X104260000Y-31460000D03*
G04 #@! TO.P,J8,39*
G04 #@! TO.N,GND*
X104260000Y-34000000D03*
G04 #@! TO.P,J8,38*
G04 #@! TO.N,DOUT*
X101720000Y-31460000D03*
G04 #@! TO.P,J8,37*
G04 #@! TO.N,Net-(J8-Pad37)*
X101720000Y-34000000D03*
G04 #@! TO.P,J8,36*
G04 #@! TO.N,Net-(J8-Pad36)*
X99180000Y-31460000D03*
G04 #@! TO.P,J8,35*
G04 #@! TO.N,LRCK*
X99180000Y-34000000D03*
G04 #@! TO.P,J8,34*
G04 #@! TO.N,GND*
X96640000Y-31460000D03*
G04 #@! TO.P,J8,33*
G04 #@! TO.N,RXD1*
X96640000Y-34000000D03*
G04 #@! TO.P,J8,32*
G04 #@! TO.N,TXD1*
X94100000Y-31460000D03*
G04 #@! TO.P,J8,31*
G04 #@! TO.N,Net-(J8-Pad31)*
X94100000Y-34000000D03*
G04 #@! TO.P,J8,30*
G04 #@! TO.N,GND*
X91560000Y-31460000D03*
G04 #@! TO.P,J8,29*
G04 #@! TO.N,Net-(J8-Pad29)*
X91560000Y-34000000D03*
G04 #@! TO.P,J8,28*
G04 #@! TO.N,Net-(J8-Pad28)*
X89020000Y-31460000D03*
G04 #@! TO.P,J8,27*
G04 #@! TO.N,Net-(J8-Pad27)*
X89020000Y-34000000D03*
G04 #@! TO.P,J8,26*
G04 #@! TO.N,Net-(J8-Pad26)*
X86480000Y-31460000D03*
G04 #@! TO.P,J8,25*
G04 #@! TO.N,GND*
X86480000Y-34000000D03*
G04 #@! TO.P,J8,24*
G04 #@! TO.N,Net-(J8-Pad24)*
X83940000Y-31460000D03*
G04 #@! TO.P,J8,23*
G04 #@! TO.N,Net-(J8-Pad23)*
X83940000Y-34000000D03*
G04 #@! TO.P,J8,22*
G04 #@! TO.N,Net-(J8-Pad22)*
X81400000Y-31460000D03*
G04 #@! TO.P,J8,21*
G04 #@! TO.N,Net-(J8-Pad21)*
X81400000Y-34000000D03*
G04 #@! TO.P,J8,20*
G04 #@! TO.N,GND*
X78860000Y-31460000D03*
G04 #@! TO.P,J8,19*
G04 #@! TO.N,Net-(J8-Pad19)*
X78860000Y-34000000D03*
G04 #@! TO.P,J8,18*
G04 #@! TO.N,Net-(J8-Pad18)*
X76320000Y-31460000D03*
G04 #@! TO.P,J8,17*
G04 #@! TO.N,Net-(C19-Pad1)*
X76320000Y-34000000D03*
G04 #@! TO.P,J8,16*
G04 #@! TO.N,PTTL1*
X73780000Y-31460000D03*
G04 #@! TO.P,J8,15*
G04 #@! TO.N,PTTL0*
X73780000Y-34000000D03*
G04 #@! TO.P,J8,14*
G04 #@! TO.N,GND*
X71240000Y-31460000D03*
G04 #@! TO.P,J8,13*
G04 #@! TO.N,Net-(J8-Pad13)*
X71240000Y-34000000D03*
G04 #@! TO.P,J8,12*
G04 #@! TO.N,BCK*
X68700000Y-31460000D03*
G04 #@! TO.P,J8,11*
G04 #@! TO.N,Net-(J8-Pad11)*
X68700000Y-34000000D03*
G04 #@! TO.P,J8,10*
G04 #@! TO.N,RXD0*
X66160000Y-31460000D03*
G04 #@! TO.P,J8,9*
G04 #@! TO.N,GND*
X66160000Y-34000000D03*
G04 #@! TO.P,J8,8*
G04 #@! TO.N,TXD0*
X63620000Y-31460000D03*
G04 #@! TO.P,J8,7*
G04 #@! TO.N,Net-(J8-Pad7)*
X63620000Y-34000000D03*
G04 #@! TO.P,J8,6*
G04 #@! TO.N,GND*
X61080000Y-31460000D03*
G04 #@! TO.P,J8,5*
G04 #@! TO.N,Net-(J8-Pad5)*
X61080000Y-34000000D03*
G04 #@! TO.P,J8,4*
G04 #@! TO.N,Net-(C18-Pad1)*
X58540000Y-31460000D03*
G04 #@! TO.P,J8,3*
G04 #@! TO.N,Net-(J8-Pad3)*
X58540000Y-34000000D03*
G04 #@! TO.P,J8,2*
G04 #@! TO.N,Net-(C18-Pad1)*
X56000000Y-31460000D03*
D15*
G04 #@! TO.P,J8,1*
G04 #@! TO.N,Net-(C19-Pad1)*
X56000000Y-34000000D03*
G04 #@! TD*
G04 #@! TO.P,J9,1*
G04 #@! TO.N,Net-(J7-Pad1)*
X62500000Y-60000000D03*
D14*
G04 #@! TO.P,J9,2*
G04 #@! TO.N,INR*
X65040000Y-60000000D03*
G04 #@! TO.P,J9,3*
G04 #@! TO.N,Net-(J7-Pad2)*
X62500000Y-62540000D03*
G04 #@! TO.P,J9,4*
G04 #@! TO.N,OUTR*
X65040000Y-62540000D03*
G04 #@! TO.P,J9,5*
G04 #@! TO.N,Net-(J7-Pad3)*
X62500000Y-65080000D03*
G04 #@! TO.P,J9,6*
G04 #@! TO.N,PTT1*
X65040000Y-65080000D03*
G04 #@! TO.P,J9,7*
G04 #@! TO.N,Net-(J7-Pad4)*
X62500000Y-67620000D03*
G04 #@! TO.P,J9,8*
G04 #@! TO.N,RXR1*
X65040000Y-67620000D03*
G04 #@! TO.P,J9,9*
G04 #@! TO.N,Net-(J7-Pad5)*
X62500000Y-70160000D03*
G04 #@! TO.P,J9,10*
G04 #@! TO.N,TXR1*
X65040000Y-70160000D03*
G04 #@! TO.P,J9,11*
G04 #@! TO.N,Net-(J7-Pad6)*
X62500000Y-72700000D03*
G04 #@! TO.P,J9,12*
G04 #@! TO.N,GND*
X65040000Y-72700000D03*
G04 #@! TO.P,J9,13*
G04 #@! TO.N,Net-(J7-Pad7)*
X62500000Y-75240000D03*
G04 #@! TO.P,J9,14*
G04 #@! TO.N,GND*
X65040000Y-75240000D03*
G04 #@! TO.P,J9,15*
G04 #@! TO.N,Net-(J7-Pad8)*
X62500000Y-77780000D03*
G04 #@! TO.P,J9,16*
G04 #@! TO.N,GND*
X65040000Y-77780000D03*
G04 #@! TD*
G04 #@! TO.P,J1,6*
G04 #@! TO.N,TXR0*
X82080000Y-66960000D03*
G04 #@! TO.P,J1,5*
G04 #@! TO.N,RXR0*
X82080000Y-69500000D03*
G04 #@! TO.P,J1,4*
G04 #@! TO.N,Net-(J1-Pad4)*
X79540000Y-66960000D03*
G04 #@! TO.P,J1,3*
G04 #@! TO.N,Net-(J1-Pad3)*
X79540000Y-69500000D03*
G04 #@! TO.P,J1,2*
G04 #@! TO.N,RXR0*
X77000000Y-66960000D03*
D15*
G04 #@! TO.P,J1,1*
G04 #@! TO.N,TXR0*
X77000000Y-69500000D03*
G04 #@! TD*
G04 #@! TO.P,J3,1*
G04 #@! TO.N,TXR1*
X85750000Y-69500000D03*
D14*
G04 #@! TO.P,J3,2*
G04 #@! TO.N,RXR1*
X85750000Y-66960000D03*
G04 #@! TO.P,J3,3*
G04 #@! TO.N,Net-(J3-Pad3)*
X88290000Y-69500000D03*
G04 #@! TO.P,J3,4*
G04 #@! TO.N,Net-(J3-Pad4)*
X88290000Y-66960000D03*
G04 #@! TO.P,J3,5*
G04 #@! TO.N,RXR1*
X90830000Y-69500000D03*
G04 #@! TO.P,J3,6*
G04 #@! TO.N,TXR1*
X90830000Y-66960000D03*
G04 #@! TD*
D16*
G04 #@! TO.P,K1,1*
G04 #@! TO.N,GND*
X109750000Y-53250000D03*
D17*
G04 #@! TO.P,K1,3*
G04 #@! TO.N,PTTL0*
X109750000Y-48170000D03*
G04 #@! TO.P,K1,5*
G04 #@! TO.N,GND*
X109750000Y-43090000D03*
G04 #@! TO.P,K1,7*
G04 #@! TO.N,PTT0*
X109750000Y-38010000D03*
G04 #@! TD*
G04 #@! TO.P,K2,7*
G04 #@! TO.N,PTT1*
X109750000Y-58760000D03*
G04 #@! TO.P,K2,5*
G04 #@! TO.N,GND*
X109750000Y-63840000D03*
G04 #@! TO.P,K2,3*
G04 #@! TO.N,PTTL1*
X109750000Y-68920000D03*
D16*
G04 #@! TO.P,K2,1*
G04 #@! TO.N,GND*
X109750000Y-74000000D03*
G04 #@! TD*
D18*
G04 #@! TO.N,Earth*
X88750800Y-57241100D03*
X87673900Y-46388800D03*
X86109700Y-44858200D03*
G04 #@! TO.N,VDD*
X81750000Y-40733400D03*
X86804800Y-47690600D03*
X84155000Y-44336300D03*
X80129300Y-47686600D03*
G04 #@! TO.N,Net-(C6-Pad1)*
X83476500Y-51928600D03*
X83476500Y-47641500D03*
G04 #@! TO.N,Net-(C13-Pad2)*
X97420300Y-60500000D03*
X100322100Y-63104700D03*
G04 #@! TO.N,Net-(C15-Pad1)*
X97386900Y-63129900D03*
X100158900Y-64581300D03*
G04 #@! TO.N,Net-(C17-Pad2)*
X93926500Y-67082900D03*
X96613300Y-65980000D03*
G04 #@! TO.N,Net-(C19-Pad1)*
X97762400Y-53800000D03*
X83926100Y-39114700D03*
G04 #@! TO.N,OUTL*
X81354200Y-60319500D03*
G04 #@! TO.N,RXD0*
X100168300Y-65635000D03*
G04 #@! TO.N,BCK*
X77751200Y-42196200D03*
G04 #@! TO.N,TXD1*
X105554100Y-63914400D03*
G04 #@! TO.N,RXD1*
X106283100Y-64679000D03*
G04 #@! TO.N,LRCK*
X90036700Y-41545100D03*
G04 #@! TO.N,DOUT*
X88804200Y-42399500D03*
G04 #@! TO.N,DIN*
X104241700Y-29244100D03*
G04 #@! TO.N,Net-(R1-Pad1)*
X73077600Y-39194100D03*
X82516500Y-44322700D03*
G04 #@! TD*
D19*
G04 #@! TO.N,Earth*
X87673900Y-46388800D02*
X87673900Y-56164200D01*
X87673900Y-56164200D02*
X88750800Y-57241100D01*
X86109700Y-44858200D02*
X87640300Y-46388800D01*
X87640300Y-46388800D02*
X87673900Y-46388800D01*
G04 #@! TO.N,VDD*
X83569600Y-44336300D02*
X84155000Y-44336300D01*
X80129300Y-47686600D02*
X80219300Y-47686600D01*
X80219300Y-47686600D02*
X83569600Y-44336300D01*
X83569600Y-44336300D02*
X83569600Y-42553000D01*
X83569600Y-42553000D02*
X81750000Y-40733400D01*
X84155000Y-44336300D02*
X84155000Y-45040800D01*
X84155000Y-45040800D02*
X86804800Y-47690600D01*
G04 #@! TO.N,Net-(C6-Pad1)*
X83476500Y-47641500D02*
X83476500Y-51928600D01*
G04 #@! TO.N,Net-(C13-Pad2)*
X100322100Y-63104700D02*
X97717400Y-60500000D01*
X97717400Y-60500000D02*
X97420300Y-60500000D01*
G04 #@! TO.N,GND*
X64966800Y-30974200D02*
X64966800Y-32806800D01*
X64966800Y-32806800D02*
X66160000Y-34000000D01*
X70064700Y-31460000D02*
X70064700Y-31092700D01*
X70064700Y-31092700D02*
X69250000Y-30278000D01*
X69250000Y-30278000D02*
X65663000Y-30278000D01*
X65663000Y-30278000D02*
X64966800Y-30974200D01*
X62255300Y-31460000D02*
X62255300Y-31092700D01*
X62255300Y-31092700D02*
X63063400Y-30284600D01*
X63063400Y-30284600D02*
X64277200Y-30284600D01*
X64277200Y-30284600D02*
X64966800Y-30974200D01*
X61080000Y-31460000D02*
X62255300Y-31460000D01*
X71240000Y-31460000D02*
X70064700Y-31460000D01*
X78860000Y-31460000D02*
X80035300Y-31460000D01*
X86480000Y-34000000D02*
X85304700Y-34000000D01*
X85304700Y-34000000D02*
X85304700Y-33632600D01*
X85304700Y-33632600D02*
X84307400Y-32635300D01*
X84307400Y-32635300D02*
X80843200Y-32635300D01*
X80843200Y-32635300D02*
X80035300Y-31827400D01*
X80035300Y-31827400D02*
X80035300Y-31460000D01*
X109750000Y-74000000D02*
X109750000Y-72974700D01*
X109750000Y-72974700D02*
X110775400Y-71949300D01*
X110775400Y-71949300D02*
X110775400Y-64865400D01*
X110775400Y-64865400D02*
X109750000Y-63840000D01*
X65040000Y-55530000D02*
X65040000Y-56705300D01*
X65040000Y-72700000D02*
X65040000Y-71524700D01*
X65040000Y-71524700D02*
X65407300Y-71524700D01*
X65407300Y-71524700D02*
X66215300Y-70716700D01*
X66215300Y-70716700D02*
X66215300Y-57880600D01*
X66215300Y-57880600D02*
X65040000Y-56705300D01*
X65040000Y-75240000D02*
X65040000Y-72700000D01*
X104260000Y-34000000D02*
X104260000Y-35175300D01*
X104260000Y-35175300D02*
X109750000Y-40665300D01*
X109750000Y-40665300D02*
X109750000Y-43090000D01*
X65040000Y-77780000D02*
X65040000Y-75240000D01*
X109750000Y-53250000D02*
X109750000Y-54275300D01*
X109750000Y-54275300D02*
X110775400Y-55300700D01*
X110775400Y-55300700D02*
X110775400Y-62814600D01*
X110775400Y-62814600D02*
X109750000Y-63840000D01*
G04 #@! TO.N,Net-(C15-Pad1)*
X100158900Y-64581300D02*
X98838300Y-64581300D01*
X98838300Y-64581300D02*
X97386900Y-63129900D01*
G04 #@! TO.N,Net-(C17-Pad2)*
X96613300Y-65980000D02*
X95029400Y-65980000D01*
X95029400Y-65980000D02*
X93926500Y-67082900D01*
G04 #@! TO.N,Net-(C19-Pad1)*
X83926100Y-39114700D02*
X83926100Y-39963700D01*
X83926100Y-39963700D02*
X97762400Y-53800000D01*
X76320000Y-34000000D02*
X77495300Y-34000000D01*
X77495300Y-34000000D02*
X77495300Y-34367300D01*
X77495300Y-34367300D02*
X82242700Y-39114700D01*
X82242700Y-39114700D02*
X83926100Y-39114700D01*
G04 #@! TO.N,RXR0*
X80096800Y-68324700D02*
X80904700Y-69132600D01*
X80904700Y-69132600D02*
X80904700Y-69500000D01*
X78175300Y-66960000D02*
X78175300Y-67327400D01*
X78175300Y-67327400D02*
X79172600Y-68324700D01*
X79172600Y-68324700D02*
X80096800Y-68324700D01*
X80096800Y-68324700D02*
X80753700Y-67667800D01*
X80753700Y-67667800D02*
X80753700Y-66453000D01*
X80753700Y-66453000D02*
X65926100Y-51625400D01*
X65926100Y-51625400D02*
X64536400Y-51625400D01*
X64536400Y-51625400D02*
X63824900Y-50913900D01*
X63824900Y-50913900D02*
X63824900Y-47395100D01*
X63824900Y-47395100D02*
X64674700Y-46545300D01*
X64674700Y-46545300D02*
X65040000Y-46545300D01*
X65040000Y-45370000D02*
X65040000Y-46545300D01*
X82080000Y-69500000D02*
X80904700Y-69500000D01*
X77000000Y-66960000D02*
X78175300Y-66960000D01*
G04 #@! TO.N,TXR0*
X82080000Y-66960000D02*
X82080000Y-65784700D01*
X65040000Y-49085300D02*
X65380600Y-49085300D01*
X65380600Y-49085300D02*
X82080000Y-65784700D01*
X65040000Y-47910000D02*
X65040000Y-49085300D01*
G04 #@! TO.N,RXR1*
X85750000Y-66960000D02*
X86925300Y-66960000D01*
X90830000Y-69500000D02*
X89654700Y-69500000D01*
X89654700Y-69500000D02*
X89654700Y-69132600D01*
X89654700Y-69132600D02*
X88657400Y-68135300D01*
X88657400Y-68135300D02*
X87733200Y-68135300D01*
X87733200Y-68135300D02*
X86925300Y-67327400D01*
X86925300Y-67327400D02*
X86925300Y-66960000D01*
G04 #@! TO.N,Net-(J5-Pad8)*
X62500000Y-55530000D02*
X62500000Y-54354700D01*
X62500000Y-54354700D02*
X62132700Y-54354700D01*
X62132700Y-54354700D02*
X59040000Y-51262000D01*
X59040000Y-51262000D02*
X59040000Y-48890000D01*
G04 #@! TO.N,Net-(J5-Pad4)*
X62500000Y-45370000D02*
X61324700Y-45370000D01*
X61324700Y-45370000D02*
X59764700Y-43810000D01*
X59764700Y-43810000D02*
X59040000Y-43810000D01*
G04 #@! TO.N,Net-(J5-Pad3)*
X62500000Y-42830000D02*
X61324700Y-42830000D01*
X61324700Y-42830000D02*
X61034700Y-42540000D01*
X61034700Y-42540000D02*
X56500000Y-42540000D01*
G04 #@! TO.N,Net-(J5-Pad2)*
X62500000Y-40290000D02*
X61324700Y-40290000D01*
X61324700Y-40290000D02*
X60344700Y-41270000D01*
X60344700Y-41270000D02*
X59040000Y-41270000D01*
G04 #@! TO.N,OUTL*
X65040000Y-40290000D02*
X65040000Y-41465300D01*
X65040000Y-41465300D02*
X65407300Y-41465300D01*
X65407300Y-41465300D02*
X81354200Y-57412200D01*
X81354200Y-57412200D02*
X81354200Y-60319500D01*
G04 #@! TO.N,PTT0*
X109750000Y-38010000D02*
X109750000Y-37745500D01*
X109750000Y-37745500D02*
X104639900Y-32635400D01*
X104639900Y-32635400D02*
X103734400Y-32635400D01*
X103734400Y-32635400D02*
X102990000Y-31891000D01*
X102990000Y-31891000D02*
X102990000Y-31017500D01*
X102990000Y-31017500D02*
X101341800Y-29369300D01*
X101341800Y-29369300D02*
X61499100Y-29369300D01*
X61499100Y-29369300D02*
X59904600Y-30963800D01*
X59904600Y-30963800D02*
X59904600Y-31985600D01*
X59904600Y-31985600D02*
X60743600Y-32824600D01*
X60743600Y-32824600D02*
X61605600Y-32824600D01*
X61605600Y-32824600D02*
X62350000Y-33569000D01*
X62350000Y-33569000D02*
X62350000Y-34408100D01*
X62350000Y-34408100D02*
X63675400Y-35733500D01*
X63675400Y-35733500D02*
X63675400Y-41465400D01*
X63675400Y-41465400D02*
X65040000Y-42830000D01*
G04 #@! TO.N,Net-(J7-Pad1)*
X56500000Y-65000000D02*
X56500000Y-63924700D01*
X62500000Y-60000000D02*
X61324700Y-60000000D01*
X61324700Y-60000000D02*
X57400000Y-63924700D01*
X57400000Y-63924700D02*
X56500000Y-63924700D01*
G04 #@! TO.N,Net-(J7-Pad2)*
X62500000Y-62540000D02*
X62500000Y-63715300D01*
X62500000Y-63715300D02*
X61594700Y-63715300D01*
X61594700Y-63715300D02*
X59040000Y-66270000D01*
G04 #@! TO.N,Net-(J7-Pad7)*
X62500000Y-75240000D02*
X61324700Y-75240000D01*
X61324700Y-75240000D02*
X61324700Y-74652400D01*
X61324700Y-74652400D02*
X59292300Y-72620000D01*
X59292300Y-72620000D02*
X56500000Y-72620000D01*
G04 #@! TO.N,Net-(J7-Pad8)*
X62500000Y-77780000D02*
X62500000Y-76604700D01*
X62500000Y-76604700D02*
X61754700Y-76604700D01*
X61754700Y-76604700D02*
X59040000Y-73890000D01*
G04 #@! TO.N,RXD0*
X66160000Y-32635300D02*
X66527400Y-32635300D01*
X66527400Y-32635300D02*
X67335300Y-33443200D01*
X67335300Y-33443200D02*
X67335300Y-36852800D01*
X67335300Y-36852800D02*
X92951800Y-62469300D01*
X92951800Y-62469300D02*
X94271200Y-62469300D01*
X94271200Y-62469300D02*
X97436900Y-65635000D01*
X97436900Y-65635000D02*
X100168300Y-65635000D01*
X66160000Y-31460000D02*
X66160000Y-32635300D01*
G04 #@! TO.N,BCK*
X68700000Y-32635300D02*
X69067400Y-32635300D01*
X69067400Y-32635300D02*
X69875300Y-33443200D01*
X69875300Y-33443200D02*
X69875300Y-34320300D01*
X69875300Y-34320300D02*
X77751200Y-42196200D01*
X68700000Y-31460000D02*
X68700000Y-32635300D01*
G04 #@! TO.N,TXD1*
X94100000Y-32635300D02*
X94467400Y-32635300D01*
X94467400Y-32635300D02*
X95275300Y-33443200D01*
X95275300Y-33443200D02*
X95275300Y-34535500D01*
X95275300Y-34535500D02*
X105554100Y-44814300D01*
X105554100Y-44814300D02*
X105554100Y-63914400D01*
X94100000Y-31460000D02*
X94100000Y-32635300D01*
G04 #@! TO.N,RXD1*
X96640000Y-35175300D02*
X106283100Y-44818400D01*
X106283100Y-44818400D02*
X106283100Y-64679000D01*
X96640000Y-34000000D02*
X96640000Y-35175300D01*
G04 #@! TO.N,LRCK*
X99180000Y-32824700D02*
X98812600Y-32824700D01*
X98812600Y-32824700D02*
X98004700Y-32016800D01*
X98004700Y-32016800D02*
X98004700Y-31118500D01*
X98004700Y-31118500D02*
X97160100Y-30273900D01*
X97160100Y-30273900D02*
X93610800Y-30273900D01*
X93610800Y-30273900D02*
X92924600Y-30960100D01*
X92924600Y-30960100D02*
X92924600Y-38657200D01*
X92924600Y-38657200D02*
X90036700Y-41545100D01*
X99180000Y-34000000D02*
X99180000Y-32824700D01*
G04 #@! TO.N,DOUT*
X100544700Y-31460000D02*
X100544700Y-31092700D01*
X100544700Y-31092700D02*
X99275500Y-29823500D01*
X99275500Y-29823500D02*
X91506000Y-29823500D01*
X91506000Y-29823500D02*
X90195400Y-31134100D01*
X90195400Y-31134100D02*
X90195400Y-40360700D01*
X90195400Y-40360700D02*
X88804200Y-41751900D01*
X88804200Y-41751900D02*
X88804200Y-42399500D01*
X101720000Y-31460000D02*
X100544700Y-31460000D01*
G04 #@! TO.N,DIN*
X104241700Y-29244100D02*
X104260000Y-29262400D01*
X104260000Y-29262400D02*
X104260000Y-31460000D01*
G04 #@! TO.N,Net-(R1-Pad1)*
X73077600Y-39194100D02*
X78206200Y-44322700D01*
X78206200Y-44322700D02*
X82516500Y-44322700D01*
G04 #@! TO.N,Net-(J1-Pad4)*
X79540000Y-66960000D02*
X78336800Y-65756800D01*
X78336800Y-65756800D02*
X76470600Y-65756800D01*
X76470600Y-65756800D02*
X75768100Y-66459300D01*
X75768100Y-66459300D02*
X75768100Y-70701600D01*
X75768100Y-70701600D02*
X77040000Y-71973500D01*
X77040000Y-71973500D02*
X77040000Y-76000000D01*
G04 #@! TO.N,Net-(J1-Pad3)*
X79540000Y-69500000D02*
X79540000Y-72150000D01*
X79540000Y-72150000D02*
X80850000Y-73460000D01*
G04 #@! TO.N,Net-(J3-Pad4)*
X88290000Y-66960000D02*
X89465300Y-66960000D01*
X89465300Y-66960000D02*
X89465300Y-66592700D01*
X89465300Y-66592700D02*
X90311900Y-65746100D01*
X90311900Y-65746100D02*
X91306400Y-65746100D01*
X91306400Y-65746100D02*
X93290000Y-67729700D01*
X93290000Y-67729700D02*
X93290000Y-76000000D01*
G04 #@! TO.N,PTTL1*
X73780000Y-31460000D02*
X73780000Y-32635300D01*
X109750000Y-68920000D02*
X109496700Y-68920000D01*
X109496700Y-68920000D02*
X88707000Y-48130300D01*
X88707000Y-48130300D02*
X88707000Y-46395000D01*
X88707000Y-46395000D02*
X78387100Y-36075100D01*
X78387100Y-36075100D02*
X76692100Y-36075100D01*
X76692100Y-36075100D02*
X74955300Y-34338300D01*
X74955300Y-34338300D02*
X74955300Y-33443200D01*
X74955300Y-33443200D02*
X74147400Y-32635300D01*
X74147400Y-32635300D02*
X73780000Y-32635300D01*
G04 #@! TD*
M02*
