G04 #@! TF.GenerationSoftware,KiCad,Pcbnew,(5.0.2)-1*
G04 #@! TF.CreationDate,2019-06-22T23:35:03-04:00*
G04 #@! TF.ProjectId,RPi-Ham,5250692d-4861-46d2-9e6b-696361645f70,rev?*
G04 #@! TF.SameCoordinates,Original*
G04 #@! TF.FileFunction,Soldermask,Bot*
G04 #@! TF.FilePolarity,Negative*
%FSLAX46Y46*%
G04 Gerber Fmt 4.6, Leading zero omitted, Abs format (unit mm)*
G04 Created by KiCad (PCBNEW (5.0.2)-1) date 2019-06-22 23:35:03*
%MOMM*%
%LPD*%
G01*
G04 APERTURE LIST*
%ADD10C,0.100000*%
G04 APERTURE END LIST*
D10*
G36*
X109536693Y-78801859D02*
X109802437Y-78854719D01*
X110303087Y-79062095D01*
X110490774Y-79187504D01*
X110753663Y-79363161D01*
X111136839Y-79746337D01*
X111136841Y-79746340D01*
X111437905Y-80196913D01*
X111571363Y-80519109D01*
X111645281Y-80697564D01*
X111751000Y-81229049D01*
X111751000Y-81770951D01*
X111715186Y-81951000D01*
X111645281Y-82302437D01*
X111437905Y-82803087D01*
X111147636Y-83237504D01*
X111136839Y-83253663D01*
X110753663Y-83636839D01*
X110753660Y-83636841D01*
X110303087Y-83937905D01*
X109802437Y-84145281D01*
X109536693Y-84198141D01*
X109270951Y-84251000D01*
X108729049Y-84251000D01*
X108463307Y-84198141D01*
X108197563Y-84145281D01*
X107696913Y-83937905D01*
X107246340Y-83636841D01*
X107246337Y-83636839D01*
X106863161Y-83253663D01*
X106852364Y-83237504D01*
X106562095Y-82803087D01*
X106354719Y-82302437D01*
X106284814Y-81951000D01*
X106249000Y-81770951D01*
X106249000Y-81229049D01*
X106354719Y-80697564D01*
X106428637Y-80519109D01*
X106562095Y-80196913D01*
X106863159Y-79746340D01*
X106863161Y-79746337D01*
X107246337Y-79363161D01*
X107509226Y-79187504D01*
X107696913Y-79062095D01*
X108197563Y-78854719D01*
X108463307Y-78801859D01*
X108729049Y-78749000D01*
X109270951Y-78749000D01*
X109536693Y-78801859D01*
X109536693Y-78801859D01*
G37*
G36*
X51536693Y-78801859D02*
X51802437Y-78854719D01*
X52303087Y-79062095D01*
X52490774Y-79187504D01*
X52753663Y-79363161D01*
X53136839Y-79746337D01*
X53136841Y-79746340D01*
X53437905Y-80196913D01*
X53571363Y-80519109D01*
X53645281Y-80697564D01*
X53751000Y-81229049D01*
X53751000Y-81770951D01*
X53715186Y-81951000D01*
X53645281Y-82302437D01*
X53437905Y-82803087D01*
X53147636Y-83237504D01*
X53136839Y-83253663D01*
X52753663Y-83636839D01*
X52753660Y-83636841D01*
X52303087Y-83937905D01*
X51802437Y-84145281D01*
X51536693Y-84198141D01*
X51270951Y-84251000D01*
X50729049Y-84251000D01*
X50463307Y-84198141D01*
X50197563Y-84145281D01*
X49696913Y-83937905D01*
X49246340Y-83636841D01*
X49246337Y-83636839D01*
X48863161Y-83253663D01*
X48852364Y-83237504D01*
X48562095Y-82803087D01*
X48354719Y-82302437D01*
X48284814Y-81951000D01*
X48249000Y-81770951D01*
X48249000Y-81229049D01*
X48354719Y-80697564D01*
X48428637Y-80519109D01*
X48562095Y-80196913D01*
X48863159Y-79746340D01*
X48863161Y-79746337D01*
X49246337Y-79363161D01*
X49509226Y-79187504D01*
X49696913Y-79062095D01*
X50197563Y-78854719D01*
X50463307Y-78801859D01*
X50729049Y-78749000D01*
X51270951Y-78749000D01*
X51536693Y-78801859D01*
X51536693Y-78801859D01*
G37*
G36*
X103535256Y-80741298D02*
X103641579Y-80762447D01*
X103942042Y-80886903D01*
X104184637Y-81049000D01*
X104212454Y-81067587D01*
X104442413Y-81297546D01*
X104442415Y-81297549D01*
X104623097Y-81567958D01*
X104740053Y-81850314D01*
X104747553Y-81868422D01*
X104811000Y-82187389D01*
X104811000Y-82512611D01*
X104784786Y-82644395D01*
X104747553Y-82831579D01*
X104623097Y-83132042D01*
X104455485Y-83382891D01*
X104442413Y-83402454D01*
X104212454Y-83632413D01*
X104212451Y-83632415D01*
X103942042Y-83813097D01*
X103641579Y-83937553D01*
X103535427Y-83958668D01*
X103322611Y-84001000D01*
X102997389Y-84001000D01*
X102784573Y-83958668D01*
X102678421Y-83937553D01*
X102377958Y-83813097D01*
X102107549Y-83632415D01*
X102107546Y-83632413D01*
X101877587Y-83402454D01*
X101864515Y-83382891D01*
X101696903Y-83132042D01*
X101572447Y-82831579D01*
X101535214Y-82644395D01*
X101509000Y-82512611D01*
X101509000Y-82187389D01*
X101572447Y-81868422D01*
X101579948Y-81850314D01*
X101696903Y-81567958D01*
X101877585Y-81297549D01*
X101877587Y-81297546D01*
X102107546Y-81067587D01*
X102135363Y-81049000D01*
X102377958Y-80886903D01*
X102678421Y-80762447D01*
X102784744Y-80741298D01*
X102997389Y-80699000D01*
X103322611Y-80699000D01*
X103535256Y-80741298D01*
X103535256Y-80741298D01*
G37*
G36*
X92105256Y-80741298D02*
X92211579Y-80762447D01*
X92512042Y-80886903D01*
X92754637Y-81049000D01*
X92782454Y-81067587D01*
X93012413Y-81297546D01*
X93012415Y-81297549D01*
X93193097Y-81567958D01*
X93310053Y-81850314D01*
X93317553Y-81868422D01*
X93381000Y-82187389D01*
X93381000Y-82512611D01*
X93354786Y-82644395D01*
X93317553Y-82831579D01*
X93193097Y-83132042D01*
X93025485Y-83382891D01*
X93012413Y-83402454D01*
X92782454Y-83632413D01*
X92782451Y-83632415D01*
X92512042Y-83813097D01*
X92211579Y-83937553D01*
X92105427Y-83958668D01*
X91892611Y-84001000D01*
X91567389Y-84001000D01*
X91354573Y-83958668D01*
X91248421Y-83937553D01*
X90947958Y-83813097D01*
X90677549Y-83632415D01*
X90677546Y-83632413D01*
X90447587Y-83402454D01*
X90434515Y-83382891D01*
X90266903Y-83132042D01*
X90142447Y-82831579D01*
X90105214Y-82644395D01*
X90079000Y-82512611D01*
X90079000Y-82187389D01*
X90142447Y-81868422D01*
X90149948Y-81850314D01*
X90266903Y-81567958D01*
X90447585Y-81297549D01*
X90447587Y-81297546D01*
X90677546Y-81067587D01*
X90705363Y-81049000D01*
X90947958Y-80886903D01*
X91248421Y-80762447D01*
X91354744Y-80741298D01*
X91567389Y-80699000D01*
X91892611Y-80699000D01*
X92105256Y-80741298D01*
X92105256Y-80741298D01*
G37*
G36*
X75605256Y-80741298D02*
X75711579Y-80762447D01*
X76012042Y-80886903D01*
X76254637Y-81049000D01*
X76282454Y-81067587D01*
X76512413Y-81297546D01*
X76512415Y-81297549D01*
X76693097Y-81567958D01*
X76810053Y-81850314D01*
X76817553Y-81868422D01*
X76881000Y-82187389D01*
X76881000Y-82512611D01*
X76854786Y-82644395D01*
X76817553Y-82831579D01*
X76693097Y-83132042D01*
X76525485Y-83382891D01*
X76512413Y-83402454D01*
X76282454Y-83632413D01*
X76282451Y-83632415D01*
X76012042Y-83813097D01*
X75711579Y-83937553D01*
X75605427Y-83958668D01*
X75392611Y-84001000D01*
X75067389Y-84001000D01*
X74854573Y-83958668D01*
X74748421Y-83937553D01*
X74447958Y-83813097D01*
X74177549Y-83632415D01*
X74177546Y-83632413D01*
X73947587Y-83402454D01*
X73934515Y-83382891D01*
X73766903Y-83132042D01*
X73642447Y-82831579D01*
X73605214Y-82644395D01*
X73579000Y-82512611D01*
X73579000Y-82187389D01*
X73642447Y-81868422D01*
X73649948Y-81850314D01*
X73766903Y-81567958D01*
X73947585Y-81297549D01*
X73947587Y-81297546D01*
X74177546Y-81067587D01*
X74205363Y-81049000D01*
X74447958Y-80886903D01*
X74748421Y-80762447D01*
X74854744Y-80741298D01*
X75067389Y-80699000D01*
X75392611Y-80699000D01*
X75605256Y-80741298D01*
X75605256Y-80741298D01*
G37*
G36*
X87035256Y-80741298D02*
X87141579Y-80762447D01*
X87442042Y-80886903D01*
X87684637Y-81049000D01*
X87712454Y-81067587D01*
X87942413Y-81297546D01*
X87942415Y-81297549D01*
X88123097Y-81567958D01*
X88240053Y-81850314D01*
X88247553Y-81868422D01*
X88311000Y-82187389D01*
X88311000Y-82512611D01*
X88284786Y-82644395D01*
X88247553Y-82831579D01*
X88123097Y-83132042D01*
X87955485Y-83382891D01*
X87942413Y-83402454D01*
X87712454Y-83632413D01*
X87712451Y-83632415D01*
X87442042Y-83813097D01*
X87141579Y-83937553D01*
X87035427Y-83958668D01*
X86822611Y-84001000D01*
X86497389Y-84001000D01*
X86284573Y-83958668D01*
X86178421Y-83937553D01*
X85877958Y-83813097D01*
X85607549Y-83632415D01*
X85607546Y-83632413D01*
X85377587Y-83402454D01*
X85364515Y-83382891D01*
X85196903Y-83132042D01*
X85072447Y-82831579D01*
X85035214Y-82644395D01*
X85009000Y-82512611D01*
X85009000Y-82187389D01*
X85072447Y-81868422D01*
X85079948Y-81850314D01*
X85196903Y-81567958D01*
X85377585Y-81297549D01*
X85377587Y-81297546D01*
X85607546Y-81067587D01*
X85635363Y-81049000D01*
X85877958Y-80886903D01*
X86178421Y-80762447D01*
X86284744Y-80741298D01*
X86497389Y-80699000D01*
X86822611Y-80699000D01*
X87035256Y-80741298D01*
X87035256Y-80741298D01*
G37*
G36*
X64610442Y-76885518D02*
X64676627Y-76892037D01*
X64789853Y-76926384D01*
X64846467Y-76943557D01*
X64985087Y-77017652D01*
X65002991Y-77027222D01*
X65038729Y-77056552D01*
X65140186Y-77139814D01*
X65223448Y-77241271D01*
X65252778Y-77277009D01*
X65252779Y-77277011D01*
X65336443Y-77433533D01*
X65336443Y-77433534D01*
X65387963Y-77603373D01*
X65405359Y-77780000D01*
X65387963Y-77956627D01*
X65353616Y-78069853D01*
X65336443Y-78126467D01*
X65262348Y-78265087D01*
X65252778Y-78282991D01*
X65223448Y-78318729D01*
X65140186Y-78420186D01*
X65038729Y-78503448D01*
X65002991Y-78532778D01*
X65002989Y-78532779D01*
X64846467Y-78616443D01*
X64789853Y-78633616D01*
X64676627Y-78667963D01*
X64610442Y-78674482D01*
X64544260Y-78681000D01*
X64455740Y-78681000D01*
X64389558Y-78674482D01*
X64323373Y-78667963D01*
X64210147Y-78633616D01*
X64153533Y-78616443D01*
X63997011Y-78532779D01*
X63997009Y-78532778D01*
X63961271Y-78503448D01*
X63859814Y-78420186D01*
X63776552Y-78318729D01*
X63747222Y-78282991D01*
X63737652Y-78265087D01*
X63663557Y-78126467D01*
X63646384Y-78069853D01*
X63612037Y-77956627D01*
X63594641Y-77780000D01*
X63612037Y-77603373D01*
X63663557Y-77433534D01*
X63663557Y-77433533D01*
X63747221Y-77277011D01*
X63747222Y-77277009D01*
X63776552Y-77241271D01*
X63859814Y-77139814D01*
X63961271Y-77056552D01*
X63997009Y-77027222D01*
X64014913Y-77017652D01*
X64153533Y-76943557D01*
X64210147Y-76926384D01*
X64323373Y-76892037D01*
X64389558Y-76885518D01*
X64455740Y-76879000D01*
X64544260Y-76879000D01*
X64610442Y-76885518D01*
X64610442Y-76885518D01*
G37*
G36*
X67150442Y-76885518D02*
X67216627Y-76892037D01*
X67329853Y-76926384D01*
X67386467Y-76943557D01*
X67525087Y-77017652D01*
X67542991Y-77027222D01*
X67578729Y-77056552D01*
X67680186Y-77139814D01*
X67763448Y-77241271D01*
X67792778Y-77277009D01*
X67792779Y-77277011D01*
X67876443Y-77433533D01*
X67876443Y-77433534D01*
X67927963Y-77603373D01*
X67945359Y-77780000D01*
X67927963Y-77956627D01*
X67893616Y-78069853D01*
X67876443Y-78126467D01*
X67802348Y-78265087D01*
X67792778Y-78282991D01*
X67763448Y-78318729D01*
X67680186Y-78420186D01*
X67578729Y-78503448D01*
X67542991Y-78532778D01*
X67542989Y-78532779D01*
X67386467Y-78616443D01*
X67329853Y-78633616D01*
X67216627Y-78667963D01*
X67150442Y-78674482D01*
X67084260Y-78681000D01*
X66995740Y-78681000D01*
X66929558Y-78674482D01*
X66863373Y-78667963D01*
X66750147Y-78633616D01*
X66693533Y-78616443D01*
X66537011Y-78532779D01*
X66537009Y-78532778D01*
X66501271Y-78503448D01*
X66399814Y-78420186D01*
X66316552Y-78318729D01*
X66287222Y-78282991D01*
X66277652Y-78265087D01*
X66203557Y-78126467D01*
X66186384Y-78069853D01*
X66152037Y-77956627D01*
X66134641Y-77780000D01*
X66152037Y-77603373D01*
X66203557Y-77433534D01*
X66203557Y-77433533D01*
X66287221Y-77277011D01*
X66287222Y-77277009D01*
X66316552Y-77241271D01*
X66399814Y-77139814D01*
X66501271Y-77056552D01*
X66537009Y-77027222D01*
X66554913Y-77017652D01*
X66693533Y-76943557D01*
X66750147Y-76926384D01*
X66863373Y-76892037D01*
X66929558Y-76885518D01*
X66995740Y-76879000D01*
X67084260Y-76879000D01*
X67150442Y-76885518D01*
X67150442Y-76885518D01*
G37*
G36*
X51525256Y-73551298D02*
X51631579Y-73572447D01*
X51932042Y-73696903D01*
X52102960Y-73811107D01*
X52202454Y-73877587D01*
X52432413Y-74107546D01*
X52432415Y-74107549D01*
X52540571Y-74269415D01*
X52613098Y-74377960D01*
X52737553Y-74678422D01*
X52801000Y-74997389D01*
X52801000Y-75322611D01*
X52767825Y-75489392D01*
X52737553Y-75641579D01*
X52613097Y-75942042D01*
X52521656Y-76078893D01*
X52432413Y-76212454D01*
X52202454Y-76442413D01*
X52202451Y-76442415D01*
X51932042Y-76623097D01*
X51631579Y-76747553D01*
X51525256Y-76768702D01*
X51312611Y-76811000D01*
X50987389Y-76811000D01*
X50774744Y-76768702D01*
X50668421Y-76747553D01*
X50367958Y-76623097D01*
X50097549Y-76442415D01*
X50097546Y-76442413D01*
X49867587Y-76212454D01*
X49778344Y-76078893D01*
X49686903Y-75942042D01*
X49562447Y-75641579D01*
X49532175Y-75489392D01*
X49499000Y-75322611D01*
X49499000Y-74997389D01*
X49562447Y-74678422D01*
X49686902Y-74377960D01*
X49759430Y-74269415D01*
X49867585Y-74107549D01*
X49867587Y-74107546D01*
X50097546Y-73877587D01*
X50197040Y-73811107D01*
X50367958Y-73696903D01*
X50668421Y-73572447D01*
X50774744Y-73551298D01*
X50987389Y-73509000D01*
X51312611Y-73509000D01*
X51525256Y-73551298D01*
X51525256Y-73551298D01*
G37*
G36*
X100853643Y-75229781D02*
X100999415Y-75290162D01*
X101130611Y-75377824D01*
X101242176Y-75489389D01*
X101329838Y-75620585D01*
X101390219Y-75766357D01*
X101421000Y-75921107D01*
X101421000Y-76078893D01*
X101390219Y-76233643D01*
X101329838Y-76379415D01*
X101242176Y-76510611D01*
X101130611Y-76622176D01*
X100999415Y-76709838D01*
X100853643Y-76770219D01*
X100698893Y-76801000D01*
X100541107Y-76801000D01*
X100386357Y-76770219D01*
X100240585Y-76709838D01*
X100109389Y-76622176D01*
X99997824Y-76510611D01*
X99910162Y-76379415D01*
X99849781Y-76233643D01*
X99819000Y-76078893D01*
X99819000Y-75921107D01*
X99849781Y-75766357D01*
X99910162Y-75620585D01*
X99997824Y-75489389D01*
X100109389Y-75377824D01*
X100240585Y-75290162D01*
X100386357Y-75229781D01*
X100541107Y-75199000D01*
X100698893Y-75199000D01*
X100853643Y-75229781D01*
X100853643Y-75229781D01*
G37*
G36*
X98313643Y-75229781D02*
X98459415Y-75290162D01*
X98590611Y-75377824D01*
X98702176Y-75489389D01*
X98789838Y-75620585D01*
X98850219Y-75766357D01*
X98881000Y-75921107D01*
X98881000Y-76078893D01*
X98850219Y-76233643D01*
X98789838Y-76379415D01*
X98702176Y-76510611D01*
X98590611Y-76622176D01*
X98459415Y-76709838D01*
X98313643Y-76770219D01*
X98158893Y-76801000D01*
X98001107Y-76801000D01*
X97846357Y-76770219D01*
X97700585Y-76709838D01*
X97569389Y-76622176D01*
X97457824Y-76510611D01*
X97370162Y-76379415D01*
X97309781Y-76233643D01*
X97279000Y-76078893D01*
X97279000Y-75921107D01*
X97309781Y-75766357D01*
X97370162Y-75620585D01*
X97457824Y-75489389D01*
X97569389Y-75377824D01*
X97700585Y-75290162D01*
X97846357Y-75229781D01*
X98001107Y-75199000D01*
X98158893Y-75199000D01*
X98313643Y-75229781D01*
X98313643Y-75229781D01*
G37*
G36*
X95773643Y-75229781D02*
X95919415Y-75290162D01*
X96050611Y-75377824D01*
X96162176Y-75489389D01*
X96249838Y-75620585D01*
X96310219Y-75766357D01*
X96341000Y-75921107D01*
X96341000Y-76078893D01*
X96310219Y-76233643D01*
X96249838Y-76379415D01*
X96162176Y-76510611D01*
X96050611Y-76622176D01*
X95919415Y-76709838D01*
X95773643Y-76770219D01*
X95618893Y-76801000D01*
X95461107Y-76801000D01*
X95306357Y-76770219D01*
X95160585Y-76709838D01*
X95029389Y-76622176D01*
X94917824Y-76510611D01*
X94830162Y-76379415D01*
X94769781Y-76233643D01*
X94739000Y-76078893D01*
X94739000Y-75921107D01*
X94769781Y-75766357D01*
X94830162Y-75620585D01*
X94917824Y-75489389D01*
X95029389Y-75377824D01*
X95160585Y-75290162D01*
X95306357Y-75229781D01*
X95461107Y-75199000D01*
X95618893Y-75199000D01*
X95773643Y-75229781D01*
X95773643Y-75229781D01*
G37*
G36*
X93801000Y-76801000D02*
X92199000Y-76801000D01*
X92199000Y-75199000D01*
X93801000Y-75199000D01*
X93801000Y-76801000D01*
X93801000Y-76801000D01*
G37*
G36*
X77301000Y-76801000D02*
X75699000Y-76801000D01*
X75699000Y-75199000D01*
X77301000Y-75199000D01*
X77301000Y-76801000D01*
X77301000Y-76801000D01*
G37*
G36*
X79273643Y-75229781D02*
X79419415Y-75290162D01*
X79550611Y-75377824D01*
X79662176Y-75489389D01*
X79749838Y-75620585D01*
X79810219Y-75766357D01*
X79841000Y-75921107D01*
X79841000Y-76078893D01*
X79810219Y-76233643D01*
X79749838Y-76379415D01*
X79662176Y-76510611D01*
X79550611Y-76622176D01*
X79419415Y-76709838D01*
X79273643Y-76770219D01*
X79118893Y-76801000D01*
X78961107Y-76801000D01*
X78806357Y-76770219D01*
X78660585Y-76709838D01*
X78529389Y-76622176D01*
X78417824Y-76510611D01*
X78330162Y-76379415D01*
X78269781Y-76233643D01*
X78239000Y-76078893D01*
X78239000Y-75921107D01*
X78269781Y-75766357D01*
X78330162Y-75620585D01*
X78417824Y-75489389D01*
X78529389Y-75377824D01*
X78660585Y-75290162D01*
X78806357Y-75229781D01*
X78961107Y-75199000D01*
X79118893Y-75199000D01*
X79273643Y-75229781D01*
X79273643Y-75229781D01*
G37*
G36*
X81813643Y-75229781D02*
X81959415Y-75290162D01*
X82090611Y-75377824D01*
X82202176Y-75489389D01*
X82289838Y-75620585D01*
X82350219Y-75766357D01*
X82381000Y-75921107D01*
X82381000Y-76078893D01*
X82350219Y-76233643D01*
X82289838Y-76379415D01*
X82202176Y-76510611D01*
X82090611Y-76622176D01*
X81959415Y-76709838D01*
X81813643Y-76770219D01*
X81658893Y-76801000D01*
X81501107Y-76801000D01*
X81346357Y-76770219D01*
X81200585Y-76709838D01*
X81069389Y-76622176D01*
X80957824Y-76510611D01*
X80870162Y-76379415D01*
X80809781Y-76233643D01*
X80779000Y-76078893D01*
X80779000Y-75921107D01*
X80809781Y-75766357D01*
X80870162Y-75620585D01*
X80957824Y-75489389D01*
X81069389Y-75377824D01*
X81200585Y-75290162D01*
X81346357Y-75229781D01*
X81501107Y-75199000D01*
X81658893Y-75199000D01*
X81813643Y-75229781D01*
X81813643Y-75229781D01*
G37*
G36*
X84353643Y-75229781D02*
X84499415Y-75290162D01*
X84630611Y-75377824D01*
X84742176Y-75489389D01*
X84829838Y-75620585D01*
X84890219Y-75766357D01*
X84921000Y-75921107D01*
X84921000Y-76078893D01*
X84890219Y-76233643D01*
X84829838Y-76379415D01*
X84742176Y-76510611D01*
X84630611Y-76622176D01*
X84499415Y-76709838D01*
X84353643Y-76770219D01*
X84198893Y-76801000D01*
X84041107Y-76801000D01*
X83886357Y-76770219D01*
X83740585Y-76709838D01*
X83609389Y-76622176D01*
X83497824Y-76510611D01*
X83410162Y-76379415D01*
X83349781Y-76233643D01*
X83319000Y-76078893D01*
X83319000Y-75921107D01*
X83349781Y-75766357D01*
X83410162Y-75620585D01*
X83497824Y-75489389D01*
X83609389Y-75377824D01*
X83740585Y-75290162D01*
X83886357Y-75229781D01*
X84041107Y-75199000D01*
X84198893Y-75199000D01*
X84353643Y-75229781D01*
X84353643Y-75229781D01*
G37*
G36*
X64610443Y-74345519D02*
X64676627Y-74352037D01*
X64789853Y-74386384D01*
X64846467Y-74403557D01*
X64985087Y-74477652D01*
X65002991Y-74487222D01*
X65033397Y-74512176D01*
X65140186Y-74599814D01*
X65189758Y-74660219D01*
X65252778Y-74737009D01*
X65252779Y-74737011D01*
X65336443Y-74893533D01*
X65336443Y-74893534D01*
X65387963Y-75063373D01*
X65405359Y-75240000D01*
X65387963Y-75416627D01*
X65365891Y-75489389D01*
X65336443Y-75586467D01*
X65262348Y-75725087D01*
X65252778Y-75742991D01*
X65233602Y-75766357D01*
X65140186Y-75880186D01*
X65064813Y-75942042D01*
X65002991Y-75992778D01*
X65002989Y-75992779D01*
X64846467Y-76076443D01*
X64789853Y-76093616D01*
X64676627Y-76127963D01*
X64610443Y-76134481D01*
X64544260Y-76141000D01*
X64455740Y-76141000D01*
X64389557Y-76134481D01*
X64323373Y-76127963D01*
X64210147Y-76093616D01*
X64153533Y-76076443D01*
X63997011Y-75992779D01*
X63997009Y-75992778D01*
X63935187Y-75942042D01*
X63859814Y-75880186D01*
X63766398Y-75766357D01*
X63747222Y-75742991D01*
X63737652Y-75725087D01*
X63663557Y-75586467D01*
X63634109Y-75489389D01*
X63612037Y-75416627D01*
X63594641Y-75240000D01*
X63612037Y-75063373D01*
X63663557Y-74893534D01*
X63663557Y-74893533D01*
X63747221Y-74737011D01*
X63747222Y-74737009D01*
X63810242Y-74660219D01*
X63859814Y-74599814D01*
X63966603Y-74512176D01*
X63997009Y-74487222D01*
X64014913Y-74477652D01*
X64153533Y-74403557D01*
X64210147Y-74386384D01*
X64323373Y-74352037D01*
X64389557Y-74345519D01*
X64455740Y-74339000D01*
X64544260Y-74339000D01*
X64610443Y-74345519D01*
X64610443Y-74345519D01*
G37*
G36*
X67150443Y-74345519D02*
X67216627Y-74352037D01*
X67329853Y-74386384D01*
X67386467Y-74403557D01*
X67525087Y-74477652D01*
X67542991Y-74487222D01*
X67573397Y-74512176D01*
X67680186Y-74599814D01*
X67729758Y-74660219D01*
X67792778Y-74737009D01*
X67792779Y-74737011D01*
X67876443Y-74893533D01*
X67876443Y-74893534D01*
X67927963Y-75063373D01*
X67945359Y-75240000D01*
X67927963Y-75416627D01*
X67905891Y-75489389D01*
X67876443Y-75586467D01*
X67802348Y-75725087D01*
X67792778Y-75742991D01*
X67773602Y-75766357D01*
X67680186Y-75880186D01*
X67604813Y-75942042D01*
X67542991Y-75992778D01*
X67542989Y-75992779D01*
X67386467Y-76076443D01*
X67329853Y-76093616D01*
X67216627Y-76127963D01*
X67150443Y-76134481D01*
X67084260Y-76141000D01*
X66995740Y-76141000D01*
X66929557Y-76134481D01*
X66863373Y-76127963D01*
X66750147Y-76093616D01*
X66693533Y-76076443D01*
X66537011Y-75992779D01*
X66537009Y-75992778D01*
X66475187Y-75942042D01*
X66399814Y-75880186D01*
X66306398Y-75766357D01*
X66287222Y-75742991D01*
X66277652Y-75725087D01*
X66203557Y-75586467D01*
X66174109Y-75489389D01*
X66152037Y-75416627D01*
X66134641Y-75240000D01*
X66152037Y-75063373D01*
X66203557Y-74893534D01*
X66203557Y-74893533D01*
X66287221Y-74737011D01*
X66287222Y-74737009D01*
X66350242Y-74660219D01*
X66399814Y-74599814D01*
X66506603Y-74512176D01*
X66537009Y-74487222D01*
X66554913Y-74477652D01*
X66693533Y-74403557D01*
X66750147Y-74386384D01*
X66863373Y-74352037D01*
X66929557Y-74345519D01*
X66995740Y-74339000D01*
X67084260Y-74339000D01*
X67150443Y-74345519D01*
X67150443Y-74345519D01*
G37*
G36*
X60273643Y-73119781D02*
X60419415Y-73180162D01*
X60550611Y-73267824D01*
X60662176Y-73379389D01*
X60749838Y-73510585D01*
X60810219Y-73656357D01*
X60841000Y-73811107D01*
X60841000Y-73968893D01*
X60810219Y-74123643D01*
X60749838Y-74269415D01*
X60662176Y-74400611D01*
X60550611Y-74512176D01*
X60419415Y-74599838D01*
X60273643Y-74660219D01*
X60118893Y-74691000D01*
X59961107Y-74691000D01*
X59806357Y-74660219D01*
X59660585Y-74599838D01*
X59529389Y-74512176D01*
X59417824Y-74400611D01*
X59330162Y-74269415D01*
X59269781Y-74123643D01*
X59239000Y-73968893D01*
X59239000Y-73811107D01*
X59269781Y-73656357D01*
X59330162Y-73510585D01*
X59417824Y-73379389D01*
X59529389Y-73267824D01*
X59660585Y-73180162D01*
X59806357Y-73119781D01*
X59961107Y-73089000D01*
X60118893Y-73089000D01*
X60273643Y-73119781D01*
X60273643Y-73119781D01*
G37*
G36*
X85623643Y-72689781D02*
X85769415Y-72750162D01*
X85900611Y-72837824D01*
X86012176Y-72949389D01*
X86099838Y-73080585D01*
X86160219Y-73226357D01*
X86191000Y-73381107D01*
X86191000Y-73538893D01*
X86160219Y-73693643D01*
X86099838Y-73839415D01*
X86012176Y-73970611D01*
X85900611Y-74082176D01*
X85769415Y-74169838D01*
X85623643Y-74230219D01*
X85468893Y-74261000D01*
X85311107Y-74261000D01*
X85156357Y-74230219D01*
X85010585Y-74169838D01*
X84879389Y-74082176D01*
X84767824Y-73970611D01*
X84680162Y-73839415D01*
X84619781Y-73693643D01*
X84589000Y-73538893D01*
X84589000Y-73381107D01*
X84619781Y-73226357D01*
X84680162Y-73080585D01*
X84767824Y-72949389D01*
X84879389Y-72837824D01*
X85010585Y-72750162D01*
X85156357Y-72689781D01*
X85311107Y-72659000D01*
X85468893Y-72659000D01*
X85623643Y-72689781D01*
X85623643Y-72689781D01*
G37*
G36*
X97043643Y-72689781D02*
X97189415Y-72750162D01*
X97320611Y-72837824D01*
X97432176Y-72949389D01*
X97519838Y-73080585D01*
X97580219Y-73226357D01*
X97611000Y-73381107D01*
X97611000Y-73538893D01*
X97580219Y-73693643D01*
X97519838Y-73839415D01*
X97432176Y-73970611D01*
X97320611Y-74082176D01*
X97189415Y-74169838D01*
X97043643Y-74230219D01*
X96888893Y-74261000D01*
X96731107Y-74261000D01*
X96576357Y-74230219D01*
X96430585Y-74169838D01*
X96299389Y-74082176D01*
X96187824Y-73970611D01*
X96100162Y-73839415D01*
X96039781Y-73693643D01*
X96009000Y-73538893D01*
X96009000Y-73381107D01*
X96039781Y-73226357D01*
X96100162Y-73080585D01*
X96187824Y-72949389D01*
X96299389Y-72837824D01*
X96430585Y-72750162D01*
X96576357Y-72689781D01*
X96731107Y-72659000D01*
X96888893Y-72659000D01*
X97043643Y-72689781D01*
X97043643Y-72689781D01*
G37*
G36*
X83083643Y-72689781D02*
X83229415Y-72750162D01*
X83360611Y-72837824D01*
X83472176Y-72949389D01*
X83559838Y-73080585D01*
X83620219Y-73226357D01*
X83651000Y-73381107D01*
X83651000Y-73538893D01*
X83620219Y-73693643D01*
X83559838Y-73839415D01*
X83472176Y-73970611D01*
X83360611Y-74082176D01*
X83229415Y-74169838D01*
X83083643Y-74230219D01*
X82928893Y-74261000D01*
X82771107Y-74261000D01*
X82616357Y-74230219D01*
X82470585Y-74169838D01*
X82339389Y-74082176D01*
X82227824Y-73970611D01*
X82140162Y-73839415D01*
X82079781Y-73693643D01*
X82049000Y-73538893D01*
X82049000Y-73381107D01*
X82079781Y-73226357D01*
X82140162Y-73080585D01*
X82227824Y-72949389D01*
X82339389Y-72837824D01*
X82470585Y-72750162D01*
X82616357Y-72689781D01*
X82771107Y-72659000D01*
X82928893Y-72659000D01*
X83083643Y-72689781D01*
X83083643Y-72689781D01*
G37*
G36*
X80543643Y-72689781D02*
X80689415Y-72750162D01*
X80820611Y-72837824D01*
X80932176Y-72949389D01*
X81019838Y-73080585D01*
X81080219Y-73226357D01*
X81111000Y-73381107D01*
X81111000Y-73538893D01*
X81080219Y-73693643D01*
X81019838Y-73839415D01*
X80932176Y-73970611D01*
X80820611Y-74082176D01*
X80689415Y-74169838D01*
X80543643Y-74230219D01*
X80388893Y-74261000D01*
X80231107Y-74261000D01*
X80076357Y-74230219D01*
X79930585Y-74169838D01*
X79799389Y-74082176D01*
X79687824Y-73970611D01*
X79600162Y-73839415D01*
X79539781Y-73693643D01*
X79509000Y-73538893D01*
X79509000Y-73381107D01*
X79539781Y-73226357D01*
X79600162Y-73080585D01*
X79687824Y-72949389D01*
X79799389Y-72837824D01*
X79930585Y-72750162D01*
X80076357Y-72689781D01*
X80231107Y-72659000D01*
X80388893Y-72659000D01*
X80543643Y-72689781D01*
X80543643Y-72689781D01*
G37*
G36*
X78003643Y-72689781D02*
X78149415Y-72750162D01*
X78280611Y-72837824D01*
X78392176Y-72949389D01*
X78479838Y-73080585D01*
X78540219Y-73226357D01*
X78571000Y-73381107D01*
X78571000Y-73538893D01*
X78540219Y-73693643D01*
X78479838Y-73839415D01*
X78392176Y-73970611D01*
X78280611Y-74082176D01*
X78149415Y-74169838D01*
X78003643Y-74230219D01*
X77848893Y-74261000D01*
X77691107Y-74261000D01*
X77536357Y-74230219D01*
X77390585Y-74169838D01*
X77259389Y-74082176D01*
X77147824Y-73970611D01*
X77060162Y-73839415D01*
X76999781Y-73693643D01*
X76969000Y-73538893D01*
X76969000Y-73381107D01*
X76999781Y-73226357D01*
X77060162Y-73080585D01*
X77147824Y-72949389D01*
X77259389Y-72837824D01*
X77390585Y-72750162D01*
X77536357Y-72689781D01*
X77691107Y-72659000D01*
X77848893Y-72659000D01*
X78003643Y-72689781D01*
X78003643Y-72689781D01*
G37*
G36*
X94503643Y-72689781D02*
X94649415Y-72750162D01*
X94780611Y-72837824D01*
X94892176Y-72949389D01*
X94979838Y-73080585D01*
X95040219Y-73226357D01*
X95071000Y-73381107D01*
X95071000Y-73538893D01*
X95040219Y-73693643D01*
X94979838Y-73839415D01*
X94892176Y-73970611D01*
X94780611Y-74082176D01*
X94649415Y-74169838D01*
X94503643Y-74230219D01*
X94348893Y-74261000D01*
X94191107Y-74261000D01*
X94036357Y-74230219D01*
X93890585Y-74169838D01*
X93759389Y-74082176D01*
X93647824Y-73970611D01*
X93560162Y-73839415D01*
X93499781Y-73693643D01*
X93469000Y-73538893D01*
X93469000Y-73381107D01*
X93499781Y-73226357D01*
X93560162Y-73080585D01*
X93647824Y-72949389D01*
X93759389Y-72837824D01*
X93890585Y-72750162D01*
X94036357Y-72689781D01*
X94191107Y-72659000D01*
X94348893Y-72659000D01*
X94503643Y-72689781D01*
X94503643Y-72689781D01*
G37*
G36*
X99583643Y-72689781D02*
X99729415Y-72750162D01*
X99860611Y-72837824D01*
X99972176Y-72949389D01*
X100059838Y-73080585D01*
X100120219Y-73226357D01*
X100151000Y-73381107D01*
X100151000Y-73538893D01*
X100120219Y-73693643D01*
X100059838Y-73839415D01*
X99972176Y-73970611D01*
X99860611Y-74082176D01*
X99729415Y-74169838D01*
X99583643Y-74230219D01*
X99428893Y-74261000D01*
X99271107Y-74261000D01*
X99116357Y-74230219D01*
X98970585Y-74169838D01*
X98839389Y-74082176D01*
X98727824Y-73970611D01*
X98640162Y-73839415D01*
X98579781Y-73693643D01*
X98549000Y-73538893D01*
X98549000Y-73381107D01*
X98579781Y-73226357D01*
X98640162Y-73080585D01*
X98727824Y-72949389D01*
X98839389Y-72837824D01*
X98970585Y-72750162D01*
X99116357Y-72689781D01*
X99271107Y-72659000D01*
X99428893Y-72659000D01*
X99583643Y-72689781D01*
X99583643Y-72689781D01*
G37*
G36*
X102123643Y-72689781D02*
X102269415Y-72750162D01*
X102400611Y-72837824D01*
X102512176Y-72949389D01*
X102599838Y-73080585D01*
X102660219Y-73226357D01*
X102691000Y-73381107D01*
X102691000Y-73538893D01*
X102660219Y-73693643D01*
X102599838Y-73839415D01*
X102512176Y-73970611D01*
X102400611Y-74082176D01*
X102269415Y-74169838D01*
X102123643Y-74230219D01*
X101968893Y-74261000D01*
X101811107Y-74261000D01*
X101656357Y-74230219D01*
X101510585Y-74169838D01*
X101379389Y-74082176D01*
X101267824Y-73970611D01*
X101180162Y-73839415D01*
X101119781Y-73693643D01*
X101089000Y-73538893D01*
X101089000Y-73381107D01*
X101119781Y-73226357D01*
X101180162Y-73080585D01*
X101267824Y-72949389D01*
X101379389Y-72837824D01*
X101510585Y-72750162D01*
X101656357Y-72689781D01*
X101811107Y-72659000D01*
X101968893Y-72659000D01*
X102123643Y-72689781D01*
X102123643Y-72689781D01*
G37*
G36*
X64610442Y-71805518D02*
X64676627Y-71812037D01*
X64789853Y-71846384D01*
X64846467Y-71863557D01*
X64933659Y-71910163D01*
X65002991Y-71947222D01*
X65033397Y-71972176D01*
X65140186Y-72059814D01*
X65189758Y-72120219D01*
X65252778Y-72197009D01*
X65252779Y-72197011D01*
X65336443Y-72353533D01*
X65336443Y-72353534D01*
X65387963Y-72523373D01*
X65405359Y-72700000D01*
X65387963Y-72876627D01*
X65365891Y-72949389D01*
X65336443Y-73046467D01*
X65291468Y-73130608D01*
X65252778Y-73202991D01*
X65233602Y-73226357D01*
X65140186Y-73340186D01*
X65041712Y-73421000D01*
X65002991Y-73452778D01*
X65002989Y-73452779D01*
X64846467Y-73536443D01*
X64789853Y-73553616D01*
X64676627Y-73587963D01*
X64610443Y-73594481D01*
X64544260Y-73601000D01*
X64455740Y-73601000D01*
X64389557Y-73594481D01*
X64323373Y-73587963D01*
X64210147Y-73553616D01*
X64153533Y-73536443D01*
X63997011Y-73452779D01*
X63997009Y-73452778D01*
X63958288Y-73421000D01*
X63859814Y-73340186D01*
X63766398Y-73226357D01*
X63747222Y-73202991D01*
X63708532Y-73130608D01*
X63663557Y-73046467D01*
X63634109Y-72949389D01*
X63612037Y-72876627D01*
X63594641Y-72700000D01*
X63612037Y-72523373D01*
X63663557Y-72353534D01*
X63663557Y-72353533D01*
X63747221Y-72197011D01*
X63747222Y-72197009D01*
X63810242Y-72120219D01*
X63859814Y-72059814D01*
X63966603Y-71972176D01*
X63997009Y-71947222D01*
X64066341Y-71910163D01*
X64153533Y-71863557D01*
X64210147Y-71846384D01*
X64323373Y-71812037D01*
X64389558Y-71805518D01*
X64455740Y-71799000D01*
X64544260Y-71799000D01*
X64610442Y-71805518D01*
X64610442Y-71805518D01*
G37*
G36*
X67150442Y-71805518D02*
X67216627Y-71812037D01*
X67329853Y-71846384D01*
X67386467Y-71863557D01*
X67473659Y-71910163D01*
X67542991Y-71947222D01*
X67573397Y-71972176D01*
X67680186Y-72059814D01*
X67729758Y-72120219D01*
X67792778Y-72197009D01*
X67792779Y-72197011D01*
X67876443Y-72353533D01*
X67876443Y-72353534D01*
X67927963Y-72523373D01*
X67945359Y-72700000D01*
X67927963Y-72876627D01*
X67905891Y-72949389D01*
X67876443Y-73046467D01*
X67831468Y-73130608D01*
X67792778Y-73202991D01*
X67773602Y-73226357D01*
X67680186Y-73340186D01*
X67581712Y-73421000D01*
X67542991Y-73452778D01*
X67542989Y-73452779D01*
X67386467Y-73536443D01*
X67329853Y-73553616D01*
X67216627Y-73587963D01*
X67150443Y-73594481D01*
X67084260Y-73601000D01*
X66995740Y-73601000D01*
X66929557Y-73594481D01*
X66863373Y-73587963D01*
X66750147Y-73553616D01*
X66693533Y-73536443D01*
X66537011Y-73452779D01*
X66537009Y-73452778D01*
X66498288Y-73421000D01*
X66399814Y-73340186D01*
X66306398Y-73226357D01*
X66287222Y-73202991D01*
X66248532Y-73130608D01*
X66203557Y-73046467D01*
X66174109Y-72949389D01*
X66152037Y-72876627D01*
X66134641Y-72700000D01*
X66152037Y-72523373D01*
X66203557Y-72353534D01*
X66203557Y-72353533D01*
X66287221Y-72197011D01*
X66287222Y-72197009D01*
X66350242Y-72120219D01*
X66399814Y-72059814D01*
X66506603Y-71972176D01*
X66537009Y-71947222D01*
X66606341Y-71910163D01*
X66693533Y-71863557D01*
X66750147Y-71846384D01*
X66863373Y-71812037D01*
X66929558Y-71805518D01*
X66995740Y-71799000D01*
X67084260Y-71799000D01*
X67150442Y-71805518D01*
X67150442Y-71805518D01*
G37*
G36*
X57733643Y-71849781D02*
X57879415Y-71910162D01*
X58010611Y-71997824D01*
X58122176Y-72109389D01*
X58209838Y-72240585D01*
X58270219Y-72386357D01*
X58301000Y-72541107D01*
X58301000Y-72698893D01*
X58270219Y-72853643D01*
X58209838Y-72999415D01*
X58122176Y-73130611D01*
X58010611Y-73242176D01*
X57879415Y-73329838D01*
X57733643Y-73390219D01*
X57578893Y-73421000D01*
X57421107Y-73421000D01*
X57266357Y-73390219D01*
X57120585Y-73329838D01*
X56989389Y-73242176D01*
X56877824Y-73130611D01*
X56790162Y-72999415D01*
X56729781Y-72853643D01*
X56699000Y-72698893D01*
X56699000Y-72541107D01*
X56729781Y-72386357D01*
X56790162Y-72240585D01*
X56877824Y-72109389D01*
X56989389Y-71997824D01*
X57120585Y-71910162D01*
X57266357Y-71849781D01*
X57421107Y-71819000D01*
X57578893Y-71819000D01*
X57733643Y-71849781D01*
X57733643Y-71849781D01*
G37*
G36*
X60273643Y-70579781D02*
X60419415Y-70640162D01*
X60550611Y-70727824D01*
X60662176Y-70839389D01*
X60749838Y-70970585D01*
X60810219Y-71116357D01*
X60841000Y-71271107D01*
X60841000Y-71428893D01*
X60810219Y-71583643D01*
X60749838Y-71729415D01*
X60662176Y-71860611D01*
X60550611Y-71972176D01*
X60419415Y-72059838D01*
X60273643Y-72120219D01*
X60118893Y-72151000D01*
X59961107Y-72151000D01*
X59806357Y-72120219D01*
X59660585Y-72059838D01*
X59529389Y-71972176D01*
X59417824Y-71860611D01*
X59330162Y-71729415D01*
X59269781Y-71583643D01*
X59239000Y-71428893D01*
X59239000Y-71271107D01*
X59269781Y-71116357D01*
X59330162Y-70970585D01*
X59417824Y-70839389D01*
X59529389Y-70727824D01*
X59660585Y-70640162D01*
X59806357Y-70579781D01*
X59961107Y-70549000D01*
X60118893Y-70549000D01*
X60273643Y-70579781D01*
X60273643Y-70579781D01*
G37*
G36*
X67150443Y-69265519D02*
X67216627Y-69272037D01*
X67329853Y-69306384D01*
X67386467Y-69323557D01*
X67473659Y-69370163D01*
X67542991Y-69407222D01*
X67573397Y-69432176D01*
X67680186Y-69519814D01*
X67729758Y-69580219D01*
X67792778Y-69657009D01*
X67792779Y-69657011D01*
X67876443Y-69813533D01*
X67876443Y-69813534D01*
X67927963Y-69983373D01*
X67945359Y-70160000D01*
X67927963Y-70336627D01*
X67893616Y-70449853D01*
X67876443Y-70506467D01*
X67831468Y-70590608D01*
X67792778Y-70662991D01*
X67763448Y-70698729D01*
X67680186Y-70800186D01*
X67581712Y-70881000D01*
X67542991Y-70912778D01*
X67542989Y-70912779D01*
X67386467Y-70996443D01*
X67329853Y-71013616D01*
X67216627Y-71047963D01*
X67150442Y-71054482D01*
X67084260Y-71061000D01*
X66995740Y-71061000D01*
X66929558Y-71054482D01*
X66863373Y-71047963D01*
X66750147Y-71013616D01*
X66693533Y-70996443D01*
X66537011Y-70912779D01*
X66537009Y-70912778D01*
X66498288Y-70881000D01*
X66399814Y-70800186D01*
X66316552Y-70698729D01*
X66287222Y-70662991D01*
X66248532Y-70590608D01*
X66203557Y-70506467D01*
X66186384Y-70449853D01*
X66152037Y-70336627D01*
X66134641Y-70160000D01*
X66152037Y-69983373D01*
X66203557Y-69813534D01*
X66203557Y-69813533D01*
X66287221Y-69657011D01*
X66287222Y-69657009D01*
X66350242Y-69580219D01*
X66399814Y-69519814D01*
X66506603Y-69432176D01*
X66537009Y-69407222D01*
X66606341Y-69370163D01*
X66693533Y-69323557D01*
X66750147Y-69306384D01*
X66863373Y-69272037D01*
X66929557Y-69265519D01*
X66995740Y-69259000D01*
X67084260Y-69259000D01*
X67150443Y-69265519D01*
X67150443Y-69265519D01*
G37*
G36*
X64610443Y-69265519D02*
X64676627Y-69272037D01*
X64789853Y-69306384D01*
X64846467Y-69323557D01*
X64933659Y-69370163D01*
X65002991Y-69407222D01*
X65033397Y-69432176D01*
X65140186Y-69519814D01*
X65189758Y-69580219D01*
X65252778Y-69657009D01*
X65252779Y-69657011D01*
X65336443Y-69813533D01*
X65336443Y-69813534D01*
X65387963Y-69983373D01*
X65405359Y-70160000D01*
X65387963Y-70336627D01*
X65353616Y-70449853D01*
X65336443Y-70506467D01*
X65291468Y-70590608D01*
X65252778Y-70662991D01*
X65223448Y-70698729D01*
X65140186Y-70800186D01*
X65041712Y-70881000D01*
X65002991Y-70912778D01*
X65002989Y-70912779D01*
X64846467Y-70996443D01*
X64789853Y-71013616D01*
X64676627Y-71047963D01*
X64610442Y-71054482D01*
X64544260Y-71061000D01*
X64455740Y-71061000D01*
X64389558Y-71054482D01*
X64323373Y-71047963D01*
X64210147Y-71013616D01*
X64153533Y-70996443D01*
X63997011Y-70912779D01*
X63997009Y-70912778D01*
X63958288Y-70881000D01*
X63859814Y-70800186D01*
X63776552Y-70698729D01*
X63747222Y-70662991D01*
X63708532Y-70590608D01*
X63663557Y-70506467D01*
X63646384Y-70449853D01*
X63612037Y-70336627D01*
X63594641Y-70160000D01*
X63612037Y-69983373D01*
X63663557Y-69813534D01*
X63663557Y-69813533D01*
X63747221Y-69657011D01*
X63747222Y-69657009D01*
X63810242Y-69580219D01*
X63859814Y-69519814D01*
X63966603Y-69432176D01*
X63997009Y-69407222D01*
X64066341Y-69370163D01*
X64153533Y-69323557D01*
X64210147Y-69306384D01*
X64323373Y-69272037D01*
X64389557Y-69265519D01*
X64455740Y-69259000D01*
X64544260Y-69259000D01*
X64610443Y-69265519D01*
X64610443Y-69265519D01*
G37*
G36*
X57733643Y-69309781D02*
X57879415Y-69370162D01*
X58010611Y-69457824D01*
X58122176Y-69569389D01*
X58209838Y-69700585D01*
X58270219Y-69846357D01*
X58301000Y-70001107D01*
X58301000Y-70158893D01*
X58270219Y-70313643D01*
X58209838Y-70459415D01*
X58122176Y-70590611D01*
X58010611Y-70702176D01*
X57879415Y-70789838D01*
X57733643Y-70850219D01*
X57578893Y-70881000D01*
X57421107Y-70881000D01*
X57266357Y-70850219D01*
X57120585Y-70789838D01*
X56989389Y-70702176D01*
X56877824Y-70590611D01*
X56790162Y-70459415D01*
X56729781Y-70313643D01*
X56699000Y-70158893D01*
X56699000Y-70001107D01*
X56729781Y-69846357D01*
X56790162Y-69700585D01*
X56877824Y-69569389D01*
X56989389Y-69457824D01*
X57120585Y-69370162D01*
X57266357Y-69309781D01*
X57421107Y-69279000D01*
X57578893Y-69279000D01*
X57733643Y-69309781D01*
X57733643Y-69309781D01*
G37*
G36*
X93940442Y-68605518D02*
X94006627Y-68612037D01*
X94119853Y-68646384D01*
X94176467Y-68663557D01*
X94302842Y-68731107D01*
X94332991Y-68747222D01*
X94368729Y-68776552D01*
X94470186Y-68859814D01*
X94553448Y-68961271D01*
X94582778Y-68997009D01*
X94582779Y-68997011D01*
X94666443Y-69153533D01*
X94666443Y-69153534D01*
X94717963Y-69323373D01*
X94735359Y-69500000D01*
X94717963Y-69676627D01*
X94710695Y-69700585D01*
X94666443Y-69846467D01*
X94593264Y-69983373D01*
X94582778Y-70002991D01*
X94553448Y-70038729D01*
X94470186Y-70140186D01*
X94368729Y-70223448D01*
X94332991Y-70252778D01*
X94332989Y-70252779D01*
X94176467Y-70336443D01*
X94119853Y-70353616D01*
X94006627Y-70387963D01*
X93940442Y-70394482D01*
X93874260Y-70401000D01*
X93785740Y-70401000D01*
X93719558Y-70394482D01*
X93653373Y-70387963D01*
X93540147Y-70353616D01*
X93483533Y-70336443D01*
X93327011Y-70252779D01*
X93327009Y-70252778D01*
X93291271Y-70223448D01*
X93189814Y-70140186D01*
X93106552Y-70038729D01*
X93077222Y-70002991D01*
X93066736Y-69983373D01*
X92993557Y-69846467D01*
X92949305Y-69700585D01*
X92942037Y-69676627D01*
X92924641Y-69500000D01*
X92942037Y-69323373D01*
X92993557Y-69153534D01*
X92993557Y-69153533D01*
X93077221Y-68997011D01*
X93077222Y-68997009D01*
X93106552Y-68961271D01*
X93189814Y-68859814D01*
X93291271Y-68776552D01*
X93327009Y-68747222D01*
X93357158Y-68731107D01*
X93483533Y-68663557D01*
X93540147Y-68646384D01*
X93653373Y-68612037D01*
X93719558Y-68605518D01*
X93785740Y-68599000D01*
X93874260Y-68599000D01*
X93940442Y-68605518D01*
X93940442Y-68605518D01*
G37*
G36*
X91400442Y-68605518D02*
X91466627Y-68612037D01*
X91579853Y-68646384D01*
X91636467Y-68663557D01*
X91762842Y-68731107D01*
X91792991Y-68747222D01*
X91828729Y-68776552D01*
X91930186Y-68859814D01*
X92013448Y-68961271D01*
X92042778Y-68997009D01*
X92042779Y-68997011D01*
X92126443Y-69153533D01*
X92126443Y-69153534D01*
X92177963Y-69323373D01*
X92195359Y-69500000D01*
X92177963Y-69676627D01*
X92170695Y-69700585D01*
X92126443Y-69846467D01*
X92053264Y-69983373D01*
X92042778Y-70002991D01*
X92013448Y-70038729D01*
X91930186Y-70140186D01*
X91828729Y-70223448D01*
X91792991Y-70252778D01*
X91792989Y-70252779D01*
X91636467Y-70336443D01*
X91579853Y-70353616D01*
X91466627Y-70387963D01*
X91400442Y-70394482D01*
X91334260Y-70401000D01*
X91245740Y-70401000D01*
X91179558Y-70394482D01*
X91113373Y-70387963D01*
X91000147Y-70353616D01*
X90943533Y-70336443D01*
X90787011Y-70252779D01*
X90787009Y-70252778D01*
X90751271Y-70223448D01*
X90649814Y-70140186D01*
X90566552Y-70038729D01*
X90537222Y-70002991D01*
X90526736Y-69983373D01*
X90453557Y-69846467D01*
X90409305Y-69700585D01*
X90402037Y-69676627D01*
X90384641Y-69500000D01*
X90402037Y-69323373D01*
X90453557Y-69153534D01*
X90453557Y-69153533D01*
X90537221Y-68997011D01*
X90537222Y-68997009D01*
X90566552Y-68961271D01*
X90649814Y-68859814D01*
X90751271Y-68776552D01*
X90787009Y-68747222D01*
X90817158Y-68731107D01*
X90943533Y-68663557D01*
X91000147Y-68646384D01*
X91113373Y-68612037D01*
X91179558Y-68605518D01*
X91245740Y-68599000D01*
X91334260Y-68599000D01*
X91400442Y-68605518D01*
X91400442Y-68605518D01*
G37*
G36*
X89651000Y-70401000D02*
X87849000Y-70401000D01*
X87849000Y-68599000D01*
X89651000Y-68599000D01*
X89651000Y-70401000D01*
X89651000Y-70401000D01*
G37*
G36*
X84940442Y-68605518D02*
X85006627Y-68612037D01*
X85119853Y-68646384D01*
X85176467Y-68663557D01*
X85302842Y-68731107D01*
X85332991Y-68747222D01*
X85368729Y-68776552D01*
X85470186Y-68859814D01*
X85553448Y-68961271D01*
X85582778Y-68997009D01*
X85582779Y-68997011D01*
X85666443Y-69153533D01*
X85666443Y-69153534D01*
X85717963Y-69323373D01*
X85735359Y-69500000D01*
X85717963Y-69676627D01*
X85710695Y-69700585D01*
X85666443Y-69846467D01*
X85593264Y-69983373D01*
X85582778Y-70002991D01*
X85553448Y-70038729D01*
X85470186Y-70140186D01*
X85368729Y-70223448D01*
X85332991Y-70252778D01*
X85332989Y-70252779D01*
X85176467Y-70336443D01*
X85119853Y-70353616D01*
X85006627Y-70387963D01*
X84940442Y-70394482D01*
X84874260Y-70401000D01*
X84785740Y-70401000D01*
X84719558Y-70394482D01*
X84653373Y-70387963D01*
X84540147Y-70353616D01*
X84483533Y-70336443D01*
X84327011Y-70252779D01*
X84327009Y-70252778D01*
X84291271Y-70223448D01*
X84189814Y-70140186D01*
X84106552Y-70038729D01*
X84077222Y-70002991D01*
X84066736Y-69983373D01*
X83993557Y-69846467D01*
X83949305Y-69700585D01*
X83942037Y-69676627D01*
X83924641Y-69500000D01*
X83942037Y-69323373D01*
X83993557Y-69153534D01*
X83993557Y-69153533D01*
X84077221Y-68997011D01*
X84077222Y-68997009D01*
X84106552Y-68961271D01*
X84189814Y-68859814D01*
X84291271Y-68776552D01*
X84327009Y-68747222D01*
X84357158Y-68731107D01*
X84483533Y-68663557D01*
X84540147Y-68646384D01*
X84653373Y-68612037D01*
X84719558Y-68605518D01*
X84785740Y-68599000D01*
X84874260Y-68599000D01*
X84940442Y-68605518D01*
X84940442Y-68605518D01*
G37*
G36*
X82400442Y-68605518D02*
X82466627Y-68612037D01*
X82579853Y-68646384D01*
X82636467Y-68663557D01*
X82762842Y-68731107D01*
X82792991Y-68747222D01*
X82828729Y-68776552D01*
X82930186Y-68859814D01*
X83013448Y-68961271D01*
X83042778Y-68997009D01*
X83042779Y-68997011D01*
X83126443Y-69153533D01*
X83126443Y-69153534D01*
X83177963Y-69323373D01*
X83195359Y-69500000D01*
X83177963Y-69676627D01*
X83170695Y-69700585D01*
X83126443Y-69846467D01*
X83053264Y-69983373D01*
X83042778Y-70002991D01*
X83013448Y-70038729D01*
X82930186Y-70140186D01*
X82828729Y-70223448D01*
X82792991Y-70252778D01*
X82792989Y-70252779D01*
X82636467Y-70336443D01*
X82579853Y-70353616D01*
X82466627Y-70387963D01*
X82400442Y-70394482D01*
X82334260Y-70401000D01*
X82245740Y-70401000D01*
X82179558Y-70394482D01*
X82113373Y-70387963D01*
X82000147Y-70353616D01*
X81943533Y-70336443D01*
X81787011Y-70252779D01*
X81787009Y-70252778D01*
X81751271Y-70223448D01*
X81649814Y-70140186D01*
X81566552Y-70038729D01*
X81537222Y-70002991D01*
X81526736Y-69983373D01*
X81453557Y-69846467D01*
X81409305Y-69700585D01*
X81402037Y-69676627D01*
X81384641Y-69500000D01*
X81402037Y-69323373D01*
X81453557Y-69153534D01*
X81453557Y-69153533D01*
X81537221Y-68997011D01*
X81537222Y-68997009D01*
X81566552Y-68961271D01*
X81649814Y-68859814D01*
X81751271Y-68776552D01*
X81787009Y-68747222D01*
X81817158Y-68731107D01*
X81943533Y-68663557D01*
X82000147Y-68646384D01*
X82113373Y-68612037D01*
X82179558Y-68605518D01*
X82245740Y-68599000D01*
X82334260Y-68599000D01*
X82400442Y-68605518D01*
X82400442Y-68605518D01*
G37*
G36*
X80651000Y-70401000D02*
X78849000Y-70401000D01*
X78849000Y-68599000D01*
X80651000Y-68599000D01*
X80651000Y-70401000D01*
X80651000Y-70401000D01*
G37*
G36*
X60273643Y-68039781D02*
X60419415Y-68100162D01*
X60550611Y-68187824D01*
X60662176Y-68299389D01*
X60749838Y-68430585D01*
X60810219Y-68576357D01*
X60841000Y-68731107D01*
X60841000Y-68888893D01*
X60810219Y-69043643D01*
X60749838Y-69189415D01*
X60662176Y-69320611D01*
X60550611Y-69432176D01*
X60419415Y-69519838D01*
X60273643Y-69580219D01*
X60118893Y-69611000D01*
X59961107Y-69611000D01*
X59806357Y-69580219D01*
X59660585Y-69519838D01*
X59529389Y-69432176D01*
X59417824Y-69320611D01*
X59330162Y-69189415D01*
X59269781Y-69043643D01*
X59239000Y-68888893D01*
X59239000Y-68731107D01*
X59269781Y-68576357D01*
X59330162Y-68430585D01*
X59417824Y-68299389D01*
X59529389Y-68187824D01*
X59660585Y-68100162D01*
X59806357Y-68039781D01*
X59961107Y-68009000D01*
X60118893Y-68009000D01*
X60273643Y-68039781D01*
X60273643Y-68039781D01*
G37*
G36*
X64610443Y-66725519D02*
X64676627Y-66732037D01*
X64789853Y-66766384D01*
X64846467Y-66783557D01*
X64933659Y-66830163D01*
X65002991Y-66867222D01*
X65033397Y-66892176D01*
X65140186Y-66979814D01*
X65189758Y-67040219D01*
X65252778Y-67117009D01*
X65252779Y-67117011D01*
X65336443Y-67273533D01*
X65336443Y-67273534D01*
X65387963Y-67443373D01*
X65405359Y-67620000D01*
X65387963Y-67796627D01*
X65353616Y-67909853D01*
X65336443Y-67966467D01*
X65291468Y-68050608D01*
X65252778Y-68122991D01*
X65223448Y-68158729D01*
X65140186Y-68260186D01*
X65041712Y-68341000D01*
X65002991Y-68372778D01*
X65002989Y-68372779D01*
X64846467Y-68456443D01*
X64789853Y-68473616D01*
X64676627Y-68507963D01*
X64610442Y-68514482D01*
X64544260Y-68521000D01*
X64455740Y-68521000D01*
X64389558Y-68514482D01*
X64323373Y-68507963D01*
X64210147Y-68473616D01*
X64153533Y-68456443D01*
X63997011Y-68372779D01*
X63997009Y-68372778D01*
X63958288Y-68341000D01*
X63859814Y-68260186D01*
X63776552Y-68158729D01*
X63747222Y-68122991D01*
X63708532Y-68050608D01*
X63663557Y-67966467D01*
X63646384Y-67909853D01*
X63612037Y-67796627D01*
X63594641Y-67620000D01*
X63612037Y-67443373D01*
X63663557Y-67273534D01*
X63663557Y-67273533D01*
X63747221Y-67117011D01*
X63747222Y-67117009D01*
X63810242Y-67040219D01*
X63859814Y-66979814D01*
X63966603Y-66892176D01*
X63997009Y-66867222D01*
X64066341Y-66830163D01*
X64153533Y-66783557D01*
X64210147Y-66766384D01*
X64323373Y-66732037D01*
X64389557Y-66725519D01*
X64455740Y-66719000D01*
X64544260Y-66719000D01*
X64610443Y-66725519D01*
X64610443Y-66725519D01*
G37*
G36*
X67150443Y-66725519D02*
X67216627Y-66732037D01*
X67329853Y-66766384D01*
X67386467Y-66783557D01*
X67473659Y-66830163D01*
X67542991Y-66867222D01*
X67573397Y-66892176D01*
X67680186Y-66979814D01*
X67729758Y-67040219D01*
X67792778Y-67117009D01*
X67792779Y-67117011D01*
X67876443Y-67273533D01*
X67876443Y-67273534D01*
X67927963Y-67443373D01*
X67945359Y-67620000D01*
X67927963Y-67796627D01*
X67893616Y-67909853D01*
X67876443Y-67966467D01*
X67831468Y-68050608D01*
X67792778Y-68122991D01*
X67763448Y-68158729D01*
X67680186Y-68260186D01*
X67581712Y-68341000D01*
X67542991Y-68372778D01*
X67542989Y-68372779D01*
X67386467Y-68456443D01*
X67329853Y-68473616D01*
X67216627Y-68507963D01*
X67150442Y-68514482D01*
X67084260Y-68521000D01*
X66995740Y-68521000D01*
X66929558Y-68514482D01*
X66863373Y-68507963D01*
X66750147Y-68473616D01*
X66693533Y-68456443D01*
X66537011Y-68372779D01*
X66537009Y-68372778D01*
X66498288Y-68341000D01*
X66399814Y-68260186D01*
X66316552Y-68158729D01*
X66287222Y-68122991D01*
X66248532Y-68050608D01*
X66203557Y-67966467D01*
X66186384Y-67909853D01*
X66152037Y-67796627D01*
X66134641Y-67620000D01*
X66152037Y-67443373D01*
X66203557Y-67273534D01*
X66203557Y-67273533D01*
X66287221Y-67117011D01*
X66287222Y-67117009D01*
X66350242Y-67040219D01*
X66399814Y-66979814D01*
X66506603Y-66892176D01*
X66537009Y-66867222D01*
X66606341Y-66830163D01*
X66693533Y-66783557D01*
X66750147Y-66766384D01*
X66863373Y-66732037D01*
X66929557Y-66725519D01*
X66995740Y-66719000D01*
X67084260Y-66719000D01*
X67150443Y-66725519D01*
X67150443Y-66725519D01*
G37*
G36*
X57733643Y-66769781D02*
X57879415Y-66830162D01*
X58010611Y-66917824D01*
X58122176Y-67029389D01*
X58209838Y-67160585D01*
X58270219Y-67306357D01*
X58301000Y-67461107D01*
X58301000Y-67618893D01*
X58270219Y-67773643D01*
X58209838Y-67919415D01*
X58122176Y-68050611D01*
X58010611Y-68162176D01*
X57879415Y-68249838D01*
X57733643Y-68310219D01*
X57578893Y-68341000D01*
X57421107Y-68341000D01*
X57266357Y-68310219D01*
X57120585Y-68249838D01*
X56989389Y-68162176D01*
X56877824Y-68050611D01*
X56790162Y-67919415D01*
X56729781Y-67773643D01*
X56699000Y-67618893D01*
X56699000Y-67461107D01*
X56729781Y-67306357D01*
X56790162Y-67160585D01*
X56877824Y-67029389D01*
X56989389Y-66917824D01*
X57120585Y-66830162D01*
X57266357Y-66769781D01*
X57421107Y-66739000D01*
X57578893Y-66739000D01*
X57733643Y-66769781D01*
X57733643Y-66769781D01*
G37*
G36*
X79860443Y-66065519D02*
X79926627Y-66072037D01*
X80039853Y-66106384D01*
X80096467Y-66123557D01*
X80222842Y-66191107D01*
X80252991Y-66207222D01*
X80288729Y-66236552D01*
X80390186Y-66319814D01*
X80473448Y-66421271D01*
X80502778Y-66457009D01*
X80502779Y-66457011D01*
X80586443Y-66613533D01*
X80586443Y-66613534D01*
X80637963Y-66783373D01*
X80655359Y-66960000D01*
X80637963Y-67136627D01*
X80630695Y-67160585D01*
X80586443Y-67306467D01*
X80513264Y-67443373D01*
X80502778Y-67462991D01*
X80473448Y-67498729D01*
X80390186Y-67600186D01*
X80288729Y-67683448D01*
X80252991Y-67712778D01*
X80252989Y-67712779D01*
X80096467Y-67796443D01*
X80039853Y-67813616D01*
X79926627Y-67847963D01*
X79860442Y-67854482D01*
X79794260Y-67861000D01*
X79705740Y-67861000D01*
X79639558Y-67854482D01*
X79573373Y-67847963D01*
X79460147Y-67813616D01*
X79403533Y-67796443D01*
X79247011Y-67712779D01*
X79247009Y-67712778D01*
X79211271Y-67683448D01*
X79109814Y-67600186D01*
X79026552Y-67498729D01*
X78997222Y-67462991D01*
X78986736Y-67443373D01*
X78913557Y-67306467D01*
X78869305Y-67160585D01*
X78862037Y-67136627D01*
X78844641Y-66960000D01*
X78862037Y-66783373D01*
X78913557Y-66613534D01*
X78913557Y-66613533D01*
X78997221Y-66457011D01*
X78997222Y-66457009D01*
X79026552Y-66421271D01*
X79109814Y-66319814D01*
X79211271Y-66236552D01*
X79247009Y-66207222D01*
X79277158Y-66191107D01*
X79403533Y-66123557D01*
X79460147Y-66106384D01*
X79573373Y-66072037D01*
X79639557Y-66065519D01*
X79705740Y-66059000D01*
X79794260Y-66059000D01*
X79860443Y-66065519D01*
X79860443Y-66065519D01*
G37*
G36*
X91400443Y-66065519D02*
X91466627Y-66072037D01*
X91579853Y-66106384D01*
X91636467Y-66123557D01*
X91762842Y-66191107D01*
X91792991Y-66207222D01*
X91828729Y-66236552D01*
X91930186Y-66319814D01*
X92013448Y-66421271D01*
X92042778Y-66457009D01*
X92042779Y-66457011D01*
X92126443Y-66613533D01*
X92126443Y-66613534D01*
X92177963Y-66783373D01*
X92195359Y-66960000D01*
X92177963Y-67136627D01*
X92170695Y-67160585D01*
X92126443Y-67306467D01*
X92053264Y-67443373D01*
X92042778Y-67462991D01*
X92013448Y-67498729D01*
X91930186Y-67600186D01*
X91828729Y-67683448D01*
X91792991Y-67712778D01*
X91792989Y-67712779D01*
X91636467Y-67796443D01*
X91579853Y-67813616D01*
X91466627Y-67847963D01*
X91400442Y-67854482D01*
X91334260Y-67861000D01*
X91245740Y-67861000D01*
X91179558Y-67854482D01*
X91113373Y-67847963D01*
X91000147Y-67813616D01*
X90943533Y-67796443D01*
X90787011Y-67712779D01*
X90787009Y-67712778D01*
X90751271Y-67683448D01*
X90649814Y-67600186D01*
X90566552Y-67498729D01*
X90537222Y-67462991D01*
X90526736Y-67443373D01*
X90453557Y-67306467D01*
X90409305Y-67160585D01*
X90402037Y-67136627D01*
X90384641Y-66960000D01*
X90402037Y-66783373D01*
X90453557Y-66613534D01*
X90453557Y-66613533D01*
X90537221Y-66457011D01*
X90537222Y-66457009D01*
X90566552Y-66421271D01*
X90649814Y-66319814D01*
X90751271Y-66236552D01*
X90787009Y-66207222D01*
X90817158Y-66191107D01*
X90943533Y-66123557D01*
X91000147Y-66106384D01*
X91113373Y-66072037D01*
X91179557Y-66065519D01*
X91245740Y-66059000D01*
X91334260Y-66059000D01*
X91400443Y-66065519D01*
X91400443Y-66065519D01*
G37*
G36*
X88860443Y-66065519D02*
X88926627Y-66072037D01*
X89039853Y-66106384D01*
X89096467Y-66123557D01*
X89222842Y-66191107D01*
X89252991Y-66207222D01*
X89288729Y-66236552D01*
X89390186Y-66319814D01*
X89473448Y-66421271D01*
X89502778Y-66457009D01*
X89502779Y-66457011D01*
X89586443Y-66613533D01*
X89586443Y-66613534D01*
X89637963Y-66783373D01*
X89655359Y-66960000D01*
X89637963Y-67136627D01*
X89630695Y-67160585D01*
X89586443Y-67306467D01*
X89513264Y-67443373D01*
X89502778Y-67462991D01*
X89473448Y-67498729D01*
X89390186Y-67600186D01*
X89288729Y-67683448D01*
X89252991Y-67712778D01*
X89252989Y-67712779D01*
X89096467Y-67796443D01*
X89039853Y-67813616D01*
X88926627Y-67847963D01*
X88860442Y-67854482D01*
X88794260Y-67861000D01*
X88705740Y-67861000D01*
X88639558Y-67854482D01*
X88573373Y-67847963D01*
X88460147Y-67813616D01*
X88403533Y-67796443D01*
X88247011Y-67712779D01*
X88247009Y-67712778D01*
X88211271Y-67683448D01*
X88109814Y-67600186D01*
X88026552Y-67498729D01*
X87997222Y-67462991D01*
X87986736Y-67443373D01*
X87913557Y-67306467D01*
X87869305Y-67160585D01*
X87862037Y-67136627D01*
X87844641Y-66960000D01*
X87862037Y-66783373D01*
X87913557Y-66613534D01*
X87913557Y-66613533D01*
X87997221Y-66457011D01*
X87997222Y-66457009D01*
X88026552Y-66421271D01*
X88109814Y-66319814D01*
X88211271Y-66236552D01*
X88247009Y-66207222D01*
X88277158Y-66191107D01*
X88403533Y-66123557D01*
X88460147Y-66106384D01*
X88573373Y-66072037D01*
X88639557Y-66065519D01*
X88705740Y-66059000D01*
X88794260Y-66059000D01*
X88860443Y-66065519D01*
X88860443Y-66065519D01*
G37*
G36*
X82400443Y-66065519D02*
X82466627Y-66072037D01*
X82579853Y-66106384D01*
X82636467Y-66123557D01*
X82762842Y-66191107D01*
X82792991Y-66207222D01*
X82828729Y-66236552D01*
X82930186Y-66319814D01*
X83013448Y-66421271D01*
X83042778Y-66457009D01*
X83042779Y-66457011D01*
X83126443Y-66613533D01*
X83126443Y-66613534D01*
X83177963Y-66783373D01*
X83195359Y-66960000D01*
X83177963Y-67136627D01*
X83170695Y-67160585D01*
X83126443Y-67306467D01*
X83053264Y-67443373D01*
X83042778Y-67462991D01*
X83013448Y-67498729D01*
X82930186Y-67600186D01*
X82828729Y-67683448D01*
X82792991Y-67712778D01*
X82792989Y-67712779D01*
X82636467Y-67796443D01*
X82579853Y-67813616D01*
X82466627Y-67847963D01*
X82400442Y-67854482D01*
X82334260Y-67861000D01*
X82245740Y-67861000D01*
X82179558Y-67854482D01*
X82113373Y-67847963D01*
X82000147Y-67813616D01*
X81943533Y-67796443D01*
X81787011Y-67712779D01*
X81787009Y-67712778D01*
X81751271Y-67683448D01*
X81649814Y-67600186D01*
X81566552Y-67498729D01*
X81537222Y-67462991D01*
X81526736Y-67443373D01*
X81453557Y-67306467D01*
X81409305Y-67160585D01*
X81402037Y-67136627D01*
X81384641Y-66960000D01*
X81402037Y-66783373D01*
X81453557Y-66613534D01*
X81453557Y-66613533D01*
X81537221Y-66457011D01*
X81537222Y-66457009D01*
X81566552Y-66421271D01*
X81649814Y-66319814D01*
X81751271Y-66236552D01*
X81787009Y-66207222D01*
X81817158Y-66191107D01*
X81943533Y-66123557D01*
X82000147Y-66106384D01*
X82113373Y-66072037D01*
X82179557Y-66065519D01*
X82245740Y-66059000D01*
X82334260Y-66059000D01*
X82400443Y-66065519D01*
X82400443Y-66065519D01*
G37*
G36*
X84940443Y-66065519D02*
X85006627Y-66072037D01*
X85119853Y-66106384D01*
X85176467Y-66123557D01*
X85302842Y-66191107D01*
X85332991Y-66207222D01*
X85368729Y-66236552D01*
X85470186Y-66319814D01*
X85553448Y-66421271D01*
X85582778Y-66457009D01*
X85582779Y-66457011D01*
X85666443Y-66613533D01*
X85666443Y-66613534D01*
X85717963Y-66783373D01*
X85735359Y-66960000D01*
X85717963Y-67136627D01*
X85710695Y-67160585D01*
X85666443Y-67306467D01*
X85593264Y-67443373D01*
X85582778Y-67462991D01*
X85553448Y-67498729D01*
X85470186Y-67600186D01*
X85368729Y-67683448D01*
X85332991Y-67712778D01*
X85332989Y-67712779D01*
X85176467Y-67796443D01*
X85119853Y-67813616D01*
X85006627Y-67847963D01*
X84940442Y-67854482D01*
X84874260Y-67861000D01*
X84785740Y-67861000D01*
X84719558Y-67854482D01*
X84653373Y-67847963D01*
X84540147Y-67813616D01*
X84483533Y-67796443D01*
X84327011Y-67712779D01*
X84327009Y-67712778D01*
X84291271Y-67683448D01*
X84189814Y-67600186D01*
X84106552Y-67498729D01*
X84077222Y-67462991D01*
X84066736Y-67443373D01*
X83993557Y-67306467D01*
X83949305Y-67160585D01*
X83942037Y-67136627D01*
X83924641Y-66960000D01*
X83942037Y-66783373D01*
X83993557Y-66613534D01*
X83993557Y-66613533D01*
X84077221Y-66457011D01*
X84077222Y-66457009D01*
X84106552Y-66421271D01*
X84189814Y-66319814D01*
X84291271Y-66236552D01*
X84327009Y-66207222D01*
X84357158Y-66191107D01*
X84483533Y-66123557D01*
X84540147Y-66106384D01*
X84653373Y-66072037D01*
X84719557Y-66065519D01*
X84785740Y-66059000D01*
X84874260Y-66059000D01*
X84940443Y-66065519D01*
X84940443Y-66065519D01*
G37*
G36*
X93940443Y-66065519D02*
X94006627Y-66072037D01*
X94119853Y-66106384D01*
X94176467Y-66123557D01*
X94302842Y-66191107D01*
X94332991Y-66207222D01*
X94368729Y-66236552D01*
X94470186Y-66319814D01*
X94553448Y-66421271D01*
X94582778Y-66457009D01*
X94582779Y-66457011D01*
X94666443Y-66613533D01*
X94666443Y-66613534D01*
X94717963Y-66783373D01*
X94735359Y-66960000D01*
X94717963Y-67136627D01*
X94710695Y-67160585D01*
X94666443Y-67306467D01*
X94593264Y-67443373D01*
X94582778Y-67462991D01*
X94553448Y-67498729D01*
X94470186Y-67600186D01*
X94368729Y-67683448D01*
X94332991Y-67712778D01*
X94332989Y-67712779D01*
X94176467Y-67796443D01*
X94119853Y-67813616D01*
X94006627Y-67847963D01*
X93940442Y-67854482D01*
X93874260Y-67861000D01*
X93785740Y-67861000D01*
X93719558Y-67854482D01*
X93653373Y-67847963D01*
X93540147Y-67813616D01*
X93483533Y-67796443D01*
X93327011Y-67712779D01*
X93327009Y-67712778D01*
X93291271Y-67683448D01*
X93189814Y-67600186D01*
X93106552Y-67498729D01*
X93077222Y-67462991D01*
X93066736Y-67443373D01*
X92993557Y-67306467D01*
X92949305Y-67160585D01*
X92942037Y-67136627D01*
X92924641Y-66960000D01*
X92942037Y-66783373D01*
X92993557Y-66613534D01*
X92993557Y-66613533D01*
X93077221Y-66457011D01*
X93077222Y-66457009D01*
X93106552Y-66421271D01*
X93189814Y-66319814D01*
X93291271Y-66236552D01*
X93327009Y-66207222D01*
X93357158Y-66191107D01*
X93483533Y-66123557D01*
X93540147Y-66106384D01*
X93653373Y-66072037D01*
X93719557Y-66065519D01*
X93785740Y-66059000D01*
X93874260Y-66059000D01*
X93940443Y-66065519D01*
X93940443Y-66065519D01*
G37*
G36*
X60273643Y-65499781D02*
X60419415Y-65560162D01*
X60550611Y-65647824D01*
X60662176Y-65759389D01*
X60749838Y-65890585D01*
X60810219Y-66036357D01*
X60841000Y-66191107D01*
X60841000Y-66348893D01*
X60810219Y-66503643D01*
X60749838Y-66649415D01*
X60662176Y-66780611D01*
X60550611Y-66892176D01*
X60419415Y-66979838D01*
X60273643Y-67040219D01*
X60118893Y-67071000D01*
X59961107Y-67071000D01*
X59806357Y-67040219D01*
X59660585Y-66979838D01*
X59529389Y-66892176D01*
X59417824Y-66780611D01*
X59330162Y-66649415D01*
X59269781Y-66503643D01*
X59239000Y-66348893D01*
X59239000Y-66191107D01*
X59269781Y-66036357D01*
X59330162Y-65890585D01*
X59417824Y-65759389D01*
X59529389Y-65647824D01*
X59660585Y-65560162D01*
X59806357Y-65499781D01*
X59961107Y-65469000D01*
X60118893Y-65469000D01*
X60273643Y-65499781D01*
X60273643Y-65499781D01*
G37*
G36*
X67150442Y-64185518D02*
X67216627Y-64192037D01*
X67281048Y-64211579D01*
X67386467Y-64243557D01*
X67525087Y-64317652D01*
X67542991Y-64327222D01*
X67578729Y-64356552D01*
X67680186Y-64439814D01*
X67739459Y-64512040D01*
X67792778Y-64577009D01*
X67792779Y-64577011D01*
X67876443Y-64733533D01*
X67876443Y-64733534D01*
X67927963Y-64903373D01*
X67945359Y-65080000D01*
X67927963Y-65256627D01*
X67909481Y-65317553D01*
X67876443Y-65426467D01*
X67804980Y-65560162D01*
X67792778Y-65582991D01*
X67763448Y-65618729D01*
X67680186Y-65720186D01*
X67581712Y-65801000D01*
X67542991Y-65832778D01*
X67542989Y-65832779D01*
X67386467Y-65916443D01*
X67329853Y-65933616D01*
X67216627Y-65967963D01*
X67150443Y-65974481D01*
X67084260Y-65981000D01*
X66995740Y-65981000D01*
X66929557Y-65974481D01*
X66863373Y-65967963D01*
X66750147Y-65933616D01*
X66693533Y-65916443D01*
X66537011Y-65832779D01*
X66537009Y-65832778D01*
X66498288Y-65801000D01*
X66399814Y-65720186D01*
X66316552Y-65618729D01*
X66287222Y-65582991D01*
X66275020Y-65560162D01*
X66203557Y-65426467D01*
X66170519Y-65317553D01*
X66152037Y-65256627D01*
X66134641Y-65080000D01*
X66152037Y-64903373D01*
X66203557Y-64733534D01*
X66203557Y-64733533D01*
X66287221Y-64577011D01*
X66287222Y-64577009D01*
X66340541Y-64512040D01*
X66399814Y-64439814D01*
X66501271Y-64356552D01*
X66537009Y-64327222D01*
X66554913Y-64317652D01*
X66693533Y-64243557D01*
X66798952Y-64211579D01*
X66863373Y-64192037D01*
X66929558Y-64185518D01*
X66995740Y-64179000D01*
X67084260Y-64179000D01*
X67150442Y-64185518D01*
X67150442Y-64185518D01*
G37*
G36*
X64610442Y-64185518D02*
X64676627Y-64192037D01*
X64741048Y-64211579D01*
X64846467Y-64243557D01*
X64985087Y-64317652D01*
X65002991Y-64327222D01*
X65038729Y-64356552D01*
X65140186Y-64439814D01*
X65199459Y-64512040D01*
X65252778Y-64577009D01*
X65252779Y-64577011D01*
X65336443Y-64733533D01*
X65336443Y-64733534D01*
X65387963Y-64903373D01*
X65405359Y-65080000D01*
X65387963Y-65256627D01*
X65369481Y-65317553D01*
X65336443Y-65426467D01*
X65264980Y-65560162D01*
X65252778Y-65582991D01*
X65223448Y-65618729D01*
X65140186Y-65720186D01*
X65041712Y-65801000D01*
X65002991Y-65832778D01*
X65002989Y-65832779D01*
X64846467Y-65916443D01*
X64789853Y-65933616D01*
X64676627Y-65967963D01*
X64610443Y-65974481D01*
X64544260Y-65981000D01*
X64455740Y-65981000D01*
X64389557Y-65974481D01*
X64323373Y-65967963D01*
X64210147Y-65933616D01*
X64153533Y-65916443D01*
X63997011Y-65832779D01*
X63997009Y-65832778D01*
X63958288Y-65801000D01*
X63859814Y-65720186D01*
X63776552Y-65618729D01*
X63747222Y-65582991D01*
X63735020Y-65560162D01*
X63663557Y-65426467D01*
X63630519Y-65317553D01*
X63612037Y-65256627D01*
X63594641Y-65080000D01*
X63612037Y-64903373D01*
X63663557Y-64733534D01*
X63663557Y-64733533D01*
X63747221Y-64577011D01*
X63747222Y-64577009D01*
X63800541Y-64512040D01*
X63859814Y-64439814D01*
X63961271Y-64356552D01*
X63997009Y-64327222D01*
X64014913Y-64317652D01*
X64153533Y-64243557D01*
X64258952Y-64211579D01*
X64323373Y-64192037D01*
X64389558Y-64185518D01*
X64455740Y-64179000D01*
X64544260Y-64179000D01*
X64610442Y-64185518D01*
X64610442Y-64185518D01*
G37*
G36*
X58301000Y-65801000D02*
X56699000Y-65801000D01*
X56699000Y-64199000D01*
X58301000Y-64199000D01*
X58301000Y-65801000D01*
X58301000Y-65801000D01*
G37*
G36*
X51525256Y-62121298D02*
X51631579Y-62142447D01*
X51932042Y-62266903D01*
X52076419Y-62363373D01*
X52202454Y-62447587D01*
X52432413Y-62677546D01*
X52432415Y-62677549D01*
X52613097Y-62947958D01*
X52709289Y-63180185D01*
X52737553Y-63248422D01*
X52801000Y-63567389D01*
X52801000Y-63892611D01*
X52737553Y-64211578D01*
X52613098Y-64512040D01*
X52432413Y-64782454D01*
X52202454Y-65012413D01*
X52202451Y-65012415D01*
X51932042Y-65193097D01*
X51631579Y-65317553D01*
X51525256Y-65338702D01*
X51312611Y-65381000D01*
X50987389Y-65381000D01*
X50774744Y-65338702D01*
X50668421Y-65317553D01*
X50367958Y-65193097D01*
X50097549Y-65012415D01*
X50097546Y-65012413D01*
X49867587Y-64782454D01*
X49686902Y-64512040D01*
X49562447Y-64211578D01*
X49499000Y-63892611D01*
X49499000Y-63567389D01*
X49562447Y-63248422D01*
X49590712Y-63180185D01*
X49686903Y-62947958D01*
X49867585Y-62677549D01*
X49867587Y-62677546D01*
X50097546Y-62447587D01*
X50223581Y-62363373D01*
X50367958Y-62266903D01*
X50668421Y-62142447D01*
X50774744Y-62121298D01*
X50987389Y-62079000D01*
X51312611Y-62079000D01*
X51525256Y-62121298D01*
X51525256Y-62121298D01*
G37*
G36*
X64610443Y-61645519D02*
X64676627Y-61652037D01*
X64789853Y-61686384D01*
X64846467Y-61703557D01*
X64985087Y-61777652D01*
X65002991Y-61787222D01*
X65038729Y-61816552D01*
X65140186Y-61899814D01*
X65223448Y-62001271D01*
X65252778Y-62037009D01*
X65252779Y-62037011D01*
X65336443Y-62193533D01*
X65336443Y-62193534D01*
X65387963Y-62363373D01*
X65405359Y-62540000D01*
X65387963Y-62716627D01*
X65353616Y-62829853D01*
X65336443Y-62886467D01*
X65303575Y-62947958D01*
X65252778Y-63042991D01*
X65223448Y-63078729D01*
X65140186Y-63180186D01*
X65057040Y-63248421D01*
X65002991Y-63292778D01*
X65002989Y-63292779D01*
X64846467Y-63376443D01*
X64789853Y-63393616D01*
X64676627Y-63427963D01*
X64610443Y-63434481D01*
X64544260Y-63441000D01*
X64455740Y-63441000D01*
X64389557Y-63434481D01*
X64323373Y-63427963D01*
X64210147Y-63393616D01*
X64153533Y-63376443D01*
X63997011Y-63292779D01*
X63997009Y-63292778D01*
X63942960Y-63248421D01*
X63859814Y-63180186D01*
X63776552Y-63078729D01*
X63747222Y-63042991D01*
X63696425Y-62947958D01*
X63663557Y-62886467D01*
X63646384Y-62829853D01*
X63612037Y-62716627D01*
X63594641Y-62540000D01*
X63612037Y-62363373D01*
X63663557Y-62193534D01*
X63663557Y-62193533D01*
X63747221Y-62037011D01*
X63747222Y-62037009D01*
X63776552Y-62001271D01*
X63859814Y-61899814D01*
X63961271Y-61816552D01*
X63997009Y-61787222D01*
X64014913Y-61777652D01*
X64153533Y-61703557D01*
X64210147Y-61686384D01*
X64323373Y-61652037D01*
X64389557Y-61645519D01*
X64455740Y-61639000D01*
X64544260Y-61639000D01*
X64610443Y-61645519D01*
X64610443Y-61645519D01*
G37*
G36*
X67150443Y-61645519D02*
X67216627Y-61652037D01*
X67329853Y-61686384D01*
X67386467Y-61703557D01*
X67525087Y-61777652D01*
X67542991Y-61787222D01*
X67578729Y-61816552D01*
X67680186Y-61899814D01*
X67763448Y-62001271D01*
X67792778Y-62037009D01*
X67792779Y-62037011D01*
X67876443Y-62193533D01*
X67876443Y-62193534D01*
X67927963Y-62363373D01*
X67945359Y-62540000D01*
X67927963Y-62716627D01*
X67893616Y-62829853D01*
X67876443Y-62886467D01*
X67843575Y-62947958D01*
X67792778Y-63042991D01*
X67763448Y-63078729D01*
X67680186Y-63180186D01*
X67597040Y-63248421D01*
X67542991Y-63292778D01*
X67542989Y-63292779D01*
X67386467Y-63376443D01*
X67329853Y-63393616D01*
X67216627Y-63427963D01*
X67150443Y-63434481D01*
X67084260Y-63441000D01*
X66995740Y-63441000D01*
X66929557Y-63434481D01*
X66863373Y-63427963D01*
X66750147Y-63393616D01*
X66693533Y-63376443D01*
X66537011Y-63292779D01*
X66537009Y-63292778D01*
X66482960Y-63248421D01*
X66399814Y-63180186D01*
X66316552Y-63078729D01*
X66287222Y-63042991D01*
X66236425Y-62947958D01*
X66203557Y-62886467D01*
X66186384Y-62829853D01*
X66152037Y-62716627D01*
X66134641Y-62540000D01*
X66152037Y-62363373D01*
X66203557Y-62193534D01*
X66203557Y-62193533D01*
X66287221Y-62037011D01*
X66287222Y-62037009D01*
X66316552Y-62001271D01*
X66399814Y-61899814D01*
X66501271Y-61816552D01*
X66537009Y-61787222D01*
X66554913Y-61777652D01*
X66693533Y-61703557D01*
X66750147Y-61686384D01*
X66863373Y-61652037D01*
X66929557Y-61645519D01*
X66995740Y-61639000D01*
X67084260Y-61639000D01*
X67150443Y-61645519D01*
X67150443Y-61645519D01*
G37*
G36*
X67150443Y-59105519D02*
X67216627Y-59112037D01*
X67329853Y-59146384D01*
X67386467Y-59163557D01*
X67525087Y-59237652D01*
X67542991Y-59247222D01*
X67578729Y-59276552D01*
X67680186Y-59359814D01*
X67763448Y-59461271D01*
X67792778Y-59497009D01*
X67792779Y-59497011D01*
X67876443Y-59653533D01*
X67876443Y-59653534D01*
X67927963Y-59823373D01*
X67945359Y-60000000D01*
X67927963Y-60176627D01*
X67893616Y-60289853D01*
X67876443Y-60346467D01*
X67802348Y-60485087D01*
X67792778Y-60502991D01*
X67763448Y-60538729D01*
X67680186Y-60640186D01*
X67578729Y-60723448D01*
X67542991Y-60752778D01*
X67542989Y-60752779D01*
X67386467Y-60836443D01*
X67329853Y-60853616D01*
X67216627Y-60887963D01*
X67150442Y-60894482D01*
X67084260Y-60901000D01*
X66995740Y-60901000D01*
X66929558Y-60894482D01*
X66863373Y-60887963D01*
X66750147Y-60853616D01*
X66693533Y-60836443D01*
X66537011Y-60752779D01*
X66537009Y-60752778D01*
X66501271Y-60723448D01*
X66399814Y-60640186D01*
X66316552Y-60538729D01*
X66287222Y-60502991D01*
X66277652Y-60485087D01*
X66203557Y-60346467D01*
X66186384Y-60289853D01*
X66152037Y-60176627D01*
X66134641Y-60000000D01*
X66152037Y-59823373D01*
X66203557Y-59653534D01*
X66203557Y-59653533D01*
X66287221Y-59497011D01*
X66287222Y-59497009D01*
X66316552Y-59461271D01*
X66399814Y-59359814D01*
X66501271Y-59276552D01*
X66537009Y-59247222D01*
X66554913Y-59237652D01*
X66693533Y-59163557D01*
X66750147Y-59146384D01*
X66863373Y-59112037D01*
X66929557Y-59105519D01*
X66995740Y-59099000D01*
X67084260Y-59099000D01*
X67150443Y-59105519D01*
X67150443Y-59105519D01*
G37*
G36*
X65401000Y-60901000D02*
X63599000Y-60901000D01*
X63599000Y-59099000D01*
X65401000Y-59099000D01*
X65401000Y-60901000D01*
X65401000Y-60901000D01*
G37*
G36*
X51536694Y-52801860D02*
X51802437Y-52854719D01*
X52303087Y-53062095D01*
X52724160Y-53343448D01*
X52753663Y-53363161D01*
X53136839Y-53746337D01*
X53136841Y-53746340D01*
X53437905Y-54196913D01*
X53645281Y-54697563D01*
X53655159Y-54747222D01*
X53751000Y-55229049D01*
X53751000Y-55770951D01*
X53715186Y-55951000D01*
X53645281Y-56302437D01*
X53437905Y-56803087D01*
X53147636Y-57237504D01*
X53136839Y-57253663D01*
X52753663Y-57636839D01*
X52753660Y-57636841D01*
X52303087Y-57937905D01*
X51802437Y-58145281D01*
X51536693Y-58198141D01*
X51270951Y-58251000D01*
X50729049Y-58251000D01*
X50463307Y-58198141D01*
X50197563Y-58145281D01*
X49696913Y-57937905D01*
X49246340Y-57636841D01*
X49246337Y-57636839D01*
X48863161Y-57253663D01*
X48852364Y-57237504D01*
X48562095Y-56803087D01*
X48354719Y-56302437D01*
X48284814Y-55951000D01*
X48249000Y-55770951D01*
X48249000Y-55229049D01*
X48344841Y-54747222D01*
X48354719Y-54697563D01*
X48562095Y-54196913D01*
X48863159Y-53746340D01*
X48863161Y-53746337D01*
X49246337Y-53363161D01*
X49275840Y-53343448D01*
X49696913Y-53062095D01*
X50197563Y-52854719D01*
X50463306Y-52801860D01*
X50729049Y-52749000D01*
X51270951Y-52749000D01*
X51536694Y-52801860D01*
X51536694Y-52801860D01*
G37*
G36*
X67110443Y-54605519D02*
X67176627Y-54612037D01*
X67289853Y-54646384D01*
X67346467Y-54663557D01*
X67485087Y-54737652D01*
X67502991Y-54747222D01*
X67538729Y-54776552D01*
X67640186Y-54859814D01*
X67723448Y-54961271D01*
X67752778Y-54997009D01*
X67752779Y-54997011D01*
X67836443Y-55153533D01*
X67836443Y-55153534D01*
X67887963Y-55323373D01*
X67905359Y-55500000D01*
X67887963Y-55676627D01*
X67859350Y-55770950D01*
X67836443Y-55846467D01*
X67808004Y-55899671D01*
X67752778Y-56002991D01*
X67723448Y-56038729D01*
X67640186Y-56140186D01*
X67538729Y-56223448D01*
X67502991Y-56252778D01*
X67502989Y-56252779D01*
X67346467Y-56336443D01*
X67289853Y-56353616D01*
X67176627Y-56387963D01*
X67110442Y-56394482D01*
X67044260Y-56401000D01*
X66955740Y-56401000D01*
X66889558Y-56394482D01*
X66823373Y-56387963D01*
X66710147Y-56353616D01*
X66653533Y-56336443D01*
X66497011Y-56252779D01*
X66497009Y-56252778D01*
X66461271Y-56223448D01*
X66359814Y-56140186D01*
X66276552Y-56038729D01*
X66247222Y-56002991D01*
X66191996Y-55899671D01*
X66163557Y-55846467D01*
X66140650Y-55770950D01*
X66112037Y-55676627D01*
X66094641Y-55500000D01*
X66112037Y-55323373D01*
X66163557Y-55153534D01*
X66163557Y-55153533D01*
X66247221Y-54997011D01*
X66247222Y-54997009D01*
X66276552Y-54961271D01*
X66359814Y-54859814D01*
X66461271Y-54776552D01*
X66497009Y-54747222D01*
X66514913Y-54737652D01*
X66653533Y-54663557D01*
X66710147Y-54646384D01*
X66823373Y-54612037D01*
X66889557Y-54605519D01*
X66955740Y-54599000D01*
X67044260Y-54599000D01*
X67110443Y-54605519D01*
X67110443Y-54605519D01*
G37*
G36*
X64570443Y-54605519D02*
X64636627Y-54612037D01*
X64749853Y-54646384D01*
X64806467Y-54663557D01*
X64945087Y-54737652D01*
X64962991Y-54747222D01*
X64998729Y-54776552D01*
X65100186Y-54859814D01*
X65183448Y-54961271D01*
X65212778Y-54997009D01*
X65212779Y-54997011D01*
X65296443Y-55153533D01*
X65296443Y-55153534D01*
X65347963Y-55323373D01*
X65365359Y-55500000D01*
X65347963Y-55676627D01*
X65319350Y-55770950D01*
X65296443Y-55846467D01*
X65268004Y-55899671D01*
X65212778Y-56002991D01*
X65183448Y-56038729D01*
X65100186Y-56140186D01*
X64998729Y-56223448D01*
X64962991Y-56252778D01*
X64962989Y-56252779D01*
X64806467Y-56336443D01*
X64749853Y-56353616D01*
X64636627Y-56387963D01*
X64570442Y-56394482D01*
X64504260Y-56401000D01*
X64415740Y-56401000D01*
X64349558Y-56394482D01*
X64283373Y-56387963D01*
X64170147Y-56353616D01*
X64113533Y-56336443D01*
X63957011Y-56252779D01*
X63957009Y-56252778D01*
X63921271Y-56223448D01*
X63819814Y-56140186D01*
X63736552Y-56038729D01*
X63707222Y-56002991D01*
X63651996Y-55899671D01*
X63623557Y-55846467D01*
X63600650Y-55770950D01*
X63572037Y-55676627D01*
X63554641Y-55500000D01*
X63572037Y-55323373D01*
X63623557Y-55153534D01*
X63623557Y-55153533D01*
X63707221Y-54997011D01*
X63707222Y-54997009D01*
X63736552Y-54961271D01*
X63819814Y-54859814D01*
X63921271Y-54776552D01*
X63957009Y-54747222D01*
X63974913Y-54737652D01*
X64113533Y-54663557D01*
X64170147Y-54646384D01*
X64283373Y-54612037D01*
X64349557Y-54605519D01*
X64415740Y-54599000D01*
X64504260Y-54599000D01*
X64570443Y-54605519D01*
X64570443Y-54605519D01*
G37*
G36*
X67110442Y-52065518D02*
X67176627Y-52072037D01*
X67289853Y-52106384D01*
X67346467Y-52123557D01*
X67485087Y-52197652D01*
X67502991Y-52207222D01*
X67538729Y-52236552D01*
X67640186Y-52319814D01*
X67723448Y-52421271D01*
X67752778Y-52457009D01*
X67752779Y-52457011D01*
X67836443Y-52613533D01*
X67836443Y-52613534D01*
X67887963Y-52783373D01*
X67905359Y-52960000D01*
X67887963Y-53136627D01*
X67853616Y-53249853D01*
X67836443Y-53306467D01*
X67816676Y-53343448D01*
X67752778Y-53462991D01*
X67723448Y-53498729D01*
X67640186Y-53600186D01*
X67557019Y-53668438D01*
X67502991Y-53712778D01*
X67502989Y-53712779D01*
X67346467Y-53796443D01*
X67289853Y-53813616D01*
X67176627Y-53847963D01*
X67110458Y-53854480D01*
X67044260Y-53861000D01*
X66955740Y-53861000D01*
X66889542Y-53854480D01*
X66823373Y-53847963D01*
X66710147Y-53813616D01*
X66653533Y-53796443D01*
X66497011Y-53712779D01*
X66497009Y-53712778D01*
X66442981Y-53668438D01*
X66359814Y-53600186D01*
X66276552Y-53498729D01*
X66247222Y-53462991D01*
X66183324Y-53343448D01*
X66163557Y-53306467D01*
X66146384Y-53249853D01*
X66112037Y-53136627D01*
X66094641Y-52960000D01*
X66112037Y-52783373D01*
X66163557Y-52613534D01*
X66163557Y-52613533D01*
X66247221Y-52457011D01*
X66247222Y-52457009D01*
X66276552Y-52421271D01*
X66359814Y-52319814D01*
X66461271Y-52236552D01*
X66497009Y-52207222D01*
X66514913Y-52197652D01*
X66653533Y-52123557D01*
X66710147Y-52106384D01*
X66823373Y-52072037D01*
X66889558Y-52065518D01*
X66955740Y-52059000D01*
X67044260Y-52059000D01*
X67110442Y-52065518D01*
X67110442Y-52065518D01*
G37*
G36*
X64570442Y-52065518D02*
X64636627Y-52072037D01*
X64749853Y-52106384D01*
X64806467Y-52123557D01*
X64945087Y-52197652D01*
X64962991Y-52207222D01*
X64998729Y-52236552D01*
X65100186Y-52319814D01*
X65183448Y-52421271D01*
X65212778Y-52457009D01*
X65212779Y-52457011D01*
X65296443Y-52613533D01*
X65296443Y-52613534D01*
X65347963Y-52783373D01*
X65365359Y-52960000D01*
X65347963Y-53136627D01*
X65313616Y-53249853D01*
X65296443Y-53306467D01*
X65276676Y-53343448D01*
X65212778Y-53462991D01*
X65183448Y-53498729D01*
X65100186Y-53600186D01*
X65017019Y-53668438D01*
X64962991Y-53712778D01*
X64962989Y-53712779D01*
X64806467Y-53796443D01*
X64749853Y-53813616D01*
X64636627Y-53847963D01*
X64570458Y-53854480D01*
X64504260Y-53861000D01*
X64415740Y-53861000D01*
X64349542Y-53854480D01*
X64283373Y-53847963D01*
X64170147Y-53813616D01*
X64113533Y-53796443D01*
X63957011Y-53712779D01*
X63957009Y-53712778D01*
X63902981Y-53668438D01*
X63819814Y-53600186D01*
X63736552Y-53498729D01*
X63707222Y-53462991D01*
X63643324Y-53343448D01*
X63623557Y-53306467D01*
X63606384Y-53249853D01*
X63572037Y-53136627D01*
X63554641Y-52960000D01*
X63572037Y-52783373D01*
X63623557Y-52613534D01*
X63623557Y-52613533D01*
X63707221Y-52457011D01*
X63707222Y-52457009D01*
X63736552Y-52421271D01*
X63819814Y-52319814D01*
X63921271Y-52236552D01*
X63957009Y-52207222D01*
X63974913Y-52197652D01*
X64113533Y-52123557D01*
X64170147Y-52106384D01*
X64283373Y-52072037D01*
X64349558Y-52065518D01*
X64415740Y-52059000D01*
X64504260Y-52059000D01*
X64570442Y-52065518D01*
X64570442Y-52065518D01*
G37*
G36*
X51525256Y-49051298D02*
X51631579Y-49072447D01*
X51932042Y-49196903D01*
X52102960Y-49311107D01*
X52202454Y-49377587D01*
X52432413Y-49607546D01*
X52432415Y-49607549D01*
X52540571Y-49769415D01*
X52613098Y-49877960D01*
X52629273Y-49917011D01*
X52737553Y-50178421D01*
X52801000Y-50497391D01*
X52801000Y-50822609D01*
X52737553Y-51141579D01*
X52689975Y-51256443D01*
X52613098Y-51442040D01*
X52432413Y-51712454D01*
X52202454Y-51942413D01*
X52202451Y-51942415D01*
X51932042Y-52123097D01*
X51932041Y-52123098D01*
X51932040Y-52123098D01*
X51844037Y-52159550D01*
X51631579Y-52247553D01*
X51525256Y-52268702D01*
X51312611Y-52311000D01*
X50987389Y-52311000D01*
X50774744Y-52268702D01*
X50668421Y-52247553D01*
X50455963Y-52159550D01*
X50367960Y-52123098D01*
X50367959Y-52123098D01*
X50367958Y-52123097D01*
X50097549Y-51942415D01*
X50097546Y-51942413D01*
X49867587Y-51712454D01*
X49686902Y-51442040D01*
X49610025Y-51256443D01*
X49562447Y-51141579D01*
X49499000Y-50822609D01*
X49499000Y-50497391D01*
X49562447Y-50178421D01*
X49670727Y-49917011D01*
X49686902Y-49877960D01*
X49759430Y-49769415D01*
X49867585Y-49607549D01*
X49867587Y-49607546D01*
X50097546Y-49377587D01*
X50197040Y-49311107D01*
X50367958Y-49196903D01*
X50668421Y-49072447D01*
X50774744Y-49051298D01*
X50987389Y-49009000D01*
X51312611Y-49009000D01*
X51525256Y-49051298D01*
X51525256Y-49051298D01*
G37*
G36*
X64570443Y-49525519D02*
X64636627Y-49532037D01*
X64749853Y-49566384D01*
X64806467Y-49583557D01*
X64945087Y-49657652D01*
X64962991Y-49667222D01*
X64998729Y-49696552D01*
X65100186Y-49779814D01*
X65180731Y-49877960D01*
X65212778Y-49917009D01*
X65212779Y-49917011D01*
X65296443Y-50073533D01*
X65296443Y-50073534D01*
X65347963Y-50243373D01*
X65365359Y-50420000D01*
X65347963Y-50596627D01*
X65313616Y-50709853D01*
X65296443Y-50766467D01*
X65266434Y-50822609D01*
X65212778Y-50922991D01*
X65183448Y-50958729D01*
X65100186Y-51060186D01*
X65001008Y-51141578D01*
X64962991Y-51172778D01*
X64962989Y-51172779D01*
X64806467Y-51256443D01*
X64749853Y-51273616D01*
X64636627Y-51307963D01*
X64570442Y-51314482D01*
X64504260Y-51321000D01*
X64415740Y-51321000D01*
X64349558Y-51314482D01*
X64283373Y-51307963D01*
X64170147Y-51273616D01*
X64113533Y-51256443D01*
X63957011Y-51172779D01*
X63957009Y-51172778D01*
X63918992Y-51141578D01*
X63819814Y-51060186D01*
X63736552Y-50958729D01*
X63707222Y-50922991D01*
X63653566Y-50822609D01*
X63623557Y-50766467D01*
X63606384Y-50709853D01*
X63572037Y-50596627D01*
X63554641Y-50420000D01*
X63572037Y-50243373D01*
X63623557Y-50073534D01*
X63623557Y-50073533D01*
X63707221Y-49917011D01*
X63707222Y-49917009D01*
X63739269Y-49877960D01*
X63819814Y-49779814D01*
X63921271Y-49696552D01*
X63957009Y-49667222D01*
X63974913Y-49657652D01*
X64113533Y-49583557D01*
X64170147Y-49566384D01*
X64283373Y-49532037D01*
X64349558Y-49525518D01*
X64415740Y-49519000D01*
X64504260Y-49519000D01*
X64570443Y-49525519D01*
X64570443Y-49525519D01*
G37*
G36*
X67110443Y-49525519D02*
X67176627Y-49532037D01*
X67289853Y-49566384D01*
X67346467Y-49583557D01*
X67485087Y-49657652D01*
X67502991Y-49667222D01*
X67538729Y-49696552D01*
X67640186Y-49779814D01*
X67720731Y-49877960D01*
X67752778Y-49917009D01*
X67752779Y-49917011D01*
X67836443Y-50073533D01*
X67836443Y-50073534D01*
X67887963Y-50243373D01*
X67905359Y-50420000D01*
X67887963Y-50596627D01*
X67853616Y-50709853D01*
X67836443Y-50766467D01*
X67806434Y-50822609D01*
X67752778Y-50922991D01*
X67723448Y-50958729D01*
X67640186Y-51060186D01*
X67541008Y-51141578D01*
X67502991Y-51172778D01*
X67502989Y-51172779D01*
X67346467Y-51256443D01*
X67289853Y-51273616D01*
X67176627Y-51307963D01*
X67110442Y-51314482D01*
X67044260Y-51321000D01*
X66955740Y-51321000D01*
X66889558Y-51314482D01*
X66823373Y-51307963D01*
X66710147Y-51273616D01*
X66653533Y-51256443D01*
X66497011Y-51172779D01*
X66497009Y-51172778D01*
X66458992Y-51141578D01*
X66359814Y-51060186D01*
X66276552Y-50958729D01*
X66247222Y-50922991D01*
X66193566Y-50822609D01*
X66163557Y-50766467D01*
X66146384Y-50709853D01*
X66112037Y-50596627D01*
X66094641Y-50420000D01*
X66112037Y-50243373D01*
X66163557Y-50073534D01*
X66163557Y-50073533D01*
X66247221Y-49917011D01*
X66247222Y-49917009D01*
X66279269Y-49877960D01*
X66359814Y-49779814D01*
X66461271Y-49696552D01*
X66497009Y-49667222D01*
X66514913Y-49657652D01*
X66653533Y-49583557D01*
X66710147Y-49566384D01*
X66823373Y-49532037D01*
X66889558Y-49525518D01*
X66955740Y-49519000D01*
X67044260Y-49519000D01*
X67110443Y-49525519D01*
X67110443Y-49525519D01*
G37*
G36*
X60273643Y-48619781D02*
X60419415Y-48680162D01*
X60550611Y-48767824D01*
X60662176Y-48879389D01*
X60749838Y-49010585D01*
X60810219Y-49156357D01*
X60841000Y-49311107D01*
X60841000Y-49468893D01*
X60810219Y-49623643D01*
X60749838Y-49769415D01*
X60662176Y-49900611D01*
X60550611Y-50012176D01*
X60419415Y-50099838D01*
X60273643Y-50160219D01*
X60118893Y-50191000D01*
X59961107Y-50191000D01*
X59806357Y-50160219D01*
X59660585Y-50099838D01*
X59529389Y-50012176D01*
X59417824Y-49900611D01*
X59330162Y-49769415D01*
X59269781Y-49623643D01*
X59239000Y-49468893D01*
X59239000Y-49311107D01*
X59269781Y-49156357D01*
X59330162Y-49010585D01*
X59417824Y-48879389D01*
X59529389Y-48767824D01*
X59660585Y-48680162D01*
X59806357Y-48619781D01*
X59961107Y-48589000D01*
X60118893Y-48589000D01*
X60273643Y-48619781D01*
X60273643Y-48619781D01*
G37*
G36*
X57733643Y-47349781D02*
X57879415Y-47410162D01*
X58010611Y-47497824D01*
X58122176Y-47609389D01*
X58209838Y-47740585D01*
X58270219Y-47886357D01*
X58301000Y-48041107D01*
X58301000Y-48198893D01*
X58270219Y-48353643D01*
X58209838Y-48499415D01*
X58122176Y-48630611D01*
X58010611Y-48742176D01*
X57879415Y-48829838D01*
X57733643Y-48890219D01*
X57578893Y-48921000D01*
X57421107Y-48921000D01*
X57266357Y-48890219D01*
X57120585Y-48829838D01*
X56989389Y-48742176D01*
X56877824Y-48630611D01*
X56790162Y-48499415D01*
X56729781Y-48353643D01*
X56699000Y-48198893D01*
X56699000Y-48041107D01*
X56729781Y-47886357D01*
X56790162Y-47740585D01*
X56877824Y-47609389D01*
X56989389Y-47497824D01*
X57120585Y-47410162D01*
X57266357Y-47349781D01*
X57421107Y-47319000D01*
X57578893Y-47319000D01*
X57733643Y-47349781D01*
X57733643Y-47349781D01*
G37*
G36*
X64570442Y-46985518D02*
X64636627Y-46992037D01*
X64749853Y-47026384D01*
X64806467Y-47043557D01*
X64945087Y-47117652D01*
X64962991Y-47127222D01*
X64998729Y-47156552D01*
X65100186Y-47239814D01*
X65165171Y-47319000D01*
X65212778Y-47377009D01*
X65212779Y-47377011D01*
X65296443Y-47533533D01*
X65296443Y-47533534D01*
X65347963Y-47703373D01*
X65365359Y-47880000D01*
X65347963Y-48056627D01*
X65313616Y-48169853D01*
X65296443Y-48226467D01*
X65228465Y-48353643D01*
X65212778Y-48382991D01*
X65183448Y-48418729D01*
X65100186Y-48520186D01*
X64998729Y-48603448D01*
X64962991Y-48632778D01*
X64962989Y-48632779D01*
X64806467Y-48716443D01*
X64749853Y-48733616D01*
X64636627Y-48767963D01*
X64570442Y-48774482D01*
X64504260Y-48781000D01*
X64415740Y-48781000D01*
X64349557Y-48774481D01*
X64283373Y-48767963D01*
X64170147Y-48733616D01*
X64113533Y-48716443D01*
X63957011Y-48632779D01*
X63957009Y-48632778D01*
X63921271Y-48603448D01*
X63819814Y-48520186D01*
X63736552Y-48418729D01*
X63707222Y-48382991D01*
X63691535Y-48353643D01*
X63623557Y-48226467D01*
X63606384Y-48169853D01*
X63572037Y-48056627D01*
X63554641Y-47880000D01*
X63572037Y-47703373D01*
X63623557Y-47533534D01*
X63623557Y-47533533D01*
X63707221Y-47377011D01*
X63707222Y-47377009D01*
X63754829Y-47319000D01*
X63819814Y-47239814D01*
X63921271Y-47156552D01*
X63957009Y-47127222D01*
X63974913Y-47117652D01*
X64113533Y-47043557D01*
X64170147Y-47026384D01*
X64283373Y-46992037D01*
X64349557Y-46985519D01*
X64415740Y-46979000D01*
X64504260Y-46979000D01*
X64570442Y-46985518D01*
X64570442Y-46985518D01*
G37*
G36*
X67110442Y-46985518D02*
X67176627Y-46992037D01*
X67289853Y-47026384D01*
X67346467Y-47043557D01*
X67485087Y-47117652D01*
X67502991Y-47127222D01*
X67538729Y-47156552D01*
X67640186Y-47239814D01*
X67705171Y-47319000D01*
X67752778Y-47377009D01*
X67752779Y-47377011D01*
X67836443Y-47533533D01*
X67836443Y-47533534D01*
X67887963Y-47703373D01*
X67905359Y-47880000D01*
X67887963Y-48056627D01*
X67853616Y-48169853D01*
X67836443Y-48226467D01*
X67768465Y-48353643D01*
X67752778Y-48382991D01*
X67723448Y-48418729D01*
X67640186Y-48520186D01*
X67538729Y-48603448D01*
X67502991Y-48632778D01*
X67502989Y-48632779D01*
X67346467Y-48716443D01*
X67289853Y-48733616D01*
X67176627Y-48767963D01*
X67110442Y-48774482D01*
X67044260Y-48781000D01*
X66955740Y-48781000D01*
X66889557Y-48774481D01*
X66823373Y-48767963D01*
X66710147Y-48733616D01*
X66653533Y-48716443D01*
X66497011Y-48632779D01*
X66497009Y-48632778D01*
X66461271Y-48603448D01*
X66359814Y-48520186D01*
X66276552Y-48418729D01*
X66247222Y-48382991D01*
X66231535Y-48353643D01*
X66163557Y-48226467D01*
X66146384Y-48169853D01*
X66112037Y-48056627D01*
X66094641Y-47880000D01*
X66112037Y-47703373D01*
X66163557Y-47533534D01*
X66163557Y-47533533D01*
X66247221Y-47377011D01*
X66247222Y-47377009D01*
X66294829Y-47319000D01*
X66359814Y-47239814D01*
X66461271Y-47156552D01*
X66497009Y-47127222D01*
X66514913Y-47117652D01*
X66653533Y-47043557D01*
X66710147Y-47026384D01*
X66823373Y-46992037D01*
X66889557Y-46985519D01*
X66955740Y-46979000D01*
X67044260Y-46979000D01*
X67110442Y-46985518D01*
X67110442Y-46985518D01*
G37*
G36*
X60273643Y-46079781D02*
X60419415Y-46140162D01*
X60550611Y-46227824D01*
X60662176Y-46339389D01*
X60749838Y-46470585D01*
X60810219Y-46616357D01*
X60841000Y-46771107D01*
X60841000Y-46928893D01*
X60810219Y-47083643D01*
X60749838Y-47229415D01*
X60662176Y-47360611D01*
X60550611Y-47472176D01*
X60419415Y-47559838D01*
X60273643Y-47620219D01*
X60118893Y-47651000D01*
X59961107Y-47651000D01*
X59806357Y-47620219D01*
X59660585Y-47559838D01*
X59529389Y-47472176D01*
X59417824Y-47360611D01*
X59330162Y-47229415D01*
X59269781Y-47083643D01*
X59239000Y-46928893D01*
X59239000Y-46771107D01*
X59269781Y-46616357D01*
X59330162Y-46470585D01*
X59417824Y-46339389D01*
X59529389Y-46227824D01*
X59660585Y-46140162D01*
X59806357Y-46079781D01*
X59961107Y-46049000D01*
X60118893Y-46049000D01*
X60273643Y-46079781D01*
X60273643Y-46079781D01*
G37*
G36*
X57733643Y-44809781D02*
X57879415Y-44870162D01*
X58010611Y-44957824D01*
X58122176Y-45069389D01*
X58209838Y-45200585D01*
X58270219Y-45346357D01*
X58301000Y-45501107D01*
X58301000Y-45658893D01*
X58270219Y-45813643D01*
X58209838Y-45959415D01*
X58122176Y-46090611D01*
X58010611Y-46202176D01*
X57879415Y-46289838D01*
X57733643Y-46350219D01*
X57578893Y-46381000D01*
X57421107Y-46381000D01*
X57266357Y-46350219D01*
X57120585Y-46289838D01*
X56989389Y-46202176D01*
X56877824Y-46090611D01*
X56790162Y-45959415D01*
X56729781Y-45813643D01*
X56699000Y-45658893D01*
X56699000Y-45501107D01*
X56729781Y-45346357D01*
X56790162Y-45200585D01*
X56877824Y-45069389D01*
X56989389Y-44957824D01*
X57120585Y-44870162D01*
X57266357Y-44809781D01*
X57421107Y-44779000D01*
X57578893Y-44779000D01*
X57733643Y-44809781D01*
X57733643Y-44809781D01*
G37*
G36*
X67110443Y-44445519D02*
X67176627Y-44452037D01*
X67289853Y-44486384D01*
X67346467Y-44503557D01*
X67485087Y-44577652D01*
X67502991Y-44587222D01*
X67538729Y-44616552D01*
X67640186Y-44699814D01*
X67705171Y-44779000D01*
X67752778Y-44837009D01*
X67752779Y-44837011D01*
X67836443Y-44993533D01*
X67836443Y-44993534D01*
X67887963Y-45163373D01*
X67905359Y-45340000D01*
X67887963Y-45516627D01*
X67853616Y-45629853D01*
X67836443Y-45686467D01*
X67768465Y-45813643D01*
X67752778Y-45842991D01*
X67723448Y-45878729D01*
X67640186Y-45980186D01*
X67538729Y-46063448D01*
X67502991Y-46092778D01*
X67502989Y-46092779D01*
X67346467Y-46176443D01*
X67289853Y-46193616D01*
X67176627Y-46227963D01*
X67110443Y-46234481D01*
X67044260Y-46241000D01*
X66955740Y-46241000D01*
X66889557Y-46234481D01*
X66823373Y-46227963D01*
X66710147Y-46193616D01*
X66653533Y-46176443D01*
X66497011Y-46092779D01*
X66497009Y-46092778D01*
X66461271Y-46063448D01*
X66359814Y-45980186D01*
X66276552Y-45878729D01*
X66247222Y-45842991D01*
X66231535Y-45813643D01*
X66163557Y-45686467D01*
X66146384Y-45629853D01*
X66112037Y-45516627D01*
X66094641Y-45340000D01*
X66112037Y-45163373D01*
X66163557Y-44993534D01*
X66163557Y-44993533D01*
X66247221Y-44837011D01*
X66247222Y-44837009D01*
X66294829Y-44779000D01*
X66359814Y-44699814D01*
X66461271Y-44616552D01*
X66497009Y-44587222D01*
X66514913Y-44577652D01*
X66653533Y-44503557D01*
X66710147Y-44486384D01*
X66823373Y-44452037D01*
X66889557Y-44445519D01*
X66955740Y-44439000D01*
X67044260Y-44439000D01*
X67110443Y-44445519D01*
X67110443Y-44445519D01*
G37*
G36*
X64570443Y-44445519D02*
X64636627Y-44452037D01*
X64749853Y-44486384D01*
X64806467Y-44503557D01*
X64945087Y-44577652D01*
X64962991Y-44587222D01*
X64998729Y-44616552D01*
X65100186Y-44699814D01*
X65165171Y-44779000D01*
X65212778Y-44837009D01*
X65212779Y-44837011D01*
X65296443Y-44993533D01*
X65296443Y-44993534D01*
X65347963Y-45163373D01*
X65365359Y-45340000D01*
X65347963Y-45516627D01*
X65313616Y-45629853D01*
X65296443Y-45686467D01*
X65228465Y-45813643D01*
X65212778Y-45842991D01*
X65183448Y-45878729D01*
X65100186Y-45980186D01*
X64998729Y-46063448D01*
X64962991Y-46092778D01*
X64962989Y-46092779D01*
X64806467Y-46176443D01*
X64749853Y-46193616D01*
X64636627Y-46227963D01*
X64570443Y-46234481D01*
X64504260Y-46241000D01*
X64415740Y-46241000D01*
X64349557Y-46234481D01*
X64283373Y-46227963D01*
X64170147Y-46193616D01*
X64113533Y-46176443D01*
X63957011Y-46092779D01*
X63957009Y-46092778D01*
X63921271Y-46063448D01*
X63819814Y-45980186D01*
X63736552Y-45878729D01*
X63707222Y-45842991D01*
X63691535Y-45813643D01*
X63623557Y-45686467D01*
X63606384Y-45629853D01*
X63572037Y-45516627D01*
X63554641Y-45340000D01*
X63572037Y-45163373D01*
X63623557Y-44993534D01*
X63623557Y-44993533D01*
X63707221Y-44837011D01*
X63707222Y-44837009D01*
X63754829Y-44779000D01*
X63819814Y-44699814D01*
X63921271Y-44616552D01*
X63957009Y-44587222D01*
X63974913Y-44577652D01*
X64113533Y-44503557D01*
X64170147Y-44486384D01*
X64283373Y-44452037D01*
X64349557Y-44445519D01*
X64415740Y-44439000D01*
X64504260Y-44439000D01*
X64570443Y-44445519D01*
X64570443Y-44445519D01*
G37*
G36*
X60273643Y-43539781D02*
X60419415Y-43600162D01*
X60550611Y-43687824D01*
X60662176Y-43799389D01*
X60749838Y-43930585D01*
X60810219Y-44076357D01*
X60841000Y-44231107D01*
X60841000Y-44388893D01*
X60810219Y-44543643D01*
X60749838Y-44689415D01*
X60662176Y-44820611D01*
X60550611Y-44932176D01*
X60419415Y-45019838D01*
X60273643Y-45080219D01*
X60118893Y-45111000D01*
X59961107Y-45111000D01*
X59806357Y-45080219D01*
X59660585Y-45019838D01*
X59529389Y-44932176D01*
X59417824Y-44820611D01*
X59330162Y-44689415D01*
X59269781Y-44543643D01*
X59239000Y-44388893D01*
X59239000Y-44231107D01*
X59269781Y-44076357D01*
X59330162Y-43930585D01*
X59417824Y-43799389D01*
X59529389Y-43687824D01*
X59660585Y-43600162D01*
X59806357Y-43539781D01*
X59961107Y-43509000D01*
X60118893Y-43509000D01*
X60273643Y-43539781D01*
X60273643Y-43539781D01*
G37*
G36*
X57733643Y-42269781D02*
X57879415Y-42330162D01*
X58010611Y-42417824D01*
X58122176Y-42529389D01*
X58209838Y-42660585D01*
X58270219Y-42806357D01*
X58301000Y-42961107D01*
X58301000Y-43118893D01*
X58270219Y-43273643D01*
X58209838Y-43419415D01*
X58122176Y-43550611D01*
X58010611Y-43662176D01*
X57879415Y-43749838D01*
X57733643Y-43810219D01*
X57578893Y-43841000D01*
X57421107Y-43841000D01*
X57266357Y-43810219D01*
X57120585Y-43749838D01*
X56989389Y-43662176D01*
X56877824Y-43550611D01*
X56790162Y-43419415D01*
X56729781Y-43273643D01*
X56699000Y-43118893D01*
X56699000Y-42961107D01*
X56729781Y-42806357D01*
X56790162Y-42660585D01*
X56877824Y-42529389D01*
X56989389Y-42417824D01*
X57120585Y-42330162D01*
X57266357Y-42269781D01*
X57421107Y-42239000D01*
X57578893Y-42239000D01*
X57733643Y-42269781D01*
X57733643Y-42269781D01*
G37*
G36*
X64570442Y-41905518D02*
X64636627Y-41912037D01*
X64749853Y-41946384D01*
X64806467Y-41963557D01*
X64945087Y-42037652D01*
X64962991Y-42047222D01*
X64998729Y-42076552D01*
X65100186Y-42159814D01*
X65165171Y-42239000D01*
X65212778Y-42297009D01*
X65212779Y-42297011D01*
X65296443Y-42453533D01*
X65296443Y-42453534D01*
X65347963Y-42623373D01*
X65365359Y-42800000D01*
X65347963Y-42976627D01*
X65313616Y-43089853D01*
X65296443Y-43146467D01*
X65228465Y-43273643D01*
X65212778Y-43302991D01*
X65183448Y-43338729D01*
X65100186Y-43440186D01*
X64998729Y-43523448D01*
X64962991Y-43552778D01*
X64962989Y-43552779D01*
X64806467Y-43636443D01*
X64749853Y-43653616D01*
X64636627Y-43687963D01*
X64570442Y-43694482D01*
X64504260Y-43701000D01*
X64415740Y-43701000D01*
X64349558Y-43694482D01*
X64283373Y-43687963D01*
X64170147Y-43653616D01*
X64113533Y-43636443D01*
X63957011Y-43552779D01*
X63957009Y-43552778D01*
X63921271Y-43523448D01*
X63819814Y-43440186D01*
X63736552Y-43338729D01*
X63707222Y-43302991D01*
X63691535Y-43273643D01*
X63623557Y-43146467D01*
X63606384Y-43089853D01*
X63572037Y-42976627D01*
X63554641Y-42800000D01*
X63572037Y-42623373D01*
X63623557Y-42453534D01*
X63623557Y-42453533D01*
X63707221Y-42297011D01*
X63707222Y-42297009D01*
X63754829Y-42239000D01*
X63819814Y-42159814D01*
X63921271Y-42076552D01*
X63957009Y-42047222D01*
X63974913Y-42037652D01*
X64113533Y-41963557D01*
X64170147Y-41946384D01*
X64283373Y-41912037D01*
X64349558Y-41905518D01*
X64415740Y-41899000D01*
X64504260Y-41899000D01*
X64570442Y-41905518D01*
X64570442Y-41905518D01*
G37*
G36*
X67110442Y-41905518D02*
X67176627Y-41912037D01*
X67289853Y-41946384D01*
X67346467Y-41963557D01*
X67485087Y-42037652D01*
X67502991Y-42047222D01*
X67538729Y-42076552D01*
X67640186Y-42159814D01*
X67705171Y-42239000D01*
X67752778Y-42297009D01*
X67752779Y-42297011D01*
X67836443Y-42453533D01*
X67836443Y-42453534D01*
X67887963Y-42623373D01*
X67905359Y-42800000D01*
X67887963Y-42976627D01*
X67853616Y-43089853D01*
X67836443Y-43146467D01*
X67768465Y-43273643D01*
X67752778Y-43302991D01*
X67723448Y-43338729D01*
X67640186Y-43440186D01*
X67538729Y-43523448D01*
X67502991Y-43552778D01*
X67502989Y-43552779D01*
X67346467Y-43636443D01*
X67289853Y-43653616D01*
X67176627Y-43687963D01*
X67110442Y-43694482D01*
X67044260Y-43701000D01*
X66955740Y-43701000D01*
X66889558Y-43694482D01*
X66823373Y-43687963D01*
X66710147Y-43653616D01*
X66653533Y-43636443D01*
X66497011Y-43552779D01*
X66497009Y-43552778D01*
X66461271Y-43523448D01*
X66359814Y-43440186D01*
X66276552Y-43338729D01*
X66247222Y-43302991D01*
X66231535Y-43273643D01*
X66163557Y-43146467D01*
X66146384Y-43089853D01*
X66112037Y-42976627D01*
X66094641Y-42800000D01*
X66112037Y-42623373D01*
X66163557Y-42453534D01*
X66163557Y-42453533D01*
X66247221Y-42297011D01*
X66247222Y-42297009D01*
X66294829Y-42239000D01*
X66359814Y-42159814D01*
X66461271Y-42076552D01*
X66497009Y-42047222D01*
X66514913Y-42037652D01*
X66653533Y-41963557D01*
X66710147Y-41946384D01*
X66823373Y-41912037D01*
X66889558Y-41905518D01*
X66955740Y-41899000D01*
X67044260Y-41899000D01*
X67110442Y-41905518D01*
X67110442Y-41905518D01*
G37*
G36*
X60273643Y-40999781D02*
X60419415Y-41060162D01*
X60550611Y-41147824D01*
X60662176Y-41259389D01*
X60749838Y-41390585D01*
X60810219Y-41536357D01*
X60841000Y-41691107D01*
X60841000Y-41848893D01*
X60810219Y-42003643D01*
X60749838Y-42149415D01*
X60662176Y-42280611D01*
X60550611Y-42392176D01*
X60419415Y-42479838D01*
X60273643Y-42540219D01*
X60118893Y-42571000D01*
X59961107Y-42571000D01*
X59806357Y-42540219D01*
X59660585Y-42479838D01*
X59529389Y-42392176D01*
X59417824Y-42280611D01*
X59330162Y-42149415D01*
X59269781Y-42003643D01*
X59239000Y-41848893D01*
X59239000Y-41691107D01*
X59269781Y-41536357D01*
X59330162Y-41390585D01*
X59417824Y-41259389D01*
X59529389Y-41147824D01*
X59660585Y-41060162D01*
X59806357Y-40999781D01*
X59961107Y-40969000D01*
X60118893Y-40969000D01*
X60273643Y-40999781D01*
X60273643Y-40999781D01*
G37*
G36*
X58301000Y-41301000D02*
X56699000Y-41301000D01*
X56699000Y-39699000D01*
X58301000Y-39699000D01*
X58301000Y-41301000D01*
X58301000Y-41301000D01*
G37*
G36*
X67110442Y-39365518D02*
X67176627Y-39372037D01*
X67289853Y-39406384D01*
X67346467Y-39423557D01*
X67485087Y-39497652D01*
X67502991Y-39507222D01*
X67538729Y-39536552D01*
X67640186Y-39619814D01*
X67715494Y-39711579D01*
X67752778Y-39757009D01*
X67752779Y-39757011D01*
X67836443Y-39913533D01*
X67836443Y-39913534D01*
X67887963Y-40083373D01*
X67905359Y-40260000D01*
X67887963Y-40436627D01*
X67864973Y-40512415D01*
X67836443Y-40606467D01*
X67790137Y-40693098D01*
X67752778Y-40762991D01*
X67723448Y-40798729D01*
X67640186Y-40900186D01*
X67538729Y-40983448D01*
X67502991Y-41012778D01*
X67502989Y-41012779D01*
X67346467Y-41096443D01*
X67289853Y-41113616D01*
X67176627Y-41147963D01*
X67110442Y-41154482D01*
X67044260Y-41161000D01*
X66955740Y-41161000D01*
X66889558Y-41154482D01*
X66823373Y-41147963D01*
X66710147Y-41113616D01*
X66653533Y-41096443D01*
X66497011Y-41012779D01*
X66497009Y-41012778D01*
X66461271Y-40983448D01*
X66359814Y-40900186D01*
X66276552Y-40798729D01*
X66247222Y-40762991D01*
X66209863Y-40693098D01*
X66163557Y-40606467D01*
X66135027Y-40512415D01*
X66112037Y-40436627D01*
X66094641Y-40260000D01*
X66112037Y-40083373D01*
X66163557Y-39913534D01*
X66163557Y-39913533D01*
X66247221Y-39757011D01*
X66247222Y-39757009D01*
X66284506Y-39711579D01*
X66359814Y-39619814D01*
X66461271Y-39536552D01*
X66497009Y-39507222D01*
X66514913Y-39497652D01*
X66653533Y-39423557D01*
X66710147Y-39406384D01*
X66823373Y-39372037D01*
X66889558Y-39365518D01*
X66955740Y-39359000D01*
X67044260Y-39359000D01*
X67110442Y-39365518D01*
X67110442Y-39365518D01*
G37*
G36*
X64570442Y-39365518D02*
X64636627Y-39372037D01*
X64749853Y-39406384D01*
X64806467Y-39423557D01*
X64945087Y-39497652D01*
X64962991Y-39507222D01*
X64998729Y-39536552D01*
X65100186Y-39619814D01*
X65175494Y-39711579D01*
X65212778Y-39757009D01*
X65212779Y-39757011D01*
X65296443Y-39913533D01*
X65296443Y-39913534D01*
X65347963Y-40083373D01*
X65365359Y-40260000D01*
X65347963Y-40436627D01*
X65324973Y-40512415D01*
X65296443Y-40606467D01*
X65250137Y-40693098D01*
X65212778Y-40762991D01*
X65183448Y-40798729D01*
X65100186Y-40900186D01*
X64998729Y-40983448D01*
X64962991Y-41012778D01*
X64962989Y-41012779D01*
X64806467Y-41096443D01*
X64749853Y-41113616D01*
X64636627Y-41147963D01*
X64570442Y-41154482D01*
X64504260Y-41161000D01*
X64415740Y-41161000D01*
X64349558Y-41154482D01*
X64283373Y-41147963D01*
X64170147Y-41113616D01*
X64113533Y-41096443D01*
X63957011Y-41012779D01*
X63957009Y-41012778D01*
X63921271Y-40983448D01*
X63819814Y-40900186D01*
X63736552Y-40798729D01*
X63707222Y-40762991D01*
X63669863Y-40693098D01*
X63623557Y-40606467D01*
X63595027Y-40512415D01*
X63572037Y-40436627D01*
X63554641Y-40260000D01*
X63572037Y-40083373D01*
X63623557Y-39913534D01*
X63623557Y-39913533D01*
X63707221Y-39757011D01*
X63707222Y-39757009D01*
X63744506Y-39711579D01*
X63819814Y-39619814D01*
X63921271Y-39536552D01*
X63957009Y-39507222D01*
X63974913Y-39497652D01*
X64113533Y-39423557D01*
X64170147Y-39406384D01*
X64283373Y-39372037D01*
X64349558Y-39365518D01*
X64415740Y-39359000D01*
X64504260Y-39359000D01*
X64570442Y-39365518D01*
X64570442Y-39365518D01*
G37*
G36*
X51525256Y-37621298D02*
X51631579Y-37642447D01*
X51932042Y-37766903D01*
X52126184Y-37896625D01*
X52202454Y-37947587D01*
X52432413Y-38177546D01*
X52432415Y-38177549D01*
X52613097Y-38447958D01*
X52737553Y-38748421D01*
X52801000Y-39067391D01*
X52801000Y-39392609D01*
X52737553Y-39711579D01*
X52613097Y-40012042D01*
X52447416Y-40260000D01*
X52432413Y-40282454D01*
X52202454Y-40512413D01*
X52202451Y-40512415D01*
X51932042Y-40693097D01*
X51631579Y-40817553D01*
X51525256Y-40838702D01*
X51312611Y-40881000D01*
X50987389Y-40881000D01*
X50774744Y-40838702D01*
X50668421Y-40817553D01*
X50367958Y-40693097D01*
X50097549Y-40512415D01*
X50097546Y-40512413D01*
X49867587Y-40282454D01*
X49852584Y-40260000D01*
X49686903Y-40012042D01*
X49562447Y-39711579D01*
X49499000Y-39392609D01*
X49499000Y-39067391D01*
X49562447Y-38748421D01*
X49686903Y-38447958D01*
X49867585Y-38177549D01*
X49867587Y-38177546D01*
X50097546Y-37947587D01*
X50173816Y-37896625D01*
X50367958Y-37766903D01*
X50668421Y-37642447D01*
X50774744Y-37621298D01*
X50987389Y-37579000D01*
X51312611Y-37579000D01*
X51525256Y-37621298D01*
X51525256Y-37621298D01*
G37*
G36*
X65361000Y-38621000D02*
X63559000Y-38621000D01*
X63559000Y-36819000D01*
X65361000Y-36819000D01*
X65361000Y-38621000D01*
X65361000Y-38621000D01*
G37*
G36*
X67110443Y-36825519D02*
X67176627Y-36832037D01*
X67289853Y-36866384D01*
X67346467Y-36883557D01*
X67485087Y-36957652D01*
X67502991Y-36967222D01*
X67538729Y-36996552D01*
X67640186Y-37079814D01*
X67723448Y-37181271D01*
X67752778Y-37217009D01*
X67752779Y-37217011D01*
X67836443Y-37373533D01*
X67836443Y-37373534D01*
X67887963Y-37543373D01*
X67905359Y-37720000D01*
X67887963Y-37896627D01*
X67872505Y-37947585D01*
X67836443Y-38066467D01*
X67762348Y-38205087D01*
X67752778Y-38222991D01*
X67723448Y-38258729D01*
X67640186Y-38360186D01*
X67538729Y-38443448D01*
X67502991Y-38472778D01*
X67502989Y-38472779D01*
X67346467Y-38556443D01*
X67289853Y-38573616D01*
X67176627Y-38607963D01*
X67110442Y-38614482D01*
X67044260Y-38621000D01*
X66955740Y-38621000D01*
X66889558Y-38614482D01*
X66823373Y-38607963D01*
X66710147Y-38573616D01*
X66653533Y-38556443D01*
X66497011Y-38472779D01*
X66497009Y-38472778D01*
X66461271Y-38443448D01*
X66359814Y-38360186D01*
X66276552Y-38258729D01*
X66247222Y-38222991D01*
X66237652Y-38205087D01*
X66163557Y-38066467D01*
X66127495Y-37947585D01*
X66112037Y-37896627D01*
X66094641Y-37720000D01*
X66112037Y-37543373D01*
X66163557Y-37373534D01*
X66163557Y-37373533D01*
X66247221Y-37217011D01*
X66247222Y-37217009D01*
X66276552Y-37181271D01*
X66359814Y-37079814D01*
X66461271Y-36996552D01*
X66497009Y-36967222D01*
X66514913Y-36957652D01*
X66653533Y-36883557D01*
X66710147Y-36866384D01*
X66823373Y-36832037D01*
X66889557Y-36825519D01*
X66955740Y-36819000D01*
X67044260Y-36819000D01*
X67110443Y-36825519D01*
X67110443Y-36825519D01*
G37*
G36*
X109536693Y-29801859D02*
X109802437Y-29854719D01*
X110303087Y-30062095D01*
X110490774Y-30187504D01*
X110753663Y-30363161D01*
X111136839Y-30746337D01*
X111136841Y-30746340D01*
X111437905Y-31196913D01*
X111620040Y-31636627D01*
X111645281Y-31697564D01*
X111751000Y-32229049D01*
X111751000Y-32770951D01*
X111715186Y-32951000D01*
X111645281Y-33302437D01*
X111437905Y-33803087D01*
X111147636Y-34237504D01*
X111136839Y-34253663D01*
X110753663Y-34636839D01*
X110753660Y-34636841D01*
X110303087Y-34937905D01*
X109802437Y-35145281D01*
X109536693Y-35198141D01*
X109270951Y-35251000D01*
X108729049Y-35251000D01*
X108463307Y-35198141D01*
X108197563Y-35145281D01*
X107696913Y-34937905D01*
X107246340Y-34636841D01*
X107246337Y-34636839D01*
X106863161Y-34253663D01*
X106852364Y-34237504D01*
X106562095Y-33803087D01*
X106354719Y-33302437D01*
X106284814Y-32951000D01*
X106249000Y-32770951D01*
X106249000Y-32229049D01*
X106354719Y-31697564D01*
X106379960Y-31636627D01*
X106562095Y-31196913D01*
X106863159Y-30746340D01*
X106863161Y-30746337D01*
X107246337Y-30363161D01*
X107509226Y-30187504D01*
X107696913Y-30062095D01*
X108197563Y-29854719D01*
X108463307Y-29801859D01*
X108729049Y-29749000D01*
X109270951Y-29749000D01*
X109536693Y-29801859D01*
X109536693Y-29801859D01*
G37*
G36*
X51536693Y-29801859D02*
X51802437Y-29854719D01*
X52303087Y-30062095D01*
X52490774Y-30187504D01*
X52753663Y-30363161D01*
X53136839Y-30746337D01*
X53136841Y-30746340D01*
X53437905Y-31196913D01*
X53620040Y-31636627D01*
X53645281Y-31697564D01*
X53751000Y-32229049D01*
X53751000Y-32770951D01*
X53715186Y-32951000D01*
X53645281Y-33302437D01*
X53437905Y-33803087D01*
X53147636Y-34237504D01*
X53136839Y-34253663D01*
X52753663Y-34636839D01*
X52753660Y-34636841D01*
X52303087Y-34937905D01*
X51802437Y-35145281D01*
X51536693Y-35198141D01*
X51270951Y-35251000D01*
X50729049Y-35251000D01*
X50463307Y-35198141D01*
X50197563Y-35145281D01*
X49696913Y-34937905D01*
X49246340Y-34636841D01*
X49246337Y-34636839D01*
X48863161Y-34253663D01*
X48852364Y-34237504D01*
X48562095Y-33803087D01*
X48354719Y-33302437D01*
X48284814Y-32951000D01*
X48249000Y-32770951D01*
X48249000Y-32229049D01*
X48354719Y-31697564D01*
X48379960Y-31636627D01*
X48562095Y-31196913D01*
X48863159Y-30746340D01*
X48863161Y-30746337D01*
X49246337Y-30363161D01*
X49509226Y-30187504D01*
X49696913Y-30062095D01*
X50197563Y-29854719D01*
X50463307Y-29801859D01*
X50729049Y-29749000D01*
X51270951Y-29749000D01*
X51536693Y-29801859D01*
X51536693Y-29801859D01*
G37*
G36*
X86590442Y-33105518D02*
X86656627Y-33112037D01*
X86769853Y-33146384D01*
X86826467Y-33163557D01*
X86965087Y-33237652D01*
X86982991Y-33247222D01*
X87018729Y-33276552D01*
X87120186Y-33359814D01*
X87203448Y-33461271D01*
X87232778Y-33497009D01*
X87232779Y-33497011D01*
X87316443Y-33653533D01*
X87316443Y-33653534D01*
X87367963Y-33823373D01*
X87385359Y-34000000D01*
X87367963Y-34176627D01*
X87354992Y-34219387D01*
X87316443Y-34346467D01*
X87244757Y-34480580D01*
X87232778Y-34502991D01*
X87203448Y-34538729D01*
X87120186Y-34640186D01*
X87018729Y-34723448D01*
X86982991Y-34752778D01*
X86982989Y-34752779D01*
X86826467Y-34836443D01*
X86769853Y-34853616D01*
X86656627Y-34887963D01*
X86590442Y-34894482D01*
X86524260Y-34901000D01*
X86435740Y-34901000D01*
X86369558Y-34894482D01*
X86303373Y-34887963D01*
X86190147Y-34853616D01*
X86133533Y-34836443D01*
X85977011Y-34752779D01*
X85977009Y-34752778D01*
X85941271Y-34723448D01*
X85839814Y-34640186D01*
X85756552Y-34538729D01*
X85727222Y-34502991D01*
X85715243Y-34480580D01*
X85643557Y-34346467D01*
X85605008Y-34219387D01*
X85592037Y-34176627D01*
X85574641Y-34000000D01*
X85592037Y-33823373D01*
X85643557Y-33653534D01*
X85643557Y-33653533D01*
X85727221Y-33497011D01*
X85727222Y-33497009D01*
X85756552Y-33461271D01*
X85839814Y-33359814D01*
X85941271Y-33276552D01*
X85977009Y-33247222D01*
X85994913Y-33237652D01*
X86133533Y-33163557D01*
X86190147Y-33146384D01*
X86303373Y-33112037D01*
X86369558Y-33105518D01*
X86435740Y-33099000D01*
X86524260Y-33099000D01*
X86590442Y-33105518D01*
X86590442Y-33105518D01*
G37*
G36*
X81510442Y-33105518D02*
X81576627Y-33112037D01*
X81689853Y-33146384D01*
X81746467Y-33163557D01*
X81885087Y-33237652D01*
X81902991Y-33247222D01*
X81938729Y-33276552D01*
X82040186Y-33359814D01*
X82123448Y-33461271D01*
X82152778Y-33497009D01*
X82152779Y-33497011D01*
X82236443Y-33653533D01*
X82236443Y-33653534D01*
X82287963Y-33823373D01*
X82305359Y-34000000D01*
X82287963Y-34176627D01*
X82274992Y-34219387D01*
X82236443Y-34346467D01*
X82164757Y-34480580D01*
X82152778Y-34502991D01*
X82123448Y-34538729D01*
X82040186Y-34640186D01*
X81938729Y-34723448D01*
X81902991Y-34752778D01*
X81902989Y-34752779D01*
X81746467Y-34836443D01*
X81689853Y-34853616D01*
X81576627Y-34887963D01*
X81510442Y-34894482D01*
X81444260Y-34901000D01*
X81355740Y-34901000D01*
X81289558Y-34894482D01*
X81223373Y-34887963D01*
X81110147Y-34853616D01*
X81053533Y-34836443D01*
X80897011Y-34752779D01*
X80897009Y-34752778D01*
X80861271Y-34723448D01*
X80759814Y-34640186D01*
X80676552Y-34538729D01*
X80647222Y-34502991D01*
X80635243Y-34480580D01*
X80563557Y-34346467D01*
X80525008Y-34219387D01*
X80512037Y-34176627D01*
X80494641Y-34000000D01*
X80512037Y-33823373D01*
X80563557Y-33653534D01*
X80563557Y-33653533D01*
X80647221Y-33497011D01*
X80647222Y-33497009D01*
X80676552Y-33461271D01*
X80759814Y-33359814D01*
X80861271Y-33276552D01*
X80897009Y-33247222D01*
X80914913Y-33237652D01*
X81053533Y-33163557D01*
X81110147Y-33146384D01*
X81223373Y-33112037D01*
X81289558Y-33105518D01*
X81355740Y-33099000D01*
X81444260Y-33099000D01*
X81510442Y-33105518D01*
X81510442Y-33105518D01*
G37*
G36*
X91670442Y-33105518D02*
X91736627Y-33112037D01*
X91849853Y-33146384D01*
X91906467Y-33163557D01*
X92045087Y-33237652D01*
X92062991Y-33247222D01*
X92098729Y-33276552D01*
X92200186Y-33359814D01*
X92283448Y-33461271D01*
X92312778Y-33497009D01*
X92312779Y-33497011D01*
X92396443Y-33653533D01*
X92396443Y-33653534D01*
X92447963Y-33823373D01*
X92465359Y-34000000D01*
X92447963Y-34176627D01*
X92434992Y-34219387D01*
X92396443Y-34346467D01*
X92324757Y-34480580D01*
X92312778Y-34502991D01*
X92283448Y-34538729D01*
X92200186Y-34640186D01*
X92098729Y-34723448D01*
X92062991Y-34752778D01*
X92062989Y-34752779D01*
X91906467Y-34836443D01*
X91849853Y-34853616D01*
X91736627Y-34887963D01*
X91670442Y-34894482D01*
X91604260Y-34901000D01*
X91515740Y-34901000D01*
X91449558Y-34894482D01*
X91383373Y-34887963D01*
X91270147Y-34853616D01*
X91213533Y-34836443D01*
X91057011Y-34752779D01*
X91057009Y-34752778D01*
X91021271Y-34723448D01*
X90919814Y-34640186D01*
X90836552Y-34538729D01*
X90807222Y-34502991D01*
X90795243Y-34480580D01*
X90723557Y-34346467D01*
X90685008Y-34219387D01*
X90672037Y-34176627D01*
X90654641Y-34000000D01*
X90672037Y-33823373D01*
X90723557Y-33653534D01*
X90723557Y-33653533D01*
X90807221Y-33497011D01*
X90807222Y-33497009D01*
X90836552Y-33461271D01*
X90919814Y-33359814D01*
X91021271Y-33276552D01*
X91057009Y-33247222D01*
X91074913Y-33237652D01*
X91213533Y-33163557D01*
X91270147Y-33146384D01*
X91383373Y-33112037D01*
X91449558Y-33105518D01*
X91515740Y-33099000D01*
X91604260Y-33099000D01*
X91670442Y-33105518D01*
X91670442Y-33105518D01*
G37*
G36*
X78970442Y-33105518D02*
X79036627Y-33112037D01*
X79149853Y-33146384D01*
X79206467Y-33163557D01*
X79345087Y-33237652D01*
X79362991Y-33247222D01*
X79398729Y-33276552D01*
X79500186Y-33359814D01*
X79583448Y-33461271D01*
X79612778Y-33497009D01*
X79612779Y-33497011D01*
X79696443Y-33653533D01*
X79696443Y-33653534D01*
X79747963Y-33823373D01*
X79765359Y-34000000D01*
X79747963Y-34176627D01*
X79734992Y-34219387D01*
X79696443Y-34346467D01*
X79624757Y-34480580D01*
X79612778Y-34502991D01*
X79583448Y-34538729D01*
X79500186Y-34640186D01*
X79398729Y-34723448D01*
X79362991Y-34752778D01*
X79362989Y-34752779D01*
X79206467Y-34836443D01*
X79149853Y-34853616D01*
X79036627Y-34887963D01*
X78970442Y-34894482D01*
X78904260Y-34901000D01*
X78815740Y-34901000D01*
X78749558Y-34894482D01*
X78683373Y-34887963D01*
X78570147Y-34853616D01*
X78513533Y-34836443D01*
X78357011Y-34752779D01*
X78357009Y-34752778D01*
X78321271Y-34723448D01*
X78219814Y-34640186D01*
X78136552Y-34538729D01*
X78107222Y-34502991D01*
X78095243Y-34480580D01*
X78023557Y-34346467D01*
X77985008Y-34219387D01*
X77972037Y-34176627D01*
X77954641Y-34000000D01*
X77972037Y-33823373D01*
X78023557Y-33653534D01*
X78023557Y-33653533D01*
X78107221Y-33497011D01*
X78107222Y-33497009D01*
X78136552Y-33461271D01*
X78219814Y-33359814D01*
X78321271Y-33276552D01*
X78357009Y-33247222D01*
X78374913Y-33237652D01*
X78513533Y-33163557D01*
X78570147Y-33146384D01*
X78683373Y-33112037D01*
X78749558Y-33105518D01*
X78815740Y-33099000D01*
X78904260Y-33099000D01*
X78970442Y-33105518D01*
X78970442Y-33105518D01*
G37*
G36*
X76430442Y-33105518D02*
X76496627Y-33112037D01*
X76609853Y-33146384D01*
X76666467Y-33163557D01*
X76805087Y-33237652D01*
X76822991Y-33247222D01*
X76858729Y-33276552D01*
X76960186Y-33359814D01*
X77043448Y-33461271D01*
X77072778Y-33497009D01*
X77072779Y-33497011D01*
X77156443Y-33653533D01*
X77156443Y-33653534D01*
X77207963Y-33823373D01*
X77225359Y-34000000D01*
X77207963Y-34176627D01*
X77194992Y-34219387D01*
X77156443Y-34346467D01*
X77084757Y-34480580D01*
X77072778Y-34502991D01*
X77043448Y-34538729D01*
X76960186Y-34640186D01*
X76858729Y-34723448D01*
X76822991Y-34752778D01*
X76822989Y-34752779D01*
X76666467Y-34836443D01*
X76609853Y-34853616D01*
X76496627Y-34887963D01*
X76430442Y-34894482D01*
X76364260Y-34901000D01*
X76275740Y-34901000D01*
X76209558Y-34894482D01*
X76143373Y-34887963D01*
X76030147Y-34853616D01*
X75973533Y-34836443D01*
X75817011Y-34752779D01*
X75817009Y-34752778D01*
X75781271Y-34723448D01*
X75679814Y-34640186D01*
X75596552Y-34538729D01*
X75567222Y-34502991D01*
X75555243Y-34480580D01*
X75483557Y-34346467D01*
X75445008Y-34219387D01*
X75432037Y-34176627D01*
X75414641Y-34000000D01*
X75432037Y-33823373D01*
X75483557Y-33653534D01*
X75483557Y-33653533D01*
X75567221Y-33497011D01*
X75567222Y-33497009D01*
X75596552Y-33461271D01*
X75679814Y-33359814D01*
X75781271Y-33276552D01*
X75817009Y-33247222D01*
X75834913Y-33237652D01*
X75973533Y-33163557D01*
X76030147Y-33146384D01*
X76143373Y-33112037D01*
X76209558Y-33105518D01*
X76275740Y-33099000D01*
X76364260Y-33099000D01*
X76430442Y-33105518D01*
X76430442Y-33105518D01*
G37*
G36*
X73890442Y-33105518D02*
X73956627Y-33112037D01*
X74069853Y-33146384D01*
X74126467Y-33163557D01*
X74265087Y-33237652D01*
X74282991Y-33247222D01*
X74318729Y-33276552D01*
X74420186Y-33359814D01*
X74503448Y-33461271D01*
X74532778Y-33497009D01*
X74532779Y-33497011D01*
X74616443Y-33653533D01*
X74616443Y-33653534D01*
X74667963Y-33823373D01*
X74685359Y-34000000D01*
X74667963Y-34176627D01*
X74654992Y-34219387D01*
X74616443Y-34346467D01*
X74544757Y-34480580D01*
X74532778Y-34502991D01*
X74503448Y-34538729D01*
X74420186Y-34640186D01*
X74318729Y-34723448D01*
X74282991Y-34752778D01*
X74282989Y-34752779D01*
X74126467Y-34836443D01*
X74069853Y-34853616D01*
X73956627Y-34887963D01*
X73890442Y-34894482D01*
X73824260Y-34901000D01*
X73735740Y-34901000D01*
X73669558Y-34894482D01*
X73603373Y-34887963D01*
X73490147Y-34853616D01*
X73433533Y-34836443D01*
X73277011Y-34752779D01*
X73277009Y-34752778D01*
X73241271Y-34723448D01*
X73139814Y-34640186D01*
X73056552Y-34538729D01*
X73027222Y-34502991D01*
X73015243Y-34480580D01*
X72943557Y-34346467D01*
X72905008Y-34219387D01*
X72892037Y-34176627D01*
X72874641Y-34000000D01*
X72892037Y-33823373D01*
X72943557Y-33653534D01*
X72943557Y-33653533D01*
X73027221Y-33497011D01*
X73027222Y-33497009D01*
X73056552Y-33461271D01*
X73139814Y-33359814D01*
X73241271Y-33276552D01*
X73277009Y-33247222D01*
X73294913Y-33237652D01*
X73433533Y-33163557D01*
X73490147Y-33146384D01*
X73603373Y-33112037D01*
X73669558Y-33105518D01*
X73735740Y-33099000D01*
X73824260Y-33099000D01*
X73890442Y-33105518D01*
X73890442Y-33105518D01*
G37*
G36*
X71350442Y-33105518D02*
X71416627Y-33112037D01*
X71529853Y-33146384D01*
X71586467Y-33163557D01*
X71725087Y-33237652D01*
X71742991Y-33247222D01*
X71778729Y-33276552D01*
X71880186Y-33359814D01*
X71963448Y-33461271D01*
X71992778Y-33497009D01*
X71992779Y-33497011D01*
X72076443Y-33653533D01*
X72076443Y-33653534D01*
X72127963Y-33823373D01*
X72145359Y-34000000D01*
X72127963Y-34176627D01*
X72114992Y-34219387D01*
X72076443Y-34346467D01*
X72004757Y-34480580D01*
X71992778Y-34502991D01*
X71963448Y-34538729D01*
X71880186Y-34640186D01*
X71778729Y-34723448D01*
X71742991Y-34752778D01*
X71742989Y-34752779D01*
X71586467Y-34836443D01*
X71529853Y-34853616D01*
X71416627Y-34887963D01*
X71350442Y-34894482D01*
X71284260Y-34901000D01*
X71195740Y-34901000D01*
X71129558Y-34894482D01*
X71063373Y-34887963D01*
X70950147Y-34853616D01*
X70893533Y-34836443D01*
X70737011Y-34752779D01*
X70737009Y-34752778D01*
X70701271Y-34723448D01*
X70599814Y-34640186D01*
X70516552Y-34538729D01*
X70487222Y-34502991D01*
X70475243Y-34480580D01*
X70403557Y-34346467D01*
X70365008Y-34219387D01*
X70352037Y-34176627D01*
X70334641Y-34000000D01*
X70352037Y-33823373D01*
X70403557Y-33653534D01*
X70403557Y-33653533D01*
X70487221Y-33497011D01*
X70487222Y-33497009D01*
X70516552Y-33461271D01*
X70599814Y-33359814D01*
X70701271Y-33276552D01*
X70737009Y-33247222D01*
X70754913Y-33237652D01*
X70893533Y-33163557D01*
X70950147Y-33146384D01*
X71063373Y-33112037D01*
X71129558Y-33105518D01*
X71195740Y-33099000D01*
X71284260Y-33099000D01*
X71350442Y-33105518D01*
X71350442Y-33105518D01*
G37*
G36*
X68810442Y-33105518D02*
X68876627Y-33112037D01*
X68989853Y-33146384D01*
X69046467Y-33163557D01*
X69185087Y-33237652D01*
X69202991Y-33247222D01*
X69238729Y-33276552D01*
X69340186Y-33359814D01*
X69423448Y-33461271D01*
X69452778Y-33497009D01*
X69452779Y-33497011D01*
X69536443Y-33653533D01*
X69536443Y-33653534D01*
X69587963Y-33823373D01*
X69605359Y-34000000D01*
X69587963Y-34176627D01*
X69574992Y-34219387D01*
X69536443Y-34346467D01*
X69464757Y-34480580D01*
X69452778Y-34502991D01*
X69423448Y-34538729D01*
X69340186Y-34640186D01*
X69238729Y-34723448D01*
X69202991Y-34752778D01*
X69202989Y-34752779D01*
X69046467Y-34836443D01*
X68989853Y-34853616D01*
X68876627Y-34887963D01*
X68810442Y-34894482D01*
X68744260Y-34901000D01*
X68655740Y-34901000D01*
X68589558Y-34894482D01*
X68523373Y-34887963D01*
X68410147Y-34853616D01*
X68353533Y-34836443D01*
X68197011Y-34752779D01*
X68197009Y-34752778D01*
X68161271Y-34723448D01*
X68059814Y-34640186D01*
X67976552Y-34538729D01*
X67947222Y-34502991D01*
X67935243Y-34480580D01*
X67863557Y-34346467D01*
X67825008Y-34219387D01*
X67812037Y-34176627D01*
X67794641Y-34000000D01*
X67812037Y-33823373D01*
X67863557Y-33653534D01*
X67863557Y-33653533D01*
X67947221Y-33497011D01*
X67947222Y-33497009D01*
X67976552Y-33461271D01*
X68059814Y-33359814D01*
X68161271Y-33276552D01*
X68197009Y-33247222D01*
X68214913Y-33237652D01*
X68353533Y-33163557D01*
X68410147Y-33146384D01*
X68523373Y-33112037D01*
X68589558Y-33105518D01*
X68655740Y-33099000D01*
X68744260Y-33099000D01*
X68810442Y-33105518D01*
X68810442Y-33105518D01*
G37*
G36*
X66270442Y-33105518D02*
X66336627Y-33112037D01*
X66449853Y-33146384D01*
X66506467Y-33163557D01*
X66645087Y-33237652D01*
X66662991Y-33247222D01*
X66698729Y-33276552D01*
X66800186Y-33359814D01*
X66883448Y-33461271D01*
X66912778Y-33497009D01*
X66912779Y-33497011D01*
X66996443Y-33653533D01*
X66996443Y-33653534D01*
X67047963Y-33823373D01*
X67065359Y-34000000D01*
X67047963Y-34176627D01*
X67034992Y-34219387D01*
X66996443Y-34346467D01*
X66924757Y-34480580D01*
X66912778Y-34502991D01*
X66883448Y-34538729D01*
X66800186Y-34640186D01*
X66698729Y-34723448D01*
X66662991Y-34752778D01*
X66662989Y-34752779D01*
X66506467Y-34836443D01*
X66449853Y-34853616D01*
X66336627Y-34887963D01*
X66270442Y-34894482D01*
X66204260Y-34901000D01*
X66115740Y-34901000D01*
X66049558Y-34894482D01*
X65983373Y-34887963D01*
X65870147Y-34853616D01*
X65813533Y-34836443D01*
X65657011Y-34752779D01*
X65657009Y-34752778D01*
X65621271Y-34723448D01*
X65519814Y-34640186D01*
X65436552Y-34538729D01*
X65407222Y-34502991D01*
X65395243Y-34480580D01*
X65323557Y-34346467D01*
X65285008Y-34219387D01*
X65272037Y-34176627D01*
X65254641Y-34000000D01*
X65272037Y-33823373D01*
X65323557Y-33653534D01*
X65323557Y-33653533D01*
X65407221Y-33497011D01*
X65407222Y-33497009D01*
X65436552Y-33461271D01*
X65519814Y-33359814D01*
X65621271Y-33276552D01*
X65657009Y-33247222D01*
X65674913Y-33237652D01*
X65813533Y-33163557D01*
X65870147Y-33146384D01*
X65983373Y-33112037D01*
X66049558Y-33105518D01*
X66115740Y-33099000D01*
X66204260Y-33099000D01*
X66270442Y-33105518D01*
X66270442Y-33105518D01*
G37*
G36*
X63730442Y-33105518D02*
X63796627Y-33112037D01*
X63909853Y-33146384D01*
X63966467Y-33163557D01*
X64105087Y-33237652D01*
X64122991Y-33247222D01*
X64158729Y-33276552D01*
X64260186Y-33359814D01*
X64343448Y-33461271D01*
X64372778Y-33497009D01*
X64372779Y-33497011D01*
X64456443Y-33653533D01*
X64456443Y-33653534D01*
X64507963Y-33823373D01*
X64525359Y-34000000D01*
X64507963Y-34176627D01*
X64494992Y-34219387D01*
X64456443Y-34346467D01*
X64384757Y-34480580D01*
X64372778Y-34502991D01*
X64343448Y-34538729D01*
X64260186Y-34640186D01*
X64158729Y-34723448D01*
X64122991Y-34752778D01*
X64122989Y-34752779D01*
X63966467Y-34836443D01*
X63909853Y-34853616D01*
X63796627Y-34887963D01*
X63730442Y-34894482D01*
X63664260Y-34901000D01*
X63575740Y-34901000D01*
X63509558Y-34894482D01*
X63443373Y-34887963D01*
X63330147Y-34853616D01*
X63273533Y-34836443D01*
X63117011Y-34752779D01*
X63117009Y-34752778D01*
X63081271Y-34723448D01*
X62979814Y-34640186D01*
X62896552Y-34538729D01*
X62867222Y-34502991D01*
X62855243Y-34480580D01*
X62783557Y-34346467D01*
X62745008Y-34219387D01*
X62732037Y-34176627D01*
X62714641Y-34000000D01*
X62732037Y-33823373D01*
X62783557Y-33653534D01*
X62783557Y-33653533D01*
X62867221Y-33497011D01*
X62867222Y-33497009D01*
X62896552Y-33461271D01*
X62979814Y-33359814D01*
X63081271Y-33276552D01*
X63117009Y-33247222D01*
X63134913Y-33237652D01*
X63273533Y-33163557D01*
X63330147Y-33146384D01*
X63443373Y-33112037D01*
X63509558Y-33105518D01*
X63575740Y-33099000D01*
X63664260Y-33099000D01*
X63730442Y-33105518D01*
X63730442Y-33105518D01*
G37*
G36*
X89130442Y-33105518D02*
X89196627Y-33112037D01*
X89309853Y-33146384D01*
X89366467Y-33163557D01*
X89505087Y-33237652D01*
X89522991Y-33247222D01*
X89558729Y-33276552D01*
X89660186Y-33359814D01*
X89743448Y-33461271D01*
X89772778Y-33497009D01*
X89772779Y-33497011D01*
X89856443Y-33653533D01*
X89856443Y-33653534D01*
X89907963Y-33823373D01*
X89925359Y-34000000D01*
X89907963Y-34176627D01*
X89894992Y-34219387D01*
X89856443Y-34346467D01*
X89784757Y-34480580D01*
X89772778Y-34502991D01*
X89743448Y-34538729D01*
X89660186Y-34640186D01*
X89558729Y-34723448D01*
X89522991Y-34752778D01*
X89522989Y-34752779D01*
X89366467Y-34836443D01*
X89309853Y-34853616D01*
X89196627Y-34887963D01*
X89130442Y-34894482D01*
X89064260Y-34901000D01*
X88975740Y-34901000D01*
X88909558Y-34894482D01*
X88843373Y-34887963D01*
X88730147Y-34853616D01*
X88673533Y-34836443D01*
X88517011Y-34752779D01*
X88517009Y-34752778D01*
X88481271Y-34723448D01*
X88379814Y-34640186D01*
X88296552Y-34538729D01*
X88267222Y-34502991D01*
X88255243Y-34480580D01*
X88183557Y-34346467D01*
X88145008Y-34219387D01*
X88132037Y-34176627D01*
X88114641Y-34000000D01*
X88132037Y-33823373D01*
X88183557Y-33653534D01*
X88183557Y-33653533D01*
X88267221Y-33497011D01*
X88267222Y-33497009D01*
X88296552Y-33461271D01*
X88379814Y-33359814D01*
X88481271Y-33276552D01*
X88517009Y-33247222D01*
X88534913Y-33237652D01*
X88673533Y-33163557D01*
X88730147Y-33146384D01*
X88843373Y-33112037D01*
X88909558Y-33105518D01*
X88975740Y-33099000D01*
X89064260Y-33099000D01*
X89130442Y-33105518D01*
X89130442Y-33105518D01*
G37*
G36*
X58650442Y-33105518D02*
X58716627Y-33112037D01*
X58829853Y-33146384D01*
X58886467Y-33163557D01*
X59025087Y-33237652D01*
X59042991Y-33247222D01*
X59078729Y-33276552D01*
X59180186Y-33359814D01*
X59263448Y-33461271D01*
X59292778Y-33497009D01*
X59292779Y-33497011D01*
X59376443Y-33653533D01*
X59376443Y-33653534D01*
X59427963Y-33823373D01*
X59445359Y-34000000D01*
X59427963Y-34176627D01*
X59414992Y-34219387D01*
X59376443Y-34346467D01*
X59304757Y-34480580D01*
X59292778Y-34502991D01*
X59263448Y-34538729D01*
X59180186Y-34640186D01*
X59078729Y-34723448D01*
X59042991Y-34752778D01*
X59042989Y-34752779D01*
X58886467Y-34836443D01*
X58829853Y-34853616D01*
X58716627Y-34887963D01*
X58650442Y-34894482D01*
X58584260Y-34901000D01*
X58495740Y-34901000D01*
X58429558Y-34894482D01*
X58363373Y-34887963D01*
X58250147Y-34853616D01*
X58193533Y-34836443D01*
X58037011Y-34752779D01*
X58037009Y-34752778D01*
X58001271Y-34723448D01*
X57899814Y-34640186D01*
X57816552Y-34538729D01*
X57787222Y-34502991D01*
X57775243Y-34480580D01*
X57703557Y-34346467D01*
X57665008Y-34219387D01*
X57652037Y-34176627D01*
X57634641Y-34000000D01*
X57652037Y-33823373D01*
X57703557Y-33653534D01*
X57703557Y-33653533D01*
X57787221Y-33497011D01*
X57787222Y-33497009D01*
X57816552Y-33461271D01*
X57899814Y-33359814D01*
X58001271Y-33276552D01*
X58037009Y-33247222D01*
X58054913Y-33237652D01*
X58193533Y-33163557D01*
X58250147Y-33146384D01*
X58363373Y-33112037D01*
X58429558Y-33105518D01*
X58495740Y-33099000D01*
X58584260Y-33099000D01*
X58650442Y-33105518D01*
X58650442Y-33105518D01*
G37*
G36*
X84050442Y-33105518D02*
X84116627Y-33112037D01*
X84229853Y-33146384D01*
X84286467Y-33163557D01*
X84425087Y-33237652D01*
X84442991Y-33247222D01*
X84478729Y-33276552D01*
X84580186Y-33359814D01*
X84663448Y-33461271D01*
X84692778Y-33497009D01*
X84692779Y-33497011D01*
X84776443Y-33653533D01*
X84776443Y-33653534D01*
X84827963Y-33823373D01*
X84845359Y-34000000D01*
X84827963Y-34176627D01*
X84814992Y-34219387D01*
X84776443Y-34346467D01*
X84704757Y-34480580D01*
X84692778Y-34502991D01*
X84663448Y-34538729D01*
X84580186Y-34640186D01*
X84478729Y-34723448D01*
X84442991Y-34752778D01*
X84442989Y-34752779D01*
X84286467Y-34836443D01*
X84229853Y-34853616D01*
X84116627Y-34887963D01*
X84050442Y-34894482D01*
X83984260Y-34901000D01*
X83895740Y-34901000D01*
X83829558Y-34894482D01*
X83763373Y-34887963D01*
X83650147Y-34853616D01*
X83593533Y-34836443D01*
X83437011Y-34752779D01*
X83437009Y-34752778D01*
X83401271Y-34723448D01*
X83299814Y-34640186D01*
X83216552Y-34538729D01*
X83187222Y-34502991D01*
X83175243Y-34480580D01*
X83103557Y-34346467D01*
X83065008Y-34219387D01*
X83052037Y-34176627D01*
X83034641Y-34000000D01*
X83052037Y-33823373D01*
X83103557Y-33653534D01*
X83103557Y-33653533D01*
X83187221Y-33497011D01*
X83187222Y-33497009D01*
X83216552Y-33461271D01*
X83299814Y-33359814D01*
X83401271Y-33276552D01*
X83437009Y-33247222D01*
X83454913Y-33237652D01*
X83593533Y-33163557D01*
X83650147Y-33146384D01*
X83763373Y-33112037D01*
X83829558Y-33105518D01*
X83895740Y-33099000D01*
X83984260Y-33099000D01*
X84050442Y-33105518D01*
X84050442Y-33105518D01*
G37*
G36*
X61190442Y-33105518D02*
X61256627Y-33112037D01*
X61369853Y-33146384D01*
X61426467Y-33163557D01*
X61565087Y-33237652D01*
X61582991Y-33247222D01*
X61618729Y-33276552D01*
X61720186Y-33359814D01*
X61803448Y-33461271D01*
X61832778Y-33497009D01*
X61832779Y-33497011D01*
X61916443Y-33653533D01*
X61916443Y-33653534D01*
X61967963Y-33823373D01*
X61985359Y-34000000D01*
X61967963Y-34176627D01*
X61954992Y-34219387D01*
X61916443Y-34346467D01*
X61844757Y-34480580D01*
X61832778Y-34502991D01*
X61803448Y-34538729D01*
X61720186Y-34640186D01*
X61618729Y-34723448D01*
X61582991Y-34752778D01*
X61582989Y-34752779D01*
X61426467Y-34836443D01*
X61369853Y-34853616D01*
X61256627Y-34887963D01*
X61190442Y-34894482D01*
X61124260Y-34901000D01*
X61035740Y-34901000D01*
X60969558Y-34894482D01*
X60903373Y-34887963D01*
X60790147Y-34853616D01*
X60733533Y-34836443D01*
X60577011Y-34752779D01*
X60577009Y-34752778D01*
X60541271Y-34723448D01*
X60439814Y-34640186D01*
X60356552Y-34538729D01*
X60327222Y-34502991D01*
X60315243Y-34480580D01*
X60243557Y-34346467D01*
X60205008Y-34219387D01*
X60192037Y-34176627D01*
X60174641Y-34000000D01*
X60192037Y-33823373D01*
X60243557Y-33653534D01*
X60243557Y-33653533D01*
X60327221Y-33497011D01*
X60327222Y-33497009D01*
X60356552Y-33461271D01*
X60439814Y-33359814D01*
X60541271Y-33276552D01*
X60577009Y-33247222D01*
X60594913Y-33237652D01*
X60733533Y-33163557D01*
X60790147Y-33146384D01*
X60903373Y-33112037D01*
X60969558Y-33105518D01*
X61035740Y-33099000D01*
X61124260Y-33099000D01*
X61190442Y-33105518D01*
X61190442Y-33105518D01*
G37*
G36*
X104370442Y-33105518D02*
X104436627Y-33112037D01*
X104549853Y-33146384D01*
X104606467Y-33163557D01*
X104745087Y-33237652D01*
X104762991Y-33247222D01*
X104798729Y-33276552D01*
X104900186Y-33359814D01*
X104983448Y-33461271D01*
X105012778Y-33497009D01*
X105012779Y-33497011D01*
X105096443Y-33653533D01*
X105096443Y-33653534D01*
X105147963Y-33823373D01*
X105165359Y-34000000D01*
X105147963Y-34176627D01*
X105134992Y-34219387D01*
X105096443Y-34346467D01*
X105024757Y-34480580D01*
X105012778Y-34502991D01*
X104983448Y-34538729D01*
X104900186Y-34640186D01*
X104798729Y-34723448D01*
X104762991Y-34752778D01*
X104762989Y-34752779D01*
X104606467Y-34836443D01*
X104549853Y-34853616D01*
X104436627Y-34887963D01*
X104370442Y-34894482D01*
X104304260Y-34901000D01*
X104215740Y-34901000D01*
X104149558Y-34894482D01*
X104083373Y-34887963D01*
X103970147Y-34853616D01*
X103913533Y-34836443D01*
X103757011Y-34752779D01*
X103757009Y-34752778D01*
X103721271Y-34723448D01*
X103619814Y-34640186D01*
X103536552Y-34538729D01*
X103507222Y-34502991D01*
X103495243Y-34480580D01*
X103423557Y-34346467D01*
X103385008Y-34219387D01*
X103372037Y-34176627D01*
X103354641Y-34000000D01*
X103372037Y-33823373D01*
X103423557Y-33653534D01*
X103423557Y-33653533D01*
X103507221Y-33497011D01*
X103507222Y-33497009D01*
X103536552Y-33461271D01*
X103619814Y-33359814D01*
X103721271Y-33276552D01*
X103757009Y-33247222D01*
X103774913Y-33237652D01*
X103913533Y-33163557D01*
X103970147Y-33146384D01*
X104083373Y-33112037D01*
X104149558Y-33105518D01*
X104215740Y-33099000D01*
X104304260Y-33099000D01*
X104370442Y-33105518D01*
X104370442Y-33105518D01*
G37*
G36*
X101830442Y-33105518D02*
X101896627Y-33112037D01*
X102009853Y-33146384D01*
X102066467Y-33163557D01*
X102205087Y-33237652D01*
X102222991Y-33247222D01*
X102258729Y-33276552D01*
X102360186Y-33359814D01*
X102443448Y-33461271D01*
X102472778Y-33497009D01*
X102472779Y-33497011D01*
X102556443Y-33653533D01*
X102556443Y-33653534D01*
X102607963Y-33823373D01*
X102625359Y-34000000D01*
X102607963Y-34176627D01*
X102594992Y-34219387D01*
X102556443Y-34346467D01*
X102484757Y-34480580D01*
X102472778Y-34502991D01*
X102443448Y-34538729D01*
X102360186Y-34640186D01*
X102258729Y-34723448D01*
X102222991Y-34752778D01*
X102222989Y-34752779D01*
X102066467Y-34836443D01*
X102009853Y-34853616D01*
X101896627Y-34887963D01*
X101830442Y-34894482D01*
X101764260Y-34901000D01*
X101675740Y-34901000D01*
X101609558Y-34894482D01*
X101543373Y-34887963D01*
X101430147Y-34853616D01*
X101373533Y-34836443D01*
X101217011Y-34752779D01*
X101217009Y-34752778D01*
X101181271Y-34723448D01*
X101079814Y-34640186D01*
X100996552Y-34538729D01*
X100967222Y-34502991D01*
X100955243Y-34480580D01*
X100883557Y-34346467D01*
X100845008Y-34219387D01*
X100832037Y-34176627D01*
X100814641Y-34000000D01*
X100832037Y-33823373D01*
X100883557Y-33653534D01*
X100883557Y-33653533D01*
X100967221Y-33497011D01*
X100967222Y-33497009D01*
X100996552Y-33461271D01*
X101079814Y-33359814D01*
X101181271Y-33276552D01*
X101217009Y-33247222D01*
X101234913Y-33237652D01*
X101373533Y-33163557D01*
X101430147Y-33146384D01*
X101543373Y-33112037D01*
X101609558Y-33105518D01*
X101675740Y-33099000D01*
X101764260Y-33099000D01*
X101830442Y-33105518D01*
X101830442Y-33105518D01*
G37*
G36*
X99290442Y-33105518D02*
X99356627Y-33112037D01*
X99469853Y-33146384D01*
X99526467Y-33163557D01*
X99665087Y-33237652D01*
X99682991Y-33247222D01*
X99718729Y-33276552D01*
X99820186Y-33359814D01*
X99903448Y-33461271D01*
X99932778Y-33497009D01*
X99932779Y-33497011D01*
X100016443Y-33653533D01*
X100016443Y-33653534D01*
X100067963Y-33823373D01*
X100085359Y-34000000D01*
X100067963Y-34176627D01*
X100054992Y-34219387D01*
X100016443Y-34346467D01*
X99944757Y-34480580D01*
X99932778Y-34502991D01*
X99903448Y-34538729D01*
X99820186Y-34640186D01*
X99718729Y-34723448D01*
X99682991Y-34752778D01*
X99682989Y-34752779D01*
X99526467Y-34836443D01*
X99469853Y-34853616D01*
X99356627Y-34887963D01*
X99290442Y-34894482D01*
X99224260Y-34901000D01*
X99135740Y-34901000D01*
X99069558Y-34894482D01*
X99003373Y-34887963D01*
X98890147Y-34853616D01*
X98833533Y-34836443D01*
X98677011Y-34752779D01*
X98677009Y-34752778D01*
X98641271Y-34723448D01*
X98539814Y-34640186D01*
X98456552Y-34538729D01*
X98427222Y-34502991D01*
X98415243Y-34480580D01*
X98343557Y-34346467D01*
X98305008Y-34219387D01*
X98292037Y-34176627D01*
X98274641Y-34000000D01*
X98292037Y-33823373D01*
X98343557Y-33653534D01*
X98343557Y-33653533D01*
X98427221Y-33497011D01*
X98427222Y-33497009D01*
X98456552Y-33461271D01*
X98539814Y-33359814D01*
X98641271Y-33276552D01*
X98677009Y-33247222D01*
X98694913Y-33237652D01*
X98833533Y-33163557D01*
X98890147Y-33146384D01*
X99003373Y-33112037D01*
X99069558Y-33105518D01*
X99135740Y-33099000D01*
X99224260Y-33099000D01*
X99290442Y-33105518D01*
X99290442Y-33105518D01*
G37*
G36*
X96750442Y-33105518D02*
X96816627Y-33112037D01*
X96929853Y-33146384D01*
X96986467Y-33163557D01*
X97125087Y-33237652D01*
X97142991Y-33247222D01*
X97178729Y-33276552D01*
X97280186Y-33359814D01*
X97363448Y-33461271D01*
X97392778Y-33497009D01*
X97392779Y-33497011D01*
X97476443Y-33653533D01*
X97476443Y-33653534D01*
X97527963Y-33823373D01*
X97545359Y-34000000D01*
X97527963Y-34176627D01*
X97514992Y-34219387D01*
X97476443Y-34346467D01*
X97404757Y-34480580D01*
X97392778Y-34502991D01*
X97363448Y-34538729D01*
X97280186Y-34640186D01*
X97178729Y-34723448D01*
X97142991Y-34752778D01*
X97142989Y-34752779D01*
X96986467Y-34836443D01*
X96929853Y-34853616D01*
X96816627Y-34887963D01*
X96750442Y-34894482D01*
X96684260Y-34901000D01*
X96595740Y-34901000D01*
X96529558Y-34894482D01*
X96463373Y-34887963D01*
X96350147Y-34853616D01*
X96293533Y-34836443D01*
X96137011Y-34752779D01*
X96137009Y-34752778D01*
X96101271Y-34723448D01*
X95999814Y-34640186D01*
X95916552Y-34538729D01*
X95887222Y-34502991D01*
X95875243Y-34480580D01*
X95803557Y-34346467D01*
X95765008Y-34219387D01*
X95752037Y-34176627D01*
X95734641Y-34000000D01*
X95752037Y-33823373D01*
X95803557Y-33653534D01*
X95803557Y-33653533D01*
X95887221Y-33497011D01*
X95887222Y-33497009D01*
X95916552Y-33461271D01*
X95999814Y-33359814D01*
X96101271Y-33276552D01*
X96137009Y-33247222D01*
X96154913Y-33237652D01*
X96293533Y-33163557D01*
X96350147Y-33146384D01*
X96463373Y-33112037D01*
X96529558Y-33105518D01*
X96595740Y-33099000D01*
X96684260Y-33099000D01*
X96750442Y-33105518D01*
X96750442Y-33105518D01*
G37*
G36*
X94210442Y-33105518D02*
X94276627Y-33112037D01*
X94389853Y-33146384D01*
X94446467Y-33163557D01*
X94585087Y-33237652D01*
X94602991Y-33247222D01*
X94638729Y-33276552D01*
X94740186Y-33359814D01*
X94823448Y-33461271D01*
X94852778Y-33497009D01*
X94852779Y-33497011D01*
X94936443Y-33653533D01*
X94936443Y-33653534D01*
X94987963Y-33823373D01*
X95005359Y-34000000D01*
X94987963Y-34176627D01*
X94974992Y-34219387D01*
X94936443Y-34346467D01*
X94864757Y-34480580D01*
X94852778Y-34502991D01*
X94823448Y-34538729D01*
X94740186Y-34640186D01*
X94638729Y-34723448D01*
X94602991Y-34752778D01*
X94602989Y-34752779D01*
X94446467Y-34836443D01*
X94389853Y-34853616D01*
X94276627Y-34887963D01*
X94210442Y-34894482D01*
X94144260Y-34901000D01*
X94055740Y-34901000D01*
X93989558Y-34894482D01*
X93923373Y-34887963D01*
X93810147Y-34853616D01*
X93753533Y-34836443D01*
X93597011Y-34752779D01*
X93597009Y-34752778D01*
X93561271Y-34723448D01*
X93459814Y-34640186D01*
X93376552Y-34538729D01*
X93347222Y-34502991D01*
X93335243Y-34480580D01*
X93263557Y-34346467D01*
X93225008Y-34219387D01*
X93212037Y-34176627D01*
X93194641Y-34000000D01*
X93212037Y-33823373D01*
X93263557Y-33653534D01*
X93263557Y-33653533D01*
X93347221Y-33497011D01*
X93347222Y-33497009D01*
X93376552Y-33461271D01*
X93459814Y-33359814D01*
X93561271Y-33276552D01*
X93597009Y-33247222D01*
X93614913Y-33237652D01*
X93753533Y-33163557D01*
X93810147Y-33146384D01*
X93923373Y-33112037D01*
X93989558Y-33105518D01*
X94055740Y-33099000D01*
X94144260Y-33099000D01*
X94210442Y-33105518D01*
X94210442Y-33105518D01*
G37*
G36*
X56901000Y-34901000D02*
X55099000Y-34901000D01*
X55099000Y-33099000D01*
X56901000Y-33099000D01*
X56901000Y-34901000D01*
X56901000Y-34901000D01*
G37*
G36*
X84050442Y-30565518D02*
X84116627Y-30572037D01*
X84229853Y-30606384D01*
X84286467Y-30623557D01*
X84370432Y-30668438D01*
X84442991Y-30707222D01*
X84455874Y-30717795D01*
X84580186Y-30819814D01*
X84663448Y-30921271D01*
X84692778Y-30957009D01*
X84692779Y-30957011D01*
X84776443Y-31113533D01*
X84776443Y-31113534D01*
X84827963Y-31283373D01*
X84845359Y-31460000D01*
X84827963Y-31636627D01*
X84809478Y-31697563D01*
X84776443Y-31806467D01*
X84702348Y-31945087D01*
X84692778Y-31962991D01*
X84663448Y-31998729D01*
X84580186Y-32100186D01*
X84478729Y-32183448D01*
X84442991Y-32212778D01*
X84442989Y-32212779D01*
X84286467Y-32296443D01*
X84229853Y-32313616D01*
X84116627Y-32347963D01*
X84050443Y-32354481D01*
X83984260Y-32361000D01*
X83895740Y-32361000D01*
X83829557Y-32354481D01*
X83763373Y-32347963D01*
X83650147Y-32313616D01*
X83593533Y-32296443D01*
X83437011Y-32212779D01*
X83437009Y-32212778D01*
X83401271Y-32183448D01*
X83299814Y-32100186D01*
X83216552Y-31998729D01*
X83187222Y-31962991D01*
X83177652Y-31945087D01*
X83103557Y-31806467D01*
X83070522Y-31697563D01*
X83052037Y-31636627D01*
X83034641Y-31460000D01*
X83052037Y-31283373D01*
X83103557Y-31113534D01*
X83103557Y-31113533D01*
X83187221Y-30957011D01*
X83187222Y-30957009D01*
X83216552Y-30921271D01*
X83299814Y-30819814D01*
X83424126Y-30717795D01*
X83437009Y-30707222D01*
X83509568Y-30668438D01*
X83593533Y-30623557D01*
X83650147Y-30606384D01*
X83763373Y-30572037D01*
X83829558Y-30565518D01*
X83895740Y-30559000D01*
X83984260Y-30559000D01*
X84050442Y-30565518D01*
X84050442Y-30565518D01*
G37*
G36*
X86590442Y-30565518D02*
X86656627Y-30572037D01*
X86769853Y-30606384D01*
X86826467Y-30623557D01*
X86910432Y-30668438D01*
X86982991Y-30707222D01*
X86995874Y-30717795D01*
X87120186Y-30819814D01*
X87203448Y-30921271D01*
X87232778Y-30957009D01*
X87232779Y-30957011D01*
X87316443Y-31113533D01*
X87316443Y-31113534D01*
X87367963Y-31283373D01*
X87385359Y-31460000D01*
X87367963Y-31636627D01*
X87349478Y-31697563D01*
X87316443Y-31806467D01*
X87242348Y-31945087D01*
X87232778Y-31962991D01*
X87203448Y-31998729D01*
X87120186Y-32100186D01*
X87018729Y-32183448D01*
X86982991Y-32212778D01*
X86982989Y-32212779D01*
X86826467Y-32296443D01*
X86769853Y-32313616D01*
X86656627Y-32347963D01*
X86590443Y-32354481D01*
X86524260Y-32361000D01*
X86435740Y-32361000D01*
X86369557Y-32354481D01*
X86303373Y-32347963D01*
X86190147Y-32313616D01*
X86133533Y-32296443D01*
X85977011Y-32212779D01*
X85977009Y-32212778D01*
X85941271Y-32183448D01*
X85839814Y-32100186D01*
X85756552Y-31998729D01*
X85727222Y-31962991D01*
X85717652Y-31945087D01*
X85643557Y-31806467D01*
X85610522Y-31697563D01*
X85592037Y-31636627D01*
X85574641Y-31460000D01*
X85592037Y-31283373D01*
X85643557Y-31113534D01*
X85643557Y-31113533D01*
X85727221Y-30957011D01*
X85727222Y-30957009D01*
X85756552Y-30921271D01*
X85839814Y-30819814D01*
X85964126Y-30717795D01*
X85977009Y-30707222D01*
X86049568Y-30668438D01*
X86133533Y-30623557D01*
X86190147Y-30606384D01*
X86303373Y-30572037D01*
X86369558Y-30565518D01*
X86435740Y-30559000D01*
X86524260Y-30559000D01*
X86590442Y-30565518D01*
X86590442Y-30565518D01*
G37*
G36*
X89130442Y-30565518D02*
X89196627Y-30572037D01*
X89309853Y-30606384D01*
X89366467Y-30623557D01*
X89450432Y-30668438D01*
X89522991Y-30707222D01*
X89535874Y-30717795D01*
X89660186Y-30819814D01*
X89743448Y-30921271D01*
X89772778Y-30957009D01*
X89772779Y-30957011D01*
X89856443Y-31113533D01*
X89856443Y-31113534D01*
X89907963Y-31283373D01*
X89925359Y-31460000D01*
X89907963Y-31636627D01*
X89889478Y-31697563D01*
X89856443Y-31806467D01*
X89782348Y-31945087D01*
X89772778Y-31962991D01*
X89743448Y-31998729D01*
X89660186Y-32100186D01*
X89558729Y-32183448D01*
X89522991Y-32212778D01*
X89522989Y-32212779D01*
X89366467Y-32296443D01*
X89309853Y-32313616D01*
X89196627Y-32347963D01*
X89130443Y-32354481D01*
X89064260Y-32361000D01*
X88975740Y-32361000D01*
X88909557Y-32354481D01*
X88843373Y-32347963D01*
X88730147Y-32313616D01*
X88673533Y-32296443D01*
X88517011Y-32212779D01*
X88517009Y-32212778D01*
X88481271Y-32183448D01*
X88379814Y-32100186D01*
X88296552Y-31998729D01*
X88267222Y-31962991D01*
X88257652Y-31945087D01*
X88183557Y-31806467D01*
X88150522Y-31697563D01*
X88132037Y-31636627D01*
X88114641Y-31460000D01*
X88132037Y-31283373D01*
X88183557Y-31113534D01*
X88183557Y-31113533D01*
X88267221Y-30957011D01*
X88267222Y-30957009D01*
X88296552Y-30921271D01*
X88379814Y-30819814D01*
X88504126Y-30717795D01*
X88517009Y-30707222D01*
X88589568Y-30668438D01*
X88673533Y-30623557D01*
X88730147Y-30606384D01*
X88843373Y-30572037D01*
X88909558Y-30565518D01*
X88975740Y-30559000D01*
X89064260Y-30559000D01*
X89130442Y-30565518D01*
X89130442Y-30565518D01*
G37*
G36*
X91670442Y-30565518D02*
X91736627Y-30572037D01*
X91849853Y-30606384D01*
X91906467Y-30623557D01*
X91990432Y-30668438D01*
X92062991Y-30707222D01*
X92075874Y-30717795D01*
X92200186Y-30819814D01*
X92283448Y-30921271D01*
X92312778Y-30957009D01*
X92312779Y-30957011D01*
X92396443Y-31113533D01*
X92396443Y-31113534D01*
X92447963Y-31283373D01*
X92465359Y-31460000D01*
X92447963Y-31636627D01*
X92429478Y-31697563D01*
X92396443Y-31806467D01*
X92322348Y-31945087D01*
X92312778Y-31962991D01*
X92283448Y-31998729D01*
X92200186Y-32100186D01*
X92098729Y-32183448D01*
X92062991Y-32212778D01*
X92062989Y-32212779D01*
X91906467Y-32296443D01*
X91849853Y-32313616D01*
X91736627Y-32347963D01*
X91670443Y-32354481D01*
X91604260Y-32361000D01*
X91515740Y-32361000D01*
X91449557Y-32354481D01*
X91383373Y-32347963D01*
X91270147Y-32313616D01*
X91213533Y-32296443D01*
X91057011Y-32212779D01*
X91057009Y-32212778D01*
X91021271Y-32183448D01*
X90919814Y-32100186D01*
X90836552Y-31998729D01*
X90807222Y-31962991D01*
X90797652Y-31945087D01*
X90723557Y-31806467D01*
X90690522Y-31697563D01*
X90672037Y-31636627D01*
X90654641Y-31460000D01*
X90672037Y-31283373D01*
X90723557Y-31113534D01*
X90723557Y-31113533D01*
X90807221Y-30957011D01*
X90807222Y-30957009D01*
X90836552Y-30921271D01*
X90919814Y-30819814D01*
X91044126Y-30717795D01*
X91057009Y-30707222D01*
X91129568Y-30668438D01*
X91213533Y-30623557D01*
X91270147Y-30606384D01*
X91383373Y-30572037D01*
X91449558Y-30565518D01*
X91515740Y-30559000D01*
X91604260Y-30559000D01*
X91670442Y-30565518D01*
X91670442Y-30565518D01*
G37*
G36*
X81510442Y-30565518D02*
X81576627Y-30572037D01*
X81689853Y-30606384D01*
X81746467Y-30623557D01*
X81830432Y-30668438D01*
X81902991Y-30707222D01*
X81915874Y-30717795D01*
X82040186Y-30819814D01*
X82123448Y-30921271D01*
X82152778Y-30957009D01*
X82152779Y-30957011D01*
X82236443Y-31113533D01*
X82236443Y-31113534D01*
X82287963Y-31283373D01*
X82305359Y-31460000D01*
X82287963Y-31636627D01*
X82269478Y-31697563D01*
X82236443Y-31806467D01*
X82162348Y-31945087D01*
X82152778Y-31962991D01*
X82123448Y-31998729D01*
X82040186Y-32100186D01*
X81938729Y-32183448D01*
X81902991Y-32212778D01*
X81902989Y-32212779D01*
X81746467Y-32296443D01*
X81689853Y-32313616D01*
X81576627Y-32347963D01*
X81510443Y-32354481D01*
X81444260Y-32361000D01*
X81355740Y-32361000D01*
X81289557Y-32354481D01*
X81223373Y-32347963D01*
X81110147Y-32313616D01*
X81053533Y-32296443D01*
X80897011Y-32212779D01*
X80897009Y-32212778D01*
X80861271Y-32183448D01*
X80759814Y-32100186D01*
X80676552Y-31998729D01*
X80647222Y-31962991D01*
X80637652Y-31945087D01*
X80563557Y-31806467D01*
X80530522Y-31697563D01*
X80512037Y-31636627D01*
X80494641Y-31460000D01*
X80512037Y-31283373D01*
X80563557Y-31113534D01*
X80563557Y-31113533D01*
X80647221Y-30957011D01*
X80647222Y-30957009D01*
X80676552Y-30921271D01*
X80759814Y-30819814D01*
X80884126Y-30717795D01*
X80897009Y-30707222D01*
X80969568Y-30668438D01*
X81053533Y-30623557D01*
X81110147Y-30606384D01*
X81223373Y-30572037D01*
X81289558Y-30565518D01*
X81355740Y-30559000D01*
X81444260Y-30559000D01*
X81510442Y-30565518D01*
X81510442Y-30565518D01*
G37*
G36*
X94210442Y-30565518D02*
X94276627Y-30572037D01*
X94389853Y-30606384D01*
X94446467Y-30623557D01*
X94530432Y-30668438D01*
X94602991Y-30707222D01*
X94615874Y-30717795D01*
X94740186Y-30819814D01*
X94823448Y-30921271D01*
X94852778Y-30957009D01*
X94852779Y-30957011D01*
X94936443Y-31113533D01*
X94936443Y-31113534D01*
X94987963Y-31283373D01*
X95005359Y-31460000D01*
X94987963Y-31636627D01*
X94969478Y-31697563D01*
X94936443Y-31806467D01*
X94862348Y-31945087D01*
X94852778Y-31962991D01*
X94823448Y-31998729D01*
X94740186Y-32100186D01*
X94638729Y-32183448D01*
X94602991Y-32212778D01*
X94602989Y-32212779D01*
X94446467Y-32296443D01*
X94389853Y-32313616D01*
X94276627Y-32347963D01*
X94210443Y-32354481D01*
X94144260Y-32361000D01*
X94055740Y-32361000D01*
X93989557Y-32354481D01*
X93923373Y-32347963D01*
X93810147Y-32313616D01*
X93753533Y-32296443D01*
X93597011Y-32212779D01*
X93597009Y-32212778D01*
X93561271Y-32183448D01*
X93459814Y-32100186D01*
X93376552Y-31998729D01*
X93347222Y-31962991D01*
X93337652Y-31945087D01*
X93263557Y-31806467D01*
X93230522Y-31697563D01*
X93212037Y-31636627D01*
X93194641Y-31460000D01*
X93212037Y-31283373D01*
X93263557Y-31113534D01*
X93263557Y-31113533D01*
X93347221Y-30957011D01*
X93347222Y-30957009D01*
X93376552Y-30921271D01*
X93459814Y-30819814D01*
X93584126Y-30717795D01*
X93597009Y-30707222D01*
X93669568Y-30668438D01*
X93753533Y-30623557D01*
X93810147Y-30606384D01*
X93923373Y-30572037D01*
X93989558Y-30565518D01*
X94055740Y-30559000D01*
X94144260Y-30559000D01*
X94210442Y-30565518D01*
X94210442Y-30565518D01*
G37*
G36*
X96750442Y-30565518D02*
X96816627Y-30572037D01*
X96929853Y-30606384D01*
X96986467Y-30623557D01*
X97070432Y-30668438D01*
X97142991Y-30707222D01*
X97155874Y-30717795D01*
X97280186Y-30819814D01*
X97363448Y-30921271D01*
X97392778Y-30957009D01*
X97392779Y-30957011D01*
X97476443Y-31113533D01*
X97476443Y-31113534D01*
X97527963Y-31283373D01*
X97545359Y-31460000D01*
X97527963Y-31636627D01*
X97509478Y-31697563D01*
X97476443Y-31806467D01*
X97402348Y-31945087D01*
X97392778Y-31962991D01*
X97363448Y-31998729D01*
X97280186Y-32100186D01*
X97178729Y-32183448D01*
X97142991Y-32212778D01*
X97142989Y-32212779D01*
X96986467Y-32296443D01*
X96929853Y-32313616D01*
X96816627Y-32347963D01*
X96750443Y-32354481D01*
X96684260Y-32361000D01*
X96595740Y-32361000D01*
X96529557Y-32354481D01*
X96463373Y-32347963D01*
X96350147Y-32313616D01*
X96293533Y-32296443D01*
X96137011Y-32212779D01*
X96137009Y-32212778D01*
X96101271Y-32183448D01*
X95999814Y-32100186D01*
X95916552Y-31998729D01*
X95887222Y-31962991D01*
X95877652Y-31945087D01*
X95803557Y-31806467D01*
X95770522Y-31697563D01*
X95752037Y-31636627D01*
X95734641Y-31460000D01*
X95752037Y-31283373D01*
X95803557Y-31113534D01*
X95803557Y-31113533D01*
X95887221Y-30957011D01*
X95887222Y-30957009D01*
X95916552Y-30921271D01*
X95999814Y-30819814D01*
X96124126Y-30717795D01*
X96137009Y-30707222D01*
X96209568Y-30668438D01*
X96293533Y-30623557D01*
X96350147Y-30606384D01*
X96463373Y-30572037D01*
X96529558Y-30565518D01*
X96595740Y-30559000D01*
X96684260Y-30559000D01*
X96750442Y-30565518D01*
X96750442Y-30565518D01*
G37*
G36*
X99290442Y-30565518D02*
X99356627Y-30572037D01*
X99469853Y-30606384D01*
X99526467Y-30623557D01*
X99610432Y-30668438D01*
X99682991Y-30707222D01*
X99695874Y-30717795D01*
X99820186Y-30819814D01*
X99903448Y-30921271D01*
X99932778Y-30957009D01*
X99932779Y-30957011D01*
X100016443Y-31113533D01*
X100016443Y-31113534D01*
X100067963Y-31283373D01*
X100085359Y-31460000D01*
X100067963Y-31636627D01*
X100049478Y-31697563D01*
X100016443Y-31806467D01*
X99942348Y-31945087D01*
X99932778Y-31962991D01*
X99903448Y-31998729D01*
X99820186Y-32100186D01*
X99718729Y-32183448D01*
X99682991Y-32212778D01*
X99682989Y-32212779D01*
X99526467Y-32296443D01*
X99469853Y-32313616D01*
X99356627Y-32347963D01*
X99290443Y-32354481D01*
X99224260Y-32361000D01*
X99135740Y-32361000D01*
X99069557Y-32354481D01*
X99003373Y-32347963D01*
X98890147Y-32313616D01*
X98833533Y-32296443D01*
X98677011Y-32212779D01*
X98677009Y-32212778D01*
X98641271Y-32183448D01*
X98539814Y-32100186D01*
X98456552Y-31998729D01*
X98427222Y-31962991D01*
X98417652Y-31945087D01*
X98343557Y-31806467D01*
X98310522Y-31697563D01*
X98292037Y-31636627D01*
X98274641Y-31460000D01*
X98292037Y-31283373D01*
X98343557Y-31113534D01*
X98343557Y-31113533D01*
X98427221Y-30957011D01*
X98427222Y-30957009D01*
X98456552Y-30921271D01*
X98539814Y-30819814D01*
X98664126Y-30717795D01*
X98677009Y-30707222D01*
X98749568Y-30668438D01*
X98833533Y-30623557D01*
X98890147Y-30606384D01*
X99003373Y-30572037D01*
X99069558Y-30565518D01*
X99135740Y-30559000D01*
X99224260Y-30559000D01*
X99290442Y-30565518D01*
X99290442Y-30565518D01*
G37*
G36*
X66270442Y-30565518D02*
X66336627Y-30572037D01*
X66449853Y-30606384D01*
X66506467Y-30623557D01*
X66590432Y-30668438D01*
X66662991Y-30707222D01*
X66675874Y-30717795D01*
X66800186Y-30819814D01*
X66883448Y-30921271D01*
X66912778Y-30957009D01*
X66912779Y-30957011D01*
X66996443Y-31113533D01*
X66996443Y-31113534D01*
X67047963Y-31283373D01*
X67065359Y-31460000D01*
X67047963Y-31636627D01*
X67029478Y-31697563D01*
X66996443Y-31806467D01*
X66922348Y-31945087D01*
X66912778Y-31962991D01*
X66883448Y-31998729D01*
X66800186Y-32100186D01*
X66698729Y-32183448D01*
X66662991Y-32212778D01*
X66662989Y-32212779D01*
X66506467Y-32296443D01*
X66449853Y-32313616D01*
X66336627Y-32347963D01*
X66270443Y-32354481D01*
X66204260Y-32361000D01*
X66115740Y-32361000D01*
X66049557Y-32354481D01*
X65983373Y-32347963D01*
X65870147Y-32313616D01*
X65813533Y-32296443D01*
X65657011Y-32212779D01*
X65657009Y-32212778D01*
X65621271Y-32183448D01*
X65519814Y-32100186D01*
X65436552Y-31998729D01*
X65407222Y-31962991D01*
X65397652Y-31945087D01*
X65323557Y-31806467D01*
X65290522Y-31697563D01*
X65272037Y-31636627D01*
X65254641Y-31460000D01*
X65272037Y-31283373D01*
X65323557Y-31113534D01*
X65323557Y-31113533D01*
X65407221Y-30957011D01*
X65407222Y-30957009D01*
X65436552Y-30921271D01*
X65519814Y-30819814D01*
X65644126Y-30717795D01*
X65657009Y-30707222D01*
X65729568Y-30668438D01*
X65813533Y-30623557D01*
X65870147Y-30606384D01*
X65983373Y-30572037D01*
X66049558Y-30565518D01*
X66115740Y-30559000D01*
X66204260Y-30559000D01*
X66270442Y-30565518D01*
X66270442Y-30565518D01*
G37*
G36*
X68810442Y-30565518D02*
X68876627Y-30572037D01*
X68989853Y-30606384D01*
X69046467Y-30623557D01*
X69130432Y-30668438D01*
X69202991Y-30707222D01*
X69215874Y-30717795D01*
X69340186Y-30819814D01*
X69423448Y-30921271D01*
X69452778Y-30957009D01*
X69452779Y-30957011D01*
X69536443Y-31113533D01*
X69536443Y-31113534D01*
X69587963Y-31283373D01*
X69605359Y-31460000D01*
X69587963Y-31636627D01*
X69569478Y-31697563D01*
X69536443Y-31806467D01*
X69462348Y-31945087D01*
X69452778Y-31962991D01*
X69423448Y-31998729D01*
X69340186Y-32100186D01*
X69238729Y-32183448D01*
X69202991Y-32212778D01*
X69202989Y-32212779D01*
X69046467Y-32296443D01*
X68989853Y-32313616D01*
X68876627Y-32347963D01*
X68810443Y-32354481D01*
X68744260Y-32361000D01*
X68655740Y-32361000D01*
X68589557Y-32354481D01*
X68523373Y-32347963D01*
X68410147Y-32313616D01*
X68353533Y-32296443D01*
X68197011Y-32212779D01*
X68197009Y-32212778D01*
X68161271Y-32183448D01*
X68059814Y-32100186D01*
X67976552Y-31998729D01*
X67947222Y-31962991D01*
X67937652Y-31945087D01*
X67863557Y-31806467D01*
X67830522Y-31697563D01*
X67812037Y-31636627D01*
X67794641Y-31460000D01*
X67812037Y-31283373D01*
X67863557Y-31113534D01*
X67863557Y-31113533D01*
X67947221Y-30957011D01*
X67947222Y-30957009D01*
X67976552Y-30921271D01*
X68059814Y-30819814D01*
X68184126Y-30717795D01*
X68197009Y-30707222D01*
X68269568Y-30668438D01*
X68353533Y-30623557D01*
X68410147Y-30606384D01*
X68523373Y-30572037D01*
X68589558Y-30565518D01*
X68655740Y-30559000D01*
X68744260Y-30559000D01*
X68810442Y-30565518D01*
X68810442Y-30565518D01*
G37*
G36*
X63730442Y-30565518D02*
X63796627Y-30572037D01*
X63909853Y-30606384D01*
X63966467Y-30623557D01*
X64050432Y-30668438D01*
X64122991Y-30707222D01*
X64135874Y-30717795D01*
X64260186Y-30819814D01*
X64343448Y-30921271D01*
X64372778Y-30957009D01*
X64372779Y-30957011D01*
X64456443Y-31113533D01*
X64456443Y-31113534D01*
X64507963Y-31283373D01*
X64525359Y-31460000D01*
X64507963Y-31636627D01*
X64489478Y-31697563D01*
X64456443Y-31806467D01*
X64382348Y-31945087D01*
X64372778Y-31962991D01*
X64343448Y-31998729D01*
X64260186Y-32100186D01*
X64158729Y-32183448D01*
X64122991Y-32212778D01*
X64122989Y-32212779D01*
X63966467Y-32296443D01*
X63909853Y-32313616D01*
X63796627Y-32347963D01*
X63730443Y-32354481D01*
X63664260Y-32361000D01*
X63575740Y-32361000D01*
X63509557Y-32354481D01*
X63443373Y-32347963D01*
X63330147Y-32313616D01*
X63273533Y-32296443D01*
X63117011Y-32212779D01*
X63117009Y-32212778D01*
X63081271Y-32183448D01*
X62979814Y-32100186D01*
X62896552Y-31998729D01*
X62867222Y-31962991D01*
X62857652Y-31945087D01*
X62783557Y-31806467D01*
X62750522Y-31697563D01*
X62732037Y-31636627D01*
X62714641Y-31460000D01*
X62732037Y-31283373D01*
X62783557Y-31113534D01*
X62783557Y-31113533D01*
X62867221Y-30957011D01*
X62867222Y-30957009D01*
X62896552Y-30921271D01*
X62979814Y-30819814D01*
X63104126Y-30717795D01*
X63117009Y-30707222D01*
X63189568Y-30668438D01*
X63273533Y-30623557D01*
X63330147Y-30606384D01*
X63443373Y-30572037D01*
X63509558Y-30565518D01*
X63575740Y-30559000D01*
X63664260Y-30559000D01*
X63730442Y-30565518D01*
X63730442Y-30565518D01*
G37*
G36*
X61190442Y-30565518D02*
X61256627Y-30572037D01*
X61369853Y-30606384D01*
X61426467Y-30623557D01*
X61510432Y-30668438D01*
X61582991Y-30707222D01*
X61595874Y-30717795D01*
X61720186Y-30819814D01*
X61803448Y-30921271D01*
X61832778Y-30957009D01*
X61832779Y-30957011D01*
X61916443Y-31113533D01*
X61916443Y-31113534D01*
X61967963Y-31283373D01*
X61985359Y-31460000D01*
X61967963Y-31636627D01*
X61949478Y-31697563D01*
X61916443Y-31806467D01*
X61842348Y-31945087D01*
X61832778Y-31962991D01*
X61803448Y-31998729D01*
X61720186Y-32100186D01*
X61618729Y-32183448D01*
X61582991Y-32212778D01*
X61582989Y-32212779D01*
X61426467Y-32296443D01*
X61369853Y-32313616D01*
X61256627Y-32347963D01*
X61190443Y-32354481D01*
X61124260Y-32361000D01*
X61035740Y-32361000D01*
X60969557Y-32354481D01*
X60903373Y-32347963D01*
X60790147Y-32313616D01*
X60733533Y-32296443D01*
X60577011Y-32212779D01*
X60577009Y-32212778D01*
X60541271Y-32183448D01*
X60439814Y-32100186D01*
X60356552Y-31998729D01*
X60327222Y-31962991D01*
X60317652Y-31945087D01*
X60243557Y-31806467D01*
X60210522Y-31697563D01*
X60192037Y-31636627D01*
X60174641Y-31460000D01*
X60192037Y-31283373D01*
X60243557Y-31113534D01*
X60243557Y-31113533D01*
X60327221Y-30957011D01*
X60327222Y-30957009D01*
X60356552Y-30921271D01*
X60439814Y-30819814D01*
X60564126Y-30717795D01*
X60577009Y-30707222D01*
X60649568Y-30668438D01*
X60733533Y-30623557D01*
X60790147Y-30606384D01*
X60903373Y-30572037D01*
X60969558Y-30565518D01*
X61035740Y-30559000D01*
X61124260Y-30559000D01*
X61190442Y-30565518D01*
X61190442Y-30565518D01*
G37*
G36*
X101830442Y-30565518D02*
X101896627Y-30572037D01*
X102009853Y-30606384D01*
X102066467Y-30623557D01*
X102150432Y-30668438D01*
X102222991Y-30707222D01*
X102235874Y-30717795D01*
X102360186Y-30819814D01*
X102443448Y-30921271D01*
X102472778Y-30957009D01*
X102472779Y-30957011D01*
X102556443Y-31113533D01*
X102556443Y-31113534D01*
X102607963Y-31283373D01*
X102625359Y-31460000D01*
X102607963Y-31636627D01*
X102589478Y-31697563D01*
X102556443Y-31806467D01*
X102482348Y-31945087D01*
X102472778Y-31962991D01*
X102443448Y-31998729D01*
X102360186Y-32100186D01*
X102258729Y-32183448D01*
X102222991Y-32212778D01*
X102222989Y-32212779D01*
X102066467Y-32296443D01*
X102009853Y-32313616D01*
X101896627Y-32347963D01*
X101830443Y-32354481D01*
X101764260Y-32361000D01*
X101675740Y-32361000D01*
X101609557Y-32354481D01*
X101543373Y-32347963D01*
X101430147Y-32313616D01*
X101373533Y-32296443D01*
X101217011Y-32212779D01*
X101217009Y-32212778D01*
X101181271Y-32183448D01*
X101079814Y-32100186D01*
X100996552Y-31998729D01*
X100967222Y-31962991D01*
X100957652Y-31945087D01*
X100883557Y-31806467D01*
X100850522Y-31697563D01*
X100832037Y-31636627D01*
X100814641Y-31460000D01*
X100832037Y-31283373D01*
X100883557Y-31113534D01*
X100883557Y-31113533D01*
X100967221Y-30957011D01*
X100967222Y-30957009D01*
X100996552Y-30921271D01*
X101079814Y-30819814D01*
X101204126Y-30717795D01*
X101217009Y-30707222D01*
X101289568Y-30668438D01*
X101373533Y-30623557D01*
X101430147Y-30606384D01*
X101543373Y-30572037D01*
X101609558Y-30565518D01*
X101675740Y-30559000D01*
X101764260Y-30559000D01*
X101830442Y-30565518D01*
X101830442Y-30565518D01*
G37*
G36*
X104370442Y-30565518D02*
X104436627Y-30572037D01*
X104549853Y-30606384D01*
X104606467Y-30623557D01*
X104690432Y-30668438D01*
X104762991Y-30707222D01*
X104775874Y-30717795D01*
X104900186Y-30819814D01*
X104983448Y-30921271D01*
X105012778Y-30957009D01*
X105012779Y-30957011D01*
X105096443Y-31113533D01*
X105096443Y-31113534D01*
X105147963Y-31283373D01*
X105165359Y-31460000D01*
X105147963Y-31636627D01*
X105129478Y-31697563D01*
X105096443Y-31806467D01*
X105022348Y-31945087D01*
X105012778Y-31962991D01*
X104983448Y-31998729D01*
X104900186Y-32100186D01*
X104798729Y-32183448D01*
X104762991Y-32212778D01*
X104762989Y-32212779D01*
X104606467Y-32296443D01*
X104549853Y-32313616D01*
X104436627Y-32347963D01*
X104370443Y-32354481D01*
X104304260Y-32361000D01*
X104215740Y-32361000D01*
X104149557Y-32354481D01*
X104083373Y-32347963D01*
X103970147Y-32313616D01*
X103913533Y-32296443D01*
X103757011Y-32212779D01*
X103757009Y-32212778D01*
X103721271Y-32183448D01*
X103619814Y-32100186D01*
X103536552Y-31998729D01*
X103507222Y-31962991D01*
X103497652Y-31945087D01*
X103423557Y-31806467D01*
X103390522Y-31697563D01*
X103372037Y-31636627D01*
X103354641Y-31460000D01*
X103372037Y-31283373D01*
X103423557Y-31113534D01*
X103423557Y-31113533D01*
X103507221Y-30957011D01*
X103507222Y-30957009D01*
X103536552Y-30921271D01*
X103619814Y-30819814D01*
X103744126Y-30717795D01*
X103757009Y-30707222D01*
X103829568Y-30668438D01*
X103913533Y-30623557D01*
X103970147Y-30606384D01*
X104083373Y-30572037D01*
X104149558Y-30565518D01*
X104215740Y-30559000D01*
X104304260Y-30559000D01*
X104370442Y-30565518D01*
X104370442Y-30565518D01*
G37*
G36*
X71350442Y-30565518D02*
X71416627Y-30572037D01*
X71529853Y-30606384D01*
X71586467Y-30623557D01*
X71670432Y-30668438D01*
X71742991Y-30707222D01*
X71755874Y-30717795D01*
X71880186Y-30819814D01*
X71963448Y-30921271D01*
X71992778Y-30957009D01*
X71992779Y-30957011D01*
X72076443Y-31113533D01*
X72076443Y-31113534D01*
X72127963Y-31283373D01*
X72145359Y-31460000D01*
X72127963Y-31636627D01*
X72109478Y-31697563D01*
X72076443Y-31806467D01*
X72002348Y-31945087D01*
X71992778Y-31962991D01*
X71963448Y-31998729D01*
X71880186Y-32100186D01*
X71778729Y-32183448D01*
X71742991Y-32212778D01*
X71742989Y-32212779D01*
X71586467Y-32296443D01*
X71529853Y-32313616D01*
X71416627Y-32347963D01*
X71350443Y-32354481D01*
X71284260Y-32361000D01*
X71195740Y-32361000D01*
X71129557Y-32354481D01*
X71063373Y-32347963D01*
X70950147Y-32313616D01*
X70893533Y-32296443D01*
X70737011Y-32212779D01*
X70737009Y-32212778D01*
X70701271Y-32183448D01*
X70599814Y-32100186D01*
X70516552Y-31998729D01*
X70487222Y-31962991D01*
X70477652Y-31945087D01*
X70403557Y-31806467D01*
X70370522Y-31697563D01*
X70352037Y-31636627D01*
X70334641Y-31460000D01*
X70352037Y-31283373D01*
X70403557Y-31113534D01*
X70403557Y-31113533D01*
X70487221Y-30957011D01*
X70487222Y-30957009D01*
X70516552Y-30921271D01*
X70599814Y-30819814D01*
X70724126Y-30717795D01*
X70737009Y-30707222D01*
X70809568Y-30668438D01*
X70893533Y-30623557D01*
X70950147Y-30606384D01*
X71063373Y-30572037D01*
X71129558Y-30565518D01*
X71195740Y-30559000D01*
X71284260Y-30559000D01*
X71350442Y-30565518D01*
X71350442Y-30565518D01*
G37*
G36*
X73890442Y-30565518D02*
X73956627Y-30572037D01*
X74069853Y-30606384D01*
X74126467Y-30623557D01*
X74210432Y-30668438D01*
X74282991Y-30707222D01*
X74295874Y-30717795D01*
X74420186Y-30819814D01*
X74503448Y-30921271D01*
X74532778Y-30957009D01*
X74532779Y-30957011D01*
X74616443Y-31113533D01*
X74616443Y-31113534D01*
X74667963Y-31283373D01*
X74685359Y-31460000D01*
X74667963Y-31636627D01*
X74649478Y-31697563D01*
X74616443Y-31806467D01*
X74542348Y-31945087D01*
X74532778Y-31962991D01*
X74503448Y-31998729D01*
X74420186Y-32100186D01*
X74318729Y-32183448D01*
X74282991Y-32212778D01*
X74282989Y-32212779D01*
X74126467Y-32296443D01*
X74069853Y-32313616D01*
X73956627Y-32347963D01*
X73890443Y-32354481D01*
X73824260Y-32361000D01*
X73735740Y-32361000D01*
X73669557Y-32354481D01*
X73603373Y-32347963D01*
X73490147Y-32313616D01*
X73433533Y-32296443D01*
X73277011Y-32212779D01*
X73277009Y-32212778D01*
X73241271Y-32183448D01*
X73139814Y-32100186D01*
X73056552Y-31998729D01*
X73027222Y-31962991D01*
X73017652Y-31945087D01*
X72943557Y-31806467D01*
X72910522Y-31697563D01*
X72892037Y-31636627D01*
X72874641Y-31460000D01*
X72892037Y-31283373D01*
X72943557Y-31113534D01*
X72943557Y-31113533D01*
X73027221Y-30957011D01*
X73027222Y-30957009D01*
X73056552Y-30921271D01*
X73139814Y-30819814D01*
X73264126Y-30717795D01*
X73277009Y-30707222D01*
X73349568Y-30668438D01*
X73433533Y-30623557D01*
X73490147Y-30606384D01*
X73603373Y-30572037D01*
X73669558Y-30565518D01*
X73735740Y-30559000D01*
X73824260Y-30559000D01*
X73890442Y-30565518D01*
X73890442Y-30565518D01*
G37*
G36*
X76430442Y-30565518D02*
X76496627Y-30572037D01*
X76609853Y-30606384D01*
X76666467Y-30623557D01*
X76750432Y-30668438D01*
X76822991Y-30707222D01*
X76835874Y-30717795D01*
X76960186Y-30819814D01*
X77043448Y-30921271D01*
X77072778Y-30957009D01*
X77072779Y-30957011D01*
X77156443Y-31113533D01*
X77156443Y-31113534D01*
X77207963Y-31283373D01*
X77225359Y-31460000D01*
X77207963Y-31636627D01*
X77189478Y-31697563D01*
X77156443Y-31806467D01*
X77082348Y-31945087D01*
X77072778Y-31962991D01*
X77043448Y-31998729D01*
X76960186Y-32100186D01*
X76858729Y-32183448D01*
X76822991Y-32212778D01*
X76822989Y-32212779D01*
X76666467Y-32296443D01*
X76609853Y-32313616D01*
X76496627Y-32347963D01*
X76430443Y-32354481D01*
X76364260Y-32361000D01*
X76275740Y-32361000D01*
X76209557Y-32354481D01*
X76143373Y-32347963D01*
X76030147Y-32313616D01*
X75973533Y-32296443D01*
X75817011Y-32212779D01*
X75817009Y-32212778D01*
X75781271Y-32183448D01*
X75679814Y-32100186D01*
X75596552Y-31998729D01*
X75567222Y-31962991D01*
X75557652Y-31945087D01*
X75483557Y-31806467D01*
X75450522Y-31697563D01*
X75432037Y-31636627D01*
X75414641Y-31460000D01*
X75432037Y-31283373D01*
X75483557Y-31113534D01*
X75483557Y-31113533D01*
X75567221Y-30957011D01*
X75567222Y-30957009D01*
X75596552Y-30921271D01*
X75679814Y-30819814D01*
X75804126Y-30717795D01*
X75817009Y-30707222D01*
X75889568Y-30668438D01*
X75973533Y-30623557D01*
X76030147Y-30606384D01*
X76143373Y-30572037D01*
X76209558Y-30565518D01*
X76275740Y-30559000D01*
X76364260Y-30559000D01*
X76430442Y-30565518D01*
X76430442Y-30565518D01*
G37*
G36*
X58650442Y-30565518D02*
X58716627Y-30572037D01*
X58829853Y-30606384D01*
X58886467Y-30623557D01*
X58970432Y-30668438D01*
X59042991Y-30707222D01*
X59055874Y-30717795D01*
X59180186Y-30819814D01*
X59263448Y-30921271D01*
X59292778Y-30957009D01*
X59292779Y-30957011D01*
X59376443Y-31113533D01*
X59376443Y-31113534D01*
X59427963Y-31283373D01*
X59445359Y-31460000D01*
X59427963Y-31636627D01*
X59409478Y-31697563D01*
X59376443Y-31806467D01*
X59302348Y-31945087D01*
X59292778Y-31962991D01*
X59263448Y-31998729D01*
X59180186Y-32100186D01*
X59078729Y-32183448D01*
X59042991Y-32212778D01*
X59042989Y-32212779D01*
X58886467Y-32296443D01*
X58829853Y-32313616D01*
X58716627Y-32347963D01*
X58650443Y-32354481D01*
X58584260Y-32361000D01*
X58495740Y-32361000D01*
X58429557Y-32354481D01*
X58363373Y-32347963D01*
X58250147Y-32313616D01*
X58193533Y-32296443D01*
X58037011Y-32212779D01*
X58037009Y-32212778D01*
X58001271Y-32183448D01*
X57899814Y-32100186D01*
X57816552Y-31998729D01*
X57787222Y-31962991D01*
X57777652Y-31945087D01*
X57703557Y-31806467D01*
X57670522Y-31697563D01*
X57652037Y-31636627D01*
X57634641Y-31460000D01*
X57652037Y-31283373D01*
X57703557Y-31113534D01*
X57703557Y-31113533D01*
X57787221Y-30957011D01*
X57787222Y-30957009D01*
X57816552Y-30921271D01*
X57899814Y-30819814D01*
X58024126Y-30717795D01*
X58037009Y-30707222D01*
X58109568Y-30668438D01*
X58193533Y-30623557D01*
X58250147Y-30606384D01*
X58363373Y-30572037D01*
X58429558Y-30565518D01*
X58495740Y-30559000D01*
X58584260Y-30559000D01*
X58650442Y-30565518D01*
X58650442Y-30565518D01*
G37*
G36*
X78970442Y-30565518D02*
X79036627Y-30572037D01*
X79149853Y-30606384D01*
X79206467Y-30623557D01*
X79290432Y-30668438D01*
X79362991Y-30707222D01*
X79375874Y-30717795D01*
X79500186Y-30819814D01*
X79583448Y-30921271D01*
X79612778Y-30957009D01*
X79612779Y-30957011D01*
X79696443Y-31113533D01*
X79696443Y-31113534D01*
X79747963Y-31283373D01*
X79765359Y-31460000D01*
X79747963Y-31636627D01*
X79729478Y-31697563D01*
X79696443Y-31806467D01*
X79622348Y-31945087D01*
X79612778Y-31962991D01*
X79583448Y-31998729D01*
X79500186Y-32100186D01*
X79398729Y-32183448D01*
X79362991Y-32212778D01*
X79362989Y-32212779D01*
X79206467Y-32296443D01*
X79149853Y-32313616D01*
X79036627Y-32347963D01*
X78970443Y-32354481D01*
X78904260Y-32361000D01*
X78815740Y-32361000D01*
X78749557Y-32354481D01*
X78683373Y-32347963D01*
X78570147Y-32313616D01*
X78513533Y-32296443D01*
X78357011Y-32212779D01*
X78357009Y-32212778D01*
X78321271Y-32183448D01*
X78219814Y-32100186D01*
X78136552Y-31998729D01*
X78107222Y-31962991D01*
X78097652Y-31945087D01*
X78023557Y-31806467D01*
X77990522Y-31697563D01*
X77972037Y-31636627D01*
X77954641Y-31460000D01*
X77972037Y-31283373D01*
X78023557Y-31113534D01*
X78023557Y-31113533D01*
X78107221Y-30957011D01*
X78107222Y-30957009D01*
X78136552Y-30921271D01*
X78219814Y-30819814D01*
X78344126Y-30717795D01*
X78357009Y-30707222D01*
X78429568Y-30668438D01*
X78513533Y-30623557D01*
X78570147Y-30606384D01*
X78683373Y-30572037D01*
X78749558Y-30565518D01*
X78815740Y-30559000D01*
X78904260Y-30559000D01*
X78970442Y-30565518D01*
X78970442Y-30565518D01*
G37*
G36*
X56110442Y-30565518D02*
X56176627Y-30572037D01*
X56289853Y-30606384D01*
X56346467Y-30623557D01*
X56430432Y-30668438D01*
X56502991Y-30707222D01*
X56515874Y-30717795D01*
X56640186Y-30819814D01*
X56723448Y-30921271D01*
X56752778Y-30957009D01*
X56752779Y-30957011D01*
X56836443Y-31113533D01*
X56836443Y-31113534D01*
X56887963Y-31283373D01*
X56905359Y-31460000D01*
X56887963Y-31636627D01*
X56869478Y-31697563D01*
X56836443Y-31806467D01*
X56762348Y-31945087D01*
X56752778Y-31962991D01*
X56723448Y-31998729D01*
X56640186Y-32100186D01*
X56538729Y-32183448D01*
X56502991Y-32212778D01*
X56502989Y-32212779D01*
X56346467Y-32296443D01*
X56289853Y-32313616D01*
X56176627Y-32347963D01*
X56110443Y-32354481D01*
X56044260Y-32361000D01*
X55955740Y-32361000D01*
X55889557Y-32354481D01*
X55823373Y-32347963D01*
X55710147Y-32313616D01*
X55653533Y-32296443D01*
X55497011Y-32212779D01*
X55497009Y-32212778D01*
X55461271Y-32183448D01*
X55359814Y-32100186D01*
X55276552Y-31998729D01*
X55247222Y-31962991D01*
X55237652Y-31945087D01*
X55163557Y-31806467D01*
X55130522Y-31697563D01*
X55112037Y-31636627D01*
X55094641Y-31460000D01*
X55112037Y-31283373D01*
X55163557Y-31113534D01*
X55163557Y-31113533D01*
X55247221Y-30957011D01*
X55247222Y-30957009D01*
X55276552Y-30921271D01*
X55359814Y-30819814D01*
X55484126Y-30717795D01*
X55497009Y-30707222D01*
X55569568Y-30668438D01*
X55653533Y-30623557D01*
X55710147Y-30606384D01*
X55823373Y-30572037D01*
X55889558Y-30565518D01*
X55955740Y-30559000D01*
X56044260Y-30559000D01*
X56110442Y-30565518D01*
X56110442Y-30565518D01*
G37*
M02*
