G04 #@! TF.GenerationSoftware,KiCad,Pcbnew,(5.0.2)-1*
G04 #@! TF.CreationDate,2019-06-23T01:10:28-04:00*
G04 #@! TF.ProjectId,RPi-Ham,5250692d-4861-46d2-9e6b-696361645f70,rev?*
G04 #@! TF.SameCoordinates,Original*
G04 #@! TF.FileFunction,Copper,L1,Top*
G04 #@! TF.FilePolarity,Positive*
%FSLAX46Y46*%
G04 Gerber Fmt 4.6, Leading zero omitted, Abs format (unit mm)*
G04 Created by KiCad (PCBNEW (5.0.2)-1) date 2019-06-23 01:10:28*
%MOMM*%
%LPD*%
G01*
G04 APERTURE LIST*
G04 #@! TA.AperFunction,ComponentPad*
%ADD10C,5.400000*%
G04 #@! TD*
G04 #@! TA.AperFunction,ComponentPad*
%ADD11C,0.800000*%
G04 #@! TD*
G04 #@! TA.AperFunction,ComponentPad*
%ADD12C,1.500000*%
G04 #@! TD*
G04 #@! TA.AperFunction,ComponentPad*
%ADD13R,1.500000X1.500000*%
G04 #@! TD*
G04 #@! TA.AperFunction,Conductor*
%ADD14C,0.100000*%
G04 #@! TD*
G04 #@! TA.AperFunction,SMDPad,CuDef*
%ADD15C,1.150000*%
G04 #@! TD*
G04 #@! TA.AperFunction,SMDPad,CuDef*
%ADD16C,1.600000*%
G04 #@! TD*
G04 #@! TA.AperFunction,ComponentPad*
%ADD17O,1.700000X1.700000*%
G04 #@! TD*
G04 #@! TA.AperFunction,ComponentPad*
%ADD18R,1.700000X1.700000*%
G04 #@! TD*
G04 #@! TA.AperFunction,SMDPad,CuDef*
%ADD19R,0.400000X1.100000*%
G04 #@! TD*
G04 #@! TA.AperFunction,SMDPad,CuDef*
%ADD20R,1.500000X0.600000*%
G04 #@! TD*
G04 #@! TA.AperFunction,SMDPad,CuDef*
%ADD21R,2.100000X2.700000*%
G04 #@! TD*
G04 #@! TA.AperFunction,ComponentPad*
%ADD22R,1.400000X1.400000*%
G04 #@! TD*
G04 #@! TA.AperFunction,ComponentPad*
%ADD23C,1.400000*%
G04 #@! TD*
G04 #@! TA.AperFunction,ViaPad*
%ADD24C,0.800000*%
G04 #@! TD*
G04 #@! TA.AperFunction,Conductor*
%ADD25C,0.250000*%
G04 #@! TD*
G04 APERTURE END LIST*
D10*
G04 #@! TO.P,J13,1*
G04 #@! TO.N,N/C*
X51000000Y-55500000D03*
D11*
X53025000Y-55500000D03*
X52431891Y-56931891D03*
X51000000Y-57525000D03*
X49568109Y-56931891D03*
X48975000Y-55500000D03*
X49568109Y-54068109D03*
X51000000Y-53475000D03*
X52431891Y-54068109D03*
G04 #@! TD*
D12*
G04 #@! TO.P,J2,8*
G04 #@! TO.N,Net-(J2-Pad8)*
X83390000Y-73460000D03*
G04 #@! TO.P,J2,7*
G04 #@! TO.N,Net-(J2-Pad7)*
X82120000Y-76000000D03*
G04 #@! TO.P,J2,6*
G04 #@! TO.N,Net-(J1-Pad3)*
X80850000Y-73460000D03*
G04 #@! TO.P,J2,5*
G04 #@! TO.N,GND*
X79580000Y-76000000D03*
G04 #@! TO.P,J2,4*
X78310000Y-73460000D03*
G04 #@! TO.P,J2,3*
G04 #@! TO.N,Net-(J1-Pad4)*
X77040000Y-76000000D03*
G04 #@! TO.P,J2,2*
G04 #@! TO.N,Net-(J2-Pad2)*
X75770000Y-73460000D03*
D13*
G04 #@! TO.P,J2,1*
G04 #@! TO.N,Net-(J2-Pad1)*
X74500000Y-76000000D03*
G04 #@! TD*
G04 #@! TO.P,J4,1*
G04 #@! TO.N,Net-(J4-Pad1)*
X90750000Y-76000000D03*
D12*
G04 #@! TO.P,J4,2*
G04 #@! TO.N,Net-(J4-Pad2)*
X92020000Y-73460000D03*
G04 #@! TO.P,J4,3*
G04 #@! TO.N,Net-(J3-Pad4)*
X93290000Y-76000000D03*
G04 #@! TO.P,J4,4*
G04 #@! TO.N,GND*
X94560000Y-73460000D03*
G04 #@! TO.P,J4,5*
X95830000Y-76000000D03*
G04 #@! TO.P,J4,6*
G04 #@! TO.N,Net-(J3-Pad3)*
X97100000Y-73460000D03*
G04 #@! TO.P,J4,7*
G04 #@! TO.N,Net-(J4-Pad7)*
X98370000Y-76000000D03*
G04 #@! TO.P,J4,8*
G04 #@! TO.N,Net-(J4-Pad8)*
X99640000Y-73460000D03*
G04 #@! TD*
D10*
G04 #@! TO.P,J12,1*
G04 #@! TO.N,N/C*
X109000000Y-32500000D03*
D11*
X111025000Y-32500000D03*
X110431891Y-33931891D03*
X109000000Y-34525000D03*
X107568109Y-33931891D03*
X106975000Y-32500000D03*
X107568109Y-31068109D03*
X109000000Y-30475000D03*
X110431891Y-31068109D03*
G04 #@! TD*
G04 #@! TO.P,J15,1*
G04 #@! TO.N,N/C*
X52431891Y-31068109D03*
X51000000Y-30475000D03*
X49568109Y-31068109D03*
X48975000Y-32500000D03*
X49568109Y-33931891D03*
X51000000Y-34525000D03*
X52431891Y-33931891D03*
X53025000Y-32500000D03*
D10*
X51000000Y-32500000D03*
G04 #@! TD*
D11*
G04 #@! TO.P,J10,1*
G04 #@! TO.N,N/C*
X110431891Y-80068109D03*
X109000000Y-79475000D03*
X107568109Y-80068109D03*
X106975000Y-81500000D03*
X107568109Y-82931891D03*
X109000000Y-83525000D03*
X110431891Y-82931891D03*
X111025000Y-81500000D03*
D10*
X109000000Y-81500000D03*
G04 #@! TD*
D11*
G04 #@! TO.P,J11,1*
G04 #@! TO.N,N/C*
X52431891Y-80068109D03*
X51000000Y-79475000D03*
X49568109Y-80068109D03*
X48975000Y-81500000D03*
X49568109Y-82931891D03*
X51000000Y-83525000D03*
X52431891Y-82931891D03*
X53025000Y-81500000D03*
D10*
X51000000Y-81500000D03*
G04 #@! TD*
D14*
G04 #@! TO.N,INL*
G04 #@! TO.C,C1*
G36*
X85474505Y-54476204D02*
X85498773Y-54479804D01*
X85522572Y-54485765D01*
X85545671Y-54494030D01*
X85567850Y-54504520D01*
X85588893Y-54517132D01*
X85608599Y-54531747D01*
X85626777Y-54548223D01*
X85643253Y-54566401D01*
X85657868Y-54586107D01*
X85670480Y-54607150D01*
X85680970Y-54629329D01*
X85689235Y-54652428D01*
X85695196Y-54676227D01*
X85698796Y-54700495D01*
X85700000Y-54724999D01*
X85700000Y-55375001D01*
X85698796Y-55399505D01*
X85695196Y-55423773D01*
X85689235Y-55447572D01*
X85680970Y-55470671D01*
X85670480Y-55492850D01*
X85657868Y-55513893D01*
X85643253Y-55533599D01*
X85626777Y-55551777D01*
X85608599Y-55568253D01*
X85588893Y-55582868D01*
X85567850Y-55595480D01*
X85545671Y-55605970D01*
X85522572Y-55614235D01*
X85498773Y-55620196D01*
X85474505Y-55623796D01*
X85450001Y-55625000D01*
X84549999Y-55625000D01*
X84525495Y-55623796D01*
X84501227Y-55620196D01*
X84477428Y-55614235D01*
X84454329Y-55605970D01*
X84432150Y-55595480D01*
X84411107Y-55582868D01*
X84391401Y-55568253D01*
X84373223Y-55551777D01*
X84356747Y-55533599D01*
X84342132Y-55513893D01*
X84329520Y-55492850D01*
X84319030Y-55470671D01*
X84310765Y-55447572D01*
X84304804Y-55423773D01*
X84301204Y-55399505D01*
X84300000Y-55375001D01*
X84300000Y-54724999D01*
X84301204Y-54700495D01*
X84304804Y-54676227D01*
X84310765Y-54652428D01*
X84319030Y-54629329D01*
X84329520Y-54607150D01*
X84342132Y-54586107D01*
X84356747Y-54566401D01*
X84373223Y-54548223D01*
X84391401Y-54531747D01*
X84411107Y-54517132D01*
X84432150Y-54504520D01*
X84454329Y-54494030D01*
X84477428Y-54485765D01*
X84501227Y-54479804D01*
X84525495Y-54476204D01*
X84549999Y-54475000D01*
X85450001Y-54475000D01*
X85474505Y-54476204D01*
X85474505Y-54476204D01*
G37*
D15*
G04 #@! TD*
G04 #@! TO.P,C1,2*
G04 #@! TO.N,INL*
X85000000Y-55050000D03*
D14*
G04 #@! TO.N,Net-(C1-Pad1)*
G04 #@! TO.C,C1*
G36*
X85474505Y-52426204D02*
X85498773Y-52429804D01*
X85522572Y-52435765D01*
X85545671Y-52444030D01*
X85567850Y-52454520D01*
X85588893Y-52467132D01*
X85608599Y-52481747D01*
X85626777Y-52498223D01*
X85643253Y-52516401D01*
X85657868Y-52536107D01*
X85670480Y-52557150D01*
X85680970Y-52579329D01*
X85689235Y-52602428D01*
X85695196Y-52626227D01*
X85698796Y-52650495D01*
X85700000Y-52674999D01*
X85700000Y-53325001D01*
X85698796Y-53349505D01*
X85695196Y-53373773D01*
X85689235Y-53397572D01*
X85680970Y-53420671D01*
X85670480Y-53442850D01*
X85657868Y-53463893D01*
X85643253Y-53483599D01*
X85626777Y-53501777D01*
X85608599Y-53518253D01*
X85588893Y-53532868D01*
X85567850Y-53545480D01*
X85545671Y-53555970D01*
X85522572Y-53564235D01*
X85498773Y-53570196D01*
X85474505Y-53573796D01*
X85450001Y-53575000D01*
X84549999Y-53575000D01*
X84525495Y-53573796D01*
X84501227Y-53570196D01*
X84477428Y-53564235D01*
X84454329Y-53555970D01*
X84432150Y-53545480D01*
X84411107Y-53532868D01*
X84391401Y-53518253D01*
X84373223Y-53501777D01*
X84356747Y-53483599D01*
X84342132Y-53463893D01*
X84329520Y-53442850D01*
X84319030Y-53420671D01*
X84310765Y-53397572D01*
X84304804Y-53373773D01*
X84301204Y-53349505D01*
X84300000Y-53325001D01*
X84300000Y-52674999D01*
X84301204Y-52650495D01*
X84304804Y-52626227D01*
X84310765Y-52602428D01*
X84319030Y-52579329D01*
X84329520Y-52557150D01*
X84342132Y-52536107D01*
X84356747Y-52516401D01*
X84373223Y-52498223D01*
X84391401Y-52481747D01*
X84411107Y-52467132D01*
X84432150Y-52454520D01*
X84454329Y-52444030D01*
X84477428Y-52435765D01*
X84501227Y-52429804D01*
X84525495Y-52426204D01*
X84549999Y-52425000D01*
X85450001Y-52425000D01*
X85474505Y-52426204D01*
X85474505Y-52426204D01*
G37*
D15*
G04 #@! TD*
G04 #@! TO.P,C1,1*
G04 #@! TO.N,Net-(C1-Pad1)*
X85000000Y-53000000D03*
D14*
G04 #@! TO.N,INR*
G04 #@! TO.C,C2*
G36*
X87974505Y-54476204D02*
X87998773Y-54479804D01*
X88022572Y-54485765D01*
X88045671Y-54494030D01*
X88067850Y-54504520D01*
X88088893Y-54517132D01*
X88108599Y-54531747D01*
X88126777Y-54548223D01*
X88143253Y-54566401D01*
X88157868Y-54586107D01*
X88170480Y-54607150D01*
X88180970Y-54629329D01*
X88189235Y-54652428D01*
X88195196Y-54676227D01*
X88198796Y-54700495D01*
X88200000Y-54724999D01*
X88200000Y-55375001D01*
X88198796Y-55399505D01*
X88195196Y-55423773D01*
X88189235Y-55447572D01*
X88180970Y-55470671D01*
X88170480Y-55492850D01*
X88157868Y-55513893D01*
X88143253Y-55533599D01*
X88126777Y-55551777D01*
X88108599Y-55568253D01*
X88088893Y-55582868D01*
X88067850Y-55595480D01*
X88045671Y-55605970D01*
X88022572Y-55614235D01*
X87998773Y-55620196D01*
X87974505Y-55623796D01*
X87950001Y-55625000D01*
X87049999Y-55625000D01*
X87025495Y-55623796D01*
X87001227Y-55620196D01*
X86977428Y-55614235D01*
X86954329Y-55605970D01*
X86932150Y-55595480D01*
X86911107Y-55582868D01*
X86891401Y-55568253D01*
X86873223Y-55551777D01*
X86856747Y-55533599D01*
X86842132Y-55513893D01*
X86829520Y-55492850D01*
X86819030Y-55470671D01*
X86810765Y-55447572D01*
X86804804Y-55423773D01*
X86801204Y-55399505D01*
X86800000Y-55375001D01*
X86800000Y-54724999D01*
X86801204Y-54700495D01*
X86804804Y-54676227D01*
X86810765Y-54652428D01*
X86819030Y-54629329D01*
X86829520Y-54607150D01*
X86842132Y-54586107D01*
X86856747Y-54566401D01*
X86873223Y-54548223D01*
X86891401Y-54531747D01*
X86911107Y-54517132D01*
X86932150Y-54504520D01*
X86954329Y-54494030D01*
X86977428Y-54485765D01*
X87001227Y-54479804D01*
X87025495Y-54476204D01*
X87049999Y-54475000D01*
X87950001Y-54475000D01*
X87974505Y-54476204D01*
X87974505Y-54476204D01*
G37*
D15*
G04 #@! TD*
G04 #@! TO.P,C2,2*
G04 #@! TO.N,INR*
X87500000Y-55050000D03*
D14*
G04 #@! TO.N,Net-(C2-Pad1)*
G04 #@! TO.C,C2*
G36*
X87974505Y-52426204D02*
X87998773Y-52429804D01*
X88022572Y-52435765D01*
X88045671Y-52444030D01*
X88067850Y-52454520D01*
X88088893Y-52467132D01*
X88108599Y-52481747D01*
X88126777Y-52498223D01*
X88143253Y-52516401D01*
X88157868Y-52536107D01*
X88170480Y-52557150D01*
X88180970Y-52579329D01*
X88189235Y-52602428D01*
X88195196Y-52626227D01*
X88198796Y-52650495D01*
X88200000Y-52674999D01*
X88200000Y-53325001D01*
X88198796Y-53349505D01*
X88195196Y-53373773D01*
X88189235Y-53397572D01*
X88180970Y-53420671D01*
X88170480Y-53442850D01*
X88157868Y-53463893D01*
X88143253Y-53483599D01*
X88126777Y-53501777D01*
X88108599Y-53518253D01*
X88088893Y-53532868D01*
X88067850Y-53545480D01*
X88045671Y-53555970D01*
X88022572Y-53564235D01*
X87998773Y-53570196D01*
X87974505Y-53573796D01*
X87950001Y-53575000D01*
X87049999Y-53575000D01*
X87025495Y-53573796D01*
X87001227Y-53570196D01*
X86977428Y-53564235D01*
X86954329Y-53555970D01*
X86932150Y-53545480D01*
X86911107Y-53532868D01*
X86891401Y-53518253D01*
X86873223Y-53501777D01*
X86856747Y-53483599D01*
X86842132Y-53463893D01*
X86829520Y-53442850D01*
X86819030Y-53420671D01*
X86810765Y-53397572D01*
X86804804Y-53373773D01*
X86801204Y-53349505D01*
X86800000Y-53325001D01*
X86800000Y-52674999D01*
X86801204Y-52650495D01*
X86804804Y-52626227D01*
X86810765Y-52602428D01*
X86819030Y-52579329D01*
X86829520Y-52557150D01*
X86842132Y-52536107D01*
X86856747Y-52516401D01*
X86873223Y-52498223D01*
X86891401Y-52481747D01*
X86911107Y-52467132D01*
X86932150Y-52454520D01*
X86954329Y-52444030D01*
X86977428Y-52435765D01*
X87001227Y-52429804D01*
X87025495Y-52426204D01*
X87049999Y-52425000D01*
X87950001Y-52425000D01*
X87974505Y-52426204D01*
X87974505Y-52426204D01*
G37*
D15*
G04 #@! TD*
G04 #@! TO.P,C2,1*
G04 #@! TO.N,Net-(C2-Pad1)*
X87500000Y-53000000D03*
D14*
G04 #@! TO.N,VCC*
G04 #@! TO.C,C3*
G36*
X91974505Y-36901204D02*
X91998773Y-36904804D01*
X92022572Y-36910765D01*
X92045671Y-36919030D01*
X92067850Y-36929520D01*
X92088893Y-36942132D01*
X92108599Y-36956747D01*
X92126777Y-36973223D01*
X92143253Y-36991401D01*
X92157868Y-37011107D01*
X92170480Y-37032150D01*
X92180970Y-37054329D01*
X92189235Y-37077428D01*
X92195196Y-37101227D01*
X92198796Y-37125495D01*
X92200000Y-37149999D01*
X92200000Y-37800001D01*
X92198796Y-37824505D01*
X92195196Y-37848773D01*
X92189235Y-37872572D01*
X92180970Y-37895671D01*
X92170480Y-37917850D01*
X92157868Y-37938893D01*
X92143253Y-37958599D01*
X92126777Y-37976777D01*
X92108599Y-37993253D01*
X92088893Y-38007868D01*
X92067850Y-38020480D01*
X92045671Y-38030970D01*
X92022572Y-38039235D01*
X91998773Y-38045196D01*
X91974505Y-38048796D01*
X91950001Y-38050000D01*
X91049999Y-38050000D01*
X91025495Y-38048796D01*
X91001227Y-38045196D01*
X90977428Y-38039235D01*
X90954329Y-38030970D01*
X90932150Y-38020480D01*
X90911107Y-38007868D01*
X90891401Y-37993253D01*
X90873223Y-37976777D01*
X90856747Y-37958599D01*
X90842132Y-37938893D01*
X90829520Y-37917850D01*
X90819030Y-37895671D01*
X90810765Y-37872572D01*
X90804804Y-37848773D01*
X90801204Y-37824505D01*
X90800000Y-37800001D01*
X90800000Y-37149999D01*
X90801204Y-37125495D01*
X90804804Y-37101227D01*
X90810765Y-37077428D01*
X90819030Y-37054329D01*
X90829520Y-37032150D01*
X90842132Y-37011107D01*
X90856747Y-36991401D01*
X90873223Y-36973223D01*
X90891401Y-36956747D01*
X90911107Y-36942132D01*
X90932150Y-36929520D01*
X90954329Y-36919030D01*
X90977428Y-36910765D01*
X91001227Y-36904804D01*
X91025495Y-36901204D01*
X91049999Y-36900000D01*
X91950001Y-36900000D01*
X91974505Y-36901204D01*
X91974505Y-36901204D01*
G37*
D15*
G04 #@! TD*
G04 #@! TO.P,C3,1*
G04 #@! TO.N,VCC*
X91500000Y-37475000D03*
D14*
G04 #@! TO.N,Earth*
G04 #@! TO.C,C3*
G36*
X91974505Y-38951204D02*
X91998773Y-38954804D01*
X92022572Y-38960765D01*
X92045671Y-38969030D01*
X92067850Y-38979520D01*
X92088893Y-38992132D01*
X92108599Y-39006747D01*
X92126777Y-39023223D01*
X92143253Y-39041401D01*
X92157868Y-39061107D01*
X92170480Y-39082150D01*
X92180970Y-39104329D01*
X92189235Y-39127428D01*
X92195196Y-39151227D01*
X92198796Y-39175495D01*
X92200000Y-39199999D01*
X92200000Y-39850001D01*
X92198796Y-39874505D01*
X92195196Y-39898773D01*
X92189235Y-39922572D01*
X92180970Y-39945671D01*
X92170480Y-39967850D01*
X92157868Y-39988893D01*
X92143253Y-40008599D01*
X92126777Y-40026777D01*
X92108599Y-40043253D01*
X92088893Y-40057868D01*
X92067850Y-40070480D01*
X92045671Y-40080970D01*
X92022572Y-40089235D01*
X91998773Y-40095196D01*
X91974505Y-40098796D01*
X91950001Y-40100000D01*
X91049999Y-40100000D01*
X91025495Y-40098796D01*
X91001227Y-40095196D01*
X90977428Y-40089235D01*
X90954329Y-40080970D01*
X90932150Y-40070480D01*
X90911107Y-40057868D01*
X90891401Y-40043253D01*
X90873223Y-40026777D01*
X90856747Y-40008599D01*
X90842132Y-39988893D01*
X90829520Y-39967850D01*
X90819030Y-39945671D01*
X90810765Y-39922572D01*
X90804804Y-39898773D01*
X90801204Y-39874505D01*
X90800000Y-39850001D01*
X90800000Y-39199999D01*
X90801204Y-39175495D01*
X90804804Y-39151227D01*
X90810765Y-39127428D01*
X90819030Y-39104329D01*
X90829520Y-39082150D01*
X90842132Y-39061107D01*
X90856747Y-39041401D01*
X90873223Y-39023223D01*
X90891401Y-39006747D01*
X90911107Y-38992132D01*
X90932150Y-38979520D01*
X90954329Y-38969030D01*
X90977428Y-38960765D01*
X91001227Y-38954804D01*
X91025495Y-38951204D01*
X91049999Y-38950000D01*
X91950001Y-38950000D01*
X91974505Y-38951204D01*
X91974505Y-38951204D01*
G37*
D15*
G04 #@! TD*
G04 #@! TO.P,C3,2*
G04 #@! TO.N,Earth*
X91500000Y-39525000D03*
D14*
G04 #@! TO.N,VCC*
G04 #@! TO.C,C4*
G36*
X89974505Y-36926204D02*
X89998773Y-36929804D01*
X90022572Y-36935765D01*
X90045671Y-36944030D01*
X90067850Y-36954520D01*
X90088893Y-36967132D01*
X90108599Y-36981747D01*
X90126777Y-36998223D01*
X90143253Y-37016401D01*
X90157868Y-37036107D01*
X90170480Y-37057150D01*
X90180970Y-37079329D01*
X90189235Y-37102428D01*
X90195196Y-37126227D01*
X90198796Y-37150495D01*
X90200000Y-37174999D01*
X90200000Y-37825001D01*
X90198796Y-37849505D01*
X90195196Y-37873773D01*
X90189235Y-37897572D01*
X90180970Y-37920671D01*
X90170480Y-37942850D01*
X90157868Y-37963893D01*
X90143253Y-37983599D01*
X90126777Y-38001777D01*
X90108599Y-38018253D01*
X90088893Y-38032868D01*
X90067850Y-38045480D01*
X90045671Y-38055970D01*
X90022572Y-38064235D01*
X89998773Y-38070196D01*
X89974505Y-38073796D01*
X89950001Y-38075000D01*
X89049999Y-38075000D01*
X89025495Y-38073796D01*
X89001227Y-38070196D01*
X88977428Y-38064235D01*
X88954329Y-38055970D01*
X88932150Y-38045480D01*
X88911107Y-38032868D01*
X88891401Y-38018253D01*
X88873223Y-38001777D01*
X88856747Y-37983599D01*
X88842132Y-37963893D01*
X88829520Y-37942850D01*
X88819030Y-37920671D01*
X88810765Y-37897572D01*
X88804804Y-37873773D01*
X88801204Y-37849505D01*
X88800000Y-37825001D01*
X88800000Y-37174999D01*
X88801204Y-37150495D01*
X88804804Y-37126227D01*
X88810765Y-37102428D01*
X88819030Y-37079329D01*
X88829520Y-37057150D01*
X88842132Y-37036107D01*
X88856747Y-37016401D01*
X88873223Y-36998223D01*
X88891401Y-36981747D01*
X88911107Y-36967132D01*
X88932150Y-36954520D01*
X88954329Y-36944030D01*
X88977428Y-36935765D01*
X89001227Y-36929804D01*
X89025495Y-36926204D01*
X89049999Y-36925000D01*
X89950001Y-36925000D01*
X89974505Y-36926204D01*
X89974505Y-36926204D01*
G37*
D15*
G04 #@! TD*
G04 #@! TO.P,C4,1*
G04 #@! TO.N,VCC*
X89500000Y-37500000D03*
D14*
G04 #@! TO.N,Earth*
G04 #@! TO.C,C4*
G36*
X89974505Y-38976204D02*
X89998773Y-38979804D01*
X90022572Y-38985765D01*
X90045671Y-38994030D01*
X90067850Y-39004520D01*
X90088893Y-39017132D01*
X90108599Y-39031747D01*
X90126777Y-39048223D01*
X90143253Y-39066401D01*
X90157868Y-39086107D01*
X90170480Y-39107150D01*
X90180970Y-39129329D01*
X90189235Y-39152428D01*
X90195196Y-39176227D01*
X90198796Y-39200495D01*
X90200000Y-39224999D01*
X90200000Y-39875001D01*
X90198796Y-39899505D01*
X90195196Y-39923773D01*
X90189235Y-39947572D01*
X90180970Y-39970671D01*
X90170480Y-39992850D01*
X90157868Y-40013893D01*
X90143253Y-40033599D01*
X90126777Y-40051777D01*
X90108599Y-40068253D01*
X90088893Y-40082868D01*
X90067850Y-40095480D01*
X90045671Y-40105970D01*
X90022572Y-40114235D01*
X89998773Y-40120196D01*
X89974505Y-40123796D01*
X89950001Y-40125000D01*
X89049999Y-40125000D01*
X89025495Y-40123796D01*
X89001227Y-40120196D01*
X88977428Y-40114235D01*
X88954329Y-40105970D01*
X88932150Y-40095480D01*
X88911107Y-40082868D01*
X88891401Y-40068253D01*
X88873223Y-40051777D01*
X88856747Y-40033599D01*
X88842132Y-40013893D01*
X88829520Y-39992850D01*
X88819030Y-39970671D01*
X88810765Y-39947572D01*
X88804804Y-39923773D01*
X88801204Y-39899505D01*
X88800000Y-39875001D01*
X88800000Y-39224999D01*
X88801204Y-39200495D01*
X88804804Y-39176227D01*
X88810765Y-39152428D01*
X88819030Y-39129329D01*
X88829520Y-39107150D01*
X88842132Y-39086107D01*
X88856747Y-39066401D01*
X88873223Y-39048223D01*
X88891401Y-39031747D01*
X88911107Y-39017132D01*
X88932150Y-39004520D01*
X88954329Y-38994030D01*
X88977428Y-38985765D01*
X89001227Y-38979804D01*
X89025495Y-38976204D01*
X89049999Y-38975000D01*
X89950001Y-38975000D01*
X89974505Y-38976204D01*
X89974505Y-38976204D01*
G37*
D15*
G04 #@! TD*
G04 #@! TO.P,C4,2*
G04 #@! TO.N,Earth*
X89500000Y-39550000D03*
D14*
G04 #@! TO.N,VDD*
G04 #@! TO.C,C5*
G36*
X74724505Y-37651204D02*
X74748773Y-37654804D01*
X74772572Y-37660765D01*
X74795671Y-37669030D01*
X74817850Y-37679520D01*
X74838893Y-37692132D01*
X74858599Y-37706747D01*
X74876777Y-37723223D01*
X74893253Y-37741401D01*
X74907868Y-37761107D01*
X74920480Y-37782150D01*
X74930970Y-37804329D01*
X74939235Y-37827428D01*
X74945196Y-37851227D01*
X74948796Y-37875495D01*
X74950000Y-37899999D01*
X74950000Y-38550001D01*
X74948796Y-38574505D01*
X74945196Y-38598773D01*
X74939235Y-38622572D01*
X74930970Y-38645671D01*
X74920480Y-38667850D01*
X74907868Y-38688893D01*
X74893253Y-38708599D01*
X74876777Y-38726777D01*
X74858599Y-38743253D01*
X74838893Y-38757868D01*
X74817850Y-38770480D01*
X74795671Y-38780970D01*
X74772572Y-38789235D01*
X74748773Y-38795196D01*
X74724505Y-38798796D01*
X74700001Y-38800000D01*
X73799999Y-38800000D01*
X73775495Y-38798796D01*
X73751227Y-38795196D01*
X73727428Y-38789235D01*
X73704329Y-38780970D01*
X73682150Y-38770480D01*
X73661107Y-38757868D01*
X73641401Y-38743253D01*
X73623223Y-38726777D01*
X73606747Y-38708599D01*
X73592132Y-38688893D01*
X73579520Y-38667850D01*
X73569030Y-38645671D01*
X73560765Y-38622572D01*
X73554804Y-38598773D01*
X73551204Y-38574505D01*
X73550000Y-38550001D01*
X73550000Y-37899999D01*
X73551204Y-37875495D01*
X73554804Y-37851227D01*
X73560765Y-37827428D01*
X73569030Y-37804329D01*
X73579520Y-37782150D01*
X73592132Y-37761107D01*
X73606747Y-37741401D01*
X73623223Y-37723223D01*
X73641401Y-37706747D01*
X73661107Y-37692132D01*
X73682150Y-37679520D01*
X73704329Y-37669030D01*
X73727428Y-37660765D01*
X73751227Y-37654804D01*
X73775495Y-37651204D01*
X73799999Y-37650000D01*
X74700001Y-37650000D01*
X74724505Y-37651204D01*
X74724505Y-37651204D01*
G37*
D15*
G04 #@! TD*
G04 #@! TO.P,C5,1*
G04 #@! TO.N,VDD*
X74250000Y-38225000D03*
D14*
G04 #@! TO.N,Net-(C5-Pad2)*
G04 #@! TO.C,C5*
G36*
X74724505Y-39701204D02*
X74748773Y-39704804D01*
X74772572Y-39710765D01*
X74795671Y-39719030D01*
X74817850Y-39729520D01*
X74838893Y-39742132D01*
X74858599Y-39756747D01*
X74876777Y-39773223D01*
X74893253Y-39791401D01*
X74907868Y-39811107D01*
X74920480Y-39832150D01*
X74930970Y-39854329D01*
X74939235Y-39877428D01*
X74945196Y-39901227D01*
X74948796Y-39925495D01*
X74950000Y-39949999D01*
X74950000Y-40600001D01*
X74948796Y-40624505D01*
X74945196Y-40648773D01*
X74939235Y-40672572D01*
X74930970Y-40695671D01*
X74920480Y-40717850D01*
X74907868Y-40738893D01*
X74893253Y-40758599D01*
X74876777Y-40776777D01*
X74858599Y-40793253D01*
X74838893Y-40807868D01*
X74817850Y-40820480D01*
X74795671Y-40830970D01*
X74772572Y-40839235D01*
X74748773Y-40845196D01*
X74724505Y-40848796D01*
X74700001Y-40850000D01*
X73799999Y-40850000D01*
X73775495Y-40848796D01*
X73751227Y-40845196D01*
X73727428Y-40839235D01*
X73704329Y-40830970D01*
X73682150Y-40820480D01*
X73661107Y-40807868D01*
X73641401Y-40793253D01*
X73623223Y-40776777D01*
X73606747Y-40758599D01*
X73592132Y-40738893D01*
X73579520Y-40717850D01*
X73569030Y-40695671D01*
X73560765Y-40672572D01*
X73554804Y-40648773D01*
X73551204Y-40624505D01*
X73550000Y-40600001D01*
X73550000Y-39949999D01*
X73551204Y-39925495D01*
X73554804Y-39901227D01*
X73560765Y-39877428D01*
X73569030Y-39854329D01*
X73579520Y-39832150D01*
X73592132Y-39811107D01*
X73606747Y-39791401D01*
X73623223Y-39773223D01*
X73641401Y-39756747D01*
X73661107Y-39742132D01*
X73682150Y-39729520D01*
X73704329Y-39719030D01*
X73727428Y-39710765D01*
X73751227Y-39704804D01*
X73775495Y-39701204D01*
X73799999Y-39700000D01*
X74700001Y-39700000D01*
X74724505Y-39701204D01*
X74724505Y-39701204D01*
G37*
D15*
G04 #@! TD*
G04 #@! TO.P,C5,2*
G04 #@! TO.N,Net-(C5-Pad2)*
X74250000Y-40275000D03*
D14*
G04 #@! TO.N,Net-(C6-Pad1)*
G04 #@! TO.C,C6*
G36*
X82974505Y-52426204D02*
X82998773Y-52429804D01*
X83022572Y-52435765D01*
X83045671Y-52444030D01*
X83067850Y-52454520D01*
X83088893Y-52467132D01*
X83108599Y-52481747D01*
X83126777Y-52498223D01*
X83143253Y-52516401D01*
X83157868Y-52536107D01*
X83170480Y-52557150D01*
X83180970Y-52579329D01*
X83189235Y-52602428D01*
X83195196Y-52626227D01*
X83198796Y-52650495D01*
X83200000Y-52674999D01*
X83200000Y-53325001D01*
X83198796Y-53349505D01*
X83195196Y-53373773D01*
X83189235Y-53397572D01*
X83180970Y-53420671D01*
X83170480Y-53442850D01*
X83157868Y-53463893D01*
X83143253Y-53483599D01*
X83126777Y-53501777D01*
X83108599Y-53518253D01*
X83088893Y-53532868D01*
X83067850Y-53545480D01*
X83045671Y-53555970D01*
X83022572Y-53564235D01*
X82998773Y-53570196D01*
X82974505Y-53573796D01*
X82950001Y-53575000D01*
X82049999Y-53575000D01*
X82025495Y-53573796D01*
X82001227Y-53570196D01*
X81977428Y-53564235D01*
X81954329Y-53555970D01*
X81932150Y-53545480D01*
X81911107Y-53532868D01*
X81891401Y-53518253D01*
X81873223Y-53501777D01*
X81856747Y-53483599D01*
X81842132Y-53463893D01*
X81829520Y-53442850D01*
X81819030Y-53420671D01*
X81810765Y-53397572D01*
X81804804Y-53373773D01*
X81801204Y-53349505D01*
X81800000Y-53325001D01*
X81800000Y-52674999D01*
X81801204Y-52650495D01*
X81804804Y-52626227D01*
X81810765Y-52602428D01*
X81819030Y-52579329D01*
X81829520Y-52557150D01*
X81842132Y-52536107D01*
X81856747Y-52516401D01*
X81873223Y-52498223D01*
X81891401Y-52481747D01*
X81911107Y-52467132D01*
X81932150Y-52454520D01*
X81954329Y-52444030D01*
X81977428Y-52435765D01*
X82001227Y-52429804D01*
X82025495Y-52426204D01*
X82049999Y-52425000D01*
X82950001Y-52425000D01*
X82974505Y-52426204D01*
X82974505Y-52426204D01*
G37*
D15*
G04 #@! TD*
G04 #@! TO.P,C6,1*
G04 #@! TO.N,Net-(C6-Pad1)*
X82500000Y-53000000D03*
D14*
G04 #@! TO.N,Earth*
G04 #@! TO.C,C6*
G36*
X82974505Y-54476204D02*
X82998773Y-54479804D01*
X83022572Y-54485765D01*
X83045671Y-54494030D01*
X83067850Y-54504520D01*
X83088893Y-54517132D01*
X83108599Y-54531747D01*
X83126777Y-54548223D01*
X83143253Y-54566401D01*
X83157868Y-54586107D01*
X83170480Y-54607150D01*
X83180970Y-54629329D01*
X83189235Y-54652428D01*
X83195196Y-54676227D01*
X83198796Y-54700495D01*
X83200000Y-54724999D01*
X83200000Y-55375001D01*
X83198796Y-55399505D01*
X83195196Y-55423773D01*
X83189235Y-55447572D01*
X83180970Y-55470671D01*
X83170480Y-55492850D01*
X83157868Y-55513893D01*
X83143253Y-55533599D01*
X83126777Y-55551777D01*
X83108599Y-55568253D01*
X83088893Y-55582868D01*
X83067850Y-55595480D01*
X83045671Y-55605970D01*
X83022572Y-55614235D01*
X82998773Y-55620196D01*
X82974505Y-55623796D01*
X82950001Y-55625000D01*
X82049999Y-55625000D01*
X82025495Y-55623796D01*
X82001227Y-55620196D01*
X81977428Y-55614235D01*
X81954329Y-55605970D01*
X81932150Y-55595480D01*
X81911107Y-55582868D01*
X81891401Y-55568253D01*
X81873223Y-55551777D01*
X81856747Y-55533599D01*
X81842132Y-55513893D01*
X81829520Y-55492850D01*
X81819030Y-55470671D01*
X81810765Y-55447572D01*
X81804804Y-55423773D01*
X81801204Y-55399505D01*
X81800000Y-55375001D01*
X81800000Y-54724999D01*
X81801204Y-54700495D01*
X81804804Y-54676227D01*
X81810765Y-54652428D01*
X81819030Y-54629329D01*
X81829520Y-54607150D01*
X81842132Y-54586107D01*
X81856747Y-54566401D01*
X81873223Y-54548223D01*
X81891401Y-54531747D01*
X81911107Y-54517132D01*
X81932150Y-54504520D01*
X81954329Y-54494030D01*
X81977428Y-54485765D01*
X82001227Y-54479804D01*
X82025495Y-54476204D01*
X82049999Y-54475000D01*
X82950001Y-54475000D01*
X82974505Y-54476204D01*
X82974505Y-54476204D01*
G37*
D15*
G04 #@! TD*
G04 #@! TO.P,C6,2*
G04 #@! TO.N,Earth*
X82500000Y-55050000D03*
D14*
G04 #@! TO.N,Earth*
G04 #@! TO.C,C7*
G36*
X80474505Y-54476204D02*
X80498773Y-54479804D01*
X80522572Y-54485765D01*
X80545671Y-54494030D01*
X80567850Y-54504520D01*
X80588893Y-54517132D01*
X80608599Y-54531747D01*
X80626777Y-54548223D01*
X80643253Y-54566401D01*
X80657868Y-54586107D01*
X80670480Y-54607150D01*
X80680970Y-54629329D01*
X80689235Y-54652428D01*
X80695196Y-54676227D01*
X80698796Y-54700495D01*
X80700000Y-54724999D01*
X80700000Y-55375001D01*
X80698796Y-55399505D01*
X80695196Y-55423773D01*
X80689235Y-55447572D01*
X80680970Y-55470671D01*
X80670480Y-55492850D01*
X80657868Y-55513893D01*
X80643253Y-55533599D01*
X80626777Y-55551777D01*
X80608599Y-55568253D01*
X80588893Y-55582868D01*
X80567850Y-55595480D01*
X80545671Y-55605970D01*
X80522572Y-55614235D01*
X80498773Y-55620196D01*
X80474505Y-55623796D01*
X80450001Y-55625000D01*
X79549999Y-55625000D01*
X79525495Y-55623796D01*
X79501227Y-55620196D01*
X79477428Y-55614235D01*
X79454329Y-55605970D01*
X79432150Y-55595480D01*
X79411107Y-55582868D01*
X79391401Y-55568253D01*
X79373223Y-55551777D01*
X79356747Y-55533599D01*
X79342132Y-55513893D01*
X79329520Y-55492850D01*
X79319030Y-55470671D01*
X79310765Y-55447572D01*
X79304804Y-55423773D01*
X79301204Y-55399505D01*
X79300000Y-55375001D01*
X79300000Y-54724999D01*
X79301204Y-54700495D01*
X79304804Y-54676227D01*
X79310765Y-54652428D01*
X79319030Y-54629329D01*
X79329520Y-54607150D01*
X79342132Y-54586107D01*
X79356747Y-54566401D01*
X79373223Y-54548223D01*
X79391401Y-54531747D01*
X79411107Y-54517132D01*
X79432150Y-54504520D01*
X79454329Y-54494030D01*
X79477428Y-54485765D01*
X79501227Y-54479804D01*
X79525495Y-54476204D01*
X79549999Y-54475000D01*
X80450001Y-54475000D01*
X80474505Y-54476204D01*
X80474505Y-54476204D01*
G37*
D15*
G04 #@! TD*
G04 #@! TO.P,C7,2*
G04 #@! TO.N,Earth*
X80000000Y-55050000D03*
D14*
G04 #@! TO.N,Net-(C6-Pad1)*
G04 #@! TO.C,C7*
G36*
X80474505Y-52426204D02*
X80498773Y-52429804D01*
X80522572Y-52435765D01*
X80545671Y-52444030D01*
X80567850Y-52454520D01*
X80588893Y-52467132D01*
X80608599Y-52481747D01*
X80626777Y-52498223D01*
X80643253Y-52516401D01*
X80657868Y-52536107D01*
X80670480Y-52557150D01*
X80680970Y-52579329D01*
X80689235Y-52602428D01*
X80695196Y-52626227D01*
X80698796Y-52650495D01*
X80700000Y-52674999D01*
X80700000Y-53325001D01*
X80698796Y-53349505D01*
X80695196Y-53373773D01*
X80689235Y-53397572D01*
X80680970Y-53420671D01*
X80670480Y-53442850D01*
X80657868Y-53463893D01*
X80643253Y-53483599D01*
X80626777Y-53501777D01*
X80608599Y-53518253D01*
X80588893Y-53532868D01*
X80567850Y-53545480D01*
X80545671Y-53555970D01*
X80522572Y-53564235D01*
X80498773Y-53570196D01*
X80474505Y-53573796D01*
X80450001Y-53575000D01*
X79549999Y-53575000D01*
X79525495Y-53573796D01*
X79501227Y-53570196D01*
X79477428Y-53564235D01*
X79454329Y-53555970D01*
X79432150Y-53545480D01*
X79411107Y-53532868D01*
X79391401Y-53518253D01*
X79373223Y-53501777D01*
X79356747Y-53483599D01*
X79342132Y-53463893D01*
X79329520Y-53442850D01*
X79319030Y-53420671D01*
X79310765Y-53397572D01*
X79304804Y-53373773D01*
X79301204Y-53349505D01*
X79300000Y-53325001D01*
X79300000Y-52674999D01*
X79301204Y-52650495D01*
X79304804Y-52626227D01*
X79310765Y-52602428D01*
X79319030Y-52579329D01*
X79329520Y-52557150D01*
X79342132Y-52536107D01*
X79356747Y-52516401D01*
X79373223Y-52498223D01*
X79391401Y-52481747D01*
X79411107Y-52467132D01*
X79432150Y-52454520D01*
X79454329Y-52444030D01*
X79477428Y-52435765D01*
X79501227Y-52429804D01*
X79525495Y-52426204D01*
X79549999Y-52425000D01*
X80450001Y-52425000D01*
X80474505Y-52426204D01*
X80474505Y-52426204D01*
G37*
D15*
G04 #@! TD*
G04 #@! TO.P,C7,1*
G04 #@! TO.N,Net-(C6-Pad1)*
X80000000Y-53000000D03*
D14*
G04 #@! TO.N,Net-(C5-Pad2)*
G04 #@! TO.C,C8*
G36*
X76974505Y-39676204D02*
X76998773Y-39679804D01*
X77022572Y-39685765D01*
X77045671Y-39694030D01*
X77067850Y-39704520D01*
X77088893Y-39717132D01*
X77108599Y-39731747D01*
X77126777Y-39748223D01*
X77143253Y-39766401D01*
X77157868Y-39786107D01*
X77170480Y-39807150D01*
X77180970Y-39829329D01*
X77189235Y-39852428D01*
X77195196Y-39876227D01*
X77198796Y-39900495D01*
X77200000Y-39924999D01*
X77200000Y-40575001D01*
X77198796Y-40599505D01*
X77195196Y-40623773D01*
X77189235Y-40647572D01*
X77180970Y-40670671D01*
X77170480Y-40692850D01*
X77157868Y-40713893D01*
X77143253Y-40733599D01*
X77126777Y-40751777D01*
X77108599Y-40768253D01*
X77088893Y-40782868D01*
X77067850Y-40795480D01*
X77045671Y-40805970D01*
X77022572Y-40814235D01*
X76998773Y-40820196D01*
X76974505Y-40823796D01*
X76950001Y-40825000D01*
X76049999Y-40825000D01*
X76025495Y-40823796D01*
X76001227Y-40820196D01*
X75977428Y-40814235D01*
X75954329Y-40805970D01*
X75932150Y-40795480D01*
X75911107Y-40782868D01*
X75891401Y-40768253D01*
X75873223Y-40751777D01*
X75856747Y-40733599D01*
X75842132Y-40713893D01*
X75829520Y-40692850D01*
X75819030Y-40670671D01*
X75810765Y-40647572D01*
X75804804Y-40623773D01*
X75801204Y-40599505D01*
X75800000Y-40575001D01*
X75800000Y-39924999D01*
X75801204Y-39900495D01*
X75804804Y-39876227D01*
X75810765Y-39852428D01*
X75819030Y-39829329D01*
X75829520Y-39807150D01*
X75842132Y-39786107D01*
X75856747Y-39766401D01*
X75873223Y-39748223D01*
X75891401Y-39731747D01*
X75911107Y-39717132D01*
X75932150Y-39704520D01*
X75954329Y-39694030D01*
X75977428Y-39685765D01*
X76001227Y-39679804D01*
X76025495Y-39676204D01*
X76049999Y-39675000D01*
X76950001Y-39675000D01*
X76974505Y-39676204D01*
X76974505Y-39676204D01*
G37*
D15*
G04 #@! TD*
G04 #@! TO.P,C8,2*
G04 #@! TO.N,Net-(C5-Pad2)*
X76500000Y-40250000D03*
D14*
G04 #@! TO.N,VDD*
G04 #@! TO.C,C8*
G36*
X76974505Y-37626204D02*
X76998773Y-37629804D01*
X77022572Y-37635765D01*
X77045671Y-37644030D01*
X77067850Y-37654520D01*
X77088893Y-37667132D01*
X77108599Y-37681747D01*
X77126777Y-37698223D01*
X77143253Y-37716401D01*
X77157868Y-37736107D01*
X77170480Y-37757150D01*
X77180970Y-37779329D01*
X77189235Y-37802428D01*
X77195196Y-37826227D01*
X77198796Y-37850495D01*
X77200000Y-37874999D01*
X77200000Y-38525001D01*
X77198796Y-38549505D01*
X77195196Y-38573773D01*
X77189235Y-38597572D01*
X77180970Y-38620671D01*
X77170480Y-38642850D01*
X77157868Y-38663893D01*
X77143253Y-38683599D01*
X77126777Y-38701777D01*
X77108599Y-38718253D01*
X77088893Y-38732868D01*
X77067850Y-38745480D01*
X77045671Y-38755970D01*
X77022572Y-38764235D01*
X76998773Y-38770196D01*
X76974505Y-38773796D01*
X76950001Y-38775000D01*
X76049999Y-38775000D01*
X76025495Y-38773796D01*
X76001227Y-38770196D01*
X75977428Y-38764235D01*
X75954329Y-38755970D01*
X75932150Y-38745480D01*
X75911107Y-38732868D01*
X75891401Y-38718253D01*
X75873223Y-38701777D01*
X75856747Y-38683599D01*
X75842132Y-38663893D01*
X75829520Y-38642850D01*
X75819030Y-38620671D01*
X75810765Y-38597572D01*
X75804804Y-38573773D01*
X75801204Y-38549505D01*
X75800000Y-38525001D01*
X75800000Y-37874999D01*
X75801204Y-37850495D01*
X75804804Y-37826227D01*
X75810765Y-37802428D01*
X75819030Y-37779329D01*
X75829520Y-37757150D01*
X75842132Y-37736107D01*
X75856747Y-37716401D01*
X75873223Y-37698223D01*
X75891401Y-37681747D01*
X75911107Y-37667132D01*
X75932150Y-37654520D01*
X75954329Y-37644030D01*
X75977428Y-37635765D01*
X76001227Y-37629804D01*
X76025495Y-37626204D01*
X76049999Y-37625000D01*
X76950001Y-37625000D01*
X76974505Y-37626204D01*
X76974505Y-37626204D01*
G37*
D15*
G04 #@! TD*
G04 #@! TO.P,C8,1*
G04 #@! TO.N,VDD*
X76500000Y-38200000D03*
D14*
G04 #@! TO.N,Earth*
G04 #@! TO.C,C9*
G36*
X79974505Y-36876204D02*
X79998773Y-36879804D01*
X80022572Y-36885765D01*
X80045671Y-36894030D01*
X80067850Y-36904520D01*
X80088893Y-36917132D01*
X80108599Y-36931747D01*
X80126777Y-36948223D01*
X80143253Y-36966401D01*
X80157868Y-36986107D01*
X80170480Y-37007150D01*
X80180970Y-37029329D01*
X80189235Y-37052428D01*
X80195196Y-37076227D01*
X80198796Y-37100495D01*
X80200000Y-37124999D01*
X80200000Y-37775001D01*
X80198796Y-37799505D01*
X80195196Y-37823773D01*
X80189235Y-37847572D01*
X80180970Y-37870671D01*
X80170480Y-37892850D01*
X80157868Y-37913893D01*
X80143253Y-37933599D01*
X80126777Y-37951777D01*
X80108599Y-37968253D01*
X80088893Y-37982868D01*
X80067850Y-37995480D01*
X80045671Y-38005970D01*
X80022572Y-38014235D01*
X79998773Y-38020196D01*
X79974505Y-38023796D01*
X79950001Y-38025000D01*
X79049999Y-38025000D01*
X79025495Y-38023796D01*
X79001227Y-38020196D01*
X78977428Y-38014235D01*
X78954329Y-38005970D01*
X78932150Y-37995480D01*
X78911107Y-37982868D01*
X78891401Y-37968253D01*
X78873223Y-37951777D01*
X78856747Y-37933599D01*
X78842132Y-37913893D01*
X78829520Y-37892850D01*
X78819030Y-37870671D01*
X78810765Y-37847572D01*
X78804804Y-37823773D01*
X78801204Y-37799505D01*
X78800000Y-37775001D01*
X78800000Y-37124999D01*
X78801204Y-37100495D01*
X78804804Y-37076227D01*
X78810765Y-37052428D01*
X78819030Y-37029329D01*
X78829520Y-37007150D01*
X78842132Y-36986107D01*
X78856747Y-36966401D01*
X78873223Y-36948223D01*
X78891401Y-36931747D01*
X78911107Y-36917132D01*
X78932150Y-36904520D01*
X78954329Y-36894030D01*
X78977428Y-36885765D01*
X79001227Y-36879804D01*
X79025495Y-36876204D01*
X79049999Y-36875000D01*
X79950001Y-36875000D01*
X79974505Y-36876204D01*
X79974505Y-36876204D01*
G37*
D15*
G04 #@! TD*
G04 #@! TO.P,C9,2*
G04 #@! TO.N,Earth*
X79500000Y-37450000D03*
D14*
G04 #@! TO.N,VDD*
G04 #@! TO.C,C9*
G36*
X79974505Y-38926204D02*
X79998773Y-38929804D01*
X80022572Y-38935765D01*
X80045671Y-38944030D01*
X80067850Y-38954520D01*
X80088893Y-38967132D01*
X80108599Y-38981747D01*
X80126777Y-38998223D01*
X80143253Y-39016401D01*
X80157868Y-39036107D01*
X80170480Y-39057150D01*
X80180970Y-39079329D01*
X80189235Y-39102428D01*
X80195196Y-39126227D01*
X80198796Y-39150495D01*
X80200000Y-39174999D01*
X80200000Y-39825001D01*
X80198796Y-39849505D01*
X80195196Y-39873773D01*
X80189235Y-39897572D01*
X80180970Y-39920671D01*
X80170480Y-39942850D01*
X80157868Y-39963893D01*
X80143253Y-39983599D01*
X80126777Y-40001777D01*
X80108599Y-40018253D01*
X80088893Y-40032868D01*
X80067850Y-40045480D01*
X80045671Y-40055970D01*
X80022572Y-40064235D01*
X79998773Y-40070196D01*
X79974505Y-40073796D01*
X79950001Y-40075000D01*
X79049999Y-40075000D01*
X79025495Y-40073796D01*
X79001227Y-40070196D01*
X78977428Y-40064235D01*
X78954329Y-40055970D01*
X78932150Y-40045480D01*
X78911107Y-40032868D01*
X78891401Y-40018253D01*
X78873223Y-40001777D01*
X78856747Y-39983599D01*
X78842132Y-39963893D01*
X78829520Y-39942850D01*
X78819030Y-39920671D01*
X78810765Y-39897572D01*
X78804804Y-39873773D01*
X78801204Y-39849505D01*
X78800000Y-39825001D01*
X78800000Y-39174999D01*
X78801204Y-39150495D01*
X78804804Y-39126227D01*
X78810765Y-39102428D01*
X78819030Y-39079329D01*
X78829520Y-39057150D01*
X78842132Y-39036107D01*
X78856747Y-39016401D01*
X78873223Y-38998223D01*
X78891401Y-38981747D01*
X78911107Y-38967132D01*
X78932150Y-38954520D01*
X78954329Y-38944030D01*
X78977428Y-38935765D01*
X79001227Y-38929804D01*
X79025495Y-38926204D01*
X79049999Y-38925000D01*
X79950001Y-38925000D01*
X79974505Y-38926204D01*
X79974505Y-38926204D01*
G37*
D15*
G04 #@! TD*
G04 #@! TO.P,C9,1*
G04 #@! TO.N,VDD*
X79500000Y-39500000D03*
D14*
G04 #@! TO.N,VDD*
G04 #@! TO.C,C10*
G36*
X82224505Y-38951204D02*
X82248773Y-38954804D01*
X82272572Y-38960765D01*
X82295671Y-38969030D01*
X82317850Y-38979520D01*
X82338893Y-38992132D01*
X82358599Y-39006747D01*
X82376777Y-39023223D01*
X82393253Y-39041401D01*
X82407868Y-39061107D01*
X82420480Y-39082150D01*
X82430970Y-39104329D01*
X82439235Y-39127428D01*
X82445196Y-39151227D01*
X82448796Y-39175495D01*
X82450000Y-39199999D01*
X82450000Y-39850001D01*
X82448796Y-39874505D01*
X82445196Y-39898773D01*
X82439235Y-39922572D01*
X82430970Y-39945671D01*
X82420480Y-39967850D01*
X82407868Y-39988893D01*
X82393253Y-40008599D01*
X82376777Y-40026777D01*
X82358599Y-40043253D01*
X82338893Y-40057868D01*
X82317850Y-40070480D01*
X82295671Y-40080970D01*
X82272572Y-40089235D01*
X82248773Y-40095196D01*
X82224505Y-40098796D01*
X82200001Y-40100000D01*
X81299999Y-40100000D01*
X81275495Y-40098796D01*
X81251227Y-40095196D01*
X81227428Y-40089235D01*
X81204329Y-40080970D01*
X81182150Y-40070480D01*
X81161107Y-40057868D01*
X81141401Y-40043253D01*
X81123223Y-40026777D01*
X81106747Y-40008599D01*
X81092132Y-39988893D01*
X81079520Y-39967850D01*
X81069030Y-39945671D01*
X81060765Y-39922572D01*
X81054804Y-39898773D01*
X81051204Y-39874505D01*
X81050000Y-39850001D01*
X81050000Y-39199999D01*
X81051204Y-39175495D01*
X81054804Y-39151227D01*
X81060765Y-39127428D01*
X81069030Y-39104329D01*
X81079520Y-39082150D01*
X81092132Y-39061107D01*
X81106747Y-39041401D01*
X81123223Y-39023223D01*
X81141401Y-39006747D01*
X81161107Y-38992132D01*
X81182150Y-38979520D01*
X81204329Y-38969030D01*
X81227428Y-38960765D01*
X81251227Y-38954804D01*
X81275495Y-38951204D01*
X81299999Y-38950000D01*
X82200001Y-38950000D01*
X82224505Y-38951204D01*
X82224505Y-38951204D01*
G37*
D15*
G04 #@! TD*
G04 #@! TO.P,C10,1*
G04 #@! TO.N,VDD*
X81750000Y-39525000D03*
D14*
G04 #@! TO.N,Earth*
G04 #@! TO.C,C10*
G36*
X82224505Y-36901204D02*
X82248773Y-36904804D01*
X82272572Y-36910765D01*
X82295671Y-36919030D01*
X82317850Y-36929520D01*
X82338893Y-36942132D01*
X82358599Y-36956747D01*
X82376777Y-36973223D01*
X82393253Y-36991401D01*
X82407868Y-37011107D01*
X82420480Y-37032150D01*
X82430970Y-37054329D01*
X82439235Y-37077428D01*
X82445196Y-37101227D01*
X82448796Y-37125495D01*
X82450000Y-37149999D01*
X82450000Y-37800001D01*
X82448796Y-37824505D01*
X82445196Y-37848773D01*
X82439235Y-37872572D01*
X82430970Y-37895671D01*
X82420480Y-37917850D01*
X82407868Y-37938893D01*
X82393253Y-37958599D01*
X82376777Y-37976777D01*
X82358599Y-37993253D01*
X82338893Y-38007868D01*
X82317850Y-38020480D01*
X82295671Y-38030970D01*
X82272572Y-38039235D01*
X82248773Y-38045196D01*
X82224505Y-38048796D01*
X82200001Y-38050000D01*
X81299999Y-38050000D01*
X81275495Y-38048796D01*
X81251227Y-38045196D01*
X81227428Y-38039235D01*
X81204329Y-38030970D01*
X81182150Y-38020480D01*
X81161107Y-38007868D01*
X81141401Y-37993253D01*
X81123223Y-37976777D01*
X81106747Y-37958599D01*
X81092132Y-37938893D01*
X81079520Y-37917850D01*
X81069030Y-37895671D01*
X81060765Y-37872572D01*
X81054804Y-37848773D01*
X81051204Y-37824505D01*
X81050000Y-37800001D01*
X81050000Y-37149999D01*
X81051204Y-37125495D01*
X81054804Y-37101227D01*
X81060765Y-37077428D01*
X81069030Y-37054329D01*
X81079520Y-37032150D01*
X81092132Y-37011107D01*
X81106747Y-36991401D01*
X81123223Y-36973223D01*
X81141401Y-36956747D01*
X81161107Y-36942132D01*
X81182150Y-36929520D01*
X81204329Y-36919030D01*
X81227428Y-36910765D01*
X81251227Y-36904804D01*
X81275495Y-36901204D01*
X81299999Y-36900000D01*
X82200001Y-36900000D01*
X82224505Y-36901204D01*
X82224505Y-36901204D01*
G37*
D15*
G04 #@! TD*
G04 #@! TO.P,C10,2*
G04 #@! TO.N,Earth*
X81750000Y-37475000D03*
D14*
G04 #@! TO.N,Net-(C11-Pad2)*
G04 #@! TO.C,C11*
G36*
X75474505Y-54476204D02*
X75498773Y-54479804D01*
X75522572Y-54485765D01*
X75545671Y-54494030D01*
X75567850Y-54504520D01*
X75588893Y-54517132D01*
X75608599Y-54531747D01*
X75626777Y-54548223D01*
X75643253Y-54566401D01*
X75657868Y-54586107D01*
X75670480Y-54607150D01*
X75680970Y-54629329D01*
X75689235Y-54652428D01*
X75695196Y-54676227D01*
X75698796Y-54700495D01*
X75700000Y-54724999D01*
X75700000Y-55375001D01*
X75698796Y-55399505D01*
X75695196Y-55423773D01*
X75689235Y-55447572D01*
X75680970Y-55470671D01*
X75670480Y-55492850D01*
X75657868Y-55513893D01*
X75643253Y-55533599D01*
X75626777Y-55551777D01*
X75608599Y-55568253D01*
X75588893Y-55582868D01*
X75567850Y-55595480D01*
X75545671Y-55605970D01*
X75522572Y-55614235D01*
X75498773Y-55620196D01*
X75474505Y-55623796D01*
X75450001Y-55625000D01*
X74549999Y-55625000D01*
X74525495Y-55623796D01*
X74501227Y-55620196D01*
X74477428Y-55614235D01*
X74454329Y-55605970D01*
X74432150Y-55595480D01*
X74411107Y-55582868D01*
X74391401Y-55568253D01*
X74373223Y-55551777D01*
X74356747Y-55533599D01*
X74342132Y-55513893D01*
X74329520Y-55492850D01*
X74319030Y-55470671D01*
X74310765Y-55447572D01*
X74304804Y-55423773D01*
X74301204Y-55399505D01*
X74300000Y-55375001D01*
X74300000Y-54724999D01*
X74301204Y-54700495D01*
X74304804Y-54676227D01*
X74310765Y-54652428D01*
X74319030Y-54629329D01*
X74329520Y-54607150D01*
X74342132Y-54586107D01*
X74356747Y-54566401D01*
X74373223Y-54548223D01*
X74391401Y-54531747D01*
X74411107Y-54517132D01*
X74432150Y-54504520D01*
X74454329Y-54494030D01*
X74477428Y-54485765D01*
X74501227Y-54479804D01*
X74525495Y-54476204D01*
X74549999Y-54475000D01*
X75450001Y-54475000D01*
X75474505Y-54476204D01*
X75474505Y-54476204D01*
G37*
D15*
G04 #@! TD*
G04 #@! TO.P,C11,2*
G04 #@! TO.N,Net-(C11-Pad2)*
X75000000Y-55050000D03*
D14*
G04 #@! TO.N,Net-(C11-Pad1)*
G04 #@! TO.C,C11*
G36*
X75474505Y-52426204D02*
X75498773Y-52429804D01*
X75522572Y-52435765D01*
X75545671Y-52444030D01*
X75567850Y-52454520D01*
X75588893Y-52467132D01*
X75608599Y-52481747D01*
X75626777Y-52498223D01*
X75643253Y-52516401D01*
X75657868Y-52536107D01*
X75670480Y-52557150D01*
X75680970Y-52579329D01*
X75689235Y-52602428D01*
X75695196Y-52626227D01*
X75698796Y-52650495D01*
X75700000Y-52674999D01*
X75700000Y-53325001D01*
X75698796Y-53349505D01*
X75695196Y-53373773D01*
X75689235Y-53397572D01*
X75680970Y-53420671D01*
X75670480Y-53442850D01*
X75657868Y-53463893D01*
X75643253Y-53483599D01*
X75626777Y-53501777D01*
X75608599Y-53518253D01*
X75588893Y-53532868D01*
X75567850Y-53545480D01*
X75545671Y-53555970D01*
X75522572Y-53564235D01*
X75498773Y-53570196D01*
X75474505Y-53573796D01*
X75450001Y-53575000D01*
X74549999Y-53575000D01*
X74525495Y-53573796D01*
X74501227Y-53570196D01*
X74477428Y-53564235D01*
X74454329Y-53555970D01*
X74432150Y-53545480D01*
X74411107Y-53532868D01*
X74391401Y-53518253D01*
X74373223Y-53501777D01*
X74356747Y-53483599D01*
X74342132Y-53463893D01*
X74329520Y-53442850D01*
X74319030Y-53420671D01*
X74310765Y-53397572D01*
X74304804Y-53373773D01*
X74301204Y-53349505D01*
X74300000Y-53325001D01*
X74300000Y-52674999D01*
X74301204Y-52650495D01*
X74304804Y-52626227D01*
X74310765Y-52602428D01*
X74319030Y-52579329D01*
X74329520Y-52557150D01*
X74342132Y-52536107D01*
X74356747Y-52516401D01*
X74373223Y-52498223D01*
X74391401Y-52481747D01*
X74411107Y-52467132D01*
X74432150Y-52454520D01*
X74454329Y-52444030D01*
X74477428Y-52435765D01*
X74501227Y-52429804D01*
X74525495Y-52426204D01*
X74549999Y-52425000D01*
X75450001Y-52425000D01*
X75474505Y-52426204D01*
X75474505Y-52426204D01*
G37*
D15*
G04 #@! TD*
G04 #@! TO.P,C11,1*
G04 #@! TO.N,Net-(C11-Pad1)*
X75000000Y-53000000D03*
D14*
G04 #@! TO.N,Net-(C12-Pad1)*
G04 #@! TO.C,C12*
G36*
X77974505Y-52426204D02*
X77998773Y-52429804D01*
X78022572Y-52435765D01*
X78045671Y-52444030D01*
X78067850Y-52454520D01*
X78088893Y-52467132D01*
X78108599Y-52481747D01*
X78126777Y-52498223D01*
X78143253Y-52516401D01*
X78157868Y-52536107D01*
X78170480Y-52557150D01*
X78180970Y-52579329D01*
X78189235Y-52602428D01*
X78195196Y-52626227D01*
X78198796Y-52650495D01*
X78200000Y-52674999D01*
X78200000Y-53325001D01*
X78198796Y-53349505D01*
X78195196Y-53373773D01*
X78189235Y-53397572D01*
X78180970Y-53420671D01*
X78170480Y-53442850D01*
X78157868Y-53463893D01*
X78143253Y-53483599D01*
X78126777Y-53501777D01*
X78108599Y-53518253D01*
X78088893Y-53532868D01*
X78067850Y-53545480D01*
X78045671Y-53555970D01*
X78022572Y-53564235D01*
X77998773Y-53570196D01*
X77974505Y-53573796D01*
X77950001Y-53575000D01*
X77049999Y-53575000D01*
X77025495Y-53573796D01*
X77001227Y-53570196D01*
X76977428Y-53564235D01*
X76954329Y-53555970D01*
X76932150Y-53545480D01*
X76911107Y-53532868D01*
X76891401Y-53518253D01*
X76873223Y-53501777D01*
X76856747Y-53483599D01*
X76842132Y-53463893D01*
X76829520Y-53442850D01*
X76819030Y-53420671D01*
X76810765Y-53397572D01*
X76804804Y-53373773D01*
X76801204Y-53349505D01*
X76800000Y-53325001D01*
X76800000Y-52674999D01*
X76801204Y-52650495D01*
X76804804Y-52626227D01*
X76810765Y-52602428D01*
X76819030Y-52579329D01*
X76829520Y-52557150D01*
X76842132Y-52536107D01*
X76856747Y-52516401D01*
X76873223Y-52498223D01*
X76891401Y-52481747D01*
X76911107Y-52467132D01*
X76932150Y-52454520D01*
X76954329Y-52444030D01*
X76977428Y-52435765D01*
X77001227Y-52429804D01*
X77025495Y-52426204D01*
X77049999Y-52425000D01*
X77950001Y-52425000D01*
X77974505Y-52426204D01*
X77974505Y-52426204D01*
G37*
D15*
G04 #@! TD*
G04 #@! TO.P,C12,1*
G04 #@! TO.N,Net-(C12-Pad1)*
X77500000Y-53000000D03*
D14*
G04 #@! TO.N,Net-(C12-Pad2)*
G04 #@! TO.C,C12*
G36*
X77974505Y-54476204D02*
X77998773Y-54479804D01*
X78022572Y-54485765D01*
X78045671Y-54494030D01*
X78067850Y-54504520D01*
X78088893Y-54517132D01*
X78108599Y-54531747D01*
X78126777Y-54548223D01*
X78143253Y-54566401D01*
X78157868Y-54586107D01*
X78170480Y-54607150D01*
X78180970Y-54629329D01*
X78189235Y-54652428D01*
X78195196Y-54676227D01*
X78198796Y-54700495D01*
X78200000Y-54724999D01*
X78200000Y-55375001D01*
X78198796Y-55399505D01*
X78195196Y-55423773D01*
X78189235Y-55447572D01*
X78180970Y-55470671D01*
X78170480Y-55492850D01*
X78157868Y-55513893D01*
X78143253Y-55533599D01*
X78126777Y-55551777D01*
X78108599Y-55568253D01*
X78088893Y-55582868D01*
X78067850Y-55595480D01*
X78045671Y-55605970D01*
X78022572Y-55614235D01*
X77998773Y-55620196D01*
X77974505Y-55623796D01*
X77950001Y-55625000D01*
X77049999Y-55625000D01*
X77025495Y-55623796D01*
X77001227Y-55620196D01*
X76977428Y-55614235D01*
X76954329Y-55605970D01*
X76932150Y-55595480D01*
X76911107Y-55582868D01*
X76891401Y-55568253D01*
X76873223Y-55551777D01*
X76856747Y-55533599D01*
X76842132Y-55513893D01*
X76829520Y-55492850D01*
X76819030Y-55470671D01*
X76810765Y-55447572D01*
X76804804Y-55423773D01*
X76801204Y-55399505D01*
X76800000Y-55375001D01*
X76800000Y-54724999D01*
X76801204Y-54700495D01*
X76804804Y-54676227D01*
X76810765Y-54652428D01*
X76819030Y-54629329D01*
X76829520Y-54607150D01*
X76842132Y-54586107D01*
X76856747Y-54566401D01*
X76873223Y-54548223D01*
X76891401Y-54531747D01*
X76911107Y-54517132D01*
X76932150Y-54504520D01*
X76954329Y-54494030D01*
X76977428Y-54485765D01*
X77001227Y-54479804D01*
X77025495Y-54476204D01*
X77049999Y-54475000D01*
X77950001Y-54475000D01*
X77974505Y-54476204D01*
X77974505Y-54476204D01*
G37*
D15*
G04 #@! TD*
G04 #@! TO.P,C12,2*
G04 #@! TO.N,Net-(C12-Pad2)*
X77500000Y-55050000D03*
D14*
G04 #@! TO.N,Net-(C13-Pad1)*
G04 #@! TO.C,C13*
G36*
X95724505Y-57876204D02*
X95748773Y-57879804D01*
X95772572Y-57885765D01*
X95795671Y-57894030D01*
X95817850Y-57904520D01*
X95838893Y-57917132D01*
X95858599Y-57931747D01*
X95876777Y-57948223D01*
X95893253Y-57966401D01*
X95907868Y-57986107D01*
X95920480Y-58007150D01*
X95930970Y-58029329D01*
X95939235Y-58052428D01*
X95945196Y-58076227D01*
X95948796Y-58100495D01*
X95950000Y-58124999D01*
X95950000Y-58775001D01*
X95948796Y-58799505D01*
X95945196Y-58823773D01*
X95939235Y-58847572D01*
X95930970Y-58870671D01*
X95920480Y-58892850D01*
X95907868Y-58913893D01*
X95893253Y-58933599D01*
X95876777Y-58951777D01*
X95858599Y-58968253D01*
X95838893Y-58982868D01*
X95817850Y-58995480D01*
X95795671Y-59005970D01*
X95772572Y-59014235D01*
X95748773Y-59020196D01*
X95724505Y-59023796D01*
X95700001Y-59025000D01*
X94799999Y-59025000D01*
X94775495Y-59023796D01*
X94751227Y-59020196D01*
X94727428Y-59014235D01*
X94704329Y-59005970D01*
X94682150Y-58995480D01*
X94661107Y-58982868D01*
X94641401Y-58968253D01*
X94623223Y-58951777D01*
X94606747Y-58933599D01*
X94592132Y-58913893D01*
X94579520Y-58892850D01*
X94569030Y-58870671D01*
X94560765Y-58847572D01*
X94554804Y-58823773D01*
X94551204Y-58799505D01*
X94550000Y-58775001D01*
X94550000Y-58124999D01*
X94551204Y-58100495D01*
X94554804Y-58076227D01*
X94560765Y-58052428D01*
X94569030Y-58029329D01*
X94579520Y-58007150D01*
X94592132Y-57986107D01*
X94606747Y-57966401D01*
X94623223Y-57948223D01*
X94641401Y-57931747D01*
X94661107Y-57917132D01*
X94682150Y-57904520D01*
X94704329Y-57894030D01*
X94727428Y-57885765D01*
X94751227Y-57879804D01*
X94775495Y-57876204D01*
X94799999Y-57875000D01*
X95700001Y-57875000D01*
X95724505Y-57876204D01*
X95724505Y-57876204D01*
G37*
D15*
G04 #@! TD*
G04 #@! TO.P,C13,1*
G04 #@! TO.N,Net-(C13-Pad1)*
X95250000Y-58450000D03*
D14*
G04 #@! TO.N,Net-(C13-Pad2)*
G04 #@! TO.C,C13*
G36*
X95724505Y-59926204D02*
X95748773Y-59929804D01*
X95772572Y-59935765D01*
X95795671Y-59944030D01*
X95817850Y-59954520D01*
X95838893Y-59967132D01*
X95858599Y-59981747D01*
X95876777Y-59998223D01*
X95893253Y-60016401D01*
X95907868Y-60036107D01*
X95920480Y-60057150D01*
X95930970Y-60079329D01*
X95939235Y-60102428D01*
X95945196Y-60126227D01*
X95948796Y-60150495D01*
X95950000Y-60174999D01*
X95950000Y-60825001D01*
X95948796Y-60849505D01*
X95945196Y-60873773D01*
X95939235Y-60897572D01*
X95930970Y-60920671D01*
X95920480Y-60942850D01*
X95907868Y-60963893D01*
X95893253Y-60983599D01*
X95876777Y-61001777D01*
X95858599Y-61018253D01*
X95838893Y-61032868D01*
X95817850Y-61045480D01*
X95795671Y-61055970D01*
X95772572Y-61064235D01*
X95748773Y-61070196D01*
X95724505Y-61073796D01*
X95700001Y-61075000D01*
X94799999Y-61075000D01*
X94775495Y-61073796D01*
X94751227Y-61070196D01*
X94727428Y-61064235D01*
X94704329Y-61055970D01*
X94682150Y-61045480D01*
X94661107Y-61032868D01*
X94641401Y-61018253D01*
X94623223Y-61001777D01*
X94606747Y-60983599D01*
X94592132Y-60963893D01*
X94579520Y-60942850D01*
X94569030Y-60920671D01*
X94560765Y-60897572D01*
X94554804Y-60873773D01*
X94551204Y-60849505D01*
X94550000Y-60825001D01*
X94550000Y-60174999D01*
X94551204Y-60150495D01*
X94554804Y-60126227D01*
X94560765Y-60102428D01*
X94569030Y-60079329D01*
X94579520Y-60057150D01*
X94592132Y-60036107D01*
X94606747Y-60016401D01*
X94623223Y-59998223D01*
X94641401Y-59981747D01*
X94661107Y-59967132D01*
X94682150Y-59954520D01*
X94704329Y-59944030D01*
X94727428Y-59935765D01*
X94751227Y-59929804D01*
X94775495Y-59926204D01*
X94799999Y-59925000D01*
X95700001Y-59925000D01*
X95724505Y-59926204D01*
X95724505Y-59926204D01*
G37*
D15*
G04 #@! TD*
G04 #@! TO.P,C13,2*
G04 #@! TO.N,Net-(C13-Pad2)*
X95250000Y-60500000D03*
D14*
G04 #@! TO.N,GND*
G04 #@! TO.C,C14*
G36*
X92974505Y-54451204D02*
X92998773Y-54454804D01*
X93022572Y-54460765D01*
X93045671Y-54469030D01*
X93067850Y-54479520D01*
X93088893Y-54492132D01*
X93108599Y-54506747D01*
X93126777Y-54523223D01*
X93143253Y-54541401D01*
X93157868Y-54561107D01*
X93170480Y-54582150D01*
X93180970Y-54604329D01*
X93189235Y-54627428D01*
X93195196Y-54651227D01*
X93198796Y-54675495D01*
X93200000Y-54699999D01*
X93200000Y-55350001D01*
X93198796Y-55374505D01*
X93195196Y-55398773D01*
X93189235Y-55422572D01*
X93180970Y-55445671D01*
X93170480Y-55467850D01*
X93157868Y-55488893D01*
X93143253Y-55508599D01*
X93126777Y-55526777D01*
X93108599Y-55543253D01*
X93088893Y-55557868D01*
X93067850Y-55570480D01*
X93045671Y-55580970D01*
X93022572Y-55589235D01*
X92998773Y-55595196D01*
X92974505Y-55598796D01*
X92950001Y-55600000D01*
X92049999Y-55600000D01*
X92025495Y-55598796D01*
X92001227Y-55595196D01*
X91977428Y-55589235D01*
X91954329Y-55580970D01*
X91932150Y-55570480D01*
X91911107Y-55557868D01*
X91891401Y-55543253D01*
X91873223Y-55526777D01*
X91856747Y-55508599D01*
X91842132Y-55488893D01*
X91829520Y-55467850D01*
X91819030Y-55445671D01*
X91810765Y-55422572D01*
X91804804Y-55398773D01*
X91801204Y-55374505D01*
X91800000Y-55350001D01*
X91800000Y-54699999D01*
X91801204Y-54675495D01*
X91804804Y-54651227D01*
X91810765Y-54627428D01*
X91819030Y-54604329D01*
X91829520Y-54582150D01*
X91842132Y-54561107D01*
X91856747Y-54541401D01*
X91873223Y-54523223D01*
X91891401Y-54506747D01*
X91911107Y-54492132D01*
X91932150Y-54479520D01*
X91954329Y-54469030D01*
X91977428Y-54460765D01*
X92001227Y-54454804D01*
X92025495Y-54451204D01*
X92049999Y-54450000D01*
X92950001Y-54450000D01*
X92974505Y-54451204D01*
X92974505Y-54451204D01*
G37*
D15*
G04 #@! TD*
G04 #@! TO.P,C14,1*
G04 #@! TO.N,GND*
X92500000Y-55025000D03*
D14*
G04 #@! TO.N,Net-(C14-Pad2)*
G04 #@! TO.C,C14*
G36*
X92974505Y-52401204D02*
X92998773Y-52404804D01*
X93022572Y-52410765D01*
X93045671Y-52419030D01*
X93067850Y-52429520D01*
X93088893Y-52442132D01*
X93108599Y-52456747D01*
X93126777Y-52473223D01*
X93143253Y-52491401D01*
X93157868Y-52511107D01*
X93170480Y-52532150D01*
X93180970Y-52554329D01*
X93189235Y-52577428D01*
X93195196Y-52601227D01*
X93198796Y-52625495D01*
X93200000Y-52649999D01*
X93200000Y-53300001D01*
X93198796Y-53324505D01*
X93195196Y-53348773D01*
X93189235Y-53372572D01*
X93180970Y-53395671D01*
X93170480Y-53417850D01*
X93157868Y-53438893D01*
X93143253Y-53458599D01*
X93126777Y-53476777D01*
X93108599Y-53493253D01*
X93088893Y-53507868D01*
X93067850Y-53520480D01*
X93045671Y-53530970D01*
X93022572Y-53539235D01*
X92998773Y-53545196D01*
X92974505Y-53548796D01*
X92950001Y-53550000D01*
X92049999Y-53550000D01*
X92025495Y-53548796D01*
X92001227Y-53545196D01*
X91977428Y-53539235D01*
X91954329Y-53530970D01*
X91932150Y-53520480D01*
X91911107Y-53507868D01*
X91891401Y-53493253D01*
X91873223Y-53476777D01*
X91856747Y-53458599D01*
X91842132Y-53438893D01*
X91829520Y-53417850D01*
X91819030Y-53395671D01*
X91810765Y-53372572D01*
X91804804Y-53348773D01*
X91801204Y-53324505D01*
X91800000Y-53300001D01*
X91800000Y-52649999D01*
X91801204Y-52625495D01*
X91804804Y-52601227D01*
X91810765Y-52577428D01*
X91819030Y-52554329D01*
X91829520Y-52532150D01*
X91842132Y-52511107D01*
X91856747Y-52491401D01*
X91873223Y-52473223D01*
X91891401Y-52456747D01*
X91911107Y-52442132D01*
X91932150Y-52429520D01*
X91954329Y-52419030D01*
X91977428Y-52410765D01*
X92001227Y-52404804D01*
X92025495Y-52401204D01*
X92049999Y-52400000D01*
X92950001Y-52400000D01*
X92974505Y-52401204D01*
X92974505Y-52401204D01*
G37*
D15*
G04 #@! TD*
G04 #@! TO.P,C14,2*
G04 #@! TO.N,Net-(C14-Pad2)*
X92500000Y-52975000D03*
D14*
G04 #@! TO.N,Net-(C15-Pad1)*
G04 #@! TO.C,C15*
G36*
X95724505Y-62476204D02*
X95748773Y-62479804D01*
X95772572Y-62485765D01*
X95795671Y-62494030D01*
X95817850Y-62504520D01*
X95838893Y-62517132D01*
X95858599Y-62531747D01*
X95876777Y-62548223D01*
X95893253Y-62566401D01*
X95907868Y-62586107D01*
X95920480Y-62607150D01*
X95930970Y-62629329D01*
X95939235Y-62652428D01*
X95945196Y-62676227D01*
X95948796Y-62700495D01*
X95950000Y-62724999D01*
X95950000Y-63375001D01*
X95948796Y-63399505D01*
X95945196Y-63423773D01*
X95939235Y-63447572D01*
X95930970Y-63470671D01*
X95920480Y-63492850D01*
X95907868Y-63513893D01*
X95893253Y-63533599D01*
X95876777Y-63551777D01*
X95858599Y-63568253D01*
X95838893Y-63582868D01*
X95817850Y-63595480D01*
X95795671Y-63605970D01*
X95772572Y-63614235D01*
X95748773Y-63620196D01*
X95724505Y-63623796D01*
X95700001Y-63625000D01*
X94799999Y-63625000D01*
X94775495Y-63623796D01*
X94751227Y-63620196D01*
X94727428Y-63614235D01*
X94704329Y-63605970D01*
X94682150Y-63595480D01*
X94661107Y-63582868D01*
X94641401Y-63568253D01*
X94623223Y-63551777D01*
X94606747Y-63533599D01*
X94592132Y-63513893D01*
X94579520Y-63492850D01*
X94569030Y-63470671D01*
X94560765Y-63447572D01*
X94554804Y-63423773D01*
X94551204Y-63399505D01*
X94550000Y-63375001D01*
X94550000Y-62724999D01*
X94551204Y-62700495D01*
X94554804Y-62676227D01*
X94560765Y-62652428D01*
X94569030Y-62629329D01*
X94579520Y-62607150D01*
X94592132Y-62586107D01*
X94606747Y-62566401D01*
X94623223Y-62548223D01*
X94641401Y-62531747D01*
X94661107Y-62517132D01*
X94682150Y-62504520D01*
X94704329Y-62494030D01*
X94727428Y-62485765D01*
X94751227Y-62479804D01*
X94775495Y-62476204D01*
X94799999Y-62475000D01*
X95700001Y-62475000D01*
X95724505Y-62476204D01*
X95724505Y-62476204D01*
G37*
D15*
G04 #@! TD*
G04 #@! TO.P,C15,1*
G04 #@! TO.N,Net-(C15-Pad1)*
X95250000Y-63050000D03*
D14*
G04 #@! TO.N,Net-(C15-Pad2)*
G04 #@! TO.C,C15*
G36*
X95724505Y-64526204D02*
X95748773Y-64529804D01*
X95772572Y-64535765D01*
X95795671Y-64544030D01*
X95817850Y-64554520D01*
X95838893Y-64567132D01*
X95858599Y-64581747D01*
X95876777Y-64598223D01*
X95893253Y-64616401D01*
X95907868Y-64636107D01*
X95920480Y-64657150D01*
X95930970Y-64679329D01*
X95939235Y-64702428D01*
X95945196Y-64726227D01*
X95948796Y-64750495D01*
X95950000Y-64774999D01*
X95950000Y-65425001D01*
X95948796Y-65449505D01*
X95945196Y-65473773D01*
X95939235Y-65497572D01*
X95930970Y-65520671D01*
X95920480Y-65542850D01*
X95907868Y-65563893D01*
X95893253Y-65583599D01*
X95876777Y-65601777D01*
X95858599Y-65618253D01*
X95838893Y-65632868D01*
X95817850Y-65645480D01*
X95795671Y-65655970D01*
X95772572Y-65664235D01*
X95748773Y-65670196D01*
X95724505Y-65673796D01*
X95700001Y-65675000D01*
X94799999Y-65675000D01*
X94775495Y-65673796D01*
X94751227Y-65670196D01*
X94727428Y-65664235D01*
X94704329Y-65655970D01*
X94682150Y-65645480D01*
X94661107Y-65632868D01*
X94641401Y-65618253D01*
X94623223Y-65601777D01*
X94606747Y-65583599D01*
X94592132Y-65563893D01*
X94579520Y-65542850D01*
X94569030Y-65520671D01*
X94560765Y-65497572D01*
X94554804Y-65473773D01*
X94551204Y-65449505D01*
X94550000Y-65425001D01*
X94550000Y-64774999D01*
X94551204Y-64750495D01*
X94554804Y-64726227D01*
X94560765Y-64702428D01*
X94569030Y-64679329D01*
X94579520Y-64657150D01*
X94592132Y-64636107D01*
X94606747Y-64616401D01*
X94623223Y-64598223D01*
X94641401Y-64581747D01*
X94661107Y-64567132D01*
X94682150Y-64554520D01*
X94704329Y-64544030D01*
X94727428Y-64535765D01*
X94751227Y-64529804D01*
X94775495Y-64526204D01*
X94799999Y-64525000D01*
X95700001Y-64525000D01*
X95724505Y-64526204D01*
X95724505Y-64526204D01*
G37*
D15*
G04 #@! TD*
G04 #@! TO.P,C15,2*
G04 #@! TO.N,Net-(C15-Pad2)*
X95250000Y-65100000D03*
D14*
G04 #@! TO.N,Net-(C16-Pad2)*
G04 #@! TO.C,C16*
G36*
X102549505Y-56351204D02*
X102573773Y-56354804D01*
X102597572Y-56360765D01*
X102620671Y-56369030D01*
X102642850Y-56379520D01*
X102663893Y-56392132D01*
X102683599Y-56406747D01*
X102701777Y-56423223D01*
X102718253Y-56441401D01*
X102732868Y-56461107D01*
X102745480Y-56482150D01*
X102755970Y-56504329D01*
X102764235Y-56527428D01*
X102770196Y-56551227D01*
X102773796Y-56575495D01*
X102775000Y-56599999D01*
X102775000Y-57500001D01*
X102773796Y-57524505D01*
X102770196Y-57548773D01*
X102764235Y-57572572D01*
X102755970Y-57595671D01*
X102745480Y-57617850D01*
X102732868Y-57638893D01*
X102718253Y-57658599D01*
X102701777Y-57676777D01*
X102683599Y-57693253D01*
X102663893Y-57707868D01*
X102642850Y-57720480D01*
X102620671Y-57730970D01*
X102597572Y-57739235D01*
X102573773Y-57745196D01*
X102549505Y-57748796D01*
X102525001Y-57750000D01*
X101874999Y-57750000D01*
X101850495Y-57748796D01*
X101826227Y-57745196D01*
X101802428Y-57739235D01*
X101779329Y-57730970D01*
X101757150Y-57720480D01*
X101736107Y-57707868D01*
X101716401Y-57693253D01*
X101698223Y-57676777D01*
X101681747Y-57658599D01*
X101667132Y-57638893D01*
X101654520Y-57617850D01*
X101644030Y-57595671D01*
X101635765Y-57572572D01*
X101629804Y-57548773D01*
X101626204Y-57524505D01*
X101625000Y-57500001D01*
X101625000Y-56599999D01*
X101626204Y-56575495D01*
X101629804Y-56551227D01*
X101635765Y-56527428D01*
X101644030Y-56504329D01*
X101654520Y-56482150D01*
X101667132Y-56461107D01*
X101681747Y-56441401D01*
X101698223Y-56423223D01*
X101716401Y-56406747D01*
X101736107Y-56392132D01*
X101757150Y-56379520D01*
X101779329Y-56369030D01*
X101802428Y-56360765D01*
X101826227Y-56354804D01*
X101850495Y-56351204D01*
X101874999Y-56350000D01*
X102525001Y-56350000D01*
X102549505Y-56351204D01*
X102549505Y-56351204D01*
G37*
D15*
G04 #@! TD*
G04 #@! TO.P,C16,2*
G04 #@! TO.N,Net-(C16-Pad2)*
X102200000Y-57050000D03*
D14*
G04 #@! TO.N,Net-(C14-Pad2)*
G04 #@! TO.C,C16*
G36*
X104599505Y-56351204D02*
X104623773Y-56354804D01*
X104647572Y-56360765D01*
X104670671Y-56369030D01*
X104692850Y-56379520D01*
X104713893Y-56392132D01*
X104733599Y-56406747D01*
X104751777Y-56423223D01*
X104768253Y-56441401D01*
X104782868Y-56461107D01*
X104795480Y-56482150D01*
X104805970Y-56504329D01*
X104814235Y-56527428D01*
X104820196Y-56551227D01*
X104823796Y-56575495D01*
X104825000Y-56599999D01*
X104825000Y-57500001D01*
X104823796Y-57524505D01*
X104820196Y-57548773D01*
X104814235Y-57572572D01*
X104805970Y-57595671D01*
X104795480Y-57617850D01*
X104782868Y-57638893D01*
X104768253Y-57658599D01*
X104751777Y-57676777D01*
X104733599Y-57693253D01*
X104713893Y-57707868D01*
X104692850Y-57720480D01*
X104670671Y-57730970D01*
X104647572Y-57739235D01*
X104623773Y-57745196D01*
X104599505Y-57748796D01*
X104575001Y-57750000D01*
X103924999Y-57750000D01*
X103900495Y-57748796D01*
X103876227Y-57745196D01*
X103852428Y-57739235D01*
X103829329Y-57730970D01*
X103807150Y-57720480D01*
X103786107Y-57707868D01*
X103766401Y-57693253D01*
X103748223Y-57676777D01*
X103731747Y-57658599D01*
X103717132Y-57638893D01*
X103704520Y-57617850D01*
X103694030Y-57595671D01*
X103685765Y-57572572D01*
X103679804Y-57548773D01*
X103676204Y-57524505D01*
X103675000Y-57500001D01*
X103675000Y-56599999D01*
X103676204Y-56575495D01*
X103679804Y-56551227D01*
X103685765Y-56527428D01*
X103694030Y-56504329D01*
X103704520Y-56482150D01*
X103717132Y-56461107D01*
X103731747Y-56441401D01*
X103748223Y-56423223D01*
X103766401Y-56406747D01*
X103786107Y-56392132D01*
X103807150Y-56379520D01*
X103829329Y-56369030D01*
X103852428Y-56360765D01*
X103876227Y-56354804D01*
X103900495Y-56351204D01*
X103924999Y-56350000D01*
X104575001Y-56350000D01*
X104599505Y-56351204D01*
X104599505Y-56351204D01*
G37*
D15*
G04 #@! TD*
G04 #@! TO.P,C16,1*
G04 #@! TO.N,Net-(C14-Pad2)*
X104250000Y-57050000D03*
D14*
G04 #@! TO.N,Net-(C17-Pad2)*
G04 #@! TO.C,C17*
G36*
X95724505Y-66926204D02*
X95748773Y-66929804D01*
X95772572Y-66935765D01*
X95795671Y-66944030D01*
X95817850Y-66954520D01*
X95838893Y-66967132D01*
X95858599Y-66981747D01*
X95876777Y-66998223D01*
X95893253Y-67016401D01*
X95907868Y-67036107D01*
X95920480Y-67057150D01*
X95930970Y-67079329D01*
X95939235Y-67102428D01*
X95945196Y-67126227D01*
X95948796Y-67150495D01*
X95950000Y-67174999D01*
X95950000Y-67825001D01*
X95948796Y-67849505D01*
X95945196Y-67873773D01*
X95939235Y-67897572D01*
X95930970Y-67920671D01*
X95920480Y-67942850D01*
X95907868Y-67963893D01*
X95893253Y-67983599D01*
X95876777Y-68001777D01*
X95858599Y-68018253D01*
X95838893Y-68032868D01*
X95817850Y-68045480D01*
X95795671Y-68055970D01*
X95772572Y-68064235D01*
X95748773Y-68070196D01*
X95724505Y-68073796D01*
X95700001Y-68075000D01*
X94799999Y-68075000D01*
X94775495Y-68073796D01*
X94751227Y-68070196D01*
X94727428Y-68064235D01*
X94704329Y-68055970D01*
X94682150Y-68045480D01*
X94661107Y-68032868D01*
X94641401Y-68018253D01*
X94623223Y-68001777D01*
X94606747Y-67983599D01*
X94592132Y-67963893D01*
X94579520Y-67942850D01*
X94569030Y-67920671D01*
X94560765Y-67897572D01*
X94554804Y-67873773D01*
X94551204Y-67849505D01*
X94550000Y-67825001D01*
X94550000Y-67174999D01*
X94551204Y-67150495D01*
X94554804Y-67126227D01*
X94560765Y-67102428D01*
X94569030Y-67079329D01*
X94579520Y-67057150D01*
X94592132Y-67036107D01*
X94606747Y-67016401D01*
X94623223Y-66998223D01*
X94641401Y-66981747D01*
X94661107Y-66967132D01*
X94682150Y-66954520D01*
X94704329Y-66944030D01*
X94727428Y-66935765D01*
X94751227Y-66929804D01*
X94775495Y-66926204D01*
X94799999Y-66925000D01*
X95700001Y-66925000D01*
X95724505Y-66926204D01*
X95724505Y-66926204D01*
G37*
D15*
G04 #@! TD*
G04 #@! TO.P,C17,2*
G04 #@! TO.N,Net-(C17-Pad2)*
X95250000Y-67500000D03*
D14*
G04 #@! TO.N,GND*
G04 #@! TO.C,C17*
G36*
X95724505Y-68976204D02*
X95748773Y-68979804D01*
X95772572Y-68985765D01*
X95795671Y-68994030D01*
X95817850Y-69004520D01*
X95838893Y-69017132D01*
X95858599Y-69031747D01*
X95876777Y-69048223D01*
X95893253Y-69066401D01*
X95907868Y-69086107D01*
X95920480Y-69107150D01*
X95930970Y-69129329D01*
X95939235Y-69152428D01*
X95945196Y-69176227D01*
X95948796Y-69200495D01*
X95950000Y-69224999D01*
X95950000Y-69875001D01*
X95948796Y-69899505D01*
X95945196Y-69923773D01*
X95939235Y-69947572D01*
X95930970Y-69970671D01*
X95920480Y-69992850D01*
X95907868Y-70013893D01*
X95893253Y-70033599D01*
X95876777Y-70051777D01*
X95858599Y-70068253D01*
X95838893Y-70082868D01*
X95817850Y-70095480D01*
X95795671Y-70105970D01*
X95772572Y-70114235D01*
X95748773Y-70120196D01*
X95724505Y-70123796D01*
X95700001Y-70125000D01*
X94799999Y-70125000D01*
X94775495Y-70123796D01*
X94751227Y-70120196D01*
X94727428Y-70114235D01*
X94704329Y-70105970D01*
X94682150Y-70095480D01*
X94661107Y-70082868D01*
X94641401Y-70068253D01*
X94623223Y-70051777D01*
X94606747Y-70033599D01*
X94592132Y-70013893D01*
X94579520Y-69992850D01*
X94569030Y-69970671D01*
X94560765Y-69947572D01*
X94554804Y-69923773D01*
X94551204Y-69899505D01*
X94550000Y-69875001D01*
X94550000Y-69224999D01*
X94551204Y-69200495D01*
X94554804Y-69176227D01*
X94560765Y-69152428D01*
X94569030Y-69129329D01*
X94579520Y-69107150D01*
X94592132Y-69086107D01*
X94606747Y-69066401D01*
X94623223Y-69048223D01*
X94641401Y-69031747D01*
X94661107Y-69017132D01*
X94682150Y-69004520D01*
X94704329Y-68994030D01*
X94727428Y-68985765D01*
X94751227Y-68979804D01*
X94775495Y-68976204D01*
X94799999Y-68975000D01*
X95700001Y-68975000D01*
X95724505Y-68976204D01*
X95724505Y-68976204D01*
G37*
D15*
G04 #@! TD*
G04 #@! TO.P,C17,1*
G04 #@! TO.N,GND*
X95250000Y-69550000D03*
D14*
G04 #@! TO.N,Net-(C18-Pad1)*
G04 #@! TO.C,C18*
G36*
X99824504Y-42051204D02*
X99848773Y-42054804D01*
X99872571Y-42060765D01*
X99895671Y-42069030D01*
X99917849Y-42079520D01*
X99938893Y-42092133D01*
X99958598Y-42106747D01*
X99976777Y-42123223D01*
X99993253Y-42141402D01*
X100007867Y-42161107D01*
X100020480Y-42182151D01*
X100030970Y-42204329D01*
X100039235Y-42227429D01*
X100045196Y-42251227D01*
X100048796Y-42275496D01*
X100050000Y-42300000D01*
X100050000Y-45300000D01*
X100048796Y-45324504D01*
X100045196Y-45348773D01*
X100039235Y-45372571D01*
X100030970Y-45395671D01*
X100020480Y-45417849D01*
X100007867Y-45438893D01*
X99993253Y-45458598D01*
X99976777Y-45476777D01*
X99958598Y-45493253D01*
X99938893Y-45507867D01*
X99917849Y-45520480D01*
X99895671Y-45530970D01*
X99872571Y-45539235D01*
X99848773Y-45545196D01*
X99824504Y-45548796D01*
X99800000Y-45550000D01*
X98700000Y-45550000D01*
X98675496Y-45548796D01*
X98651227Y-45545196D01*
X98627429Y-45539235D01*
X98604329Y-45530970D01*
X98582151Y-45520480D01*
X98561107Y-45507867D01*
X98541402Y-45493253D01*
X98523223Y-45476777D01*
X98506747Y-45458598D01*
X98492133Y-45438893D01*
X98479520Y-45417849D01*
X98469030Y-45395671D01*
X98460765Y-45372571D01*
X98454804Y-45348773D01*
X98451204Y-45324504D01*
X98450000Y-45300000D01*
X98450000Y-42300000D01*
X98451204Y-42275496D01*
X98454804Y-42251227D01*
X98460765Y-42227429D01*
X98469030Y-42204329D01*
X98479520Y-42182151D01*
X98492133Y-42161107D01*
X98506747Y-42141402D01*
X98523223Y-42123223D01*
X98541402Y-42106747D01*
X98561107Y-42092133D01*
X98582151Y-42079520D01*
X98604329Y-42069030D01*
X98627429Y-42060765D01*
X98651227Y-42054804D01*
X98675496Y-42051204D01*
X98700000Y-42050000D01*
X99800000Y-42050000D01*
X99824504Y-42051204D01*
X99824504Y-42051204D01*
G37*
D16*
G04 #@! TD*
G04 #@! TO.P,C18,1*
G04 #@! TO.N,Net-(C18-Pad1)*
X99250000Y-43800000D03*
D14*
G04 #@! TO.N,Earth*
G04 #@! TO.C,C18*
G36*
X99824504Y-36451204D02*
X99848773Y-36454804D01*
X99872571Y-36460765D01*
X99895671Y-36469030D01*
X99917849Y-36479520D01*
X99938893Y-36492133D01*
X99958598Y-36506747D01*
X99976777Y-36523223D01*
X99993253Y-36541402D01*
X100007867Y-36561107D01*
X100020480Y-36582151D01*
X100030970Y-36604329D01*
X100039235Y-36627429D01*
X100045196Y-36651227D01*
X100048796Y-36675496D01*
X100050000Y-36700000D01*
X100050000Y-39700000D01*
X100048796Y-39724504D01*
X100045196Y-39748773D01*
X100039235Y-39772571D01*
X100030970Y-39795671D01*
X100020480Y-39817849D01*
X100007867Y-39838893D01*
X99993253Y-39858598D01*
X99976777Y-39876777D01*
X99958598Y-39893253D01*
X99938893Y-39907867D01*
X99917849Y-39920480D01*
X99895671Y-39930970D01*
X99872571Y-39939235D01*
X99848773Y-39945196D01*
X99824504Y-39948796D01*
X99800000Y-39950000D01*
X98700000Y-39950000D01*
X98675496Y-39948796D01*
X98651227Y-39945196D01*
X98627429Y-39939235D01*
X98604329Y-39930970D01*
X98582151Y-39920480D01*
X98561107Y-39907867D01*
X98541402Y-39893253D01*
X98523223Y-39876777D01*
X98506747Y-39858598D01*
X98492133Y-39838893D01*
X98479520Y-39817849D01*
X98469030Y-39795671D01*
X98460765Y-39772571D01*
X98454804Y-39748773D01*
X98451204Y-39724504D01*
X98450000Y-39700000D01*
X98450000Y-36700000D01*
X98451204Y-36675496D01*
X98454804Y-36651227D01*
X98460765Y-36627429D01*
X98469030Y-36604329D01*
X98479520Y-36582151D01*
X98492133Y-36561107D01*
X98506747Y-36541402D01*
X98523223Y-36523223D01*
X98541402Y-36506747D01*
X98561107Y-36492133D01*
X98582151Y-36479520D01*
X98604329Y-36469030D01*
X98627429Y-36460765D01*
X98651227Y-36454804D01*
X98675496Y-36451204D01*
X98700000Y-36450000D01*
X99800000Y-36450000D01*
X99824504Y-36451204D01*
X99824504Y-36451204D01*
G37*
D16*
G04 #@! TD*
G04 #@! TO.P,C18,2*
G04 #@! TO.N,Earth*
X99250000Y-38200000D03*
D14*
G04 #@! TO.N,Net-(C19-Pad1)*
G04 #@! TO.C,C19*
G36*
X99824504Y-52051204D02*
X99848773Y-52054804D01*
X99872571Y-52060765D01*
X99895671Y-52069030D01*
X99917849Y-52079520D01*
X99938893Y-52092133D01*
X99958598Y-52106747D01*
X99976777Y-52123223D01*
X99993253Y-52141402D01*
X100007867Y-52161107D01*
X100020480Y-52182151D01*
X100030970Y-52204329D01*
X100039235Y-52227429D01*
X100045196Y-52251227D01*
X100048796Y-52275496D01*
X100050000Y-52300000D01*
X100050000Y-55300000D01*
X100048796Y-55324504D01*
X100045196Y-55348773D01*
X100039235Y-55372571D01*
X100030970Y-55395671D01*
X100020480Y-55417849D01*
X100007867Y-55438893D01*
X99993253Y-55458598D01*
X99976777Y-55476777D01*
X99958598Y-55493253D01*
X99938893Y-55507867D01*
X99917849Y-55520480D01*
X99895671Y-55530970D01*
X99872571Y-55539235D01*
X99848773Y-55545196D01*
X99824504Y-55548796D01*
X99800000Y-55550000D01*
X98700000Y-55550000D01*
X98675496Y-55548796D01*
X98651227Y-55545196D01*
X98627429Y-55539235D01*
X98604329Y-55530970D01*
X98582151Y-55520480D01*
X98561107Y-55507867D01*
X98541402Y-55493253D01*
X98523223Y-55476777D01*
X98506747Y-55458598D01*
X98492133Y-55438893D01*
X98479520Y-55417849D01*
X98469030Y-55395671D01*
X98460765Y-55372571D01*
X98454804Y-55348773D01*
X98451204Y-55324504D01*
X98450000Y-55300000D01*
X98450000Y-52300000D01*
X98451204Y-52275496D01*
X98454804Y-52251227D01*
X98460765Y-52227429D01*
X98469030Y-52204329D01*
X98479520Y-52182151D01*
X98492133Y-52161107D01*
X98506747Y-52141402D01*
X98523223Y-52123223D01*
X98541402Y-52106747D01*
X98561107Y-52092133D01*
X98582151Y-52079520D01*
X98604329Y-52069030D01*
X98627429Y-52060765D01*
X98651227Y-52054804D01*
X98675496Y-52051204D01*
X98700000Y-52050000D01*
X99800000Y-52050000D01*
X99824504Y-52051204D01*
X99824504Y-52051204D01*
G37*
D16*
G04 #@! TD*
G04 #@! TO.P,C19,1*
G04 #@! TO.N,Net-(C19-Pad1)*
X99250000Y-53800000D03*
D14*
G04 #@! TO.N,Earth*
G04 #@! TO.C,C19*
G36*
X99824504Y-46451204D02*
X99848773Y-46454804D01*
X99872571Y-46460765D01*
X99895671Y-46469030D01*
X99917849Y-46479520D01*
X99938893Y-46492133D01*
X99958598Y-46506747D01*
X99976777Y-46523223D01*
X99993253Y-46541402D01*
X100007867Y-46561107D01*
X100020480Y-46582151D01*
X100030970Y-46604329D01*
X100039235Y-46627429D01*
X100045196Y-46651227D01*
X100048796Y-46675496D01*
X100050000Y-46700000D01*
X100050000Y-49700000D01*
X100048796Y-49724504D01*
X100045196Y-49748773D01*
X100039235Y-49772571D01*
X100030970Y-49795671D01*
X100020480Y-49817849D01*
X100007867Y-49838893D01*
X99993253Y-49858598D01*
X99976777Y-49876777D01*
X99958598Y-49893253D01*
X99938893Y-49907867D01*
X99917849Y-49920480D01*
X99895671Y-49930970D01*
X99872571Y-49939235D01*
X99848773Y-49945196D01*
X99824504Y-49948796D01*
X99800000Y-49950000D01*
X98700000Y-49950000D01*
X98675496Y-49948796D01*
X98651227Y-49945196D01*
X98627429Y-49939235D01*
X98604329Y-49930970D01*
X98582151Y-49920480D01*
X98561107Y-49907867D01*
X98541402Y-49893253D01*
X98523223Y-49876777D01*
X98506747Y-49858598D01*
X98492133Y-49838893D01*
X98479520Y-49817849D01*
X98469030Y-49795671D01*
X98460765Y-49772571D01*
X98454804Y-49748773D01*
X98451204Y-49724504D01*
X98450000Y-49700000D01*
X98450000Y-46700000D01*
X98451204Y-46675496D01*
X98454804Y-46651227D01*
X98460765Y-46627429D01*
X98469030Y-46604329D01*
X98479520Y-46582151D01*
X98492133Y-46561107D01*
X98506747Y-46541402D01*
X98523223Y-46523223D01*
X98541402Y-46506747D01*
X98561107Y-46492133D01*
X98582151Y-46479520D01*
X98604329Y-46469030D01*
X98627429Y-46460765D01*
X98651227Y-46454804D01*
X98675496Y-46451204D01*
X98700000Y-46450000D01*
X99800000Y-46450000D01*
X99824504Y-46451204D01*
X99824504Y-46451204D01*
G37*
D16*
G04 #@! TD*
G04 #@! TO.P,C19,2*
G04 #@! TO.N,Earth*
X99250000Y-48200000D03*
D13*
G04 #@! TO.P,J5,1*
G04 #@! TO.N,Net-(J5-Pad1)*
X56500000Y-40000000D03*
D12*
G04 #@! TO.P,J5,2*
G04 #@! TO.N,Net-(J5-Pad2)*
X59040000Y-41270000D03*
G04 #@! TO.P,J5,3*
G04 #@! TO.N,Net-(J5-Pad3)*
X56500000Y-42540000D03*
G04 #@! TO.P,J5,4*
G04 #@! TO.N,Net-(J5-Pad4)*
X59040000Y-43810000D03*
G04 #@! TO.P,J5,5*
G04 #@! TO.N,Net-(J5-Pad5)*
X56500000Y-45080000D03*
G04 #@! TO.P,J5,6*
G04 #@! TO.N,Net-(J5-Pad6)*
X59040000Y-46350000D03*
G04 #@! TO.P,J5,7*
G04 #@! TO.N,Net-(J5-Pad7)*
X56500000Y-47620000D03*
G04 #@! TO.P,J5,8*
G04 #@! TO.N,Net-(J5-Pad8)*
X59040000Y-48890000D03*
G04 #@! TD*
D17*
G04 #@! TO.P,J6,16*
G04 #@! TO.N,GND*
X65040000Y-55530000D03*
G04 #@! TO.P,J6,15*
G04 #@! TO.N,Net-(J5-Pad8)*
X62500000Y-55530000D03*
G04 #@! TO.P,J6,14*
G04 #@! TO.N,GND*
X65040000Y-52990000D03*
G04 #@! TO.P,J6,13*
G04 #@! TO.N,Net-(J5-Pad7)*
X62500000Y-52990000D03*
G04 #@! TO.P,J6,12*
G04 #@! TO.N,GND*
X65040000Y-50450000D03*
G04 #@! TO.P,J6,11*
G04 #@! TO.N,Net-(J5-Pad6)*
X62500000Y-50450000D03*
G04 #@! TO.P,J6,10*
G04 #@! TO.N,TXR0*
X65040000Y-47910000D03*
G04 #@! TO.P,J6,9*
G04 #@! TO.N,Net-(J5-Pad5)*
X62500000Y-47910000D03*
G04 #@! TO.P,J6,8*
G04 #@! TO.N,RXR0*
X65040000Y-45370000D03*
G04 #@! TO.P,J6,7*
G04 #@! TO.N,Net-(J5-Pad4)*
X62500000Y-45370000D03*
G04 #@! TO.P,J6,6*
G04 #@! TO.N,PTT0*
X65040000Y-42830000D03*
G04 #@! TO.P,J6,5*
G04 #@! TO.N,Net-(J5-Pad3)*
X62500000Y-42830000D03*
G04 #@! TO.P,J6,4*
G04 #@! TO.N,OUTL*
X65040000Y-40290000D03*
G04 #@! TO.P,J6,3*
G04 #@! TO.N,Net-(J5-Pad2)*
X62500000Y-40290000D03*
G04 #@! TO.P,J6,2*
G04 #@! TO.N,INL*
X65040000Y-37750000D03*
D18*
G04 #@! TO.P,J6,1*
G04 #@! TO.N,Net-(J5-Pad1)*
X62500000Y-37750000D03*
G04 #@! TD*
D13*
G04 #@! TO.P,J7,1*
G04 #@! TO.N,Net-(J7-Pad1)*
X56500000Y-65000000D03*
D12*
G04 #@! TO.P,J7,2*
G04 #@! TO.N,Net-(J7-Pad2)*
X59040000Y-66270000D03*
G04 #@! TO.P,J7,3*
G04 #@! TO.N,Net-(J7-Pad3)*
X56500000Y-67540000D03*
G04 #@! TO.P,J7,4*
G04 #@! TO.N,Net-(J7-Pad4)*
X59040000Y-68810000D03*
G04 #@! TO.P,J7,5*
G04 #@! TO.N,Net-(J7-Pad5)*
X56500000Y-70080000D03*
G04 #@! TO.P,J7,6*
G04 #@! TO.N,Net-(J7-Pad6)*
X59040000Y-71350000D03*
G04 #@! TO.P,J7,7*
G04 #@! TO.N,Net-(J7-Pad7)*
X56500000Y-72620000D03*
G04 #@! TO.P,J7,8*
G04 #@! TO.N,Net-(J7-Pad8)*
X59040000Y-73890000D03*
G04 #@! TD*
D17*
G04 #@! TO.P,J8,40*
G04 #@! TO.N,DIN*
X104260000Y-31460000D03*
G04 #@! TO.P,J8,39*
G04 #@! TO.N,GND*
X104260000Y-34000000D03*
G04 #@! TO.P,J8,38*
G04 #@! TO.N,DOUT*
X101720000Y-31460000D03*
G04 #@! TO.P,J8,37*
G04 #@! TO.N,Net-(J8-Pad37)*
X101720000Y-34000000D03*
G04 #@! TO.P,J8,36*
G04 #@! TO.N,Net-(J8-Pad36)*
X99180000Y-31460000D03*
G04 #@! TO.P,J8,35*
G04 #@! TO.N,LRCK*
X99180000Y-34000000D03*
G04 #@! TO.P,J8,34*
G04 #@! TO.N,GND*
X96640000Y-31460000D03*
G04 #@! TO.P,J8,33*
G04 #@! TO.N,RXD1*
X96640000Y-34000000D03*
G04 #@! TO.P,J8,32*
G04 #@! TO.N,TXD1*
X94100000Y-31460000D03*
G04 #@! TO.P,J8,31*
G04 #@! TO.N,Net-(J8-Pad31)*
X94100000Y-34000000D03*
G04 #@! TO.P,J8,30*
G04 #@! TO.N,GND*
X91560000Y-31460000D03*
G04 #@! TO.P,J8,29*
G04 #@! TO.N,Net-(J8-Pad29)*
X91560000Y-34000000D03*
G04 #@! TO.P,J8,28*
G04 #@! TO.N,Net-(J8-Pad28)*
X89020000Y-31460000D03*
G04 #@! TO.P,J8,27*
G04 #@! TO.N,Net-(J8-Pad27)*
X89020000Y-34000000D03*
G04 #@! TO.P,J8,26*
G04 #@! TO.N,Net-(J8-Pad26)*
X86480000Y-31460000D03*
G04 #@! TO.P,J8,25*
G04 #@! TO.N,GND*
X86480000Y-34000000D03*
G04 #@! TO.P,J8,24*
G04 #@! TO.N,Net-(J8-Pad24)*
X83940000Y-31460000D03*
G04 #@! TO.P,J8,23*
G04 #@! TO.N,Net-(J8-Pad23)*
X83940000Y-34000000D03*
G04 #@! TO.P,J8,22*
G04 #@! TO.N,Net-(J8-Pad22)*
X81400000Y-31460000D03*
G04 #@! TO.P,J8,21*
G04 #@! TO.N,Net-(J8-Pad21)*
X81400000Y-34000000D03*
G04 #@! TO.P,J8,20*
G04 #@! TO.N,GND*
X78860000Y-31460000D03*
G04 #@! TO.P,J8,19*
G04 #@! TO.N,Net-(J8-Pad19)*
X78860000Y-34000000D03*
G04 #@! TO.P,J8,18*
G04 #@! TO.N,Net-(J8-Pad18)*
X76320000Y-31460000D03*
G04 #@! TO.P,J8,17*
G04 #@! TO.N,Net-(C19-Pad1)*
X76320000Y-34000000D03*
G04 #@! TO.P,J8,16*
G04 #@! TO.N,PTTL1*
X73780000Y-31460000D03*
G04 #@! TO.P,J8,15*
G04 #@! TO.N,PTTL0*
X73780000Y-34000000D03*
G04 #@! TO.P,J8,14*
G04 #@! TO.N,GND*
X71240000Y-31460000D03*
G04 #@! TO.P,J8,13*
G04 #@! TO.N,Net-(J8-Pad13)*
X71240000Y-34000000D03*
G04 #@! TO.P,J8,12*
G04 #@! TO.N,BCK*
X68700000Y-31460000D03*
G04 #@! TO.P,J8,11*
G04 #@! TO.N,Net-(J8-Pad11)*
X68700000Y-34000000D03*
G04 #@! TO.P,J8,10*
G04 #@! TO.N,RXD0*
X66160000Y-31460000D03*
G04 #@! TO.P,J8,9*
G04 #@! TO.N,GND*
X66160000Y-34000000D03*
G04 #@! TO.P,J8,8*
G04 #@! TO.N,TXD0*
X63620000Y-31460000D03*
G04 #@! TO.P,J8,7*
G04 #@! TO.N,Net-(J8-Pad7)*
X63620000Y-34000000D03*
G04 #@! TO.P,J8,6*
G04 #@! TO.N,GND*
X61080000Y-31460000D03*
G04 #@! TO.P,J8,5*
G04 #@! TO.N,Net-(J8-Pad5)*
X61080000Y-34000000D03*
G04 #@! TO.P,J8,4*
G04 #@! TO.N,Net-(C18-Pad1)*
X58540000Y-31460000D03*
G04 #@! TO.P,J8,3*
G04 #@! TO.N,Net-(J8-Pad3)*
X58540000Y-34000000D03*
G04 #@! TO.P,J8,2*
G04 #@! TO.N,Net-(C18-Pad1)*
X56000000Y-31460000D03*
D18*
G04 #@! TO.P,J8,1*
G04 #@! TO.N,Net-(C19-Pad1)*
X56000000Y-34000000D03*
G04 #@! TD*
G04 #@! TO.P,J9,1*
G04 #@! TO.N,Net-(J7-Pad1)*
X62500000Y-60000000D03*
D17*
G04 #@! TO.P,J9,2*
G04 #@! TO.N,INR*
X65040000Y-60000000D03*
G04 #@! TO.P,J9,3*
G04 #@! TO.N,Net-(J7-Pad2)*
X62500000Y-62540000D03*
G04 #@! TO.P,J9,4*
G04 #@! TO.N,OUTR*
X65040000Y-62540000D03*
G04 #@! TO.P,J9,5*
G04 #@! TO.N,Net-(J7-Pad3)*
X62500000Y-65080000D03*
G04 #@! TO.P,J9,6*
G04 #@! TO.N,PTT1*
X65040000Y-65080000D03*
G04 #@! TO.P,J9,7*
G04 #@! TO.N,Net-(J7-Pad4)*
X62500000Y-67620000D03*
G04 #@! TO.P,J9,8*
G04 #@! TO.N,RXR1*
X65040000Y-67620000D03*
G04 #@! TO.P,J9,9*
G04 #@! TO.N,Net-(J7-Pad5)*
X62500000Y-70160000D03*
G04 #@! TO.P,J9,10*
G04 #@! TO.N,TXR1*
X65040000Y-70160000D03*
G04 #@! TO.P,J9,11*
G04 #@! TO.N,Net-(J7-Pad6)*
X62500000Y-72700000D03*
G04 #@! TO.P,J9,12*
G04 #@! TO.N,GND*
X65040000Y-72700000D03*
G04 #@! TO.P,J9,13*
G04 #@! TO.N,Net-(J7-Pad7)*
X62500000Y-75240000D03*
G04 #@! TO.P,J9,14*
G04 #@! TO.N,GND*
X65040000Y-75240000D03*
G04 #@! TO.P,J9,15*
G04 #@! TO.N,Net-(J7-Pad8)*
X62500000Y-77780000D03*
G04 #@! TO.P,J9,16*
G04 #@! TO.N,GND*
X65040000Y-77780000D03*
G04 #@! TD*
D14*
G04 #@! TO.N,VCC*
G04 #@! TO.C,L1*
G36*
X87974505Y-36876204D02*
X87998773Y-36879804D01*
X88022572Y-36885765D01*
X88045671Y-36894030D01*
X88067850Y-36904520D01*
X88088893Y-36917132D01*
X88108599Y-36931747D01*
X88126777Y-36948223D01*
X88143253Y-36966401D01*
X88157868Y-36986107D01*
X88170480Y-37007150D01*
X88180970Y-37029329D01*
X88189235Y-37052428D01*
X88195196Y-37076227D01*
X88198796Y-37100495D01*
X88200000Y-37124999D01*
X88200000Y-37775001D01*
X88198796Y-37799505D01*
X88195196Y-37823773D01*
X88189235Y-37847572D01*
X88180970Y-37870671D01*
X88170480Y-37892850D01*
X88157868Y-37913893D01*
X88143253Y-37933599D01*
X88126777Y-37951777D01*
X88108599Y-37968253D01*
X88088893Y-37982868D01*
X88067850Y-37995480D01*
X88045671Y-38005970D01*
X88022572Y-38014235D01*
X87998773Y-38020196D01*
X87974505Y-38023796D01*
X87950001Y-38025000D01*
X87049999Y-38025000D01*
X87025495Y-38023796D01*
X87001227Y-38020196D01*
X86977428Y-38014235D01*
X86954329Y-38005970D01*
X86932150Y-37995480D01*
X86911107Y-37982868D01*
X86891401Y-37968253D01*
X86873223Y-37951777D01*
X86856747Y-37933599D01*
X86842132Y-37913893D01*
X86829520Y-37892850D01*
X86819030Y-37870671D01*
X86810765Y-37847572D01*
X86804804Y-37823773D01*
X86801204Y-37799505D01*
X86800000Y-37775001D01*
X86800000Y-37124999D01*
X86801204Y-37100495D01*
X86804804Y-37076227D01*
X86810765Y-37052428D01*
X86819030Y-37029329D01*
X86829520Y-37007150D01*
X86842132Y-36986107D01*
X86856747Y-36966401D01*
X86873223Y-36948223D01*
X86891401Y-36931747D01*
X86911107Y-36917132D01*
X86932150Y-36904520D01*
X86954329Y-36894030D01*
X86977428Y-36885765D01*
X87001227Y-36879804D01*
X87025495Y-36876204D01*
X87049999Y-36875000D01*
X87950001Y-36875000D01*
X87974505Y-36876204D01*
X87974505Y-36876204D01*
G37*
D15*
G04 #@! TD*
G04 #@! TO.P,L1,2*
G04 #@! TO.N,VCC*
X87500000Y-37450000D03*
D14*
G04 #@! TO.N,Net-(C18-Pad1)*
G04 #@! TO.C,L1*
G36*
X87974505Y-38926204D02*
X87998773Y-38929804D01*
X88022572Y-38935765D01*
X88045671Y-38944030D01*
X88067850Y-38954520D01*
X88088893Y-38967132D01*
X88108599Y-38981747D01*
X88126777Y-38998223D01*
X88143253Y-39016401D01*
X88157868Y-39036107D01*
X88170480Y-39057150D01*
X88180970Y-39079329D01*
X88189235Y-39102428D01*
X88195196Y-39126227D01*
X88198796Y-39150495D01*
X88200000Y-39174999D01*
X88200000Y-39825001D01*
X88198796Y-39849505D01*
X88195196Y-39873773D01*
X88189235Y-39897572D01*
X88180970Y-39920671D01*
X88170480Y-39942850D01*
X88157868Y-39963893D01*
X88143253Y-39983599D01*
X88126777Y-40001777D01*
X88108599Y-40018253D01*
X88088893Y-40032868D01*
X88067850Y-40045480D01*
X88045671Y-40055970D01*
X88022572Y-40064235D01*
X87998773Y-40070196D01*
X87974505Y-40073796D01*
X87950001Y-40075000D01*
X87049999Y-40075000D01*
X87025495Y-40073796D01*
X87001227Y-40070196D01*
X86977428Y-40064235D01*
X86954329Y-40055970D01*
X86932150Y-40045480D01*
X86911107Y-40032868D01*
X86891401Y-40018253D01*
X86873223Y-40001777D01*
X86856747Y-39983599D01*
X86842132Y-39963893D01*
X86829520Y-39942850D01*
X86819030Y-39920671D01*
X86810765Y-39897572D01*
X86804804Y-39873773D01*
X86801204Y-39849505D01*
X86800000Y-39825001D01*
X86800000Y-39174999D01*
X86801204Y-39150495D01*
X86804804Y-39126227D01*
X86810765Y-39102428D01*
X86819030Y-39079329D01*
X86829520Y-39057150D01*
X86842132Y-39036107D01*
X86856747Y-39016401D01*
X86873223Y-38998223D01*
X86891401Y-38981747D01*
X86911107Y-38967132D01*
X86932150Y-38954520D01*
X86954329Y-38944030D01*
X86977428Y-38935765D01*
X87001227Y-38929804D01*
X87025495Y-38926204D01*
X87049999Y-38925000D01*
X87950001Y-38925000D01*
X87974505Y-38926204D01*
X87974505Y-38926204D01*
G37*
D15*
G04 #@! TD*
G04 #@! TO.P,L1,1*
G04 #@! TO.N,Net-(C18-Pad1)*
X87500000Y-39500000D03*
D14*
G04 #@! TO.N,Net-(C19-Pad1)*
G04 #@! TO.C,L2*
G36*
X85724505Y-38926204D02*
X85748773Y-38929804D01*
X85772572Y-38935765D01*
X85795671Y-38944030D01*
X85817850Y-38954520D01*
X85838893Y-38967132D01*
X85858599Y-38981747D01*
X85876777Y-38998223D01*
X85893253Y-39016401D01*
X85907868Y-39036107D01*
X85920480Y-39057150D01*
X85930970Y-39079329D01*
X85939235Y-39102428D01*
X85945196Y-39126227D01*
X85948796Y-39150495D01*
X85950000Y-39174999D01*
X85950000Y-39825001D01*
X85948796Y-39849505D01*
X85945196Y-39873773D01*
X85939235Y-39897572D01*
X85930970Y-39920671D01*
X85920480Y-39942850D01*
X85907868Y-39963893D01*
X85893253Y-39983599D01*
X85876777Y-40001777D01*
X85858599Y-40018253D01*
X85838893Y-40032868D01*
X85817850Y-40045480D01*
X85795671Y-40055970D01*
X85772572Y-40064235D01*
X85748773Y-40070196D01*
X85724505Y-40073796D01*
X85700001Y-40075000D01*
X84799999Y-40075000D01*
X84775495Y-40073796D01*
X84751227Y-40070196D01*
X84727428Y-40064235D01*
X84704329Y-40055970D01*
X84682150Y-40045480D01*
X84661107Y-40032868D01*
X84641401Y-40018253D01*
X84623223Y-40001777D01*
X84606747Y-39983599D01*
X84592132Y-39963893D01*
X84579520Y-39942850D01*
X84569030Y-39920671D01*
X84560765Y-39897572D01*
X84554804Y-39873773D01*
X84551204Y-39849505D01*
X84550000Y-39825001D01*
X84550000Y-39174999D01*
X84551204Y-39150495D01*
X84554804Y-39126227D01*
X84560765Y-39102428D01*
X84569030Y-39079329D01*
X84579520Y-39057150D01*
X84592132Y-39036107D01*
X84606747Y-39016401D01*
X84623223Y-38998223D01*
X84641401Y-38981747D01*
X84661107Y-38967132D01*
X84682150Y-38954520D01*
X84704329Y-38944030D01*
X84727428Y-38935765D01*
X84751227Y-38929804D01*
X84775495Y-38926204D01*
X84799999Y-38925000D01*
X85700001Y-38925000D01*
X85724505Y-38926204D01*
X85724505Y-38926204D01*
G37*
D15*
G04 #@! TD*
G04 #@! TO.P,L2,1*
G04 #@! TO.N,Net-(C19-Pad1)*
X85250000Y-39500000D03*
D14*
G04 #@! TO.N,VDD*
G04 #@! TO.C,L2*
G36*
X85724505Y-36876204D02*
X85748773Y-36879804D01*
X85772572Y-36885765D01*
X85795671Y-36894030D01*
X85817850Y-36904520D01*
X85838893Y-36917132D01*
X85858599Y-36931747D01*
X85876777Y-36948223D01*
X85893253Y-36966401D01*
X85907868Y-36986107D01*
X85920480Y-37007150D01*
X85930970Y-37029329D01*
X85939235Y-37052428D01*
X85945196Y-37076227D01*
X85948796Y-37100495D01*
X85950000Y-37124999D01*
X85950000Y-37775001D01*
X85948796Y-37799505D01*
X85945196Y-37823773D01*
X85939235Y-37847572D01*
X85930970Y-37870671D01*
X85920480Y-37892850D01*
X85907868Y-37913893D01*
X85893253Y-37933599D01*
X85876777Y-37951777D01*
X85858599Y-37968253D01*
X85838893Y-37982868D01*
X85817850Y-37995480D01*
X85795671Y-38005970D01*
X85772572Y-38014235D01*
X85748773Y-38020196D01*
X85724505Y-38023796D01*
X85700001Y-38025000D01*
X84799999Y-38025000D01*
X84775495Y-38023796D01*
X84751227Y-38020196D01*
X84727428Y-38014235D01*
X84704329Y-38005970D01*
X84682150Y-37995480D01*
X84661107Y-37982868D01*
X84641401Y-37968253D01*
X84623223Y-37951777D01*
X84606747Y-37933599D01*
X84592132Y-37913893D01*
X84579520Y-37892850D01*
X84569030Y-37870671D01*
X84560765Y-37847572D01*
X84554804Y-37823773D01*
X84551204Y-37799505D01*
X84550000Y-37775001D01*
X84550000Y-37124999D01*
X84551204Y-37100495D01*
X84554804Y-37076227D01*
X84560765Y-37052428D01*
X84569030Y-37029329D01*
X84579520Y-37007150D01*
X84592132Y-36986107D01*
X84606747Y-36966401D01*
X84623223Y-36948223D01*
X84641401Y-36931747D01*
X84661107Y-36917132D01*
X84682150Y-36904520D01*
X84704329Y-36894030D01*
X84727428Y-36885765D01*
X84751227Y-36879804D01*
X84775495Y-36876204D01*
X84799999Y-36875000D01*
X85700001Y-36875000D01*
X85724505Y-36876204D01*
X85724505Y-36876204D01*
G37*
D15*
G04 #@! TD*
G04 #@! TO.P,L2,2*
G04 #@! TO.N,VDD*
X85250000Y-37450000D03*
D14*
G04 #@! TO.N,SYSCLK*
G04 #@! TO.C,R1*
G36*
X72474505Y-39676204D02*
X72498773Y-39679804D01*
X72522572Y-39685765D01*
X72545671Y-39694030D01*
X72567850Y-39704520D01*
X72588893Y-39717132D01*
X72608599Y-39731747D01*
X72626777Y-39748223D01*
X72643253Y-39766401D01*
X72657868Y-39786107D01*
X72670480Y-39807150D01*
X72680970Y-39829329D01*
X72689235Y-39852428D01*
X72695196Y-39876227D01*
X72698796Y-39900495D01*
X72700000Y-39924999D01*
X72700000Y-40575001D01*
X72698796Y-40599505D01*
X72695196Y-40623773D01*
X72689235Y-40647572D01*
X72680970Y-40670671D01*
X72670480Y-40692850D01*
X72657868Y-40713893D01*
X72643253Y-40733599D01*
X72626777Y-40751777D01*
X72608599Y-40768253D01*
X72588893Y-40782868D01*
X72567850Y-40795480D01*
X72545671Y-40805970D01*
X72522572Y-40814235D01*
X72498773Y-40820196D01*
X72474505Y-40823796D01*
X72450001Y-40825000D01*
X71549999Y-40825000D01*
X71525495Y-40823796D01*
X71501227Y-40820196D01*
X71477428Y-40814235D01*
X71454329Y-40805970D01*
X71432150Y-40795480D01*
X71411107Y-40782868D01*
X71391401Y-40768253D01*
X71373223Y-40751777D01*
X71356747Y-40733599D01*
X71342132Y-40713893D01*
X71329520Y-40692850D01*
X71319030Y-40670671D01*
X71310765Y-40647572D01*
X71304804Y-40623773D01*
X71301204Y-40599505D01*
X71300000Y-40575001D01*
X71300000Y-39924999D01*
X71301204Y-39900495D01*
X71304804Y-39876227D01*
X71310765Y-39852428D01*
X71319030Y-39829329D01*
X71329520Y-39807150D01*
X71342132Y-39786107D01*
X71356747Y-39766401D01*
X71373223Y-39748223D01*
X71391401Y-39731747D01*
X71411107Y-39717132D01*
X71432150Y-39704520D01*
X71454329Y-39694030D01*
X71477428Y-39685765D01*
X71501227Y-39679804D01*
X71525495Y-39676204D01*
X71549999Y-39675000D01*
X72450001Y-39675000D01*
X72474505Y-39676204D01*
X72474505Y-39676204D01*
G37*
D15*
G04 #@! TD*
G04 #@! TO.P,R1,2*
G04 #@! TO.N,SYSCLK*
X72000000Y-40250000D03*
D14*
G04 #@! TO.N,Net-(R1-Pad1)*
G04 #@! TO.C,R1*
G36*
X72474505Y-37626204D02*
X72498773Y-37629804D01*
X72522572Y-37635765D01*
X72545671Y-37644030D01*
X72567850Y-37654520D01*
X72588893Y-37667132D01*
X72608599Y-37681747D01*
X72626777Y-37698223D01*
X72643253Y-37716401D01*
X72657868Y-37736107D01*
X72670480Y-37757150D01*
X72680970Y-37779329D01*
X72689235Y-37802428D01*
X72695196Y-37826227D01*
X72698796Y-37850495D01*
X72700000Y-37874999D01*
X72700000Y-38525001D01*
X72698796Y-38549505D01*
X72695196Y-38573773D01*
X72689235Y-38597572D01*
X72680970Y-38620671D01*
X72670480Y-38642850D01*
X72657868Y-38663893D01*
X72643253Y-38683599D01*
X72626777Y-38701777D01*
X72608599Y-38718253D01*
X72588893Y-38732868D01*
X72567850Y-38745480D01*
X72545671Y-38755970D01*
X72522572Y-38764235D01*
X72498773Y-38770196D01*
X72474505Y-38773796D01*
X72450001Y-38775000D01*
X71549999Y-38775000D01*
X71525495Y-38773796D01*
X71501227Y-38770196D01*
X71477428Y-38764235D01*
X71454329Y-38755970D01*
X71432150Y-38745480D01*
X71411107Y-38732868D01*
X71391401Y-38718253D01*
X71373223Y-38701777D01*
X71356747Y-38683599D01*
X71342132Y-38663893D01*
X71329520Y-38642850D01*
X71319030Y-38620671D01*
X71310765Y-38597572D01*
X71304804Y-38573773D01*
X71301204Y-38549505D01*
X71300000Y-38525001D01*
X71300000Y-37874999D01*
X71301204Y-37850495D01*
X71304804Y-37826227D01*
X71310765Y-37802428D01*
X71319030Y-37779329D01*
X71329520Y-37757150D01*
X71342132Y-37736107D01*
X71356747Y-37716401D01*
X71373223Y-37698223D01*
X71391401Y-37681747D01*
X71411107Y-37667132D01*
X71432150Y-37654520D01*
X71454329Y-37644030D01*
X71477428Y-37635765D01*
X71501227Y-37629804D01*
X71525495Y-37626204D01*
X71549999Y-37625000D01*
X72450001Y-37625000D01*
X72474505Y-37626204D01*
X72474505Y-37626204D01*
G37*
D15*
G04 #@! TD*
G04 #@! TO.P,R1,1*
G04 #@! TO.N,Net-(R1-Pad1)*
X72000000Y-38200000D03*
D14*
G04 #@! TO.N,Net-(R2-Pad1)*
G04 #@! TO.C,R2*
G36*
X90474505Y-52426204D02*
X90498773Y-52429804D01*
X90522572Y-52435765D01*
X90545671Y-52444030D01*
X90567850Y-52454520D01*
X90588893Y-52467132D01*
X90608599Y-52481747D01*
X90626777Y-52498223D01*
X90643253Y-52516401D01*
X90657868Y-52536107D01*
X90670480Y-52557150D01*
X90680970Y-52579329D01*
X90689235Y-52602428D01*
X90695196Y-52626227D01*
X90698796Y-52650495D01*
X90700000Y-52674999D01*
X90700000Y-53325001D01*
X90698796Y-53349505D01*
X90695196Y-53373773D01*
X90689235Y-53397572D01*
X90680970Y-53420671D01*
X90670480Y-53442850D01*
X90657868Y-53463893D01*
X90643253Y-53483599D01*
X90626777Y-53501777D01*
X90608599Y-53518253D01*
X90588893Y-53532868D01*
X90567850Y-53545480D01*
X90545671Y-53555970D01*
X90522572Y-53564235D01*
X90498773Y-53570196D01*
X90474505Y-53573796D01*
X90450001Y-53575000D01*
X89549999Y-53575000D01*
X89525495Y-53573796D01*
X89501227Y-53570196D01*
X89477428Y-53564235D01*
X89454329Y-53555970D01*
X89432150Y-53545480D01*
X89411107Y-53532868D01*
X89391401Y-53518253D01*
X89373223Y-53501777D01*
X89356747Y-53483599D01*
X89342132Y-53463893D01*
X89329520Y-53442850D01*
X89319030Y-53420671D01*
X89310765Y-53397572D01*
X89304804Y-53373773D01*
X89301204Y-53349505D01*
X89300000Y-53325001D01*
X89300000Y-52674999D01*
X89301204Y-52650495D01*
X89304804Y-52626227D01*
X89310765Y-52602428D01*
X89319030Y-52579329D01*
X89329520Y-52557150D01*
X89342132Y-52536107D01*
X89356747Y-52516401D01*
X89373223Y-52498223D01*
X89391401Y-52481747D01*
X89411107Y-52467132D01*
X89432150Y-52454520D01*
X89454329Y-52444030D01*
X89477428Y-52435765D01*
X89501227Y-52429804D01*
X89525495Y-52426204D01*
X89549999Y-52425000D01*
X90450001Y-52425000D01*
X90474505Y-52426204D01*
X90474505Y-52426204D01*
G37*
D15*
G04 #@! TD*
G04 #@! TO.P,R2,1*
G04 #@! TO.N,Net-(R2-Pad1)*
X90000000Y-53000000D03*
D14*
G04 #@! TO.N,VDD*
G04 #@! TO.C,R2*
G36*
X90474505Y-54476204D02*
X90498773Y-54479804D01*
X90522572Y-54485765D01*
X90545671Y-54494030D01*
X90567850Y-54504520D01*
X90588893Y-54517132D01*
X90608599Y-54531747D01*
X90626777Y-54548223D01*
X90643253Y-54566401D01*
X90657868Y-54586107D01*
X90670480Y-54607150D01*
X90680970Y-54629329D01*
X90689235Y-54652428D01*
X90695196Y-54676227D01*
X90698796Y-54700495D01*
X90700000Y-54724999D01*
X90700000Y-55375001D01*
X90698796Y-55399505D01*
X90695196Y-55423773D01*
X90689235Y-55447572D01*
X90680970Y-55470671D01*
X90670480Y-55492850D01*
X90657868Y-55513893D01*
X90643253Y-55533599D01*
X90626777Y-55551777D01*
X90608599Y-55568253D01*
X90588893Y-55582868D01*
X90567850Y-55595480D01*
X90545671Y-55605970D01*
X90522572Y-55614235D01*
X90498773Y-55620196D01*
X90474505Y-55623796D01*
X90450001Y-55625000D01*
X89549999Y-55625000D01*
X89525495Y-55623796D01*
X89501227Y-55620196D01*
X89477428Y-55614235D01*
X89454329Y-55605970D01*
X89432150Y-55595480D01*
X89411107Y-55582868D01*
X89391401Y-55568253D01*
X89373223Y-55551777D01*
X89356747Y-55533599D01*
X89342132Y-55513893D01*
X89329520Y-55492850D01*
X89319030Y-55470671D01*
X89310765Y-55447572D01*
X89304804Y-55423773D01*
X89301204Y-55399505D01*
X89300000Y-55375001D01*
X89300000Y-54724999D01*
X89301204Y-54700495D01*
X89304804Y-54676227D01*
X89310765Y-54652428D01*
X89319030Y-54629329D01*
X89329520Y-54607150D01*
X89342132Y-54586107D01*
X89356747Y-54566401D01*
X89373223Y-54548223D01*
X89391401Y-54531747D01*
X89411107Y-54517132D01*
X89432150Y-54504520D01*
X89454329Y-54494030D01*
X89477428Y-54485765D01*
X89501227Y-54479804D01*
X89525495Y-54476204D01*
X89549999Y-54475000D01*
X90450001Y-54475000D01*
X90474505Y-54476204D01*
X90474505Y-54476204D01*
G37*
D15*
G04 #@! TD*
G04 #@! TO.P,R2,2*
G04 #@! TO.N,VDD*
X90000000Y-55050000D03*
D14*
G04 #@! TO.N,Earth*
G04 #@! TO.C,R3*
G36*
X77974505Y-60726204D02*
X77998773Y-60729804D01*
X78022572Y-60735765D01*
X78045671Y-60744030D01*
X78067850Y-60754520D01*
X78088893Y-60767132D01*
X78108599Y-60781747D01*
X78126777Y-60798223D01*
X78143253Y-60816401D01*
X78157868Y-60836107D01*
X78170480Y-60857150D01*
X78180970Y-60879329D01*
X78189235Y-60902428D01*
X78195196Y-60926227D01*
X78198796Y-60950495D01*
X78200000Y-60974999D01*
X78200000Y-61625001D01*
X78198796Y-61649505D01*
X78195196Y-61673773D01*
X78189235Y-61697572D01*
X78180970Y-61720671D01*
X78170480Y-61742850D01*
X78157868Y-61763893D01*
X78143253Y-61783599D01*
X78126777Y-61801777D01*
X78108599Y-61818253D01*
X78088893Y-61832868D01*
X78067850Y-61845480D01*
X78045671Y-61855970D01*
X78022572Y-61864235D01*
X77998773Y-61870196D01*
X77974505Y-61873796D01*
X77950001Y-61875000D01*
X77049999Y-61875000D01*
X77025495Y-61873796D01*
X77001227Y-61870196D01*
X76977428Y-61864235D01*
X76954329Y-61855970D01*
X76932150Y-61845480D01*
X76911107Y-61832868D01*
X76891401Y-61818253D01*
X76873223Y-61801777D01*
X76856747Y-61783599D01*
X76842132Y-61763893D01*
X76829520Y-61742850D01*
X76819030Y-61720671D01*
X76810765Y-61697572D01*
X76804804Y-61673773D01*
X76801204Y-61649505D01*
X76800000Y-61625001D01*
X76800000Y-60974999D01*
X76801204Y-60950495D01*
X76804804Y-60926227D01*
X76810765Y-60902428D01*
X76819030Y-60879329D01*
X76829520Y-60857150D01*
X76842132Y-60836107D01*
X76856747Y-60816401D01*
X76873223Y-60798223D01*
X76891401Y-60781747D01*
X76911107Y-60767132D01*
X76932150Y-60754520D01*
X76954329Y-60744030D01*
X76977428Y-60735765D01*
X77001227Y-60729804D01*
X77025495Y-60726204D01*
X77049999Y-60725000D01*
X77950001Y-60725000D01*
X77974505Y-60726204D01*
X77974505Y-60726204D01*
G37*
D15*
G04 #@! TD*
G04 #@! TO.P,R3,1*
G04 #@! TO.N,Earth*
X77500000Y-61300000D03*
D14*
G04 #@! TO.N,Net-(C11-Pad2)*
G04 #@! TO.C,R3*
G36*
X77974505Y-58676204D02*
X77998773Y-58679804D01*
X78022572Y-58685765D01*
X78045671Y-58694030D01*
X78067850Y-58704520D01*
X78088893Y-58717132D01*
X78108599Y-58731747D01*
X78126777Y-58748223D01*
X78143253Y-58766401D01*
X78157868Y-58786107D01*
X78170480Y-58807150D01*
X78180970Y-58829329D01*
X78189235Y-58852428D01*
X78195196Y-58876227D01*
X78198796Y-58900495D01*
X78200000Y-58924999D01*
X78200000Y-59575001D01*
X78198796Y-59599505D01*
X78195196Y-59623773D01*
X78189235Y-59647572D01*
X78180970Y-59670671D01*
X78170480Y-59692850D01*
X78157868Y-59713893D01*
X78143253Y-59733599D01*
X78126777Y-59751777D01*
X78108599Y-59768253D01*
X78088893Y-59782868D01*
X78067850Y-59795480D01*
X78045671Y-59805970D01*
X78022572Y-59814235D01*
X77998773Y-59820196D01*
X77974505Y-59823796D01*
X77950001Y-59825000D01*
X77049999Y-59825000D01*
X77025495Y-59823796D01*
X77001227Y-59820196D01*
X76977428Y-59814235D01*
X76954329Y-59805970D01*
X76932150Y-59795480D01*
X76911107Y-59782868D01*
X76891401Y-59768253D01*
X76873223Y-59751777D01*
X76856747Y-59733599D01*
X76842132Y-59713893D01*
X76829520Y-59692850D01*
X76819030Y-59670671D01*
X76810765Y-59647572D01*
X76804804Y-59623773D01*
X76801204Y-59599505D01*
X76800000Y-59575001D01*
X76800000Y-58924999D01*
X76801204Y-58900495D01*
X76804804Y-58876227D01*
X76810765Y-58852428D01*
X76819030Y-58829329D01*
X76829520Y-58807150D01*
X76842132Y-58786107D01*
X76856747Y-58766401D01*
X76873223Y-58748223D01*
X76891401Y-58731747D01*
X76911107Y-58717132D01*
X76932150Y-58704520D01*
X76954329Y-58694030D01*
X76977428Y-58685765D01*
X77001227Y-58679804D01*
X77025495Y-58676204D01*
X77049999Y-58675000D01*
X77950001Y-58675000D01*
X77974505Y-58676204D01*
X77974505Y-58676204D01*
G37*
D15*
G04 #@! TD*
G04 #@! TO.P,R3,2*
G04 #@! TO.N,Net-(C11-Pad2)*
X77500000Y-59250000D03*
D14*
G04 #@! TO.N,Earth*
G04 #@! TO.C,R4*
G36*
X80474505Y-60776204D02*
X80498773Y-60779804D01*
X80522572Y-60785765D01*
X80545671Y-60794030D01*
X80567850Y-60804520D01*
X80588893Y-60817132D01*
X80608599Y-60831747D01*
X80626777Y-60848223D01*
X80643253Y-60866401D01*
X80657868Y-60886107D01*
X80670480Y-60907150D01*
X80680970Y-60929329D01*
X80689235Y-60952428D01*
X80695196Y-60976227D01*
X80698796Y-61000495D01*
X80700000Y-61024999D01*
X80700000Y-61675001D01*
X80698796Y-61699505D01*
X80695196Y-61723773D01*
X80689235Y-61747572D01*
X80680970Y-61770671D01*
X80670480Y-61792850D01*
X80657868Y-61813893D01*
X80643253Y-61833599D01*
X80626777Y-61851777D01*
X80608599Y-61868253D01*
X80588893Y-61882868D01*
X80567850Y-61895480D01*
X80545671Y-61905970D01*
X80522572Y-61914235D01*
X80498773Y-61920196D01*
X80474505Y-61923796D01*
X80450001Y-61925000D01*
X79549999Y-61925000D01*
X79525495Y-61923796D01*
X79501227Y-61920196D01*
X79477428Y-61914235D01*
X79454329Y-61905970D01*
X79432150Y-61895480D01*
X79411107Y-61882868D01*
X79391401Y-61868253D01*
X79373223Y-61851777D01*
X79356747Y-61833599D01*
X79342132Y-61813893D01*
X79329520Y-61792850D01*
X79319030Y-61770671D01*
X79310765Y-61747572D01*
X79304804Y-61723773D01*
X79301204Y-61699505D01*
X79300000Y-61675001D01*
X79300000Y-61024999D01*
X79301204Y-61000495D01*
X79304804Y-60976227D01*
X79310765Y-60952428D01*
X79319030Y-60929329D01*
X79329520Y-60907150D01*
X79342132Y-60886107D01*
X79356747Y-60866401D01*
X79373223Y-60848223D01*
X79391401Y-60831747D01*
X79411107Y-60817132D01*
X79432150Y-60804520D01*
X79454329Y-60794030D01*
X79477428Y-60785765D01*
X79501227Y-60779804D01*
X79525495Y-60776204D01*
X79549999Y-60775000D01*
X80450001Y-60775000D01*
X80474505Y-60776204D01*
X80474505Y-60776204D01*
G37*
D15*
G04 #@! TD*
G04 #@! TO.P,R4,2*
G04 #@! TO.N,Earth*
X80000000Y-61350000D03*
D14*
G04 #@! TO.N,Net-(C12-Pad2)*
G04 #@! TO.C,R4*
G36*
X80474505Y-58726204D02*
X80498773Y-58729804D01*
X80522572Y-58735765D01*
X80545671Y-58744030D01*
X80567850Y-58754520D01*
X80588893Y-58767132D01*
X80608599Y-58781747D01*
X80626777Y-58798223D01*
X80643253Y-58816401D01*
X80657868Y-58836107D01*
X80670480Y-58857150D01*
X80680970Y-58879329D01*
X80689235Y-58902428D01*
X80695196Y-58926227D01*
X80698796Y-58950495D01*
X80700000Y-58974999D01*
X80700000Y-59625001D01*
X80698796Y-59649505D01*
X80695196Y-59673773D01*
X80689235Y-59697572D01*
X80680970Y-59720671D01*
X80670480Y-59742850D01*
X80657868Y-59763893D01*
X80643253Y-59783599D01*
X80626777Y-59801777D01*
X80608599Y-59818253D01*
X80588893Y-59832868D01*
X80567850Y-59845480D01*
X80545671Y-59855970D01*
X80522572Y-59864235D01*
X80498773Y-59870196D01*
X80474505Y-59873796D01*
X80450001Y-59875000D01*
X79549999Y-59875000D01*
X79525495Y-59873796D01*
X79501227Y-59870196D01*
X79477428Y-59864235D01*
X79454329Y-59855970D01*
X79432150Y-59845480D01*
X79411107Y-59832868D01*
X79391401Y-59818253D01*
X79373223Y-59801777D01*
X79356747Y-59783599D01*
X79342132Y-59763893D01*
X79329520Y-59742850D01*
X79319030Y-59720671D01*
X79310765Y-59697572D01*
X79304804Y-59673773D01*
X79301204Y-59649505D01*
X79300000Y-59625001D01*
X79300000Y-58974999D01*
X79301204Y-58950495D01*
X79304804Y-58926227D01*
X79310765Y-58902428D01*
X79319030Y-58879329D01*
X79329520Y-58857150D01*
X79342132Y-58836107D01*
X79356747Y-58816401D01*
X79373223Y-58798223D01*
X79391401Y-58781747D01*
X79411107Y-58767132D01*
X79432150Y-58754520D01*
X79454329Y-58744030D01*
X79477428Y-58735765D01*
X79501227Y-58729804D01*
X79525495Y-58726204D01*
X79549999Y-58725000D01*
X80450001Y-58725000D01*
X80474505Y-58726204D01*
X80474505Y-58726204D01*
G37*
D15*
G04 #@! TD*
G04 #@! TO.P,R4,1*
G04 #@! TO.N,Net-(C12-Pad2)*
X80000000Y-59300000D03*
D14*
G04 #@! TO.N,OUTR*
G04 #@! TO.C,R5*
G36*
X75474505Y-60726204D02*
X75498773Y-60729804D01*
X75522572Y-60735765D01*
X75545671Y-60744030D01*
X75567850Y-60754520D01*
X75588893Y-60767132D01*
X75608599Y-60781747D01*
X75626777Y-60798223D01*
X75643253Y-60816401D01*
X75657868Y-60836107D01*
X75670480Y-60857150D01*
X75680970Y-60879329D01*
X75689235Y-60902428D01*
X75695196Y-60926227D01*
X75698796Y-60950495D01*
X75700000Y-60974999D01*
X75700000Y-61625001D01*
X75698796Y-61649505D01*
X75695196Y-61673773D01*
X75689235Y-61697572D01*
X75680970Y-61720671D01*
X75670480Y-61742850D01*
X75657868Y-61763893D01*
X75643253Y-61783599D01*
X75626777Y-61801777D01*
X75608599Y-61818253D01*
X75588893Y-61832868D01*
X75567850Y-61845480D01*
X75545671Y-61855970D01*
X75522572Y-61864235D01*
X75498773Y-61870196D01*
X75474505Y-61873796D01*
X75450001Y-61875000D01*
X74549999Y-61875000D01*
X74525495Y-61873796D01*
X74501227Y-61870196D01*
X74477428Y-61864235D01*
X74454329Y-61855970D01*
X74432150Y-61845480D01*
X74411107Y-61832868D01*
X74391401Y-61818253D01*
X74373223Y-61801777D01*
X74356747Y-61783599D01*
X74342132Y-61763893D01*
X74329520Y-61742850D01*
X74319030Y-61720671D01*
X74310765Y-61697572D01*
X74304804Y-61673773D01*
X74301204Y-61649505D01*
X74300000Y-61625001D01*
X74300000Y-60974999D01*
X74301204Y-60950495D01*
X74304804Y-60926227D01*
X74310765Y-60902428D01*
X74319030Y-60879329D01*
X74329520Y-60857150D01*
X74342132Y-60836107D01*
X74356747Y-60816401D01*
X74373223Y-60798223D01*
X74391401Y-60781747D01*
X74411107Y-60767132D01*
X74432150Y-60754520D01*
X74454329Y-60744030D01*
X74477428Y-60735765D01*
X74501227Y-60729804D01*
X74525495Y-60726204D01*
X74549999Y-60725000D01*
X75450001Y-60725000D01*
X75474505Y-60726204D01*
X75474505Y-60726204D01*
G37*
D15*
G04 #@! TD*
G04 #@! TO.P,R5,2*
G04 #@! TO.N,OUTR*
X75000000Y-61300000D03*
D14*
G04 #@! TO.N,Net-(C11-Pad2)*
G04 #@! TO.C,R5*
G36*
X75474505Y-58676204D02*
X75498773Y-58679804D01*
X75522572Y-58685765D01*
X75545671Y-58694030D01*
X75567850Y-58704520D01*
X75588893Y-58717132D01*
X75608599Y-58731747D01*
X75626777Y-58748223D01*
X75643253Y-58766401D01*
X75657868Y-58786107D01*
X75670480Y-58807150D01*
X75680970Y-58829329D01*
X75689235Y-58852428D01*
X75695196Y-58876227D01*
X75698796Y-58900495D01*
X75700000Y-58924999D01*
X75700000Y-59575001D01*
X75698796Y-59599505D01*
X75695196Y-59623773D01*
X75689235Y-59647572D01*
X75680970Y-59670671D01*
X75670480Y-59692850D01*
X75657868Y-59713893D01*
X75643253Y-59733599D01*
X75626777Y-59751777D01*
X75608599Y-59768253D01*
X75588893Y-59782868D01*
X75567850Y-59795480D01*
X75545671Y-59805970D01*
X75522572Y-59814235D01*
X75498773Y-59820196D01*
X75474505Y-59823796D01*
X75450001Y-59825000D01*
X74549999Y-59825000D01*
X74525495Y-59823796D01*
X74501227Y-59820196D01*
X74477428Y-59814235D01*
X74454329Y-59805970D01*
X74432150Y-59795480D01*
X74411107Y-59782868D01*
X74391401Y-59768253D01*
X74373223Y-59751777D01*
X74356747Y-59733599D01*
X74342132Y-59713893D01*
X74329520Y-59692850D01*
X74319030Y-59670671D01*
X74310765Y-59647572D01*
X74304804Y-59623773D01*
X74301204Y-59599505D01*
X74300000Y-59575001D01*
X74300000Y-58924999D01*
X74301204Y-58900495D01*
X74304804Y-58876227D01*
X74310765Y-58852428D01*
X74319030Y-58829329D01*
X74329520Y-58807150D01*
X74342132Y-58786107D01*
X74356747Y-58766401D01*
X74373223Y-58748223D01*
X74391401Y-58731747D01*
X74411107Y-58717132D01*
X74432150Y-58704520D01*
X74454329Y-58694030D01*
X74477428Y-58685765D01*
X74501227Y-58679804D01*
X74525495Y-58676204D01*
X74549999Y-58675000D01*
X75450001Y-58675000D01*
X75474505Y-58676204D01*
X75474505Y-58676204D01*
G37*
D15*
G04 #@! TD*
G04 #@! TO.P,R5,1*
G04 #@! TO.N,Net-(C11-Pad2)*
X75000000Y-59250000D03*
D14*
G04 #@! TO.N,OUTL*
G04 #@! TO.C,R6*
G36*
X82974505Y-60726204D02*
X82998773Y-60729804D01*
X83022572Y-60735765D01*
X83045671Y-60744030D01*
X83067850Y-60754520D01*
X83088893Y-60767132D01*
X83108599Y-60781747D01*
X83126777Y-60798223D01*
X83143253Y-60816401D01*
X83157868Y-60836107D01*
X83170480Y-60857150D01*
X83180970Y-60879329D01*
X83189235Y-60902428D01*
X83195196Y-60926227D01*
X83198796Y-60950495D01*
X83200000Y-60974999D01*
X83200000Y-61625001D01*
X83198796Y-61649505D01*
X83195196Y-61673773D01*
X83189235Y-61697572D01*
X83180970Y-61720671D01*
X83170480Y-61742850D01*
X83157868Y-61763893D01*
X83143253Y-61783599D01*
X83126777Y-61801777D01*
X83108599Y-61818253D01*
X83088893Y-61832868D01*
X83067850Y-61845480D01*
X83045671Y-61855970D01*
X83022572Y-61864235D01*
X82998773Y-61870196D01*
X82974505Y-61873796D01*
X82950001Y-61875000D01*
X82049999Y-61875000D01*
X82025495Y-61873796D01*
X82001227Y-61870196D01*
X81977428Y-61864235D01*
X81954329Y-61855970D01*
X81932150Y-61845480D01*
X81911107Y-61832868D01*
X81891401Y-61818253D01*
X81873223Y-61801777D01*
X81856747Y-61783599D01*
X81842132Y-61763893D01*
X81829520Y-61742850D01*
X81819030Y-61720671D01*
X81810765Y-61697572D01*
X81804804Y-61673773D01*
X81801204Y-61649505D01*
X81800000Y-61625001D01*
X81800000Y-60974999D01*
X81801204Y-60950495D01*
X81804804Y-60926227D01*
X81810765Y-60902428D01*
X81819030Y-60879329D01*
X81829520Y-60857150D01*
X81842132Y-60836107D01*
X81856747Y-60816401D01*
X81873223Y-60798223D01*
X81891401Y-60781747D01*
X81911107Y-60767132D01*
X81932150Y-60754520D01*
X81954329Y-60744030D01*
X81977428Y-60735765D01*
X82001227Y-60729804D01*
X82025495Y-60726204D01*
X82049999Y-60725000D01*
X82950001Y-60725000D01*
X82974505Y-60726204D01*
X82974505Y-60726204D01*
G37*
D15*
G04 #@! TD*
G04 #@! TO.P,R6,1*
G04 #@! TO.N,OUTL*
X82500000Y-61300000D03*
D14*
G04 #@! TO.N,Net-(C12-Pad2)*
G04 #@! TO.C,R6*
G36*
X82974505Y-58676204D02*
X82998773Y-58679804D01*
X83022572Y-58685765D01*
X83045671Y-58694030D01*
X83067850Y-58704520D01*
X83088893Y-58717132D01*
X83108599Y-58731747D01*
X83126777Y-58748223D01*
X83143253Y-58766401D01*
X83157868Y-58786107D01*
X83170480Y-58807150D01*
X83180970Y-58829329D01*
X83189235Y-58852428D01*
X83195196Y-58876227D01*
X83198796Y-58900495D01*
X83200000Y-58924999D01*
X83200000Y-59575001D01*
X83198796Y-59599505D01*
X83195196Y-59623773D01*
X83189235Y-59647572D01*
X83180970Y-59670671D01*
X83170480Y-59692850D01*
X83157868Y-59713893D01*
X83143253Y-59733599D01*
X83126777Y-59751777D01*
X83108599Y-59768253D01*
X83088893Y-59782868D01*
X83067850Y-59795480D01*
X83045671Y-59805970D01*
X83022572Y-59814235D01*
X82998773Y-59820196D01*
X82974505Y-59823796D01*
X82950001Y-59825000D01*
X82049999Y-59825000D01*
X82025495Y-59823796D01*
X82001227Y-59820196D01*
X81977428Y-59814235D01*
X81954329Y-59805970D01*
X81932150Y-59795480D01*
X81911107Y-59782868D01*
X81891401Y-59768253D01*
X81873223Y-59751777D01*
X81856747Y-59733599D01*
X81842132Y-59713893D01*
X81829520Y-59692850D01*
X81819030Y-59670671D01*
X81810765Y-59647572D01*
X81804804Y-59623773D01*
X81801204Y-59599505D01*
X81800000Y-59575001D01*
X81800000Y-58924999D01*
X81801204Y-58900495D01*
X81804804Y-58876227D01*
X81810765Y-58852428D01*
X81819030Y-58829329D01*
X81829520Y-58807150D01*
X81842132Y-58786107D01*
X81856747Y-58766401D01*
X81873223Y-58748223D01*
X81891401Y-58731747D01*
X81911107Y-58717132D01*
X81932150Y-58704520D01*
X81954329Y-58694030D01*
X81977428Y-58685765D01*
X82001227Y-58679804D01*
X82025495Y-58676204D01*
X82049999Y-58675000D01*
X82950001Y-58675000D01*
X82974505Y-58676204D01*
X82974505Y-58676204D01*
G37*
D15*
G04 #@! TD*
G04 #@! TO.P,R6,2*
G04 #@! TO.N,Net-(C12-Pad2)*
X82500000Y-59250000D03*
D19*
G04 #@! TO.P,U1,1*
G04 #@! TO.N,Earth*
X87975000Y-43150000D03*
G04 #@! TO.P,U1,2*
X87325000Y-43150000D03*
G04 #@! TO.P,U1,3*
G04 #@! TO.N,DOUT*
X86675000Y-43150000D03*
G04 #@! TO.P,U1,4*
G04 #@! TO.N,LRCK*
X86025000Y-43150000D03*
G04 #@! TO.P,U1,5*
G04 #@! TO.N,BCK*
X85375000Y-43150000D03*
G04 #@! TO.P,U1,6*
G04 #@! TO.N,Net-(R1-Pad1)*
X84725000Y-43150000D03*
G04 #@! TO.P,U1,7*
G04 #@! TO.N,VDD*
X84075000Y-43150000D03*
G04 #@! TO.P,U1,8*
G04 #@! TO.N,Earth*
X83425000Y-43150000D03*
G04 #@! TO.P,U1,9*
G04 #@! TO.N,Net-(R1-Pad1)*
X82775000Y-43150000D03*
G04 #@! TO.P,U1,10*
G04 #@! TO.N,BCK*
X82125000Y-43150000D03*
G04 #@! TO.P,U1,11*
G04 #@! TO.N,LRCK*
X81475000Y-43150000D03*
G04 #@! TO.P,U1,12*
G04 #@! TO.N,DIN*
X80825000Y-43150000D03*
G04 #@! TO.P,U1,13*
G04 #@! TO.N,Net-(U1-Pad13)*
X80175000Y-43150000D03*
G04 #@! TO.P,U1,14*
G04 #@! TO.N,Net-(U1-Pad14)*
X79525000Y-43150000D03*
G04 #@! TO.P,U1,15*
G04 #@! TO.N,VDD*
X79525000Y-48850000D03*
G04 #@! TO.P,U1,16*
G04 #@! TO.N,Earth*
X80175000Y-48850000D03*
G04 #@! TO.P,U1,17*
G04 #@! TO.N,Net-(U1-Pad17)*
X80825000Y-48850000D03*
G04 #@! TO.P,U1,18*
G04 #@! TO.N,Net-(C11-Pad1)*
X81475000Y-48850000D03*
G04 #@! TO.P,U1,19*
G04 #@! TO.N,Net-(U1-Pad19)*
X82125000Y-48850000D03*
G04 #@! TO.P,U1,20*
G04 #@! TO.N,Net-(C12-Pad1)*
X82775000Y-48850000D03*
G04 #@! TO.P,U1,21*
G04 #@! TO.N,Net-(C6-Pad1)*
X83425000Y-48850000D03*
G04 #@! TO.P,U1,22*
G04 #@! TO.N,Earth*
X84075000Y-48850000D03*
G04 #@! TO.P,U1,23*
X84725000Y-48850000D03*
G04 #@! TO.P,U1,24*
G04 #@! TO.N,VCC*
X85375000Y-48850000D03*
G04 #@! TO.P,U1,25*
G04 #@! TO.N,Net-(C1-Pad1)*
X86025000Y-48850000D03*
G04 #@! TO.P,U1,26*
G04 #@! TO.N,Net-(C2-Pad1)*
X86675000Y-48850000D03*
G04 #@! TO.P,U1,27*
G04 #@! TO.N,VDD*
X87325000Y-48850000D03*
G04 #@! TO.P,U1,28*
G04 #@! TO.N,Net-(R2-Pad1)*
X87975000Y-48850000D03*
G04 #@! TD*
D20*
G04 #@! TO.P,U2,1*
G04 #@! TO.N,Net-(C13-Pad1)*
X98800000Y-60555000D03*
G04 #@! TO.P,U2,2*
G04 #@! TO.N,Net-(C16-Pad2)*
X98800000Y-61825000D03*
G04 #@! TO.P,U2,3*
G04 #@! TO.N,Net-(C13-Pad2)*
X98800000Y-63095000D03*
G04 #@! TO.P,U2,4*
G04 #@! TO.N,Net-(C15-Pad1)*
X98800000Y-64365000D03*
G04 #@! TO.P,U2,5*
G04 #@! TO.N,Net-(C15-Pad2)*
X98800000Y-65635000D03*
G04 #@! TO.P,U2,6*
G04 #@! TO.N,Net-(C17-Pad2)*
X98800000Y-66905000D03*
G04 #@! TO.P,U2,7*
G04 #@! TO.N,TXR1*
X98800000Y-68175000D03*
G04 #@! TO.P,U2,8*
G04 #@! TO.N,RXR1*
X98800000Y-69445000D03*
G04 #@! TO.P,U2,9*
G04 #@! TO.N,RXD1*
X104200000Y-69445000D03*
G04 #@! TO.P,U2,10*
G04 #@! TO.N,TXD1*
X104200000Y-68175000D03*
G04 #@! TO.P,U2,11*
G04 #@! TO.N,TXD0*
X104200000Y-66905000D03*
G04 #@! TO.P,U2,12*
G04 #@! TO.N,RXD0*
X104200000Y-65635000D03*
G04 #@! TO.P,U2,13*
G04 #@! TO.N,RXR0*
X104200000Y-64365000D03*
G04 #@! TO.P,U2,14*
G04 #@! TO.N,TXR0*
X104200000Y-63095000D03*
G04 #@! TO.P,U2,15*
G04 #@! TO.N,GND*
X104200000Y-61825000D03*
G04 #@! TO.P,U2,16*
G04 #@! TO.N,Net-(C14-Pad2)*
X104200000Y-60555000D03*
G04 #@! TD*
D21*
G04 #@! TO.P,X1,1*
G04 #@! TO.N,Net-(X1-Pad1)*
X75850000Y-48300000D03*
G04 #@! TO.P,X1,2*
G04 #@! TO.N,Net-(C5-Pad2)*
X75850000Y-43000000D03*
G04 #@! TO.P,X1,3*
G04 #@! TO.N,SYSCLK*
X72750000Y-43000000D03*
G04 #@! TO.P,X1,4*
G04 #@! TO.N,VDD*
X72750000Y-48300000D03*
G04 #@! TD*
D17*
G04 #@! TO.P,J1,6*
G04 #@! TO.N,TXR0*
X82080000Y-66960000D03*
G04 #@! TO.P,J1,5*
G04 #@! TO.N,RXR0*
X82080000Y-69500000D03*
G04 #@! TO.P,J1,4*
G04 #@! TO.N,Net-(J1-Pad4)*
X79540000Y-66960000D03*
G04 #@! TO.P,J1,3*
G04 #@! TO.N,Net-(J1-Pad3)*
X79540000Y-69500000D03*
G04 #@! TO.P,J1,2*
G04 #@! TO.N,RXR0*
X77000000Y-66960000D03*
D18*
G04 #@! TO.P,J1,1*
G04 #@! TO.N,TXR0*
X77000000Y-69500000D03*
G04 #@! TD*
G04 #@! TO.P,J3,1*
G04 #@! TO.N,TXR1*
X85750000Y-69500000D03*
D17*
G04 #@! TO.P,J3,2*
G04 #@! TO.N,RXR1*
X85750000Y-66960000D03*
G04 #@! TO.P,J3,3*
G04 #@! TO.N,Net-(J3-Pad3)*
X88290000Y-69500000D03*
G04 #@! TO.P,J3,4*
G04 #@! TO.N,Net-(J3-Pad4)*
X88290000Y-66960000D03*
G04 #@! TO.P,J3,5*
G04 #@! TO.N,RXR1*
X90830000Y-69500000D03*
G04 #@! TO.P,J3,6*
G04 #@! TO.N,TXR1*
X90830000Y-66960000D03*
G04 #@! TD*
D22*
G04 #@! TO.P,K1,1*
G04 #@! TO.N,GND*
X109750000Y-53250000D03*
D23*
G04 #@! TO.P,K1,3*
G04 #@! TO.N,PTTL0*
X109750000Y-48170000D03*
G04 #@! TO.P,K1,5*
G04 #@! TO.N,GND*
X109750000Y-43090000D03*
G04 #@! TO.P,K1,7*
G04 #@! TO.N,PTT0*
X109750000Y-38010000D03*
G04 #@! TD*
G04 #@! TO.P,K2,7*
G04 #@! TO.N,PTT1*
X109750000Y-58760000D03*
G04 #@! TO.P,K2,5*
G04 #@! TO.N,GND*
X109750000Y-63840000D03*
G04 #@! TO.P,K2,3*
G04 #@! TO.N,PTTL1*
X109750000Y-68920000D03*
D22*
G04 #@! TO.P,K2,1*
G04 #@! TO.N,GND*
X109750000Y-74000000D03*
G04 #@! TD*
D24*
G04 #@! TO.N,Earth*
X88750800Y-57241100D03*
X87673900Y-46388800D03*
X86109700Y-44858200D03*
G04 #@! TO.N,VDD*
X81750000Y-40733400D03*
X86804800Y-47690600D03*
X84155000Y-44336300D03*
X80129300Y-47686600D03*
G04 #@! TO.N,Net-(C6-Pad1)*
X83476500Y-51928600D03*
X83476500Y-47641500D03*
G04 #@! TO.N,Net-(C13-Pad2)*
X97420300Y-60500000D03*
X100322100Y-63104700D03*
G04 #@! TO.N,Net-(C15-Pad1)*
X97386900Y-63129900D03*
X100158900Y-64581300D03*
G04 #@! TO.N,Net-(C17-Pad2)*
X93926500Y-67082900D03*
X96613300Y-65980000D03*
G04 #@! TO.N,Net-(C19-Pad1)*
X97762400Y-53800000D03*
X83926100Y-39114700D03*
G04 #@! TO.N,OUTL*
X81354200Y-60319500D03*
G04 #@! TO.N,RXD0*
X100168300Y-65635000D03*
G04 #@! TO.N,BCK*
X77751200Y-42196200D03*
G04 #@! TO.N,TXD1*
X105554100Y-63914400D03*
G04 #@! TO.N,RXD1*
X106283100Y-64679000D03*
G04 #@! TO.N,LRCK*
X90036700Y-41545100D03*
G04 #@! TO.N,DOUT*
X88804200Y-42399500D03*
G04 #@! TO.N,DIN*
X104241700Y-29244100D03*
G04 #@! TO.N,Net-(R1-Pad1)*
X73077600Y-39194100D03*
X82516500Y-44322700D03*
G04 #@! TD*
D25*
G04 #@! TO.N,Net-(C1-Pad1)*
X86025000Y-48850000D02*
X86025000Y-51975000D01*
X86025000Y-51975000D02*
X85000000Y-53000000D01*
G04 #@! TO.N,INL*
X65040000Y-38925300D02*
X64672700Y-38925300D01*
X64672700Y-38925300D02*
X63864600Y-39733400D01*
X63864600Y-39733400D02*
X63864600Y-48435600D01*
X63864600Y-48435600D02*
X64609000Y-49180000D01*
X64609000Y-49180000D02*
X65530500Y-49180000D01*
X65530500Y-49180000D02*
X72777400Y-56426900D01*
X72777400Y-56426900D02*
X83623100Y-56426900D01*
X83623100Y-56426900D02*
X85000000Y-55050000D01*
X65040000Y-37750000D02*
X65040000Y-38925300D01*
G04 #@! TO.N,INR*
X65040000Y-60000000D02*
X66215300Y-60000000D01*
X66215300Y-60000000D02*
X68971200Y-57244100D01*
X68971200Y-57244100D02*
X85305900Y-57244100D01*
X85305900Y-57244100D02*
X87500000Y-55050000D01*
G04 #@! TO.N,Net-(C2-Pad1)*
X86675000Y-48850000D02*
X86675000Y-52175000D01*
X86675000Y-52175000D02*
X87500000Y-53000000D01*
G04 #@! TO.N,Earth*
X81750000Y-37475000D02*
X79525000Y-37475000D01*
X79525000Y-37475000D02*
X79500000Y-37450000D01*
X89500000Y-39550000D02*
X88645900Y-40404100D01*
X88645900Y-40404100D02*
X84188600Y-40404100D01*
X84188600Y-40404100D02*
X82873600Y-39089100D01*
X82873600Y-39089100D02*
X82873600Y-38598600D01*
X82873600Y-38598600D02*
X81750000Y-37475000D01*
X91500000Y-39550000D02*
X91500000Y-39525000D01*
X91500000Y-42562700D02*
X91500000Y-39550000D01*
X91500000Y-39550000D02*
X89500000Y-39550000D01*
X87673900Y-46388800D02*
X91500000Y-42562700D01*
X99181000Y-46739800D02*
X95677100Y-46739800D01*
X95677100Y-46739800D02*
X91500000Y-42562700D01*
X99181000Y-46739800D02*
X99181000Y-48131000D01*
X99181000Y-48131000D02*
X99250000Y-48200000D01*
X99250000Y-38200000D02*
X100382300Y-39332300D01*
X100382300Y-39332300D02*
X100382300Y-45538500D01*
X100382300Y-45538500D02*
X99181000Y-46739800D01*
X87673900Y-46388800D02*
X86254600Y-46388800D01*
X86254600Y-46388800D02*
X84725000Y-47918400D01*
X84725000Y-47918400D02*
X84725000Y-48412300D01*
X88750800Y-57241100D02*
X83772800Y-62219100D01*
X83772800Y-62219100D02*
X80869100Y-62219100D01*
X80869100Y-62219100D02*
X80000000Y-61350000D01*
X83425000Y-44025300D02*
X83425000Y-44632000D01*
X83425000Y-44632000D02*
X83869000Y-45076000D01*
X83869000Y-45076000D02*
X85891900Y-45076000D01*
X85891900Y-45076000D02*
X86109700Y-44858200D01*
X87325000Y-44025300D02*
X86492100Y-44858200D01*
X86492100Y-44858200D02*
X86109700Y-44858200D01*
X84725000Y-48412300D02*
X84512700Y-48412300D01*
X84512700Y-48412300D02*
X84075000Y-48850000D01*
X87325000Y-43587600D02*
X87537400Y-43587600D01*
X87537400Y-43587600D02*
X87975000Y-43150000D01*
X87325000Y-43587600D02*
X87325000Y-44025300D01*
X87325000Y-43150000D02*
X87325000Y-43587600D01*
X80000000Y-61350000D02*
X77550000Y-61350000D01*
X77550000Y-61350000D02*
X77500000Y-61300000D01*
X83425000Y-43150000D02*
X83425000Y-44025300D01*
X80175000Y-49725300D02*
X78973600Y-50926700D01*
X78973600Y-50926700D02*
X78973600Y-54023600D01*
X78973600Y-54023600D02*
X80000000Y-55050000D01*
X84075000Y-49725300D02*
X80175000Y-49725300D01*
X84075000Y-48850000D02*
X84075000Y-49725300D01*
X80175000Y-48850000D02*
X80175000Y-49725300D01*
X84725000Y-48850000D02*
X84725000Y-48412300D01*
X82500000Y-55050000D02*
X80000000Y-55050000D01*
G04 #@! TO.N,VCC*
X91500000Y-37475000D02*
X92852300Y-36122700D01*
X92852300Y-36122700D02*
X100113500Y-36122700D01*
X100113500Y-36122700D02*
X100832600Y-36841800D01*
X100832600Y-36841800D02*
X100832600Y-49536100D01*
X100832600Y-49536100D02*
X100091000Y-50277700D01*
X100091000Y-50277700D02*
X98273500Y-50277700D01*
X98273500Y-50277700D02*
X95109900Y-47114100D01*
X95109900Y-47114100D02*
X87254100Y-47114100D01*
X87254100Y-47114100D02*
X87071500Y-46931500D01*
X87071500Y-46931500D02*
X86418200Y-46931500D01*
X86418200Y-46931500D02*
X85375000Y-47974700D01*
X85375000Y-48850000D02*
X85375000Y-47974700D01*
X91500000Y-37475000D02*
X89525000Y-37475000D01*
X89525000Y-37475000D02*
X89500000Y-37500000D01*
X89500000Y-37500000D02*
X87550000Y-37500000D01*
X87550000Y-37500000D02*
X87500000Y-37450000D01*
G04 #@! TO.N,VDD*
X79500000Y-39500000D02*
X81725000Y-39500000D01*
X81725000Y-39500000D02*
X81750000Y-39525000D01*
X78200000Y-38200000D02*
X79500000Y-39500000D01*
X81750000Y-40733400D02*
X81750000Y-39525000D01*
X86804800Y-47690600D02*
X87088900Y-47974700D01*
X87088900Y-47974700D02*
X87325000Y-47974700D01*
X87325000Y-48850000D02*
X87325000Y-47974700D01*
X76500000Y-38200000D02*
X74275000Y-38200000D01*
X74275000Y-38200000D02*
X74250000Y-38225000D01*
X78200000Y-38200000D02*
X76500000Y-38200000D01*
X84155000Y-44336300D02*
X84075000Y-44256300D01*
X84075000Y-44256300D02*
X84075000Y-43150000D01*
X79525000Y-47974700D02*
X79841200Y-47974700D01*
X79841200Y-47974700D02*
X80129300Y-47686600D01*
X79525000Y-48850000D02*
X79525000Y-47974700D01*
X79525000Y-48850000D02*
X79525000Y-49725300D01*
X72750000Y-48300000D02*
X74125300Y-48300000D01*
X74125300Y-48300000D02*
X74125300Y-49503400D01*
X74125300Y-49503400D02*
X74597300Y-49975400D01*
X74597300Y-49975400D02*
X79274900Y-49975400D01*
X79274900Y-49975400D02*
X79525000Y-49725300D01*
X85250000Y-37450000D02*
X84328400Y-36528400D01*
X84328400Y-36528400D02*
X78820000Y-36528400D01*
X78820000Y-36528400D02*
X78200000Y-37148400D01*
X78200000Y-37148400D02*
X78200000Y-38200000D01*
X90000000Y-55050000D02*
X88838800Y-53888800D01*
X88838800Y-53888800D02*
X88838800Y-51239100D01*
X88838800Y-51239100D02*
X87325000Y-49725300D01*
X87325000Y-48850000D02*
X87325000Y-49725300D01*
G04 #@! TO.N,Net-(C6-Pad1)*
X83425000Y-48850000D02*
X83425000Y-47974700D01*
X83425000Y-47974700D02*
X83476500Y-47923200D01*
X83476500Y-47923200D02*
X83476500Y-47641500D01*
X82500000Y-53000000D02*
X82500000Y-52905100D01*
X82500000Y-52905100D02*
X83476500Y-51928600D01*
X80000000Y-53000000D02*
X82500000Y-53000000D01*
G04 #@! TO.N,Net-(C11-Pad1)*
X81475000Y-47974700D02*
X80105000Y-46604700D01*
X80105000Y-46604700D02*
X71546400Y-46604700D01*
X71546400Y-46604700D02*
X71374700Y-46776400D01*
X71374700Y-46776400D02*
X71374700Y-49784800D01*
X71374700Y-49784800D02*
X74589900Y-53000000D01*
X74589900Y-53000000D02*
X75000000Y-53000000D01*
X81475000Y-48850000D02*
X81475000Y-47974700D01*
G04 #@! TO.N,Net-(C11-Pad2)*
X75000000Y-59250000D02*
X68385700Y-59250000D01*
X68385700Y-59250000D02*
X66425100Y-61210600D01*
X66425100Y-61210600D02*
X64566700Y-61210600D01*
X64566700Y-61210600D02*
X63675300Y-60319200D01*
X63675300Y-60319200D02*
X63675300Y-59015200D01*
X63675300Y-59015200D02*
X55412300Y-50752200D01*
X55412300Y-50752200D02*
X55412300Y-39108400D01*
X55412300Y-39108400D02*
X57969100Y-36551600D01*
X57969100Y-36551600D02*
X65509700Y-36551600D01*
X65509700Y-36551600D02*
X67722300Y-38764200D01*
X67722300Y-38764200D02*
X67722300Y-47998500D01*
X67722300Y-47998500D02*
X74773800Y-55050000D01*
X74773800Y-55050000D02*
X75000000Y-55050000D01*
X77500000Y-59250000D02*
X75000000Y-59250000D01*
G04 #@! TO.N,Net-(C12-Pad1)*
X82775000Y-47974700D02*
X80934100Y-46133800D01*
X80934100Y-46133800D02*
X71353600Y-46133800D01*
X71353600Y-46133800D02*
X70911000Y-46576400D01*
X70911000Y-46576400D02*
X70911000Y-50529700D01*
X70911000Y-50529700D02*
X74328400Y-53947100D01*
X74328400Y-53947100D02*
X76552900Y-53947100D01*
X76552900Y-53947100D02*
X77500000Y-53000000D01*
X82775000Y-48850000D02*
X82775000Y-47974700D01*
G04 #@! TO.N,Net-(C12-Pad2)*
X82500000Y-59250000D02*
X84907500Y-59250000D01*
X84907500Y-59250000D02*
X88529500Y-55628000D01*
X88529500Y-55628000D02*
X88529500Y-54457000D01*
X88529500Y-54457000D02*
X88209300Y-54136800D01*
X88209300Y-54136800D02*
X84296100Y-54136800D01*
X84296100Y-54136800D02*
X83549800Y-54883100D01*
X83549800Y-54883100D02*
X83549800Y-55618200D01*
X83549800Y-55618200D02*
X83204100Y-55963900D01*
X83204100Y-55963900D02*
X78413900Y-55963900D01*
X78413900Y-55963900D02*
X77500000Y-55050000D01*
X80000000Y-59300000D02*
X80050000Y-59250000D01*
X80050000Y-59250000D02*
X82500000Y-59250000D01*
G04 #@! TO.N,Net-(C13-Pad2)*
X95250000Y-60500000D02*
X97420300Y-60500000D01*
X98800000Y-63095000D02*
X100312400Y-63095000D01*
X100312400Y-63095000D02*
X100322100Y-63104700D01*
G04 #@! TO.N,Net-(C13-Pad1)*
X98800000Y-60555000D02*
X99875300Y-60555000D01*
X95250000Y-58450000D02*
X95326600Y-58526600D01*
X95326600Y-58526600D02*
X106673000Y-58526600D01*
X106673000Y-58526600D02*
X107465000Y-57734600D01*
X107465000Y-57734600D02*
X110237700Y-57734600D01*
X110237700Y-57734600D02*
X110780200Y-58277100D01*
X110780200Y-58277100D02*
X110780200Y-59251000D01*
X110780200Y-59251000D02*
X110225400Y-59805800D01*
X110225400Y-59805800D02*
X108711000Y-59805800D01*
X108711000Y-59805800D02*
X108332400Y-59427200D01*
X108332400Y-59427200D02*
X101003100Y-59427200D01*
X101003100Y-59427200D02*
X99875300Y-60555000D01*
G04 #@! TO.N,GND*
X96640000Y-31460000D02*
X97815300Y-31460000D01*
X104260000Y-34000000D02*
X103084700Y-34000000D01*
X103084700Y-34000000D02*
X103084700Y-33632600D01*
X103084700Y-33632600D02*
X102087400Y-32635300D01*
X102087400Y-32635300D02*
X98623200Y-32635300D01*
X98623200Y-32635300D02*
X97815300Y-31827400D01*
X97815300Y-31827400D02*
X97815300Y-31460000D01*
X91560000Y-31460000D02*
X90384700Y-31460000D01*
X86480000Y-34000000D02*
X87655300Y-34000000D01*
X87655300Y-34000000D02*
X87655300Y-33632600D01*
X87655300Y-33632600D02*
X88652600Y-32635300D01*
X88652600Y-32635300D02*
X89576800Y-32635300D01*
X89576800Y-32635300D02*
X90384700Y-31827400D01*
X90384700Y-31827400D02*
X90384700Y-31460000D01*
X91560000Y-31460000D02*
X92735300Y-31460000D01*
X96640000Y-31460000D02*
X95464700Y-31460000D01*
X95464700Y-31460000D02*
X95464700Y-31092700D01*
X95464700Y-31092700D02*
X94656700Y-30284700D01*
X94656700Y-30284700D02*
X93543200Y-30284700D01*
X93543200Y-30284700D02*
X92735300Y-31092600D01*
X92735300Y-31092600D02*
X92735300Y-31460000D01*
X105182700Y-47657300D02*
X101944800Y-50895200D01*
X101944800Y-50895200D02*
X92981800Y-50895200D01*
X92981800Y-50895200D02*
X91420100Y-52456900D01*
X91420100Y-52456900D02*
X91420100Y-53945100D01*
X91420100Y-53945100D02*
X92500000Y-55025000D01*
X109750000Y-43090000D02*
X105182700Y-47657300D01*
X109750000Y-52224700D02*
X105182700Y-47657300D01*
X109750000Y-53250000D02*
X109750000Y-52224700D01*
X104200000Y-61825000D02*
X105275300Y-61825000D01*
X105275300Y-61825000D02*
X107290300Y-63840000D01*
X107290300Y-63840000D02*
X109750000Y-63840000D01*
X95942600Y-74842600D02*
X94560000Y-73460000D01*
X98176800Y-74535400D02*
X96249800Y-74535400D01*
X96249800Y-74535400D02*
X95942600Y-74842600D01*
X95942600Y-74842600D02*
X95942600Y-75887400D01*
X95942600Y-75887400D02*
X95830000Y-76000000D01*
X78860000Y-31460000D02*
X77684700Y-31460000D01*
X71240000Y-31460000D02*
X72415300Y-31460000D01*
X72415300Y-31460000D02*
X72415300Y-31092700D01*
X72415300Y-31092700D02*
X73223300Y-30284700D01*
X73223300Y-30284700D02*
X76876800Y-30284700D01*
X76876800Y-30284700D02*
X77684700Y-31092600D01*
X77684700Y-31092600D02*
X77684700Y-31460000D01*
X80215000Y-75365000D02*
X80707600Y-74872400D01*
X80707600Y-74872400D02*
X93147600Y-74872400D01*
X93147600Y-74872400D02*
X94560000Y-73460000D01*
X79580000Y-76000000D02*
X80215000Y-75365000D01*
X80215000Y-75365000D02*
X78310000Y-73460000D01*
X108724700Y-74000000D02*
X108189300Y-74535400D01*
X108189300Y-74535400D02*
X98176800Y-74535400D01*
X98176800Y-74535400D02*
X98176800Y-72476800D01*
X98176800Y-72476800D02*
X95250000Y-69550000D01*
X109750000Y-74000000D02*
X108724700Y-74000000D01*
X65040000Y-72700000D02*
X66215300Y-72700000D01*
X78310000Y-73460000D02*
X77234600Y-72384600D01*
X77234600Y-72384600D02*
X66530700Y-72384600D01*
X66530700Y-72384600D02*
X66215300Y-72700000D01*
X65040000Y-52990000D02*
X65040000Y-55530000D01*
X65040000Y-50450000D02*
X65040000Y-52990000D01*
G04 #@! TO.N,Net-(C14-Pad2)*
X105275300Y-60555000D02*
X105500400Y-60780100D01*
X105500400Y-60780100D02*
X110524900Y-60780100D01*
X110524900Y-60780100D02*
X111680900Y-59624100D01*
X111680900Y-59624100D02*
X111680900Y-57904000D01*
X111680900Y-57904000D02*
X110601700Y-56824800D01*
X110601700Y-56824800D02*
X104475200Y-56824800D01*
X104475200Y-56824800D02*
X104250000Y-57050000D01*
X104250000Y-57050000D02*
X103195500Y-55995500D01*
X103195500Y-55995500D02*
X95520500Y-55995500D01*
X95520500Y-55995500D02*
X92500000Y-52975000D01*
X104200000Y-60555000D02*
X105275300Y-60555000D01*
G04 #@! TO.N,Net-(C15-Pad1)*
X98800000Y-64365000D02*
X99875300Y-64365000D01*
X99875300Y-64365000D02*
X100091600Y-64581300D01*
X100091600Y-64581300D02*
X100158900Y-64581300D01*
X97386900Y-63129900D02*
X95329900Y-63129900D01*
X95329900Y-63129900D02*
X95250000Y-63050000D01*
G04 #@! TO.N,Net-(C15-Pad2)*
X98800000Y-65635000D02*
X97724700Y-65635000D01*
X97724700Y-65635000D02*
X97189700Y-65100000D01*
X97189700Y-65100000D02*
X95250000Y-65100000D01*
G04 #@! TO.N,Net-(C16-Pad2)*
X98800000Y-61825000D02*
X99875300Y-61825000D01*
X99875300Y-61825000D02*
X101770700Y-59929600D01*
X101770700Y-59929600D02*
X106469300Y-59929600D01*
X106469300Y-59929600D02*
X106860200Y-60320500D01*
X106860200Y-60320500D02*
X110347600Y-60320500D01*
X110347600Y-60320500D02*
X111230600Y-59437500D01*
X111230600Y-59437500D02*
X111230600Y-58090600D01*
X111230600Y-58090600D02*
X110415100Y-57275100D01*
X110415100Y-57275100D02*
X105981800Y-57275100D01*
X105981800Y-57275100D02*
X105180600Y-58076300D01*
X105180600Y-58076300D02*
X103226300Y-58076300D01*
X103226300Y-58076300D02*
X102200000Y-57050000D01*
G04 #@! TO.N,Net-(C17-Pad2)*
X97724700Y-66905000D02*
X96799700Y-65980000D01*
X96799700Y-65980000D02*
X96613300Y-65980000D01*
X93926500Y-67082900D02*
X94832900Y-67082900D01*
X94832900Y-67082900D02*
X95250000Y-67500000D01*
X98800000Y-66905000D02*
X97724700Y-66905000D01*
G04 #@! TO.N,Net-(C18-Pad1)*
X87500000Y-38585900D02*
X87027700Y-38585900D01*
X87027700Y-38585900D02*
X86276400Y-37834600D01*
X86276400Y-37834600D02*
X86276400Y-36887700D01*
X86276400Y-36887700D02*
X85048400Y-35659700D01*
X85048400Y-35659700D02*
X65891600Y-35659700D01*
X65891600Y-35659700D02*
X65634700Y-35402800D01*
X65634700Y-35402800D02*
X55242600Y-35402800D01*
X55242600Y-35402800D02*
X54824600Y-34984800D01*
X54824600Y-34984800D02*
X54824600Y-32954000D01*
X54824600Y-32954000D02*
X55754000Y-32024600D01*
X55754000Y-32024600D02*
X56000000Y-32024600D01*
X87500000Y-38585900D02*
X87500000Y-39500000D01*
X99250000Y-43800000D02*
X94035900Y-38585900D01*
X94035900Y-38585900D02*
X87500000Y-38585900D01*
X57364700Y-31460000D02*
X56800100Y-32024600D01*
X56800100Y-32024600D02*
X56000000Y-32024600D01*
X58540000Y-31460000D02*
X57364700Y-31460000D01*
X56000000Y-31460000D02*
X56000000Y-32024600D01*
G04 #@! TO.N,Net-(C19-Pad1)*
X99250000Y-53800000D02*
X97762400Y-53800000D01*
X83926100Y-39114700D02*
X84864700Y-39114700D01*
X84864700Y-39114700D02*
X85250000Y-39500000D01*
X56000000Y-34000000D02*
X57175300Y-34000000D01*
X57175300Y-34000000D02*
X57175300Y-33632700D01*
X57175300Y-33632700D02*
X57993700Y-32814300D01*
X57993700Y-32814300D02*
X75134300Y-32814300D01*
X75134300Y-32814300D02*
X76320000Y-34000000D01*
G04 #@! TO.N,RXR0*
X82080000Y-68324700D02*
X82666000Y-68324700D01*
X82666000Y-68324700D02*
X87025800Y-63964900D01*
X87025800Y-63964900D02*
X97577700Y-63964900D01*
X97577700Y-63964900D02*
X97802900Y-63739700D01*
X97802900Y-63739700D02*
X99931400Y-63739700D01*
X99931400Y-63739700D02*
X100021700Y-63830000D01*
X100021700Y-63830000D02*
X102589700Y-63830000D01*
X102589700Y-63830000D02*
X103124700Y-64365000D01*
X104200000Y-64365000D02*
X103124700Y-64365000D01*
X82080000Y-69500000D02*
X82080000Y-68324700D01*
G04 #@! TO.N,TXR0*
X103124700Y-63095000D02*
X102409100Y-62379400D01*
X102409100Y-62379400D02*
X100021700Y-62379400D01*
X100021700Y-62379400D02*
X99931400Y-62469700D01*
X99931400Y-62469700D02*
X97752500Y-62469700D01*
X97752500Y-62469700D02*
X97377600Y-62094800D01*
X97377600Y-62094800D02*
X88120500Y-62094800D01*
X88120500Y-62094800D02*
X83255300Y-66960000D01*
X82080000Y-66960000D02*
X80904700Y-66960000D01*
X77000000Y-69500000D02*
X78175300Y-69500000D01*
X78175300Y-69500000D02*
X78175300Y-69132600D01*
X78175300Y-69132600D02*
X79172600Y-68135300D01*
X79172600Y-68135300D02*
X80096800Y-68135300D01*
X80096800Y-68135300D02*
X80904700Y-67327400D01*
X80904700Y-67327400D02*
X80904700Y-66960000D01*
X104200000Y-63095000D02*
X103124700Y-63095000D01*
X82080000Y-66960000D02*
X83255300Y-66960000D01*
G04 #@! TO.N,TXR1*
X65040000Y-70160000D02*
X66215300Y-70160000D01*
X85750000Y-69500000D02*
X84574700Y-69500000D01*
X84574700Y-69500000D02*
X82891400Y-71183300D01*
X82891400Y-71183300D02*
X67238600Y-71183300D01*
X67238600Y-71183300D02*
X66215300Y-70160000D01*
X86337700Y-69500000D02*
X85750000Y-69500000D01*
X97724700Y-68175000D02*
X95907300Y-66357600D01*
X95907300Y-66357600D02*
X92607700Y-66357600D01*
X92607700Y-66357600D02*
X92005300Y-66960000D01*
X98800000Y-68175000D02*
X97724700Y-68175000D01*
X86337700Y-69500000D02*
X86925300Y-69500000D01*
X90830000Y-66960000D02*
X92005300Y-66960000D01*
X90242400Y-66960000D02*
X90830000Y-66960000D01*
X90242400Y-66960000D02*
X89654700Y-66960000D01*
X89654700Y-66960000D02*
X89654700Y-67327400D01*
X89654700Y-67327400D02*
X88657400Y-68324700D01*
X88657400Y-68324700D02*
X87733200Y-68324700D01*
X87733200Y-68324700D02*
X86925300Y-69132600D01*
X86925300Y-69132600D02*
X86925300Y-69500000D01*
G04 #@! TO.N,RXR1*
X90830000Y-69500000D02*
X92005300Y-69500000D01*
X92005300Y-69500000D02*
X92869600Y-68635700D01*
X92869600Y-68635700D02*
X96111700Y-68635700D01*
X96111700Y-68635700D02*
X96921000Y-69445000D01*
X96921000Y-69445000D02*
X98800000Y-69445000D01*
X65040000Y-67620000D02*
X66215300Y-67620000D01*
X85750000Y-66960000D02*
X85750000Y-68135300D01*
X85750000Y-68135300D02*
X84950200Y-68135300D01*
X84950200Y-68135300D02*
X84574700Y-68510800D01*
X84574700Y-68510800D02*
X84574700Y-68736200D01*
X84574700Y-68736200D02*
X82635500Y-70675400D01*
X82635500Y-70675400D02*
X69270700Y-70675400D01*
X69270700Y-70675400D02*
X66215300Y-67620000D01*
G04 #@! TO.N,Net-(J5-Pad7)*
X62500000Y-52990000D02*
X61324700Y-52990000D01*
X61324700Y-52990000D02*
X56500000Y-48165300D01*
X56500000Y-48165300D02*
X56500000Y-47620000D01*
G04 #@! TO.N,Net-(J5-Pad6)*
X62500000Y-50450000D02*
X62500000Y-49274700D01*
X62500000Y-49274700D02*
X61964700Y-49274700D01*
X61964700Y-49274700D02*
X59040000Y-46350000D01*
G04 #@! TO.N,Net-(J5-Pad5)*
X62500000Y-47910000D02*
X61324700Y-47910000D01*
X61324700Y-47910000D02*
X61324700Y-47102000D01*
X61324700Y-47102000D02*
X59302700Y-45080000D01*
X59302700Y-45080000D02*
X56500000Y-45080000D01*
G04 #@! TO.N,Net-(J5-Pad1)*
X62500000Y-37750000D02*
X61324700Y-37750000D01*
X61324700Y-37750000D02*
X59074700Y-40000000D01*
X59074700Y-40000000D02*
X56500000Y-40000000D01*
G04 #@! TO.N,OUTL*
X81354200Y-60319500D02*
X81519500Y-60319500D01*
X81519500Y-60319500D02*
X82500000Y-61300000D01*
G04 #@! TO.N,Net-(J7-Pad3)*
X62500000Y-65080000D02*
X61324700Y-65080000D01*
X61324700Y-65080000D02*
X61324700Y-65520700D01*
X61324700Y-65520700D02*
X59305400Y-67540000D01*
X59305400Y-67540000D02*
X56500000Y-67540000D01*
G04 #@! TO.N,Net-(J7-Pad4)*
X62500000Y-67620000D02*
X61324700Y-67620000D01*
X61324700Y-67620000D02*
X60134700Y-68810000D01*
X60134700Y-68810000D02*
X59040000Y-68810000D01*
G04 #@! TO.N,Net-(J7-Pad5)*
X62500000Y-70160000D02*
X61324700Y-70160000D01*
X61324700Y-70160000D02*
X61244700Y-70080000D01*
X61244700Y-70080000D02*
X56500000Y-70080000D01*
G04 #@! TO.N,Net-(J7-Pad6)*
X62500000Y-72700000D02*
X61324700Y-72700000D01*
X61324700Y-72700000D02*
X59974700Y-71350000D01*
X59974700Y-71350000D02*
X59040000Y-71350000D01*
G04 #@! TO.N,TXD0*
X64795300Y-31460000D02*
X64795300Y-31092700D01*
X64795300Y-31092700D02*
X66089100Y-29798900D01*
X66089100Y-29798900D02*
X103770800Y-29798900D01*
X103770800Y-29798900D02*
X103941300Y-29969400D01*
X103941300Y-29969400D02*
X104494800Y-29969400D01*
X104494800Y-29969400D02*
X105841900Y-31316500D01*
X105841900Y-31316500D02*
X105841900Y-35554800D01*
X105841900Y-35554800D02*
X112131200Y-41844100D01*
X112131200Y-41844100D02*
X112131200Y-63265800D01*
X112131200Y-63265800D02*
X105326600Y-70070400D01*
X105326600Y-70070400D02*
X103258100Y-70070400D01*
X103258100Y-70070400D02*
X103124600Y-69936900D01*
X103124600Y-69936900D02*
X103124600Y-69002200D01*
X103124600Y-69002200D02*
X103326400Y-68800400D01*
X103326400Y-68800400D02*
X105084700Y-68800400D01*
X105084700Y-68800400D02*
X105275300Y-68609800D01*
X105275300Y-68609800D02*
X105275300Y-66905000D01*
X63620000Y-31460000D02*
X64795300Y-31460000D01*
X104200000Y-66905000D02*
X105275300Y-66905000D01*
G04 #@! TO.N,RXD0*
X104200000Y-65635000D02*
X100168300Y-65635000D01*
G04 #@! TO.N,BCK*
X82125000Y-42274800D02*
X82046400Y-42196200D01*
X82046400Y-42196200D02*
X77751200Y-42196200D01*
X82125000Y-42274800D02*
X82619700Y-41780100D01*
X82619700Y-41780100D02*
X84880400Y-41780100D01*
X84880400Y-41780100D02*
X85375000Y-42274700D01*
X82125000Y-42387300D02*
X82125000Y-42274800D01*
X85375000Y-43150000D02*
X85375000Y-42274700D01*
X82125000Y-43150000D02*
X82125000Y-42387300D01*
G04 #@! TO.N,TXD1*
X103124700Y-68175000D02*
X103124700Y-66431900D01*
X103124700Y-66431900D02*
X103296300Y-66260300D01*
X103296300Y-66260300D02*
X105084800Y-66260300D01*
X105084800Y-66260300D02*
X105554100Y-65791000D01*
X105554100Y-65791000D02*
X105554100Y-63914400D01*
X104200000Y-68175000D02*
X103124700Y-68175000D01*
G04 #@! TO.N,RXD1*
X105275300Y-69445000D02*
X106283100Y-68437200D01*
X106283100Y-68437200D02*
X106283100Y-64679000D01*
X104200000Y-69445000D02*
X105275300Y-69445000D01*
G04 #@! TO.N,LRCK*
X81475000Y-43150000D02*
X81475000Y-44307800D01*
X81475000Y-44307800D02*
X82696400Y-45529200D01*
X82696400Y-45529200D02*
X85755000Y-45529200D01*
X85755000Y-45529200D02*
X85809300Y-45583500D01*
X85809300Y-45583500D02*
X86410200Y-45583500D01*
X86410200Y-45583500D02*
X86730900Y-45262800D01*
X86730900Y-45262800D02*
X87125000Y-45262800D01*
X87125000Y-45262800D02*
X89530500Y-42857300D01*
X89530500Y-42857300D02*
X89530500Y-42051400D01*
X89530500Y-42051400D02*
X89530500Y-42051300D01*
X89530500Y-42051300D02*
X89147700Y-41668600D01*
X89147700Y-41668600D02*
X86600700Y-41668600D01*
X86600700Y-41668600D02*
X86025000Y-42244300D01*
X86025000Y-42244300D02*
X86025000Y-43150000D01*
X90036700Y-41545100D02*
X89530500Y-42051300D01*
G04 #@! TO.N,DOUT*
X86675000Y-42274700D02*
X88679400Y-42274700D01*
X88679400Y-42274700D02*
X88804200Y-42399500D01*
X86675000Y-43150000D02*
X86675000Y-42274700D01*
G04 #@! TO.N,DIN*
X80825000Y-44025300D02*
X80174900Y-44675400D01*
X80174900Y-44675400D02*
X71565300Y-44675400D01*
X71565300Y-44675400D02*
X68819200Y-41929300D01*
X68819200Y-41929300D02*
X68819200Y-39224100D01*
X68819200Y-39224100D02*
X68819100Y-39224100D01*
X68819100Y-39224100D02*
X65673200Y-36078200D01*
X65673200Y-36078200D02*
X55245500Y-36078200D01*
X55245500Y-36078200D02*
X54362100Y-35194800D01*
X54362100Y-35194800D02*
X54362100Y-31417200D01*
X54362100Y-31417200D02*
X56535200Y-29244100D01*
X56535200Y-29244100D02*
X104241700Y-29244100D01*
X80825000Y-43150000D02*
X80825000Y-44025300D01*
G04 #@! TO.N,PTT1*
X65040000Y-65080000D02*
X83250900Y-65080000D01*
X83250900Y-65080000D02*
X88855900Y-59475000D01*
X88855900Y-59475000D02*
X97753700Y-59475000D01*
X97753700Y-59475000D02*
X98251800Y-58976900D01*
X98251800Y-58976900D02*
X109533100Y-58976900D01*
X109533100Y-58976900D02*
X109750000Y-58760000D01*
G04 #@! TO.N,OUTR*
X65040000Y-62540000D02*
X66215300Y-62540000D01*
X66215300Y-62540000D02*
X67455300Y-61300000D01*
X67455300Y-61300000D02*
X75000000Y-61300000D01*
G04 #@! TO.N,Net-(R1-Pad1)*
X82775000Y-43150000D02*
X82775000Y-44064200D01*
X82775000Y-44064200D02*
X82516500Y-44322700D01*
X84725000Y-43150000D02*
X84725000Y-42274700D01*
X82775000Y-43150000D02*
X82775000Y-42274700D01*
X82775000Y-42274700D02*
X84725000Y-42274700D01*
X73077600Y-39194100D02*
X72994100Y-39194100D01*
X72994100Y-39194100D02*
X72000000Y-38200000D01*
G04 #@! TO.N,Net-(R2-Pad1)*
X87975000Y-48850000D02*
X87975000Y-49725300D01*
X87975000Y-49725300D02*
X90000000Y-51750300D01*
X90000000Y-51750300D02*
X90000000Y-53000000D01*
G04 #@! TO.N,SYSCLK*
X72750000Y-43000000D02*
X72750000Y-41324700D01*
X72750000Y-41324700D02*
X72000000Y-40574700D01*
X72000000Y-40574700D02*
X72000000Y-40250000D01*
G04 #@! TO.N,Net-(J3-Pad3)*
X88290000Y-69500000D02*
X89465300Y-69500000D01*
X89465300Y-69500000D02*
X89465300Y-69867400D01*
X89465300Y-69867400D02*
X90273200Y-70675300D01*
X90273200Y-70675300D02*
X94315300Y-70675300D01*
X94315300Y-70675300D02*
X97100000Y-73460000D01*
G04 #@! TO.N,Net-(C5-Pad2)*
X75850000Y-40900000D02*
X76500000Y-40250000D01*
X75850000Y-43000000D02*
X75850000Y-40900000D01*
X74250000Y-40275000D02*
X75225000Y-40275000D01*
X75225000Y-40275000D02*
X75850000Y-40900000D01*
G04 #@! TO.N,PTTL0*
X73780000Y-34000000D02*
X74955300Y-34000000D01*
X109750000Y-48170000D02*
X110781000Y-47139000D01*
X110781000Y-47139000D02*
X110781000Y-42666400D01*
X110781000Y-42666400D02*
X103289900Y-35175300D01*
X103289900Y-35175300D02*
X75763200Y-35175300D01*
X75763200Y-35175300D02*
X74955300Y-34367400D01*
X74955300Y-34367400D02*
X74955300Y-34000000D01*
G04 #@! TD*
M02*
