M48
;DRILL file {KiCad (5.0.2)-1} date 2019-06-22 23:21:51
;FORMAT={-:-/ absolute / inch / decimal}
FMAT,2
INCH,TZ
T1C0.0157
T2C0.0197
T3C0.0299
T4C0.0394
T5C0.1063
%
G90
G05
T1
X3.206Y-2.1947
X3.206Y-2.3029
X3.2169Y-1.6524
X3.4478Y-1.6256
X3.5031Y-2.3395
X3.5034Y-1.969
X3.5443Y-1.9695
X3.5607Y-1.7288
X3.5816Y-1.6325
X3.6086Y-1.7246
X3.6428Y-1.7668
X3.7598Y-1.915
X3.7703Y-2.5694
X3.9149Y-1.449
X4.0777Y-1.5715
X4.1212Y-2.5933
T2
X4.2116Y-3.2087
X4.235Y-3.1523
X4.235Y-3.265
X4.2913Y-3.1289
X4.2913Y-3.2884
X4.3477Y-3.1523
X4.3477Y-3.265
X4.3711Y-3.2087
X1.9281Y-1.2795
X1.9515Y-1.2232
X1.9515Y-1.3359
X2.0079Y-1.1998
X2.0079Y-1.3593
X2.0642Y-1.2232
X2.0642Y-1.3359
X2.0876Y-1.2795
X4.2116Y-1.2795
X4.235Y-1.2232
X4.235Y-1.3359
X4.2913Y-1.1998
X4.2913Y-1.3593
X4.3477Y-1.2232
X4.3477Y-1.3359
X4.3711Y-1.2795
X1.9281Y-3.2087
X1.9515Y-3.1523
X1.9515Y-3.265
X2.0079Y-3.1289
X2.0079Y-3.2884
X2.0642Y-3.1523
X2.0642Y-3.265
X2.0876Y-3.2087
T3
X2.2638Y-2.5591
X2.2638Y-2.6591
X2.2638Y-2.7591
X2.2638Y-2.8591
X2.3638Y-2.6091
X2.3638Y-2.7091
X2.3638Y-2.8091
X2.3638Y-2.9091
X2.2638Y-1.5945
X2.2638Y-1.6945
X2.2638Y-1.7945
X2.2638Y-1.8945
X2.3638Y-1.6445
X2.3638Y-1.7445
X2.3638Y-1.8445
X2.3638Y-1.9445
X3.6614Y-2.9921
X3.7114Y-2.8921
X3.7614Y-2.9921
X3.8114Y-2.8921
X3.8614Y-2.9921
X3.9114Y-2.8921
X3.9614Y-2.9921
X4.0114Y-2.8921
X3.0118Y-2.9921
X3.0618Y-2.8921
X3.1118Y-2.9921
X3.1618Y-2.8921
X3.2118Y-2.9921
X3.2618Y-2.8921
X3.3118Y-2.9921
X3.3618Y-2.8921
T4
X2.5394Y-2.3622
X2.5394Y-2.4622
X2.5394Y-2.5622
X2.5394Y-2.6622
X2.5394Y-2.7622
X2.5394Y-2.8622
X2.5394Y-2.9622
X2.5394Y-3.0622
X2.6394Y-2.3622
X2.6394Y-2.4622
X2.6394Y-2.5622
X2.6394Y-2.6622
X2.6394Y-2.7622
X2.6394Y-2.8622
X2.6394Y-2.9622
X2.6394Y-3.0622
X2.2047Y-1.2386
X2.2047Y-1.3386
X2.3047Y-1.2386
X2.3047Y-1.3386
X2.4047Y-1.2386
X2.4047Y-1.3386
X2.5047Y-1.2386
X2.5047Y-1.3386
X2.6047Y-1.2386
X2.6047Y-1.3386
X2.7047Y-1.2386
X2.7047Y-1.3386
X2.8047Y-1.2386
X2.8047Y-1.3386
X2.9047Y-1.2386
X2.9047Y-1.3386
X3.0047Y-1.2386
X3.0047Y-1.3386
X3.1047Y-1.2386
X3.1047Y-1.3386
X3.2047Y-1.2386
X3.2047Y-1.3386
X3.3047Y-1.2386
X3.3047Y-1.3386
X3.4047Y-1.2386
X3.4047Y-1.3386
X3.5047Y-1.2386
X3.5047Y-1.3386
X3.6047Y-1.2386
X3.6047Y-1.3386
X3.7047Y-1.2386
X3.7047Y-1.3386
X3.8047Y-1.2386
X3.8047Y-1.3386
X3.9047Y-1.2386
X3.9047Y-1.3386
X4.0047Y-1.2386
X4.0047Y-1.3386
X4.1047Y-1.2386
X4.1047Y-1.3386
X2.5378Y-1.485
X2.5378Y-1.585
X2.5378Y-1.685
X2.5378Y-1.785
X2.5378Y-1.885
X2.5378Y-1.985
X2.5378Y-2.085
X2.5378Y-2.185
X2.6378Y-1.485
X2.6378Y-1.585
X2.6378Y-1.685
X2.6378Y-1.785
X2.6378Y-1.885
X2.6378Y-1.985
X2.6378Y-2.085
X2.6378Y-2.185
X3.1398Y-2.6362
X3.1398Y-2.7362
X3.2398Y-2.6362
X3.2398Y-2.7362
X3.3398Y-2.6362
X3.3398Y-2.7362
X3.4941Y-2.6362
X3.4941Y-2.7362
X3.5941Y-2.6362
X3.5941Y-2.7362
X3.6941Y-2.6362
X3.6941Y-2.7362
T5
X4.2913Y-3.2087
X2.0079Y-1.2795
X4.2913Y-1.2795
X2.0079Y-3.2087
T0
M30
