G04 #@! TF.GenerationSoftware,KiCad,Pcbnew,(5.0.2)-1*
G04 #@! TF.CreationDate,2019-06-22T23:22:15-04:00*
G04 #@! TF.ProjectId,RPi-Ham,5250692d-4861-46d2-9e6b-696361645f70,rev?*
G04 #@! TF.SameCoordinates,Original*
G04 #@! TF.FileFunction,Legend,Top*
G04 #@! TF.FilePolarity,Positive*
%FSLAX46Y46*%
G04 Gerber Fmt 4.6, Leading zero omitted, Abs format (unit mm)*
G04 Created by KiCad (PCBNEW (5.0.2)-1) date 2019-06-22 23:22:15*
%MOMM*%
%LPD*%
G01*
G04 APERTURE LIST*
%ADD10C,0.300000*%
%ADD11C,0.120000*%
%ADD12C,0.150000*%
G04 APERTURE END LIST*
D10*
X107678571Y-78214285D02*
X106178571Y-78214285D01*
X106178571Y-77857142D01*
X106250000Y-77642857D01*
X106392857Y-77500000D01*
X106535714Y-77428571D01*
X106821428Y-77357142D01*
X107035714Y-77357142D01*
X107321428Y-77428571D01*
X107464285Y-77500000D01*
X107607142Y-77642857D01*
X107678571Y-77857142D01*
X107678571Y-78214285D01*
X107678571Y-76071428D02*
X106892857Y-76071428D01*
X106750000Y-76142857D01*
X106678571Y-76285714D01*
X106678571Y-76571428D01*
X106750000Y-76714285D01*
X107607142Y-76071428D02*
X107678571Y-76214285D01*
X107678571Y-76571428D01*
X107607142Y-76714285D01*
X107464285Y-76785714D01*
X107321428Y-76785714D01*
X107178571Y-76714285D01*
X107107142Y-76571428D01*
X107107142Y-76214285D01*
X107035714Y-76071428D01*
X106678571Y-75571428D02*
X106678571Y-75000000D01*
X106178571Y-75357142D02*
X107464285Y-75357142D01*
X107607142Y-75285714D01*
X107678571Y-75142857D01*
X107678571Y-75000000D01*
X107678571Y-73857142D02*
X106892857Y-73857142D01*
X106750000Y-73928571D01*
X106678571Y-74071428D01*
X106678571Y-74357142D01*
X106750000Y-74500000D01*
X107607142Y-73857142D02*
X107678571Y-74000000D01*
X107678571Y-74357142D01*
X107607142Y-74500000D01*
X107464285Y-74571428D01*
X107321428Y-74571428D01*
X107178571Y-74500000D01*
X107107142Y-74357142D01*
X107107142Y-74000000D01*
X107035714Y-73857142D01*
X107678571Y-71214285D02*
X107678571Y-72071428D01*
X107678571Y-71642857D02*
X106178571Y-71642857D01*
X106392857Y-71785714D01*
X106535714Y-71928571D01*
X106607142Y-72071428D01*
X65285714Y-84178571D02*
X65285714Y-82678571D01*
X65642857Y-82678571D01*
X65857142Y-82750000D01*
X66000000Y-82892857D01*
X66071428Y-83035714D01*
X66142857Y-83321428D01*
X66142857Y-83535714D01*
X66071428Y-83821428D01*
X66000000Y-83964285D01*
X65857142Y-84107142D01*
X65642857Y-84178571D01*
X65285714Y-84178571D01*
X67428571Y-84178571D02*
X67428571Y-83392857D01*
X67357142Y-83250000D01*
X67214285Y-83178571D01*
X66928571Y-83178571D01*
X66785714Y-83250000D01*
X67428571Y-84107142D02*
X67285714Y-84178571D01*
X66928571Y-84178571D01*
X66785714Y-84107142D01*
X66714285Y-83964285D01*
X66714285Y-83821428D01*
X66785714Y-83678571D01*
X66928571Y-83607142D01*
X67285714Y-83607142D01*
X67428571Y-83535714D01*
X67928571Y-83178571D02*
X68500000Y-83178571D01*
X68142857Y-82678571D02*
X68142857Y-83964285D01*
X68214285Y-84107142D01*
X68357142Y-84178571D01*
X68500000Y-84178571D01*
X69642857Y-84178571D02*
X69642857Y-83392857D01*
X69571428Y-83250000D01*
X69428571Y-83178571D01*
X69142857Y-83178571D01*
X69000000Y-83250000D01*
X69642857Y-84107142D02*
X69500000Y-84178571D01*
X69142857Y-84178571D01*
X69000000Y-84107142D01*
X68928571Y-83964285D01*
X68928571Y-83821428D01*
X69000000Y-83678571D01*
X69142857Y-83607142D01*
X69500000Y-83607142D01*
X69642857Y-83535714D01*
X71785714Y-82678571D02*
X71928571Y-82678571D01*
X72071428Y-82750000D01*
X72142857Y-82821428D01*
X72214285Y-82964285D01*
X72285714Y-83250000D01*
X72285714Y-83607142D01*
X72214285Y-83892857D01*
X72142857Y-84035714D01*
X72071428Y-84107142D01*
X71928571Y-84178571D01*
X71785714Y-84178571D01*
X71642857Y-84107142D01*
X71571428Y-84035714D01*
X71500000Y-83892857D01*
X71428571Y-83607142D01*
X71428571Y-83250000D01*
X71500000Y-82964285D01*
X71571428Y-82821428D01*
X71642857Y-82750000D01*
X71785714Y-82678571D01*
X50714285Y-60250000D02*
X51428571Y-60250000D01*
X50571428Y-60678571D02*
X51071428Y-59178571D01*
X51571428Y-60678571D01*
X52714285Y-59678571D02*
X52714285Y-60678571D01*
X52071428Y-59678571D02*
X52071428Y-60464285D01*
X52142857Y-60607142D01*
X52285714Y-60678571D01*
X52500000Y-60678571D01*
X52642857Y-60607142D01*
X52714285Y-60535714D01*
X54071428Y-60678571D02*
X54071428Y-59178571D01*
X54071428Y-60607142D02*
X53928571Y-60678571D01*
X53642857Y-60678571D01*
X53500000Y-60607142D01*
X53428571Y-60535714D01*
X53357142Y-60392857D01*
X53357142Y-59964285D01*
X53428571Y-59821428D01*
X53500000Y-59750000D01*
X53642857Y-59678571D01*
X53928571Y-59678571D01*
X54071428Y-59750000D01*
X54785714Y-60678571D02*
X54785714Y-59678571D01*
X54785714Y-59178571D02*
X54714285Y-59250000D01*
X54785714Y-59321428D01*
X54857142Y-59250000D01*
X54785714Y-59178571D01*
X54785714Y-59321428D01*
X55714285Y-60678571D02*
X55571428Y-60607142D01*
X55500000Y-60535714D01*
X55428571Y-60392857D01*
X55428571Y-59964285D01*
X55500000Y-59821428D01*
X55571428Y-59750000D01*
X55714285Y-59678571D01*
X55928571Y-59678571D01*
X56071428Y-59750000D01*
X56142857Y-59821428D01*
X56214285Y-59964285D01*
X56214285Y-60392857D01*
X56142857Y-60535714D01*
X56071428Y-60607142D01*
X55928571Y-60678571D01*
X55714285Y-60678571D01*
X58785714Y-60678571D02*
X57928571Y-60678571D01*
X58357142Y-60678571D02*
X58357142Y-59178571D01*
X58214285Y-59392857D01*
X58071428Y-59535714D01*
X57928571Y-59607142D01*
X50714285Y-54250000D02*
X51428571Y-54250000D01*
X50571428Y-54678571D02*
X51071428Y-53178571D01*
X51571428Y-54678571D01*
X52714285Y-53678571D02*
X52714285Y-54678571D01*
X52071428Y-53678571D02*
X52071428Y-54464285D01*
X52142857Y-54607142D01*
X52285714Y-54678571D01*
X52500000Y-54678571D01*
X52642857Y-54607142D01*
X52714285Y-54535714D01*
X54071428Y-54678571D02*
X54071428Y-53178571D01*
X54071428Y-54607142D02*
X53928571Y-54678571D01*
X53642857Y-54678571D01*
X53500000Y-54607142D01*
X53428571Y-54535714D01*
X53357142Y-54392857D01*
X53357142Y-53964285D01*
X53428571Y-53821428D01*
X53500000Y-53750000D01*
X53642857Y-53678571D01*
X53928571Y-53678571D01*
X54071428Y-53750000D01*
X54785714Y-54678571D02*
X54785714Y-53678571D01*
X54785714Y-53178571D02*
X54714285Y-53250000D01*
X54785714Y-53321428D01*
X54857142Y-53250000D01*
X54785714Y-53178571D01*
X54785714Y-53321428D01*
X55714285Y-54678571D02*
X55571428Y-54607142D01*
X55500000Y-54535714D01*
X55428571Y-54392857D01*
X55428571Y-53964285D01*
X55500000Y-53821428D01*
X55571428Y-53750000D01*
X55714285Y-53678571D01*
X55928571Y-53678571D01*
X56071428Y-53750000D01*
X56142857Y-53821428D01*
X56214285Y-53964285D01*
X56214285Y-54392857D01*
X56142857Y-54535714D01*
X56071428Y-54607142D01*
X55928571Y-54678571D01*
X55714285Y-54678571D01*
X58285714Y-53178571D02*
X58428571Y-53178571D01*
X58571428Y-53250000D01*
X58642857Y-53321428D01*
X58714285Y-53464285D01*
X58785714Y-53750000D01*
X58785714Y-54107142D01*
X58714285Y-54392857D01*
X58642857Y-54535714D01*
X58571428Y-54607142D01*
X58428571Y-54678571D01*
X58285714Y-54678571D01*
X58142857Y-54607142D01*
X58071428Y-54535714D01*
X58000000Y-54392857D01*
X57928571Y-54107142D01*
X57928571Y-53750000D01*
X58000000Y-53464285D01*
X58071428Y-53321428D01*
X58142857Y-53250000D01*
X58285714Y-53178571D01*
X77428571Y-70071428D02*
X75928571Y-70071428D01*
X75928571Y-69714285D01*
X76000000Y-69500000D01*
X76142857Y-69357142D01*
X76285714Y-69285714D01*
X76571428Y-69214285D01*
X76785714Y-69214285D01*
X77071428Y-69285714D01*
X77214285Y-69357142D01*
X77357142Y-69500000D01*
X77428571Y-69714285D01*
X77428571Y-70071428D01*
X77285714Y-67714285D02*
X77357142Y-67785714D01*
X77428571Y-68000000D01*
X77428571Y-68142857D01*
X77357142Y-68357142D01*
X77214285Y-68500000D01*
X77071428Y-68571428D01*
X76785714Y-68642857D01*
X76571428Y-68642857D01*
X76285714Y-68571428D01*
X76142857Y-68500000D01*
X76000000Y-68357142D01*
X75928571Y-68142857D01*
X75928571Y-68000000D01*
X76000000Y-67785714D01*
X76071428Y-67714285D01*
X76642857Y-67071428D02*
X76642857Y-66571428D01*
X77428571Y-66357142D02*
X77428571Y-67071428D01*
X75928571Y-67071428D01*
X75928571Y-66357142D01*
X89428571Y-64178571D02*
X88285714Y-64607142D01*
X89428571Y-65035714D01*
X93571428Y-64178571D02*
X94714285Y-64607142D01*
X93571428Y-65035714D01*
X69357142Y-77000000D02*
X69214285Y-76928571D01*
X69000000Y-76928571D01*
X68785714Y-77000000D01*
X68642857Y-77142857D01*
X68571428Y-77285714D01*
X68500000Y-77571428D01*
X68500000Y-77785714D01*
X68571428Y-78071428D01*
X68642857Y-78214285D01*
X68785714Y-78357142D01*
X69000000Y-78428571D01*
X69142857Y-78428571D01*
X69357142Y-78357142D01*
X69428571Y-78285714D01*
X69428571Y-77785714D01*
X69142857Y-77785714D01*
X70071428Y-78428571D02*
X70071428Y-76928571D01*
X70928571Y-78428571D01*
X70928571Y-76928571D01*
X71642857Y-78428571D02*
X71642857Y-76928571D01*
X72000000Y-76928571D01*
X72214285Y-77000000D01*
X72357142Y-77142857D01*
X72428571Y-77285714D01*
X72500000Y-77571428D01*
X72500000Y-77785714D01*
X72428571Y-78071428D01*
X72357142Y-78214285D01*
X72214285Y-78357142D01*
X72000000Y-78428571D01*
X71642857Y-78428571D01*
X69357142Y-74500000D02*
X69214285Y-74428571D01*
X69000000Y-74428571D01*
X68785714Y-74500000D01*
X68642857Y-74642857D01*
X68571428Y-74785714D01*
X68500000Y-75071428D01*
X68500000Y-75285714D01*
X68571428Y-75571428D01*
X68642857Y-75714285D01*
X68785714Y-75857142D01*
X69000000Y-75928571D01*
X69142857Y-75928571D01*
X69357142Y-75857142D01*
X69428571Y-75785714D01*
X69428571Y-75285714D01*
X69142857Y-75285714D01*
X70071428Y-75928571D02*
X70071428Y-74428571D01*
X70928571Y-75928571D01*
X70928571Y-74428571D01*
X71642857Y-75928571D02*
X71642857Y-74428571D01*
X72000000Y-74428571D01*
X72214285Y-74500000D01*
X72357142Y-74642857D01*
X72428571Y-74785714D01*
X72500000Y-75071428D01*
X72500000Y-75285714D01*
X72428571Y-75571428D01*
X72357142Y-75714285D01*
X72214285Y-75857142D01*
X72000000Y-75928571D01*
X71642857Y-75928571D01*
X69357142Y-72000000D02*
X69214285Y-71928571D01*
X69000000Y-71928571D01*
X68785714Y-72000000D01*
X68642857Y-72142857D01*
X68571428Y-72285714D01*
X68500000Y-72571428D01*
X68500000Y-72785714D01*
X68571428Y-73071428D01*
X68642857Y-73214285D01*
X68785714Y-73357142D01*
X69000000Y-73428571D01*
X69142857Y-73428571D01*
X69357142Y-73357142D01*
X69428571Y-73285714D01*
X69428571Y-72785714D01*
X69142857Y-72785714D01*
X70071428Y-73428571D02*
X70071428Y-71928571D01*
X70928571Y-73428571D01*
X70928571Y-71928571D01*
X71642857Y-73428571D02*
X71642857Y-71928571D01*
X72000000Y-71928571D01*
X72214285Y-72000000D01*
X72357142Y-72142857D01*
X72428571Y-72285714D01*
X72500000Y-72571428D01*
X72500000Y-72785714D01*
X72428571Y-73071428D01*
X72357142Y-73214285D01*
X72214285Y-73357142D01*
X72000000Y-73428571D01*
X71642857Y-73428571D01*
X94678571Y-63642857D02*
X93178571Y-63642857D01*
X93178571Y-63285714D01*
X93250000Y-63071428D01*
X93392857Y-62928571D01*
X93535714Y-62857142D01*
X93821428Y-62785714D01*
X94035714Y-62785714D01*
X94321428Y-62857142D01*
X94464285Y-62928571D01*
X94607142Y-63071428D01*
X94678571Y-63285714D01*
X94678571Y-63642857D01*
X93178571Y-62357142D02*
X93178571Y-61500000D01*
X94678571Y-61928571D02*
X93178571Y-61928571D01*
X93892857Y-61000000D02*
X93892857Y-60500000D01*
X94678571Y-60285714D02*
X94678571Y-61000000D01*
X93178571Y-61000000D01*
X93178571Y-60285714D01*
X89678571Y-63571428D02*
X88178571Y-63571428D01*
X88178571Y-63214285D01*
X88250000Y-63000000D01*
X88392857Y-62857142D01*
X88535714Y-62785714D01*
X88821428Y-62714285D01*
X89035714Y-62714285D01*
X89321428Y-62785714D01*
X89464285Y-62857142D01*
X89607142Y-63000000D01*
X89678571Y-63214285D01*
X89678571Y-63571428D01*
X89535714Y-61214285D02*
X89607142Y-61285714D01*
X89678571Y-61500000D01*
X89678571Y-61642857D01*
X89607142Y-61857142D01*
X89464285Y-62000000D01*
X89321428Y-62071428D01*
X89035714Y-62142857D01*
X88821428Y-62142857D01*
X88535714Y-62071428D01*
X88392857Y-62000000D01*
X88250000Y-61857142D01*
X88178571Y-61642857D01*
X88178571Y-61500000D01*
X88250000Y-61285714D01*
X88321428Y-61214285D01*
X88892857Y-60571428D02*
X88892857Y-60071428D01*
X89678571Y-59857142D02*
X89678571Y-60571428D01*
X88178571Y-60571428D01*
X88178571Y-59857142D01*
X68821428Y-60607142D02*
X69035714Y-60678571D01*
X69392857Y-60678571D01*
X69535714Y-60607142D01*
X69607142Y-60535714D01*
X69678571Y-60392857D01*
X69678571Y-60250000D01*
X69607142Y-60107142D01*
X69535714Y-60035714D01*
X69392857Y-59964285D01*
X69107142Y-59892857D01*
X68964285Y-59821428D01*
X68892857Y-59750000D01*
X68821428Y-59607142D01*
X68821428Y-59464285D01*
X68892857Y-59321428D01*
X68964285Y-59250000D01*
X69107142Y-59178571D01*
X69464285Y-59178571D01*
X69678571Y-59250000D01*
X70321428Y-60678571D02*
X70321428Y-59178571D01*
X70892857Y-59178571D01*
X71035714Y-59250000D01*
X71107142Y-59321428D01*
X71178571Y-59464285D01*
X71178571Y-59678571D01*
X71107142Y-59821428D01*
X71035714Y-59892857D01*
X70892857Y-59964285D01*
X70321428Y-59964285D01*
X71821428Y-60678571D02*
X71821428Y-59178571D01*
X72678571Y-60678571D02*
X72035714Y-59821428D01*
X72678571Y-59178571D02*
X71821428Y-60035714D01*
X68807142Y-69428571D02*
X69664285Y-69428571D01*
X69235714Y-70928571D02*
X69235714Y-69428571D01*
X70021428Y-69428571D02*
X71021428Y-70928571D01*
X71021428Y-69428571D02*
X70021428Y-70928571D01*
X71592857Y-70928571D02*
X71592857Y-69428571D01*
X71950000Y-69428571D01*
X72164285Y-69500000D01*
X72307142Y-69642857D01*
X72378571Y-69785714D01*
X72450000Y-70071428D01*
X72450000Y-70285714D01*
X72378571Y-70571428D01*
X72307142Y-70714285D01*
X72164285Y-70857142D01*
X71950000Y-70928571D01*
X71592857Y-70928571D01*
X68864285Y-65928571D02*
X68864285Y-64428571D01*
X69435714Y-64428571D01*
X69578571Y-64500000D01*
X69650000Y-64571428D01*
X69721428Y-64714285D01*
X69721428Y-64928571D01*
X69650000Y-65071428D01*
X69578571Y-65142857D01*
X69435714Y-65214285D01*
X68864285Y-65214285D01*
X70150000Y-64428571D02*
X71007142Y-64428571D01*
X70578571Y-65928571D02*
X70578571Y-64428571D01*
X71292857Y-64428571D02*
X72150000Y-64428571D01*
X71721428Y-65928571D02*
X71721428Y-64428571D01*
X69750000Y-68428571D02*
X69250000Y-67714285D01*
X68892857Y-68428571D02*
X68892857Y-66928571D01*
X69464285Y-66928571D01*
X69607142Y-67000000D01*
X69678571Y-67071428D01*
X69750000Y-67214285D01*
X69750000Y-67428571D01*
X69678571Y-67571428D01*
X69607142Y-67642857D01*
X69464285Y-67714285D01*
X68892857Y-67714285D01*
X70250000Y-66928571D02*
X71250000Y-68428571D01*
X71250000Y-66928571D02*
X70250000Y-68428571D01*
X71821428Y-68428571D02*
X71821428Y-66928571D01*
X72178571Y-66928571D01*
X72392857Y-67000000D01*
X72535714Y-67142857D01*
X72607142Y-67285714D01*
X72678571Y-67571428D01*
X72678571Y-67785714D01*
X72607142Y-68071428D01*
X72535714Y-68214285D01*
X72392857Y-68357142D01*
X72178571Y-68428571D01*
X71821428Y-68428571D01*
X68892857Y-63178571D02*
X68892857Y-61678571D01*
X69392857Y-62750000D01*
X69892857Y-61678571D01*
X69892857Y-63178571D01*
X70607142Y-63178571D02*
X70607142Y-61678571D01*
X72178571Y-63035714D02*
X72107142Y-63107142D01*
X71892857Y-63178571D01*
X71750000Y-63178571D01*
X71535714Y-63107142D01*
X71392857Y-62964285D01*
X71321428Y-62821428D01*
X71250000Y-62535714D01*
X71250000Y-62321428D01*
X71321428Y-62035714D01*
X71392857Y-61892857D01*
X71535714Y-61750000D01*
X71750000Y-61678571D01*
X71892857Y-61678571D01*
X72107142Y-61750000D01*
X72178571Y-61821428D01*
X69357142Y-54750000D02*
X69214285Y-54678571D01*
X69000000Y-54678571D01*
X68785714Y-54750000D01*
X68642857Y-54892857D01*
X68571428Y-55035714D01*
X68500000Y-55321428D01*
X68500000Y-55535714D01*
X68571428Y-55821428D01*
X68642857Y-55964285D01*
X68785714Y-56107142D01*
X69000000Y-56178571D01*
X69142857Y-56178571D01*
X69357142Y-56107142D01*
X69428571Y-56035714D01*
X69428571Y-55535714D01*
X69142857Y-55535714D01*
X70071428Y-56178571D02*
X70071428Y-54678571D01*
X70928571Y-56178571D01*
X70928571Y-54678571D01*
X71642857Y-56178571D02*
X71642857Y-54678571D01*
X72000000Y-54678571D01*
X72214285Y-54750000D01*
X72357142Y-54892857D01*
X72428571Y-55035714D01*
X72500000Y-55321428D01*
X72500000Y-55535714D01*
X72428571Y-55821428D01*
X72357142Y-55964285D01*
X72214285Y-56107142D01*
X72000000Y-56178571D01*
X71642857Y-56178571D01*
X69357142Y-52250000D02*
X69214285Y-52178571D01*
X69000000Y-52178571D01*
X68785714Y-52250000D01*
X68642857Y-52392857D01*
X68571428Y-52535714D01*
X68500000Y-52821428D01*
X68500000Y-53035714D01*
X68571428Y-53321428D01*
X68642857Y-53464285D01*
X68785714Y-53607142D01*
X69000000Y-53678571D01*
X69142857Y-53678571D01*
X69357142Y-53607142D01*
X69428571Y-53535714D01*
X69428571Y-53035714D01*
X69142857Y-53035714D01*
X70071428Y-53678571D02*
X70071428Y-52178571D01*
X70928571Y-53678571D01*
X70928571Y-52178571D01*
X71642857Y-53678571D02*
X71642857Y-52178571D01*
X72000000Y-52178571D01*
X72214285Y-52250000D01*
X72357142Y-52392857D01*
X72428571Y-52535714D01*
X72500000Y-52821428D01*
X72500000Y-53035714D01*
X72428571Y-53321428D01*
X72357142Y-53464285D01*
X72214285Y-53607142D01*
X72000000Y-53678571D01*
X71642857Y-53678571D01*
X69357142Y-49750000D02*
X69214285Y-49678571D01*
X69000000Y-49678571D01*
X68785714Y-49750000D01*
X68642857Y-49892857D01*
X68571428Y-50035714D01*
X68500000Y-50321428D01*
X68500000Y-50535714D01*
X68571428Y-50821428D01*
X68642857Y-50964285D01*
X68785714Y-51107142D01*
X69000000Y-51178571D01*
X69142857Y-51178571D01*
X69357142Y-51107142D01*
X69428571Y-51035714D01*
X69428571Y-50535714D01*
X69142857Y-50535714D01*
X70071428Y-51178571D02*
X70071428Y-49678571D01*
X70928571Y-51178571D01*
X70928571Y-49678571D01*
X71642857Y-51178571D02*
X71642857Y-49678571D01*
X72000000Y-49678571D01*
X72214285Y-49750000D01*
X72357142Y-49892857D01*
X72428571Y-50035714D01*
X72500000Y-50321428D01*
X72500000Y-50535714D01*
X72428571Y-50821428D01*
X72357142Y-50964285D01*
X72214285Y-51107142D01*
X72000000Y-51178571D01*
X71642857Y-51178571D01*
X68607142Y-47178571D02*
X69464285Y-47178571D01*
X69035714Y-48678571D02*
X69035714Y-47178571D01*
X69821428Y-47178571D02*
X70821428Y-48678571D01*
X70821428Y-47178571D02*
X69821428Y-48678571D01*
X71392857Y-48678571D02*
X71392857Y-47178571D01*
X71750000Y-47178571D01*
X71964285Y-47250000D01*
X72107142Y-47392857D01*
X72178571Y-47535714D01*
X72250000Y-47821428D01*
X72250000Y-48035714D01*
X72178571Y-48321428D01*
X72107142Y-48464285D01*
X71964285Y-48607142D01*
X71750000Y-48678571D01*
X71392857Y-48678571D01*
X69500000Y-46178571D02*
X69000000Y-45464285D01*
X68642857Y-46178571D02*
X68642857Y-44678571D01*
X69214285Y-44678571D01*
X69357142Y-44750000D01*
X69428571Y-44821428D01*
X69500000Y-44964285D01*
X69500000Y-45178571D01*
X69428571Y-45321428D01*
X69357142Y-45392857D01*
X69214285Y-45464285D01*
X68642857Y-45464285D01*
X70000000Y-44678571D02*
X71000000Y-46178571D01*
X71000000Y-44678571D02*
X70000000Y-46178571D01*
X71571428Y-46178571D02*
X71571428Y-44678571D01*
X71928571Y-44678571D01*
X72142857Y-44750000D01*
X72285714Y-44892857D01*
X72357142Y-45035714D01*
X72428571Y-45321428D01*
X72428571Y-45535714D01*
X72357142Y-45821428D01*
X72285714Y-45964285D01*
X72142857Y-46107142D01*
X71928571Y-46178571D01*
X71571428Y-46178571D01*
X68664285Y-43478571D02*
X68664285Y-41978571D01*
X69235714Y-41978571D01*
X69378571Y-42050000D01*
X69450000Y-42121428D01*
X69521428Y-42264285D01*
X69521428Y-42478571D01*
X69450000Y-42621428D01*
X69378571Y-42692857D01*
X69235714Y-42764285D01*
X68664285Y-42764285D01*
X69950000Y-41978571D02*
X70807142Y-41978571D01*
X70378571Y-43478571D02*
X70378571Y-41978571D01*
X71092857Y-41978571D02*
X71950000Y-41978571D01*
X71521428Y-43478571D02*
X71521428Y-41978571D01*
X68642857Y-40928571D02*
X68642857Y-39428571D01*
X69142857Y-40500000D01*
X69642857Y-39428571D01*
X69642857Y-40928571D01*
X70357142Y-40928571D02*
X70357142Y-39428571D01*
X71928571Y-40785714D02*
X71857142Y-40857142D01*
X71642857Y-40928571D01*
X71500000Y-40928571D01*
X71285714Y-40857142D01*
X71142857Y-40714285D01*
X71071428Y-40571428D01*
X71000000Y-40285714D01*
X71000000Y-40071428D01*
X71071428Y-39785714D01*
X71142857Y-39642857D01*
X71285714Y-39500000D01*
X71500000Y-39428571D01*
X71642857Y-39428571D01*
X71857142Y-39500000D01*
X71928571Y-39571428D01*
X68571428Y-38357142D02*
X68785714Y-38428571D01*
X69142857Y-38428571D01*
X69285714Y-38357142D01*
X69357142Y-38285714D01*
X69428571Y-38142857D01*
X69428571Y-38000000D01*
X69357142Y-37857142D01*
X69285714Y-37785714D01*
X69142857Y-37714285D01*
X68857142Y-37642857D01*
X68714285Y-37571428D01*
X68642857Y-37500000D01*
X68571428Y-37357142D01*
X68571428Y-37214285D01*
X68642857Y-37071428D01*
X68714285Y-37000000D01*
X68857142Y-36928571D01*
X69214285Y-36928571D01*
X69428571Y-37000000D01*
X70071428Y-38428571D02*
X70071428Y-36928571D01*
X70642857Y-36928571D01*
X70785714Y-37000000D01*
X70857142Y-37071428D01*
X70928571Y-37214285D01*
X70928571Y-37428571D01*
X70857142Y-37571428D01*
X70785714Y-37642857D01*
X70642857Y-37714285D01*
X70071428Y-37714285D01*
X71571428Y-38428571D02*
X71571428Y-36928571D01*
X72428571Y-38428571D02*
X71785714Y-37571428D01*
X72428571Y-36928571D02*
X71571428Y-37785714D01*
D11*
G04 #@! TO.C,J2*
X73185000Y-72120000D02*
X73185000Y-90080000D01*
X88705000Y-72120000D02*
X73185000Y-72120000D01*
X88705000Y-72120000D02*
X88705000Y-90080000D01*
X73185000Y-90080000D02*
X88705000Y-90080000D01*
X73000000Y-76000000D02*
X72500000Y-75500000D01*
X72500000Y-75500000D02*
X72500000Y-76500000D01*
X72500000Y-76500000D02*
X73000000Y-76000000D01*
G04 #@! TO.C,J4*
X89000000Y-76500000D02*
X89500000Y-76000000D01*
X89000000Y-75500000D02*
X89000000Y-76500000D01*
X89500000Y-76000000D02*
X89000000Y-75500000D01*
X89685000Y-90080000D02*
X105205000Y-90080000D01*
X105205000Y-72120000D02*
X105205000Y-90080000D01*
X105205000Y-72120000D02*
X89685000Y-72120000D01*
X89685000Y-72120000D02*
X89685000Y-90080000D01*
G04 #@! TO.C,C1*
X90790000Y-53263748D02*
X90790000Y-53786252D01*
X92210000Y-53263748D02*
X92210000Y-53786252D01*
G04 #@! TO.C,C2*
X93290000Y-53263748D02*
X93290000Y-53786252D01*
X94710000Y-53263748D02*
X94710000Y-53786252D01*
G04 #@! TO.C,C3*
X96263748Y-45790000D02*
X96786252Y-45790000D01*
X96263748Y-47210000D02*
X96786252Y-47210000D01*
G04 #@! TO.C,C4*
X96213748Y-43790000D02*
X96736252Y-43790000D01*
X96213748Y-45210000D02*
X96736252Y-45210000D01*
G04 #@! TO.C,C5*
X80210000Y-37713748D02*
X80210000Y-38236252D01*
X78790000Y-37713748D02*
X78790000Y-38236252D01*
G04 #@! TO.C,C6*
X89710000Y-53263748D02*
X89710000Y-53786252D01*
X88290000Y-53263748D02*
X88290000Y-53786252D01*
G04 #@! TO.C,C7*
X85790000Y-53263748D02*
X85790000Y-53786252D01*
X87210000Y-53263748D02*
X87210000Y-53786252D01*
G04 #@! TO.C,C8*
X74210000Y-47736252D02*
X74210000Y-47213748D01*
X72790000Y-47736252D02*
X72790000Y-47213748D01*
G04 #@! TO.C,C9*
X87710000Y-38236252D02*
X87710000Y-37713748D01*
X86290000Y-38236252D02*
X86290000Y-37713748D01*
G04 #@! TO.C,C10*
X88790000Y-38236252D02*
X88790000Y-37713748D01*
X90210000Y-38236252D02*
X90210000Y-37713748D01*
G04 #@! TO.C,C11*
X80790000Y-53263748D02*
X80790000Y-53786252D01*
X82210000Y-53263748D02*
X82210000Y-53786252D01*
G04 #@! TO.C,C12*
X84710000Y-53263748D02*
X84710000Y-53786252D01*
X83290000Y-53263748D02*
X83290000Y-53786252D01*
G04 #@! TO.C,C13*
X98710000Y-59213748D02*
X98710000Y-59736252D01*
X97290000Y-59213748D02*
X97290000Y-59736252D01*
G04 #@! TO.C,C14*
X108790000Y-60286252D02*
X108790000Y-59763748D01*
X110210000Y-60286252D02*
X110210000Y-59763748D01*
G04 #@! TO.C,C15*
X98710000Y-63813748D02*
X98710000Y-64336252D01*
X97290000Y-63813748D02*
X97290000Y-64336252D01*
G04 #@! TO.C,C16*
X106236252Y-56340000D02*
X105713748Y-56340000D01*
X106236252Y-57760000D02*
X105713748Y-57760000D01*
G04 #@! TO.C,C17*
X98710000Y-68786252D02*
X98710000Y-68263748D01*
X97290000Y-68786252D02*
X97290000Y-68263748D01*
G04 #@! TO.C,C18*
X111410000Y-37590000D02*
X109060000Y-37590000D01*
X104590000Y-37590000D02*
X106940000Y-37590000D01*
X104590000Y-43345563D02*
X104590000Y-37590000D01*
X111410000Y-43345563D02*
X111410000Y-37590000D01*
X110345563Y-44410000D02*
X109060000Y-44410000D01*
X105654437Y-44410000D02*
X106940000Y-44410000D01*
X105654437Y-44410000D02*
X104590000Y-43345563D01*
X110345563Y-44410000D02*
X111410000Y-43345563D01*
X106152500Y-45437500D02*
X106152500Y-44650000D01*
X105758750Y-45043750D02*
X106546250Y-45043750D01*
G04 #@! TO.C,C19*
X111410000Y-47590000D02*
X109060000Y-47590000D01*
X104590000Y-47590000D02*
X106940000Y-47590000D01*
X104590000Y-53345563D02*
X104590000Y-47590000D01*
X111410000Y-53345563D02*
X111410000Y-47590000D01*
X110345563Y-54410000D02*
X109060000Y-54410000D01*
X105654437Y-54410000D02*
X106940000Y-54410000D01*
X105654437Y-54410000D02*
X104590000Y-53345563D01*
X110345563Y-54410000D02*
X111410000Y-53345563D01*
X106152500Y-55437500D02*
X106152500Y-54650000D01*
X105758750Y-55043750D02*
X106546250Y-55043750D01*
G04 #@! TO.C,J5*
X57000000Y-36500000D02*
X57500000Y-37000000D01*
X58000000Y-36500000D02*
X57000000Y-36500000D01*
X57500000Y-37000000D02*
X58000000Y-36500000D01*
X43420000Y-37185000D02*
X43420000Y-52705000D01*
X61380000Y-52705000D02*
X43420000Y-52705000D01*
X61380000Y-52705000D02*
X61380000Y-37185000D01*
X61380000Y-37185000D02*
X43420000Y-37185000D01*
G04 #@! TO.C,J7*
X57000000Y-61000000D02*
X57500000Y-61500000D01*
X58000000Y-61000000D02*
X57000000Y-61000000D01*
X57500000Y-61500000D02*
X58000000Y-61000000D01*
X43420000Y-61685000D02*
X43420000Y-77205000D01*
X61380000Y-77205000D02*
X43420000Y-77205000D01*
X61380000Y-77205000D02*
X61380000Y-61685000D01*
X61380000Y-61685000D02*
X43420000Y-61685000D01*
G04 #@! TO.C,J8*
X54670000Y-35330000D02*
X54670000Y-34000000D01*
X56000000Y-35330000D02*
X54670000Y-35330000D01*
X54670000Y-32730000D02*
X54670000Y-30130000D01*
X57270000Y-32730000D02*
X54670000Y-32730000D01*
X57270000Y-35330000D02*
X57270000Y-32730000D01*
X54670000Y-30130000D02*
X105590000Y-30130000D01*
X57270000Y-35330000D02*
X105590000Y-35330000D01*
X105590000Y-35330000D02*
X105590000Y-30130000D01*
G04 #@! TO.C,L1*
X103210000Y-40261252D02*
X103210000Y-39738748D01*
X101790000Y-40261252D02*
X101790000Y-39738748D01*
G04 #@! TO.C,L2*
X101790000Y-50261252D02*
X101790000Y-49738748D01*
X103210000Y-50261252D02*
X103210000Y-49738748D01*
G04 #@! TO.C,R1*
X75790000Y-37713748D02*
X75790000Y-38236252D01*
X77210000Y-37713748D02*
X77210000Y-38236252D01*
G04 #@! TO.C,R2*
X97210000Y-53263748D02*
X97210000Y-53786252D01*
X95790000Y-53263748D02*
X95790000Y-53786252D01*
G04 #@! TO.C,R3*
X79540000Y-60786252D02*
X79540000Y-60263748D01*
X80960000Y-60786252D02*
X80960000Y-60263748D01*
G04 #@! TO.C,R4*
X82040000Y-60313748D02*
X82040000Y-60836252D01*
X83460000Y-60313748D02*
X83460000Y-60836252D01*
G04 #@! TO.C,R5*
X77040000Y-60263748D02*
X77040000Y-60786252D01*
X78460000Y-60263748D02*
X78460000Y-60786252D01*
G04 #@! TO.C,R6*
X84540000Y-60786252D02*
X84540000Y-60263748D01*
X85960000Y-60786252D02*
X85960000Y-60263748D01*
D12*
G04 #@! TO.C,U1*
X92975000Y-43175000D02*
X92750000Y-43175000D01*
X92975000Y-47825000D02*
X92650000Y-47825000D01*
X83025000Y-47825000D02*
X83350000Y-47825000D01*
X83025000Y-43175000D02*
X83350000Y-43175000D01*
X92975000Y-43175000D02*
X92975000Y-47825000D01*
X83025000Y-43175000D02*
X83025000Y-47825000D01*
X92750000Y-43175000D02*
X92750000Y-42100000D01*
G04 #@! TO.C,U2*
X101925000Y-58475000D02*
X101925000Y-58500000D01*
X106075000Y-58475000D02*
X106075000Y-58580000D01*
X106075000Y-68625000D02*
X106075000Y-68520000D01*
X101925000Y-68625000D02*
X101925000Y-68520000D01*
X101925000Y-58475000D02*
X106075000Y-58475000D01*
X101925000Y-68625000D02*
X106075000Y-68625000D01*
X101925000Y-58500000D02*
X100550000Y-58500000D01*
D11*
G04 #@! TO.C,X1*
X78300000Y-50200000D02*
X78300000Y-49200000D01*
X78300000Y-49200000D02*
X77700000Y-49200000D01*
X77700000Y-42800000D02*
X78300000Y-42800000D01*
X76050000Y-47100000D02*
X76050000Y-44900000D01*
X79950000Y-44900000D02*
X79950000Y-47100000D01*
X79950000Y-47100000D02*
X80800000Y-47100000D01*
G04 #@! TO.C,J1*
X78420000Y-70830000D02*
X78420000Y-69500000D01*
X79750000Y-70830000D02*
X78420000Y-70830000D01*
X78420000Y-68230000D02*
X78420000Y-65630000D01*
X81020000Y-68230000D02*
X78420000Y-68230000D01*
X81020000Y-70830000D02*
X81020000Y-68230000D01*
X78420000Y-65630000D02*
X86160000Y-65630000D01*
X81020000Y-70830000D02*
X86160000Y-70830000D01*
X86160000Y-70830000D02*
X86160000Y-65630000D01*
G04 #@! TO.C,J3*
X95160000Y-70830000D02*
X95160000Y-65630000D01*
X90020000Y-70830000D02*
X95160000Y-70830000D01*
X87420000Y-65630000D02*
X95160000Y-65630000D01*
X90020000Y-70830000D02*
X90020000Y-68230000D01*
X90020000Y-68230000D02*
X87420000Y-68230000D01*
X87420000Y-68230000D02*
X87420000Y-65630000D01*
X88750000Y-70830000D02*
X87420000Y-70830000D01*
X87420000Y-70830000D02*
X87420000Y-69500000D01*
G04 #@! TO.C,J2*
D12*
X80611666Y-70452380D02*
X80611666Y-71166666D01*
X80564047Y-71309523D01*
X80468809Y-71404761D01*
X80325952Y-71452380D01*
X80230714Y-71452380D01*
X81040238Y-70547619D02*
X81087857Y-70500000D01*
X81183095Y-70452380D01*
X81421190Y-70452380D01*
X81516428Y-70500000D01*
X81564047Y-70547619D01*
X81611666Y-70642857D01*
X81611666Y-70738095D01*
X81564047Y-70880952D01*
X80992619Y-71452380D01*
X81611666Y-71452380D01*
G04 #@! TO.C,J4*
X97111666Y-70452380D02*
X97111666Y-71166666D01*
X97064047Y-71309523D01*
X96968809Y-71404761D01*
X96825952Y-71452380D01*
X96730714Y-71452380D01*
X98016428Y-70785714D02*
X98016428Y-71452380D01*
X97778333Y-70404761D02*
X97540238Y-71119047D01*
X98159285Y-71119047D01*
G04 #@! TO.C,J12*
X108190476Y-31852380D02*
X108190476Y-32566666D01*
X108142857Y-32709523D01*
X108047619Y-32804761D01*
X107904761Y-32852380D01*
X107809523Y-32852380D01*
X109190476Y-32852380D02*
X108619047Y-32852380D01*
X108904761Y-32852380D02*
X108904761Y-31852380D01*
X108809523Y-31995238D01*
X108714285Y-32090476D01*
X108619047Y-32138095D01*
X109571428Y-31947619D02*
X109619047Y-31900000D01*
X109714285Y-31852380D01*
X109952380Y-31852380D01*
X110047619Y-31900000D01*
X110095238Y-31947619D01*
X110142857Y-32042857D01*
X110142857Y-32138095D01*
X110095238Y-32280952D01*
X109523809Y-32852380D01*
X110142857Y-32852380D01*
G04 #@! TO.C,J13*
X50190476Y-80952380D02*
X50190476Y-81666666D01*
X50142857Y-81809523D01*
X50047619Y-81904761D01*
X49904761Y-81952380D01*
X49809523Y-81952380D01*
X51190476Y-81952380D02*
X50619047Y-81952380D01*
X50904761Y-81952380D02*
X50904761Y-80952380D01*
X50809523Y-81095238D01*
X50714285Y-81190476D01*
X50619047Y-81238095D01*
X51523809Y-80952380D02*
X52142857Y-80952380D01*
X51809523Y-81333333D01*
X51952380Y-81333333D01*
X52047619Y-81380952D01*
X52095238Y-81428571D01*
X52142857Y-81523809D01*
X52142857Y-81761904D01*
X52095238Y-81857142D01*
X52047619Y-81904761D01*
X51952380Y-81952380D01*
X51666666Y-81952380D01*
X51571428Y-81904761D01*
X51523809Y-81857142D01*
G04 #@! TO.C,J10*
X108190476Y-80952380D02*
X108190476Y-81666666D01*
X108142857Y-81809523D01*
X108047619Y-81904761D01*
X107904761Y-81952380D01*
X107809523Y-81952380D01*
X109190476Y-81952380D02*
X108619047Y-81952380D01*
X108904761Y-81952380D02*
X108904761Y-80952380D01*
X108809523Y-81095238D01*
X108714285Y-81190476D01*
X108619047Y-81238095D01*
X109809523Y-80952380D02*
X109904761Y-80952380D01*
X110000000Y-81000000D01*
X110047619Y-81047619D01*
X110095238Y-81142857D01*
X110142857Y-81333333D01*
X110142857Y-81571428D01*
X110095238Y-81761904D01*
X110047619Y-81857142D01*
X110000000Y-81904761D01*
X109904761Y-81952380D01*
X109809523Y-81952380D01*
X109714285Y-81904761D01*
X109666666Y-81857142D01*
X109619047Y-81761904D01*
X109571428Y-81571428D01*
X109571428Y-81333333D01*
X109619047Y-81142857D01*
X109666666Y-81047619D01*
X109714285Y-81000000D01*
X109809523Y-80952380D01*
G04 #@! TO.C,J11*
X53940476Y-77702380D02*
X53940476Y-78416666D01*
X53892857Y-78559523D01*
X53797619Y-78654761D01*
X53654761Y-78702380D01*
X53559523Y-78702380D01*
X54940476Y-78702380D02*
X54369047Y-78702380D01*
X54654761Y-78702380D02*
X54654761Y-77702380D01*
X54559523Y-77845238D01*
X54464285Y-77940476D01*
X54369047Y-77988095D01*
X55892857Y-78702380D02*
X55321428Y-78702380D01*
X55607142Y-78702380D02*
X55607142Y-77702380D01*
X55511904Y-77845238D01*
X55416666Y-77940476D01*
X55321428Y-77988095D01*
G04 #@! TO.C,C1*
X91857142Y-56716666D02*
X91904761Y-56764285D01*
X91952380Y-56907142D01*
X91952380Y-57002380D01*
X91904761Y-57145238D01*
X91809523Y-57240476D01*
X91714285Y-57288095D01*
X91523809Y-57335714D01*
X91380952Y-57335714D01*
X91190476Y-57288095D01*
X91095238Y-57240476D01*
X91000000Y-57145238D01*
X90952380Y-57002380D01*
X90952380Y-56907142D01*
X91000000Y-56764285D01*
X91047619Y-56716666D01*
X91952380Y-55764285D02*
X91952380Y-56335714D01*
X91952380Y-56050000D02*
X90952380Y-56050000D01*
X91095238Y-56145238D01*
X91190476Y-56240476D01*
X91238095Y-56335714D01*
G04 #@! TO.C,C2*
X94357142Y-56691666D02*
X94404761Y-56739285D01*
X94452380Y-56882142D01*
X94452380Y-56977380D01*
X94404761Y-57120238D01*
X94309523Y-57215476D01*
X94214285Y-57263095D01*
X94023809Y-57310714D01*
X93880952Y-57310714D01*
X93690476Y-57263095D01*
X93595238Y-57215476D01*
X93500000Y-57120238D01*
X93452380Y-56977380D01*
X93452380Y-56882142D01*
X93500000Y-56739285D01*
X93547619Y-56691666D01*
X93547619Y-56310714D02*
X93500000Y-56263095D01*
X93452380Y-56167857D01*
X93452380Y-55929761D01*
X93500000Y-55834523D01*
X93547619Y-55786904D01*
X93642857Y-55739285D01*
X93738095Y-55739285D01*
X93880952Y-55786904D01*
X94452380Y-56358333D01*
X94452380Y-55739285D01*
G04 #@! TO.C,C3*
X96333333Y-48607142D02*
X96285714Y-48654761D01*
X96142857Y-48702380D01*
X96047619Y-48702380D01*
X95904761Y-48654761D01*
X95809523Y-48559523D01*
X95761904Y-48464285D01*
X95714285Y-48273809D01*
X95714285Y-48130952D01*
X95761904Y-47940476D01*
X95809523Y-47845238D01*
X95904761Y-47750000D01*
X96047619Y-47702380D01*
X96142857Y-47702380D01*
X96285714Y-47750000D01*
X96333333Y-47797619D01*
X96666666Y-47702380D02*
X97285714Y-47702380D01*
X96952380Y-48083333D01*
X97095238Y-48083333D01*
X97190476Y-48130952D01*
X97238095Y-48178571D01*
X97285714Y-48273809D01*
X97285714Y-48511904D01*
X97238095Y-48607142D01*
X97190476Y-48654761D01*
X97095238Y-48702380D01*
X96809523Y-48702380D01*
X96714285Y-48654761D01*
X96666666Y-48607142D01*
G04 #@! TO.C,C4*
X96308333Y-43207142D02*
X96260714Y-43254761D01*
X96117857Y-43302380D01*
X96022619Y-43302380D01*
X95879761Y-43254761D01*
X95784523Y-43159523D01*
X95736904Y-43064285D01*
X95689285Y-42873809D01*
X95689285Y-42730952D01*
X95736904Y-42540476D01*
X95784523Y-42445238D01*
X95879761Y-42350000D01*
X96022619Y-42302380D01*
X96117857Y-42302380D01*
X96260714Y-42350000D01*
X96308333Y-42397619D01*
X97165476Y-42635714D02*
X97165476Y-43302380D01*
X96927380Y-42254761D02*
X96689285Y-42969047D01*
X97308333Y-42969047D01*
G04 #@! TO.C,C5*
X81607142Y-38141666D02*
X81654761Y-38189285D01*
X81702380Y-38332142D01*
X81702380Y-38427380D01*
X81654761Y-38570238D01*
X81559523Y-38665476D01*
X81464285Y-38713095D01*
X81273809Y-38760714D01*
X81130952Y-38760714D01*
X80940476Y-38713095D01*
X80845238Y-38665476D01*
X80750000Y-38570238D01*
X80702380Y-38427380D01*
X80702380Y-38332142D01*
X80750000Y-38189285D01*
X80797619Y-38141666D01*
X80702380Y-37236904D02*
X80702380Y-37713095D01*
X81178571Y-37760714D01*
X81130952Y-37713095D01*
X81083333Y-37617857D01*
X81083333Y-37379761D01*
X81130952Y-37284523D01*
X81178571Y-37236904D01*
X81273809Y-37189285D01*
X81511904Y-37189285D01*
X81607142Y-37236904D01*
X81654761Y-37284523D01*
X81702380Y-37379761D01*
X81702380Y-37617857D01*
X81654761Y-37713095D01*
X81607142Y-37760714D01*
G04 #@! TO.C,C6*
X89357142Y-56716666D02*
X89404761Y-56764285D01*
X89452380Y-56907142D01*
X89452380Y-57002380D01*
X89404761Y-57145238D01*
X89309523Y-57240476D01*
X89214285Y-57288095D01*
X89023809Y-57335714D01*
X88880952Y-57335714D01*
X88690476Y-57288095D01*
X88595238Y-57240476D01*
X88500000Y-57145238D01*
X88452380Y-57002380D01*
X88452380Y-56907142D01*
X88500000Y-56764285D01*
X88547619Y-56716666D01*
X88452380Y-55859523D02*
X88452380Y-56050000D01*
X88500000Y-56145238D01*
X88547619Y-56192857D01*
X88690476Y-56288095D01*
X88880952Y-56335714D01*
X89261904Y-56335714D01*
X89357142Y-56288095D01*
X89404761Y-56240476D01*
X89452380Y-56145238D01*
X89452380Y-55954761D01*
X89404761Y-55859523D01*
X89357142Y-55811904D01*
X89261904Y-55764285D01*
X89023809Y-55764285D01*
X88928571Y-55811904D01*
X88880952Y-55859523D01*
X88833333Y-55954761D01*
X88833333Y-56145238D01*
X88880952Y-56240476D01*
X88928571Y-56288095D01*
X89023809Y-56335714D01*
G04 #@! TO.C,C7*
X86857142Y-56716666D02*
X86904761Y-56764285D01*
X86952380Y-56907142D01*
X86952380Y-57002380D01*
X86904761Y-57145238D01*
X86809523Y-57240476D01*
X86714285Y-57288095D01*
X86523809Y-57335714D01*
X86380952Y-57335714D01*
X86190476Y-57288095D01*
X86095238Y-57240476D01*
X86000000Y-57145238D01*
X85952380Y-57002380D01*
X85952380Y-56907142D01*
X86000000Y-56764285D01*
X86047619Y-56716666D01*
X85952380Y-56383333D02*
X85952380Y-55716666D01*
X86952380Y-56145238D01*
G04 #@! TO.C,C8*
X74107142Y-50666666D02*
X74154761Y-50714285D01*
X74202380Y-50857142D01*
X74202380Y-50952380D01*
X74154761Y-51095238D01*
X74059523Y-51190476D01*
X73964285Y-51238095D01*
X73773809Y-51285714D01*
X73630952Y-51285714D01*
X73440476Y-51238095D01*
X73345238Y-51190476D01*
X73250000Y-51095238D01*
X73202380Y-50952380D01*
X73202380Y-50857142D01*
X73250000Y-50714285D01*
X73297619Y-50666666D01*
X73630952Y-50095238D02*
X73583333Y-50190476D01*
X73535714Y-50238095D01*
X73440476Y-50285714D01*
X73392857Y-50285714D01*
X73297619Y-50238095D01*
X73250000Y-50190476D01*
X73202380Y-50095238D01*
X73202380Y-49904761D01*
X73250000Y-49809523D01*
X73297619Y-49761904D01*
X73392857Y-49714285D01*
X73440476Y-49714285D01*
X73535714Y-49761904D01*
X73583333Y-49809523D01*
X73630952Y-49904761D01*
X73630952Y-50095238D01*
X73678571Y-50190476D01*
X73726190Y-50238095D01*
X73821428Y-50285714D01*
X74011904Y-50285714D01*
X74107142Y-50238095D01*
X74154761Y-50190476D01*
X74202380Y-50095238D01*
X74202380Y-49904761D01*
X74154761Y-49809523D01*
X74107142Y-49761904D01*
X74011904Y-49714285D01*
X73821428Y-49714285D01*
X73726190Y-49761904D01*
X73678571Y-49809523D01*
X73630952Y-49904761D01*
G04 #@! TO.C,C9*
X85707142Y-38141666D02*
X85754761Y-38189285D01*
X85802380Y-38332142D01*
X85802380Y-38427380D01*
X85754761Y-38570238D01*
X85659523Y-38665476D01*
X85564285Y-38713095D01*
X85373809Y-38760714D01*
X85230952Y-38760714D01*
X85040476Y-38713095D01*
X84945238Y-38665476D01*
X84850000Y-38570238D01*
X84802380Y-38427380D01*
X84802380Y-38332142D01*
X84850000Y-38189285D01*
X84897619Y-38141666D01*
X85802380Y-37665476D02*
X85802380Y-37475000D01*
X85754761Y-37379761D01*
X85707142Y-37332142D01*
X85564285Y-37236904D01*
X85373809Y-37189285D01*
X84992857Y-37189285D01*
X84897619Y-37236904D01*
X84850000Y-37284523D01*
X84802380Y-37379761D01*
X84802380Y-37570238D01*
X84850000Y-37665476D01*
X84897619Y-37713095D01*
X84992857Y-37760714D01*
X85230952Y-37760714D01*
X85326190Y-37713095D01*
X85373809Y-37665476D01*
X85421428Y-37570238D01*
X85421428Y-37379761D01*
X85373809Y-37284523D01*
X85326190Y-37236904D01*
X85230952Y-37189285D01*
G04 #@! TO.C,C10*
X91607142Y-38617857D02*
X91654761Y-38665476D01*
X91702380Y-38808333D01*
X91702380Y-38903571D01*
X91654761Y-39046428D01*
X91559523Y-39141666D01*
X91464285Y-39189285D01*
X91273809Y-39236904D01*
X91130952Y-39236904D01*
X90940476Y-39189285D01*
X90845238Y-39141666D01*
X90750000Y-39046428D01*
X90702380Y-38903571D01*
X90702380Y-38808333D01*
X90750000Y-38665476D01*
X90797619Y-38617857D01*
X91702380Y-37665476D02*
X91702380Y-38236904D01*
X91702380Y-37951190D02*
X90702380Y-37951190D01*
X90845238Y-38046428D01*
X90940476Y-38141666D01*
X90988095Y-38236904D01*
X90702380Y-37046428D02*
X90702380Y-36951190D01*
X90750000Y-36855952D01*
X90797619Y-36808333D01*
X90892857Y-36760714D01*
X91083333Y-36713095D01*
X91321428Y-36713095D01*
X91511904Y-36760714D01*
X91607142Y-36808333D01*
X91654761Y-36855952D01*
X91702380Y-36951190D01*
X91702380Y-37046428D01*
X91654761Y-37141666D01*
X91607142Y-37189285D01*
X91511904Y-37236904D01*
X91321428Y-37284523D01*
X91083333Y-37284523D01*
X90892857Y-37236904D01*
X90797619Y-37189285D01*
X90750000Y-37141666D01*
X90702380Y-37046428D01*
G04 #@! TO.C,C11*
X81857142Y-57392857D02*
X81904761Y-57440476D01*
X81952380Y-57583333D01*
X81952380Y-57678571D01*
X81904761Y-57821428D01*
X81809523Y-57916666D01*
X81714285Y-57964285D01*
X81523809Y-58011904D01*
X81380952Y-58011904D01*
X81190476Y-57964285D01*
X81095238Y-57916666D01*
X81000000Y-57821428D01*
X80952380Y-57678571D01*
X80952380Y-57583333D01*
X81000000Y-57440476D01*
X81047619Y-57392857D01*
X81952380Y-56440476D02*
X81952380Y-57011904D01*
X81952380Y-56726190D02*
X80952380Y-56726190D01*
X81095238Y-56821428D01*
X81190476Y-56916666D01*
X81238095Y-57011904D01*
X81952380Y-55488095D02*
X81952380Y-56059523D01*
X81952380Y-55773809D02*
X80952380Y-55773809D01*
X81095238Y-55869047D01*
X81190476Y-55964285D01*
X81238095Y-56059523D01*
G04 #@! TO.C,C12*
X84357142Y-57642857D02*
X84404761Y-57690476D01*
X84452380Y-57833333D01*
X84452380Y-57928571D01*
X84404761Y-58071428D01*
X84309523Y-58166666D01*
X84214285Y-58214285D01*
X84023809Y-58261904D01*
X83880952Y-58261904D01*
X83690476Y-58214285D01*
X83595238Y-58166666D01*
X83500000Y-58071428D01*
X83452380Y-57928571D01*
X83452380Y-57833333D01*
X83500000Y-57690476D01*
X83547619Y-57642857D01*
X84452380Y-56690476D02*
X84452380Y-57261904D01*
X84452380Y-56976190D02*
X83452380Y-56976190D01*
X83595238Y-57071428D01*
X83690476Y-57166666D01*
X83738095Y-57261904D01*
X83547619Y-56309523D02*
X83500000Y-56261904D01*
X83452380Y-56166666D01*
X83452380Y-55928571D01*
X83500000Y-55833333D01*
X83547619Y-55785714D01*
X83642857Y-55738095D01*
X83738095Y-55738095D01*
X83880952Y-55785714D01*
X84452380Y-56357142D01*
X84452380Y-55738095D01*
G04 #@! TO.C,C13*
X96582142Y-60117857D02*
X96629761Y-60165476D01*
X96677380Y-60308333D01*
X96677380Y-60403571D01*
X96629761Y-60546428D01*
X96534523Y-60641666D01*
X96439285Y-60689285D01*
X96248809Y-60736904D01*
X96105952Y-60736904D01*
X95915476Y-60689285D01*
X95820238Y-60641666D01*
X95725000Y-60546428D01*
X95677380Y-60403571D01*
X95677380Y-60308333D01*
X95725000Y-60165476D01*
X95772619Y-60117857D01*
X96677380Y-59165476D02*
X96677380Y-59736904D01*
X96677380Y-59451190D02*
X95677380Y-59451190D01*
X95820238Y-59546428D01*
X95915476Y-59641666D01*
X95963095Y-59736904D01*
X95677380Y-58832142D02*
X95677380Y-58213095D01*
X96058333Y-58546428D01*
X96058333Y-58403571D01*
X96105952Y-58308333D01*
X96153571Y-58260714D01*
X96248809Y-58213095D01*
X96486904Y-58213095D01*
X96582142Y-58260714D01*
X96629761Y-58308333D01*
X96677380Y-58403571D01*
X96677380Y-58689285D01*
X96629761Y-58784523D01*
X96582142Y-58832142D01*
G04 #@! TO.C,C14*
X111607142Y-60667857D02*
X111654761Y-60715476D01*
X111702380Y-60858333D01*
X111702380Y-60953571D01*
X111654761Y-61096428D01*
X111559523Y-61191666D01*
X111464285Y-61239285D01*
X111273809Y-61286904D01*
X111130952Y-61286904D01*
X110940476Y-61239285D01*
X110845238Y-61191666D01*
X110750000Y-61096428D01*
X110702380Y-60953571D01*
X110702380Y-60858333D01*
X110750000Y-60715476D01*
X110797619Y-60667857D01*
X111702380Y-59715476D02*
X111702380Y-60286904D01*
X111702380Y-60001190D02*
X110702380Y-60001190D01*
X110845238Y-60096428D01*
X110940476Y-60191666D01*
X110988095Y-60286904D01*
X111035714Y-58858333D02*
X111702380Y-58858333D01*
X110654761Y-59096428D02*
X111369047Y-59334523D01*
X111369047Y-58715476D01*
G04 #@! TO.C,C15*
X96607142Y-64717857D02*
X96654761Y-64765476D01*
X96702380Y-64908333D01*
X96702380Y-65003571D01*
X96654761Y-65146428D01*
X96559523Y-65241666D01*
X96464285Y-65289285D01*
X96273809Y-65336904D01*
X96130952Y-65336904D01*
X95940476Y-65289285D01*
X95845238Y-65241666D01*
X95750000Y-65146428D01*
X95702380Y-65003571D01*
X95702380Y-64908333D01*
X95750000Y-64765476D01*
X95797619Y-64717857D01*
X96702380Y-63765476D02*
X96702380Y-64336904D01*
X96702380Y-64051190D02*
X95702380Y-64051190D01*
X95845238Y-64146428D01*
X95940476Y-64241666D01*
X95988095Y-64336904D01*
X95702380Y-62860714D02*
X95702380Y-63336904D01*
X96178571Y-63384523D01*
X96130952Y-63336904D01*
X96083333Y-63241666D01*
X96083333Y-63003571D01*
X96130952Y-62908333D01*
X96178571Y-62860714D01*
X96273809Y-62813095D01*
X96511904Y-62813095D01*
X96607142Y-62860714D01*
X96654761Y-62908333D01*
X96702380Y-63003571D01*
X96702380Y-63241666D01*
X96654761Y-63336904D01*
X96607142Y-63384523D01*
G04 #@! TO.C,C16*
X105357142Y-55857142D02*
X105309523Y-55904761D01*
X105166666Y-55952380D01*
X105071428Y-55952380D01*
X104928571Y-55904761D01*
X104833333Y-55809523D01*
X104785714Y-55714285D01*
X104738095Y-55523809D01*
X104738095Y-55380952D01*
X104785714Y-55190476D01*
X104833333Y-55095238D01*
X104928571Y-55000000D01*
X105071428Y-54952380D01*
X105166666Y-54952380D01*
X105309523Y-55000000D01*
X105357142Y-55047619D01*
X106309523Y-55952380D02*
X105738095Y-55952380D01*
X106023809Y-55952380D02*
X106023809Y-54952380D01*
X105928571Y-55095238D01*
X105833333Y-55190476D01*
X105738095Y-55238095D01*
X107166666Y-54952380D02*
X106976190Y-54952380D01*
X106880952Y-55000000D01*
X106833333Y-55047619D01*
X106738095Y-55190476D01*
X106690476Y-55380952D01*
X106690476Y-55761904D01*
X106738095Y-55857142D01*
X106785714Y-55904761D01*
X106880952Y-55952380D01*
X107071428Y-55952380D01*
X107166666Y-55904761D01*
X107214285Y-55857142D01*
X107261904Y-55761904D01*
X107261904Y-55523809D01*
X107214285Y-55428571D01*
X107166666Y-55380952D01*
X107071428Y-55333333D01*
X106880952Y-55333333D01*
X106785714Y-55380952D01*
X106738095Y-55428571D01*
X106690476Y-55523809D01*
G04 #@! TO.C,C17*
X96707142Y-69167857D02*
X96754761Y-69215476D01*
X96802380Y-69358333D01*
X96802380Y-69453571D01*
X96754761Y-69596428D01*
X96659523Y-69691666D01*
X96564285Y-69739285D01*
X96373809Y-69786904D01*
X96230952Y-69786904D01*
X96040476Y-69739285D01*
X95945238Y-69691666D01*
X95850000Y-69596428D01*
X95802380Y-69453571D01*
X95802380Y-69358333D01*
X95850000Y-69215476D01*
X95897619Y-69167857D01*
X96802380Y-68215476D02*
X96802380Y-68786904D01*
X96802380Y-68501190D02*
X95802380Y-68501190D01*
X95945238Y-68596428D01*
X96040476Y-68691666D01*
X96088095Y-68786904D01*
X95802380Y-67882142D02*
X95802380Y-67215476D01*
X96802380Y-67644047D01*
G04 #@! TO.C,C18*
X104607142Y-37107142D02*
X104559523Y-37154761D01*
X104416666Y-37202380D01*
X104321428Y-37202380D01*
X104178571Y-37154761D01*
X104083333Y-37059523D01*
X104035714Y-36964285D01*
X103988095Y-36773809D01*
X103988095Y-36630952D01*
X104035714Y-36440476D01*
X104083333Y-36345238D01*
X104178571Y-36250000D01*
X104321428Y-36202380D01*
X104416666Y-36202380D01*
X104559523Y-36250000D01*
X104607142Y-36297619D01*
X105559523Y-37202380D02*
X104988095Y-37202380D01*
X105273809Y-37202380D02*
X105273809Y-36202380D01*
X105178571Y-36345238D01*
X105083333Y-36440476D01*
X104988095Y-36488095D01*
X106130952Y-36630952D02*
X106035714Y-36583333D01*
X105988095Y-36535714D01*
X105940476Y-36440476D01*
X105940476Y-36392857D01*
X105988095Y-36297619D01*
X106035714Y-36250000D01*
X106130952Y-36202380D01*
X106321428Y-36202380D01*
X106416666Y-36250000D01*
X106464285Y-36297619D01*
X106511904Y-36392857D01*
X106511904Y-36440476D01*
X106464285Y-36535714D01*
X106416666Y-36583333D01*
X106321428Y-36630952D01*
X106130952Y-36630952D01*
X106035714Y-36678571D01*
X105988095Y-36726190D01*
X105940476Y-36821428D01*
X105940476Y-37011904D01*
X105988095Y-37107142D01*
X106035714Y-37154761D01*
X106130952Y-37202380D01*
X106321428Y-37202380D01*
X106416666Y-37154761D01*
X106464285Y-37107142D01*
X106511904Y-37011904D01*
X106511904Y-36821428D01*
X106464285Y-36726190D01*
X106416666Y-36678571D01*
X106321428Y-36630952D01*
G04 #@! TO.C,C19*
X104857142Y-47107142D02*
X104809523Y-47154761D01*
X104666666Y-47202380D01*
X104571428Y-47202380D01*
X104428571Y-47154761D01*
X104333333Y-47059523D01*
X104285714Y-46964285D01*
X104238095Y-46773809D01*
X104238095Y-46630952D01*
X104285714Y-46440476D01*
X104333333Y-46345238D01*
X104428571Y-46250000D01*
X104571428Y-46202380D01*
X104666666Y-46202380D01*
X104809523Y-46250000D01*
X104857142Y-46297619D01*
X105809523Y-47202380D02*
X105238095Y-47202380D01*
X105523809Y-47202380D02*
X105523809Y-46202380D01*
X105428571Y-46345238D01*
X105333333Y-46440476D01*
X105238095Y-46488095D01*
X106285714Y-47202380D02*
X106476190Y-47202380D01*
X106571428Y-47154761D01*
X106619047Y-47107142D01*
X106714285Y-46964285D01*
X106761904Y-46773809D01*
X106761904Y-46392857D01*
X106714285Y-46297619D01*
X106666666Y-46250000D01*
X106571428Y-46202380D01*
X106380952Y-46202380D01*
X106285714Y-46250000D01*
X106238095Y-46297619D01*
X106190476Y-46392857D01*
X106190476Y-46630952D01*
X106238095Y-46726190D01*
X106285714Y-46773809D01*
X106380952Y-46821428D01*
X106571428Y-46821428D01*
X106666666Y-46773809D01*
X106714285Y-46726190D01*
X106761904Y-46630952D01*
G04 #@! TO.C,J5*
X52916666Y-35452380D02*
X52916666Y-36166666D01*
X52869047Y-36309523D01*
X52773809Y-36404761D01*
X52630952Y-36452380D01*
X52535714Y-36452380D01*
X53869047Y-35452380D02*
X53392857Y-35452380D01*
X53345238Y-35928571D01*
X53392857Y-35880952D01*
X53488095Y-35833333D01*
X53726190Y-35833333D01*
X53821428Y-35880952D01*
X53869047Y-35928571D01*
X53916666Y-36023809D01*
X53916666Y-36261904D01*
X53869047Y-36357142D01*
X53821428Y-36404761D01*
X53726190Y-36452380D01*
X53488095Y-36452380D01*
X53392857Y-36404761D01*
X53345238Y-36357142D01*
G04 #@! TO.C,J7*
X61952380Y-69778333D02*
X62666666Y-69778333D01*
X62809523Y-69825952D01*
X62904761Y-69921190D01*
X62952380Y-70064047D01*
X62952380Y-70159285D01*
X61952380Y-69397380D02*
X61952380Y-68730714D01*
X62952380Y-69159285D01*
G04 #@! TO.C,J8*
X55166666Y-28852380D02*
X55166666Y-29566666D01*
X55119047Y-29709523D01*
X55023809Y-29804761D01*
X54880952Y-29852380D01*
X54785714Y-29852380D01*
X55785714Y-29280952D02*
X55690476Y-29233333D01*
X55642857Y-29185714D01*
X55595238Y-29090476D01*
X55595238Y-29042857D01*
X55642857Y-28947619D01*
X55690476Y-28900000D01*
X55785714Y-28852380D01*
X55976190Y-28852380D01*
X56071428Y-28900000D01*
X56119047Y-28947619D01*
X56166666Y-29042857D01*
X56166666Y-29090476D01*
X56119047Y-29185714D01*
X56071428Y-29233333D01*
X55976190Y-29280952D01*
X55785714Y-29280952D01*
X55690476Y-29328571D01*
X55642857Y-29376190D01*
X55595238Y-29471428D01*
X55595238Y-29661904D01*
X55642857Y-29757142D01*
X55690476Y-29804761D01*
X55785714Y-29852380D01*
X55976190Y-29852380D01*
X56071428Y-29804761D01*
X56119047Y-29757142D01*
X56166666Y-29661904D01*
X56166666Y-29471428D01*
X56119047Y-29376190D01*
X56071428Y-29328571D01*
X55976190Y-29280952D01*
G04 #@! TO.C,L1*
X101302380Y-40166666D02*
X101302380Y-40642857D01*
X100302380Y-40642857D01*
X101302380Y-39309523D02*
X101302380Y-39880952D01*
X101302380Y-39595238D02*
X100302380Y-39595238D01*
X100445238Y-39690476D01*
X100540476Y-39785714D01*
X100588095Y-39880952D01*
G04 #@! TO.C,L2*
X101302380Y-50166666D02*
X101302380Y-50642857D01*
X100302380Y-50642857D01*
X100397619Y-49880952D02*
X100350000Y-49833333D01*
X100302380Y-49738095D01*
X100302380Y-49500000D01*
X100350000Y-49404761D01*
X100397619Y-49357142D01*
X100492857Y-49309523D01*
X100588095Y-49309523D01*
X100730952Y-49357142D01*
X101302380Y-49928571D01*
X101302380Y-49309523D01*
G04 #@! TO.C,R1*
X75202380Y-38116666D02*
X74726190Y-38450000D01*
X75202380Y-38688095D02*
X74202380Y-38688095D01*
X74202380Y-38307142D01*
X74250000Y-38211904D01*
X74297619Y-38164285D01*
X74392857Y-38116666D01*
X74535714Y-38116666D01*
X74630952Y-38164285D01*
X74678571Y-38211904D01*
X74726190Y-38307142D01*
X74726190Y-38688095D01*
X75202380Y-37164285D02*
X75202380Y-37735714D01*
X75202380Y-37450000D02*
X74202380Y-37450000D01*
X74345238Y-37545238D01*
X74440476Y-37640476D01*
X74488095Y-37735714D01*
G04 #@! TO.C,R2*
X96952380Y-56666666D02*
X96476190Y-57000000D01*
X96952380Y-57238095D02*
X95952380Y-57238095D01*
X95952380Y-56857142D01*
X96000000Y-56761904D01*
X96047619Y-56714285D01*
X96142857Y-56666666D01*
X96285714Y-56666666D01*
X96380952Y-56714285D01*
X96428571Y-56761904D01*
X96476190Y-56857142D01*
X96476190Y-57238095D01*
X96047619Y-56285714D02*
X96000000Y-56238095D01*
X95952380Y-56142857D01*
X95952380Y-55904761D01*
X96000000Y-55809523D01*
X96047619Y-55761904D01*
X96142857Y-55714285D01*
X96238095Y-55714285D01*
X96380952Y-55761904D01*
X96952380Y-56333333D01*
X96952380Y-55714285D01*
G04 #@! TO.C,R3*
X80702380Y-63616666D02*
X80226190Y-63950000D01*
X80702380Y-64188095D02*
X79702380Y-64188095D01*
X79702380Y-63807142D01*
X79750000Y-63711904D01*
X79797619Y-63664285D01*
X79892857Y-63616666D01*
X80035714Y-63616666D01*
X80130952Y-63664285D01*
X80178571Y-63711904D01*
X80226190Y-63807142D01*
X80226190Y-64188095D01*
X79702380Y-63283333D02*
X79702380Y-62664285D01*
X80083333Y-62997619D01*
X80083333Y-62854761D01*
X80130952Y-62759523D01*
X80178571Y-62711904D01*
X80273809Y-62664285D01*
X80511904Y-62664285D01*
X80607142Y-62711904D01*
X80654761Y-62759523D01*
X80702380Y-62854761D01*
X80702380Y-63140476D01*
X80654761Y-63235714D01*
X80607142Y-63283333D01*
G04 #@! TO.C,R4*
X83202380Y-63666666D02*
X82726190Y-64000000D01*
X83202380Y-64238095D02*
X82202380Y-64238095D01*
X82202380Y-63857142D01*
X82250000Y-63761904D01*
X82297619Y-63714285D01*
X82392857Y-63666666D01*
X82535714Y-63666666D01*
X82630952Y-63714285D01*
X82678571Y-63761904D01*
X82726190Y-63857142D01*
X82726190Y-64238095D01*
X82535714Y-62809523D02*
X83202380Y-62809523D01*
X82154761Y-63047619D02*
X82869047Y-63285714D01*
X82869047Y-62666666D01*
G04 #@! TO.C,R5*
X78202380Y-63616666D02*
X77726190Y-63950000D01*
X78202380Y-64188095D02*
X77202380Y-64188095D01*
X77202380Y-63807142D01*
X77250000Y-63711904D01*
X77297619Y-63664285D01*
X77392857Y-63616666D01*
X77535714Y-63616666D01*
X77630952Y-63664285D01*
X77678571Y-63711904D01*
X77726190Y-63807142D01*
X77726190Y-64188095D01*
X77202380Y-62711904D02*
X77202380Y-63188095D01*
X77678571Y-63235714D01*
X77630952Y-63188095D01*
X77583333Y-63092857D01*
X77583333Y-62854761D01*
X77630952Y-62759523D01*
X77678571Y-62711904D01*
X77773809Y-62664285D01*
X78011904Y-62664285D01*
X78107142Y-62711904D01*
X78154761Y-62759523D01*
X78202380Y-62854761D01*
X78202380Y-63092857D01*
X78154761Y-63188095D01*
X78107142Y-63235714D01*
G04 #@! TO.C,R6*
X85702380Y-63666666D02*
X85226190Y-64000000D01*
X85702380Y-64238095D02*
X84702380Y-64238095D01*
X84702380Y-63857142D01*
X84750000Y-63761904D01*
X84797619Y-63714285D01*
X84892857Y-63666666D01*
X85035714Y-63666666D01*
X85130952Y-63714285D01*
X85178571Y-63761904D01*
X85226190Y-63857142D01*
X85226190Y-64238095D01*
X84702380Y-62809523D02*
X84702380Y-63000000D01*
X84750000Y-63095238D01*
X84797619Y-63142857D01*
X84940476Y-63238095D01*
X85130952Y-63285714D01*
X85511904Y-63285714D01*
X85607142Y-63238095D01*
X85654761Y-63190476D01*
X85702380Y-63095238D01*
X85702380Y-62904761D01*
X85654761Y-62809523D01*
X85607142Y-62761904D01*
X85511904Y-62714285D01*
X85273809Y-62714285D01*
X85178571Y-62761904D01*
X85130952Y-62809523D01*
X85083333Y-62904761D01*
X85083333Y-63095238D01*
X85130952Y-63190476D01*
X85178571Y-63238095D01*
X85273809Y-63285714D01*
G04 #@! TO.C,U1*
X93352380Y-43011904D02*
X94161904Y-43011904D01*
X94257142Y-42964285D01*
X94304761Y-42916666D01*
X94352380Y-42821428D01*
X94352380Y-42630952D01*
X94304761Y-42535714D01*
X94257142Y-42488095D01*
X94161904Y-42440476D01*
X93352380Y-42440476D01*
X94352380Y-41440476D02*
X94352380Y-42011904D01*
X94352380Y-41726190D02*
X93352380Y-41726190D01*
X93495238Y-41821428D01*
X93590476Y-41916666D01*
X93638095Y-42011904D01*
G04 #@! TO.C,U2*
X100488095Y-57202380D02*
X100488095Y-58011904D01*
X100535714Y-58107142D01*
X100583333Y-58154761D01*
X100678571Y-58202380D01*
X100869047Y-58202380D01*
X100964285Y-58154761D01*
X101011904Y-58107142D01*
X101059523Y-58011904D01*
X101059523Y-57202380D01*
X101488095Y-57297619D02*
X101535714Y-57250000D01*
X101630952Y-57202380D01*
X101869047Y-57202380D01*
X101964285Y-57250000D01*
X102011904Y-57297619D01*
X102059523Y-57392857D01*
X102059523Y-57488095D01*
X102011904Y-57630952D01*
X101440476Y-58202380D01*
X102059523Y-58202380D01*
G04 #@! TO.C,X1*
X73702380Y-44059523D02*
X74702380Y-43392857D01*
X73702380Y-43392857D02*
X74702380Y-44059523D01*
X74702380Y-42488095D02*
X74702380Y-43059523D01*
X74702380Y-42773809D02*
X73702380Y-42773809D01*
X73845238Y-42869047D01*
X73940476Y-42964285D01*
X73988095Y-43059523D01*
G04 #@! TO.C,J1*
X81916666Y-64452380D02*
X81916666Y-65166666D01*
X81869047Y-65309523D01*
X81773809Y-65404761D01*
X81630952Y-65452380D01*
X81535714Y-65452380D01*
X82916666Y-65452380D02*
X82345238Y-65452380D01*
X82630952Y-65452380D02*
X82630952Y-64452380D01*
X82535714Y-64595238D01*
X82440476Y-64690476D01*
X82345238Y-64738095D01*
G04 #@! TO.C,J3*
X91166666Y-64202380D02*
X91166666Y-64916666D01*
X91119047Y-65059523D01*
X91023809Y-65154761D01*
X90880952Y-65202380D01*
X90785714Y-65202380D01*
X91547619Y-64202380D02*
X92166666Y-64202380D01*
X91833333Y-64583333D01*
X91976190Y-64583333D01*
X92071428Y-64630952D01*
X92119047Y-64678571D01*
X92166666Y-64773809D01*
X92166666Y-65011904D01*
X92119047Y-65107142D01*
X92071428Y-65154761D01*
X91976190Y-65202380D01*
X91690476Y-65202380D01*
X91595238Y-65154761D01*
X91547619Y-65107142D01*
G04 #@! TD*
M02*
