G04 #@! TF.GenerationSoftware,KiCad,Pcbnew,(5.0.2)-1*
G04 #@! TF.CreationDate,2019-06-22T23:22:15-04:00*
G04 #@! TF.ProjectId,RPi-Ham,5250692d-4861-46d2-9e6b-696361645f70,rev?*
G04 #@! TF.SameCoordinates,Original*
G04 #@! TF.FileFunction,Copper,L2,Bot*
G04 #@! TF.FilePolarity,Positive*
%FSLAX46Y46*%
G04 Gerber Fmt 4.6, Leading zero omitted, Abs format (unit mm)*
G04 Created by KiCad (PCBNEW (5.0.2)-1) date 2019-06-22 23:22:15*
%MOMM*%
%LPD*%
G01*
G04 APERTURE LIST*
G04 #@! TA.AperFunction,ComponentPad*
%ADD10C,1.500000*%
G04 #@! TD*
G04 #@! TA.AperFunction,ComponentPad*
%ADD11R,1.500000X1.500000*%
G04 #@! TD*
G04 #@! TA.AperFunction,ComponentPad*
%ADD12C,5.400000*%
G04 #@! TD*
G04 #@! TA.AperFunction,ComponentPad*
%ADD13C,0.800000*%
G04 #@! TD*
G04 #@! TA.AperFunction,ComponentPad*
%ADD14O,1.700000X1.700000*%
G04 #@! TD*
G04 #@! TA.AperFunction,ComponentPad*
%ADD15R,1.700000X1.700000*%
G04 #@! TD*
G04 #@! TA.AperFunction,ViaPad*
%ADD16C,0.800000*%
G04 #@! TD*
G04 #@! TA.AperFunction,Conductor*
%ADD17C,0.250000*%
G04 #@! TD*
G04 APERTURE END LIST*
D10*
G04 #@! TO.P,J2,8*
G04 #@! TO.N,Net-(J2-Pad8)*
X85390000Y-73460000D03*
G04 #@! TO.P,J2,7*
G04 #@! TO.N,Net-(J2-Pad7)*
X84120000Y-76000000D03*
G04 #@! TO.P,J2,6*
G04 #@! TO.N,Net-(J1-Pad3)*
X82850000Y-73460000D03*
G04 #@! TO.P,J2,5*
G04 #@! TO.N,GND*
X81580000Y-76000000D03*
G04 #@! TO.P,J2,4*
X80310000Y-73460000D03*
G04 #@! TO.P,J2,3*
G04 #@! TO.N,Net-(J1-Pad4)*
X79040000Y-76000000D03*
G04 #@! TO.P,J2,2*
G04 #@! TO.N,Net-(J2-Pad2)*
X77770000Y-73460000D03*
D11*
G04 #@! TO.P,J2,1*
G04 #@! TO.N,Net-(J2-Pad1)*
X76500000Y-76000000D03*
G04 #@! TD*
G04 #@! TO.P,J4,1*
G04 #@! TO.N,Net-(J4-Pad1)*
X93000000Y-76000000D03*
D10*
G04 #@! TO.P,J4,2*
G04 #@! TO.N,Net-(J4-Pad2)*
X94270000Y-73460000D03*
G04 #@! TO.P,J4,3*
G04 #@! TO.N,Net-(J3-Pad4)*
X95540000Y-76000000D03*
G04 #@! TO.P,J4,4*
G04 #@! TO.N,GND*
X96810000Y-73460000D03*
G04 #@! TO.P,J4,5*
X98080000Y-76000000D03*
G04 #@! TO.P,J4,6*
G04 #@! TO.N,Net-(J3-Pad3)*
X99350000Y-73460000D03*
G04 #@! TO.P,J4,7*
G04 #@! TO.N,Net-(J4-Pad7)*
X100620000Y-76000000D03*
G04 #@! TO.P,J4,8*
G04 #@! TO.N,Net-(J4-Pad8)*
X101890000Y-73460000D03*
G04 #@! TD*
D12*
G04 #@! TO.P,J12,1*
G04 #@! TO.N,N/C*
X109000000Y-32500000D03*
D13*
X111025000Y-32500000D03*
X110431891Y-33931891D03*
X109000000Y-34525000D03*
X107568109Y-33931891D03*
X106975000Y-32500000D03*
X107568109Y-31068109D03*
X109000000Y-30475000D03*
X110431891Y-31068109D03*
G04 #@! TD*
G04 #@! TO.P,J13,1*
G04 #@! TO.N,N/C*
X52431891Y-31068109D03*
X51000000Y-30475000D03*
X49568109Y-31068109D03*
X48975000Y-32500000D03*
X49568109Y-33931891D03*
X51000000Y-34525000D03*
X52431891Y-33931891D03*
X53025000Y-32500000D03*
D12*
X51000000Y-32500000D03*
G04 #@! TD*
D13*
G04 #@! TO.P,J10,1*
G04 #@! TO.N,N/C*
X110431891Y-80068109D03*
X109000000Y-79475000D03*
X107568109Y-80068109D03*
X106975000Y-81500000D03*
X107568109Y-82931891D03*
X109000000Y-83525000D03*
X110431891Y-82931891D03*
X111025000Y-81500000D03*
D12*
X109000000Y-81500000D03*
G04 #@! TD*
D13*
G04 #@! TO.P,J11,1*
G04 #@! TO.N,N/C*
X52431891Y-80068109D03*
X51000000Y-79475000D03*
X49568109Y-80068109D03*
X48975000Y-81500000D03*
X49568109Y-82931891D03*
X51000000Y-83525000D03*
X52431891Y-82931891D03*
X53025000Y-81500000D03*
D12*
X51000000Y-81500000D03*
G04 #@! TD*
D11*
G04 #@! TO.P,J5,1*
G04 #@! TO.N,Net-(J5-Pad1)*
X57500000Y-40500000D03*
D10*
G04 #@! TO.P,J5,2*
G04 #@! TO.N,Net-(J5-Pad2)*
X60040000Y-41770000D03*
G04 #@! TO.P,J5,3*
G04 #@! TO.N,Net-(J5-Pad3)*
X57500000Y-43040000D03*
G04 #@! TO.P,J5,4*
G04 #@! TO.N,Net-(J5-Pad4)*
X60040000Y-44310000D03*
G04 #@! TO.P,J5,5*
G04 #@! TO.N,Net-(J5-Pad5)*
X57500000Y-45580000D03*
G04 #@! TO.P,J5,6*
G04 #@! TO.N,Net-(J5-Pad6)*
X60040000Y-46850000D03*
G04 #@! TO.P,J5,7*
G04 #@! TO.N,Net-(J5-Pad7)*
X57500000Y-48120000D03*
G04 #@! TO.P,J5,8*
G04 #@! TO.N,Net-(J5-Pad8)*
X60040000Y-49390000D03*
G04 #@! TD*
D14*
G04 #@! TO.P,J6,16*
G04 #@! TO.N,GND*
X67000000Y-55500000D03*
G04 #@! TO.P,J6,15*
G04 #@! TO.N,Net-(J5-Pad8)*
X64460000Y-55500000D03*
G04 #@! TO.P,J6,14*
G04 #@! TO.N,GND*
X67000000Y-52960000D03*
G04 #@! TO.P,J6,13*
G04 #@! TO.N,Net-(J5-Pad7)*
X64460000Y-52960000D03*
G04 #@! TO.P,J6,12*
G04 #@! TO.N,GND*
X67000000Y-50420000D03*
G04 #@! TO.P,J6,11*
G04 #@! TO.N,Net-(J5-Pad6)*
X64460000Y-50420000D03*
G04 #@! TO.P,J6,10*
G04 #@! TO.N,TXR0*
X67000000Y-47880000D03*
G04 #@! TO.P,J6,9*
G04 #@! TO.N,Net-(J5-Pad5)*
X64460000Y-47880000D03*
G04 #@! TO.P,J6,8*
G04 #@! TO.N,RXR0*
X67000000Y-45340000D03*
G04 #@! TO.P,J6,7*
G04 #@! TO.N,Net-(J5-Pad4)*
X64460000Y-45340000D03*
G04 #@! TO.P,J6,6*
G04 #@! TO.N,PTT0*
X67000000Y-42800000D03*
G04 #@! TO.P,J6,5*
G04 #@! TO.N,Net-(J5-Pad3)*
X64460000Y-42800000D03*
G04 #@! TO.P,J6,4*
G04 #@! TO.N,OUTL*
X67000000Y-40260000D03*
G04 #@! TO.P,J6,3*
G04 #@! TO.N,Net-(J5-Pad2)*
X64460000Y-40260000D03*
G04 #@! TO.P,J6,2*
G04 #@! TO.N,INL*
X67000000Y-37720000D03*
D15*
G04 #@! TO.P,J6,1*
G04 #@! TO.N,Net-(J5-Pad1)*
X64460000Y-37720000D03*
G04 #@! TD*
D11*
G04 #@! TO.P,J7,1*
G04 #@! TO.N,Net-(J7-Pad1)*
X57500000Y-65000000D03*
D10*
G04 #@! TO.P,J7,2*
G04 #@! TO.N,Net-(J7-Pad2)*
X60040000Y-66270000D03*
G04 #@! TO.P,J7,3*
G04 #@! TO.N,Net-(J7-Pad3)*
X57500000Y-67540000D03*
G04 #@! TO.P,J7,4*
G04 #@! TO.N,Net-(J7-Pad4)*
X60040000Y-68810000D03*
G04 #@! TO.P,J7,5*
G04 #@! TO.N,Net-(J7-Pad5)*
X57500000Y-70080000D03*
G04 #@! TO.P,J7,6*
G04 #@! TO.N,Net-(J7-Pad6)*
X60040000Y-71350000D03*
G04 #@! TO.P,J7,7*
G04 #@! TO.N,Net-(J7-Pad7)*
X57500000Y-72620000D03*
G04 #@! TO.P,J7,8*
G04 #@! TO.N,Net-(J7-Pad8)*
X60040000Y-73890000D03*
G04 #@! TD*
D14*
G04 #@! TO.P,J8,40*
G04 #@! TO.N,DIN*
X104260000Y-31460000D03*
G04 #@! TO.P,J8,39*
G04 #@! TO.N,GND*
X104260000Y-34000000D03*
G04 #@! TO.P,J8,38*
G04 #@! TO.N,DOUT*
X101720000Y-31460000D03*
G04 #@! TO.P,J8,37*
G04 #@! TO.N,Net-(J8-Pad37)*
X101720000Y-34000000D03*
G04 #@! TO.P,J8,36*
G04 #@! TO.N,Net-(J8-Pad36)*
X99180000Y-31460000D03*
G04 #@! TO.P,J8,35*
G04 #@! TO.N,LRCK*
X99180000Y-34000000D03*
G04 #@! TO.P,J8,34*
G04 #@! TO.N,GND*
X96640000Y-31460000D03*
G04 #@! TO.P,J8,33*
G04 #@! TO.N,RXD1*
X96640000Y-34000000D03*
G04 #@! TO.P,J8,32*
G04 #@! TO.N,TXD1*
X94100000Y-31460000D03*
G04 #@! TO.P,J8,31*
G04 #@! TO.N,Net-(J8-Pad31)*
X94100000Y-34000000D03*
G04 #@! TO.P,J8,30*
G04 #@! TO.N,GND*
X91560000Y-31460000D03*
G04 #@! TO.P,J8,29*
G04 #@! TO.N,Net-(J8-Pad29)*
X91560000Y-34000000D03*
G04 #@! TO.P,J8,28*
G04 #@! TO.N,Net-(J8-Pad28)*
X89020000Y-31460000D03*
G04 #@! TO.P,J8,27*
G04 #@! TO.N,Net-(J8-Pad27)*
X89020000Y-34000000D03*
G04 #@! TO.P,J8,26*
G04 #@! TO.N,Net-(J8-Pad26)*
X86480000Y-31460000D03*
G04 #@! TO.P,J8,25*
G04 #@! TO.N,GND*
X86480000Y-34000000D03*
G04 #@! TO.P,J8,24*
G04 #@! TO.N,Net-(J8-Pad24)*
X83940000Y-31460000D03*
G04 #@! TO.P,J8,23*
G04 #@! TO.N,Net-(J8-Pad23)*
X83940000Y-34000000D03*
G04 #@! TO.P,J8,22*
G04 #@! TO.N,Net-(J8-Pad22)*
X81400000Y-31460000D03*
G04 #@! TO.P,J8,21*
G04 #@! TO.N,Net-(J8-Pad21)*
X81400000Y-34000000D03*
G04 #@! TO.P,J8,20*
G04 #@! TO.N,GND*
X78860000Y-31460000D03*
G04 #@! TO.P,J8,19*
G04 #@! TO.N,Net-(J8-Pad19)*
X78860000Y-34000000D03*
G04 #@! TO.P,J8,18*
G04 #@! TO.N,Net-(J8-Pad18)*
X76320000Y-31460000D03*
G04 #@! TO.P,J8,17*
G04 #@! TO.N,Net-(C19-Pad1)*
X76320000Y-34000000D03*
G04 #@! TO.P,J8,16*
G04 #@! TO.N,Net-(J8-Pad16)*
X73780000Y-31460000D03*
G04 #@! TO.P,J8,15*
G04 #@! TO.N,Net-(J8-Pad15)*
X73780000Y-34000000D03*
G04 #@! TO.P,J8,14*
G04 #@! TO.N,GND*
X71240000Y-31460000D03*
G04 #@! TO.P,J8,13*
G04 #@! TO.N,Net-(J8-Pad13)*
X71240000Y-34000000D03*
G04 #@! TO.P,J8,12*
G04 #@! TO.N,BCK*
X68700000Y-31460000D03*
G04 #@! TO.P,J8,11*
G04 #@! TO.N,Net-(J8-Pad11)*
X68700000Y-34000000D03*
G04 #@! TO.P,J8,10*
G04 #@! TO.N,RXD0*
X66160000Y-31460000D03*
G04 #@! TO.P,J8,9*
G04 #@! TO.N,GND*
X66160000Y-34000000D03*
G04 #@! TO.P,J8,8*
G04 #@! TO.N,TXD0*
X63620000Y-31460000D03*
G04 #@! TO.P,J8,7*
G04 #@! TO.N,Net-(J8-Pad7)*
X63620000Y-34000000D03*
G04 #@! TO.P,J8,6*
G04 #@! TO.N,GND*
X61080000Y-31460000D03*
G04 #@! TO.P,J8,5*
G04 #@! TO.N,Net-(J8-Pad5)*
X61080000Y-34000000D03*
G04 #@! TO.P,J8,4*
G04 #@! TO.N,Net-(C18-Pad1)*
X58540000Y-31460000D03*
G04 #@! TO.P,J8,3*
G04 #@! TO.N,Net-(J8-Pad3)*
X58540000Y-34000000D03*
G04 #@! TO.P,J8,2*
G04 #@! TO.N,Net-(C18-Pad1)*
X56000000Y-31460000D03*
D15*
G04 #@! TO.P,J8,1*
G04 #@! TO.N,Net-(C19-Pad1)*
X56000000Y-34000000D03*
G04 #@! TD*
G04 #@! TO.P,J9,1*
G04 #@! TO.N,Net-(J7-Pad1)*
X64500000Y-60000000D03*
D14*
G04 #@! TO.P,J9,2*
G04 #@! TO.N,INR*
X67040000Y-60000000D03*
G04 #@! TO.P,J9,3*
G04 #@! TO.N,Net-(J7-Pad2)*
X64500000Y-62540000D03*
G04 #@! TO.P,J9,4*
G04 #@! TO.N,OUTR*
X67040000Y-62540000D03*
G04 #@! TO.P,J9,5*
G04 #@! TO.N,Net-(J7-Pad3)*
X64500000Y-65080000D03*
G04 #@! TO.P,J9,6*
G04 #@! TO.N,PTT1*
X67040000Y-65080000D03*
G04 #@! TO.P,J9,7*
G04 #@! TO.N,Net-(J7-Pad4)*
X64500000Y-67620000D03*
G04 #@! TO.P,J9,8*
G04 #@! TO.N,RXR1*
X67040000Y-67620000D03*
G04 #@! TO.P,J9,9*
G04 #@! TO.N,Net-(J7-Pad5)*
X64500000Y-70160000D03*
G04 #@! TO.P,J9,10*
G04 #@! TO.N,TXR1*
X67040000Y-70160000D03*
G04 #@! TO.P,J9,11*
G04 #@! TO.N,Net-(J7-Pad6)*
X64500000Y-72700000D03*
G04 #@! TO.P,J9,12*
G04 #@! TO.N,GND*
X67040000Y-72700000D03*
G04 #@! TO.P,J9,13*
G04 #@! TO.N,Net-(J7-Pad7)*
X64500000Y-75240000D03*
G04 #@! TO.P,J9,14*
G04 #@! TO.N,GND*
X67040000Y-75240000D03*
G04 #@! TO.P,J9,15*
G04 #@! TO.N,Net-(J7-Pad8)*
X64500000Y-77780000D03*
G04 #@! TO.P,J9,16*
G04 #@! TO.N,GND*
X67040000Y-77780000D03*
G04 #@! TD*
G04 #@! TO.P,J1,6*
G04 #@! TO.N,TXR0*
X84830000Y-66960000D03*
G04 #@! TO.P,J1,5*
G04 #@! TO.N,RXR0*
X84830000Y-69500000D03*
G04 #@! TO.P,J1,4*
G04 #@! TO.N,Net-(J1-Pad4)*
X82290000Y-66960000D03*
G04 #@! TO.P,J1,3*
G04 #@! TO.N,Net-(J1-Pad3)*
X82290000Y-69500000D03*
G04 #@! TO.P,J1,2*
G04 #@! TO.N,RXR0*
X79750000Y-66960000D03*
D15*
G04 #@! TO.P,J1,1*
G04 #@! TO.N,TXR0*
X79750000Y-69500000D03*
G04 #@! TD*
G04 #@! TO.P,J3,1*
G04 #@! TO.N,TXR1*
X88750000Y-69500000D03*
D14*
G04 #@! TO.P,J3,2*
G04 #@! TO.N,RXR1*
X88750000Y-66960000D03*
G04 #@! TO.P,J3,3*
G04 #@! TO.N,Net-(J3-Pad3)*
X91290000Y-69500000D03*
G04 #@! TO.P,J3,4*
G04 #@! TO.N,Net-(J3-Pad4)*
X91290000Y-66960000D03*
G04 #@! TO.P,J3,5*
G04 #@! TO.N,RXR1*
X93830000Y-69500000D03*
G04 #@! TO.P,J3,6*
G04 #@! TO.N,TXR1*
X93830000Y-66960000D03*
G04 #@! TD*
D16*
G04 #@! TO.N,Earth*
X88978200Y-59423100D03*
X87573300Y-41289900D03*
X99439000Y-36804700D03*
X91657400Y-43805600D03*
X88985600Y-50011900D03*
G04 #@! TO.N,VCC*
X103572600Y-39915700D03*
X90024800Y-50024400D03*
X95500000Y-48640400D03*
G04 #@! TO.N,Net-(C11-Pad2)*
X81432600Y-55744200D03*
X81432600Y-58494800D03*
G04 #@! TO.N,TXD0*
X104678500Y-65870500D03*
G04 #@! TO.N,RXD0*
X95765500Y-65261800D03*
G04 #@! TO.N,BCK*
X81710500Y-41971700D03*
G04 #@! TO.N,LRCK*
X90442700Y-43912600D03*
G04 #@! TO.N,DOUT*
X90972400Y-41465700D03*
G04 #@! TO.N,DIN*
X92526800Y-44876200D03*
G04 #@! TD*
D17*
G04 #@! TO.N,Earth*
X88985600Y-50011900D02*
X88985600Y-59415700D01*
X88985600Y-59415700D02*
X88978200Y-59423100D01*
X88985600Y-44687100D02*
X88985600Y-50011900D01*
X91657400Y-43805600D02*
X90775900Y-44687100D01*
X90775900Y-44687100D02*
X88985600Y-44687100D01*
X88985600Y-44687100D02*
X88985600Y-42702200D01*
X88985600Y-42702200D02*
X87573300Y-41289900D01*
X91657400Y-43805600D02*
X92438100Y-43805600D01*
X92438100Y-43805600D02*
X99439000Y-36804700D01*
G04 #@! TO.N,VCC*
X90024800Y-50024400D02*
X91408800Y-48640400D01*
X91408800Y-48640400D02*
X95500000Y-48640400D01*
X95500000Y-48640400D02*
X103572600Y-40567800D01*
X103572600Y-40567800D02*
X103572600Y-39915700D01*
G04 #@! TO.N,Net-(C11-Pad2)*
X81432600Y-58494800D02*
X81432600Y-55744200D01*
G04 #@! TO.N,GND*
X71240000Y-31460000D02*
X70064700Y-31460000D01*
X65572400Y-34000000D02*
X67430000Y-32142400D01*
X67430000Y-32142400D02*
X67430000Y-31022000D01*
X67430000Y-31022000D02*
X68167300Y-30284700D01*
X68167300Y-30284700D02*
X69256800Y-30284700D01*
X69256800Y-30284700D02*
X70064700Y-31092600D01*
X70064700Y-31092600D02*
X70064700Y-31460000D01*
X65572400Y-34000000D02*
X64984700Y-34000000D01*
X66160000Y-34000000D02*
X65572400Y-34000000D01*
X61080000Y-31460000D02*
X62255300Y-31460000D01*
X64984700Y-34000000D02*
X64984700Y-33632600D01*
X64984700Y-33632600D02*
X63987400Y-32635300D01*
X63987400Y-32635300D02*
X63063200Y-32635300D01*
X63063200Y-32635300D02*
X62255300Y-31827400D01*
X62255300Y-31827400D02*
X62255300Y-31460000D01*
X96640000Y-31460000D02*
X97815300Y-31460000D01*
X97815300Y-31460000D02*
X97815300Y-31092700D01*
X97815300Y-31092700D02*
X98655500Y-30252500D01*
X98655500Y-30252500D02*
X104733900Y-30252500D01*
X104733900Y-30252500D02*
X105501900Y-31020500D01*
X105501900Y-31020500D02*
X105501900Y-32758100D01*
X105501900Y-32758100D02*
X104260000Y-34000000D01*
X67040000Y-72700000D02*
X67040000Y-71524700D01*
X67040000Y-71524700D02*
X66672700Y-71524700D01*
X66672700Y-71524700D02*
X65857300Y-70709300D01*
X65857300Y-70709300D02*
X65857300Y-57818000D01*
X65857300Y-57818000D02*
X67000000Y-56675300D01*
X67040000Y-75240000D02*
X67040000Y-72700000D01*
X67000000Y-55500000D02*
X67000000Y-56675300D01*
X67040000Y-77780000D02*
X67040000Y-75240000D01*
G04 #@! TO.N,RXR0*
X82846800Y-68324700D02*
X83654700Y-69132600D01*
X83654700Y-69132600D02*
X83654700Y-69500000D01*
X80925300Y-66960000D02*
X80925300Y-67327400D01*
X80925300Y-67327400D02*
X81922600Y-68324700D01*
X81922600Y-68324700D02*
X82846800Y-68324700D01*
X82846800Y-68324700D02*
X83465400Y-67706100D01*
X83465400Y-67706100D02*
X83465400Y-66404800D01*
X83465400Y-66404800D02*
X68717200Y-51656600D01*
X68717200Y-51656600D02*
X66547800Y-51656600D01*
X66547800Y-51656600D02*
X65824700Y-50933500D01*
X65824700Y-50933500D02*
X65824700Y-47323200D01*
X65824700Y-47323200D02*
X66632600Y-46515300D01*
X66632600Y-46515300D02*
X67000000Y-46515300D01*
X67000000Y-45340000D02*
X67000000Y-46515300D01*
X84830000Y-69500000D02*
X83654700Y-69500000D01*
X79750000Y-66960000D02*
X80925300Y-66960000D01*
G04 #@! TO.N,TXR0*
X67000000Y-49055300D02*
X67837000Y-49055300D01*
X67837000Y-49055300D02*
X84566400Y-65784700D01*
X84566400Y-65784700D02*
X84830000Y-65784700D01*
X84830000Y-66960000D02*
X84830000Y-65784700D01*
X67000000Y-47880000D02*
X67000000Y-49055300D01*
G04 #@! TO.N,RXR1*
X88750000Y-66960000D02*
X89925300Y-66960000D01*
X93830000Y-69500000D02*
X92654700Y-69500000D01*
X92654700Y-69500000D02*
X92654700Y-69132600D01*
X92654700Y-69132600D02*
X91657400Y-68135300D01*
X91657400Y-68135300D02*
X90733200Y-68135300D01*
X90733200Y-68135300D02*
X89925300Y-67327400D01*
X89925300Y-67327400D02*
X89925300Y-66960000D01*
G04 #@! TO.N,Net-(J5-Pad8)*
X64460000Y-55500000D02*
X64460000Y-54324700D01*
X64460000Y-54324700D02*
X64092700Y-54324700D01*
X64092700Y-54324700D02*
X60040000Y-50272000D01*
X60040000Y-50272000D02*
X60040000Y-49390000D01*
G04 #@! TO.N,Net-(J7-Pad2)*
X64500000Y-62540000D02*
X63324700Y-62540000D01*
X63324700Y-62540000D02*
X63324700Y-62985300D01*
X63324700Y-62985300D02*
X60040000Y-66270000D01*
G04 #@! TO.N,TXD0*
X64795300Y-31460000D02*
X64795300Y-31092700D01*
X64795300Y-31092700D02*
X66511600Y-29376400D01*
X66511600Y-29376400D02*
X73359000Y-29376400D01*
X73359000Y-29376400D02*
X75050000Y-31067400D01*
X75050000Y-31067400D02*
X75050000Y-34392300D01*
X75050000Y-34392300D02*
X75846700Y-35189000D01*
X75846700Y-35189000D02*
X76590700Y-35189000D01*
X76590700Y-35189000D02*
X88243000Y-46841300D01*
X88243000Y-46841300D02*
X88243000Y-59761600D01*
X88243000Y-59761600D02*
X91592600Y-63111200D01*
X91592600Y-63111200D02*
X101919200Y-63111200D01*
X101919200Y-63111200D02*
X104678500Y-65870500D01*
X63620000Y-31460000D02*
X64795300Y-31460000D01*
G04 #@! TO.N,RXD0*
X66160000Y-31460000D02*
X67785700Y-29834300D01*
X67785700Y-29834300D02*
X71327400Y-29834300D01*
X71327400Y-29834300D02*
X72604600Y-31111500D01*
X72604600Y-31111500D02*
X72604600Y-34533900D01*
X72604600Y-34533900D02*
X74015700Y-35945000D01*
X74015700Y-35945000D02*
X76709800Y-35945000D01*
X76709800Y-35945000D02*
X87359500Y-46594700D01*
X87359500Y-46594700D02*
X87359500Y-59587500D01*
X87359500Y-59587500D02*
X93033800Y-65261800D01*
X93033800Y-65261800D02*
X95765500Y-65261800D01*
G04 #@! TO.N,BCK*
X68700000Y-32635300D02*
X69067400Y-32635300D01*
X69067400Y-32635300D02*
X69875300Y-33443200D01*
X69875300Y-33443200D02*
X69875300Y-34311900D01*
X69875300Y-34311900D02*
X77535100Y-41971700D01*
X77535100Y-41971700D02*
X81710500Y-41971700D01*
X68700000Y-31460000D02*
X68700000Y-32635300D01*
G04 #@! TO.N,LRCK*
X99180000Y-35175300D02*
X90442700Y-43912600D01*
X99180000Y-34000000D02*
X99180000Y-35175300D01*
G04 #@! TO.N,DOUT*
X101720000Y-31460000D02*
X100544700Y-31460000D01*
X90972400Y-41465700D02*
X98004600Y-34433500D01*
X98004600Y-34433500D02*
X98004600Y-33474400D01*
X98004600Y-33474400D02*
X98843700Y-32635300D01*
X98843700Y-32635300D02*
X99736800Y-32635300D01*
X99736800Y-32635300D02*
X100544700Y-31827400D01*
X100544700Y-31827400D02*
X100544700Y-31460000D01*
G04 #@! TO.N,DIN*
X104260000Y-32635300D02*
X103892600Y-32635300D01*
X103892600Y-32635300D02*
X103084700Y-33443200D01*
X103084700Y-33443200D02*
X103084700Y-34318300D01*
X103084700Y-34318300D02*
X92526800Y-44876200D01*
X104260000Y-31460000D02*
X104260000Y-32635300D01*
G04 #@! TO.N,Net-(J1-Pad4)*
X82290000Y-66960000D02*
X81086600Y-65756600D01*
X81086600Y-65756600D02*
X79220500Y-65756600D01*
X79220500Y-65756600D02*
X78574600Y-66402500D01*
X78574600Y-66402500D02*
X78574600Y-71485600D01*
X78574600Y-71485600D02*
X79040000Y-71951000D01*
X79040000Y-71951000D02*
X79040000Y-76000000D01*
G04 #@! TO.N,Net-(J1-Pad3)*
X82290000Y-69500000D02*
X82290000Y-72900000D01*
X82290000Y-72900000D02*
X82850000Y-73460000D01*
G04 #@! TO.N,Net-(J3-Pad4)*
X91290000Y-66960000D02*
X92465300Y-66960000D01*
X92465300Y-66960000D02*
X92465300Y-67327400D01*
X92465300Y-67327400D02*
X93273200Y-68135300D01*
X93273200Y-68135300D02*
X94148700Y-68135300D01*
X94148700Y-68135300D02*
X95540000Y-69526600D01*
X95540000Y-69526600D02*
X95540000Y-76000000D01*
G04 #@! TD*
M02*
